<?xml version="1.0" encoding="UTF-8"?>
<svg width="24px" height="24px" viewBox="0 0 24 24" version="1.1" xmlns="http://www.w3.org/2000/svg" xmlns:xlink="http://www.w3.org/1999/xlink">
    <title>⭕ Action / Add User Permissions</title>
    <defs>
        <path d="M18,8 C18.55,8 19,8.45 19,9 L19,11.9906311 C19,12.5480902 18.5561352,13 18,13 L18,13 C17.4477153,13 17,12.5573397 17,12.0010434 L17,10 L5,10 L5,20 L10.9970707,20 C11.5509732,20 12,20.4438648 12,21 L12,21 C12,21.5522847 11.5469637,22 11.0029699,22 L4,22 C3.45,22 3,21.55 3,21 L3,9 C3,8.45 3.45,8 4,8 L18,8 Z M18,15 C18.55,15 19,15.45 19,16 L19,18 L21,18 C21.55,18 22,18.45 22,19 C22,19.55 21.55,20 21,20 L19,20 L19,22 C19,22.55 18.55,23 18,23 C17.45,23 17,22.55 17,22 L17,20 L15,20 C14.45,20 14,19.55 14,19 C14,18.45 14.45,18 15,18 L17,18 L17,16 C17,15.45 17.45,15 18,15 Z M11,12 C12.1,12 13,12.9 13,14 C13,14.75 12.6,15.4 12,15.7 L12,17 C12,17.55 11.55,18 11,18 C10.45,18 10,17.55 10,17 L10,15.7 C9.4,15.35 9,14.7 9,14 C9,12.9 9.9,12 11,12 Z M11.05,2 C13.75,2 16,4.25 16,7 L16,8 L14,8 L14,7 C14,5.35 12.65,4 11,4 C9.95,4 8.95,4.6 8.4,5.5 C8.1,6 7.5,6.15 7.05,5.85 C6.55,5.55 6.4,4.95 6.7,4.5 C7.6,2.95 9.25,2 11.05,2 Z" id="path-1"></path>
    </defs>
    <g id="⭕-Action-/-Add-User-Permissions" stroke="none" stroke-width="1" fill="none" fill-rule="evenodd">
        <mask id="mask-2" fill="white">
            <use xlink:href="#path-1"></use>
        </mask>
        <use id="Color" fill="#333333" xlink:href="#path-1"></use>
    </g>
</svg>