<?xml version="1.0" encoding="UTF-8"?>
<svg width="24px" height="24px" viewBox="0 0 24 24" version="1.1" xmlns="http://www.w3.org/2000/svg" xmlns:xlink="http://www.w3.org/1999/xlink">
    <title>⭕ Action / Add Expense</title>
    <defs>
        <path d="M22,17 C22,17.55 21.55,18 21,18 L19,18 L19,20 C19,20.55 18.55,21 18,21 C17.45,21 17,20.55 17,20 L17,18 L15,18 C14.45,18 14,17.55 14,17 C14,16.45 14.45,16 15,16 L17,16 L17,14 C17,13.45 17.45,13 18,13 C18.55,13 19,13.45 19,14 L19,16 L21,16 C21.55,16 22,16.45 22,17 Z M21,4 L3,4 C2.45,4 2,4.45 2,5 L2,17 C2,17.55 2.45,18 3,18 L11,18 C11.55,18 12,17.55 12,17 C12,16.45 11.55,16 11,16 L6.95,16 C7,15.85 7,15.65 7,15.5 C7,14.1 5.9,13 4.5,13 C4.35,13 4.15,13 4,13.05 L4,8.95 C4.15,9 4.35,9 4.5,9 C5.9,9 7,7.9 7,6.5 C7,6.35 7,6.15 6.95,6 L17.05,6 C17,6.15 17,6.35 17,6.5 C17,7.9 18.1,9 19.5,9 C19.65,9 19.85,9 20,8.95 L20,10 C20,10.55 20.45,11 21,11 C21.55,11 22,10.55 22,10 L22,5 C22,4.45 21.55,4 21,4 Z M15,11 C15,9.35 13.65,8 12,8 C10.35,8 9,9.35 9,11 C9,12.65 10.35,14 12,14 C13.65,14 15,12.65 15,11 Z" id="path-1"></path>
    </defs>
    <g id="⭕-Action-/-Add-Expense" stroke="none" stroke-width="1" fill="none" fill-rule="evenodd">
        <mask id="mask-2" fill="white">
            <use xlink:href="#path-1"></use>
        </mask>
        <use id="Color" fill="#333333" xlink:href="#path-1"></use>
    </g>
</svg>