<?xml version="1.0" encoding="UTF-8"?>
<svg width="24px" height="24px" viewBox="0 0 24 24" version="1.1" xmlns="http://www.w3.org/2000/svg" xmlns:xlink="http://www.w3.org/1999/xlink">
    <title>⭕ Action / Add Note</title>
    <defs>
        <path d="M15,9.5 C15.55,9.5 16,9.95 16,10.5 C16,11.05 15.55,11.5 15,11.5 L9,11.5 C8.45,11.5 8,11.05 8,10.5 C8,9.95 8.45,9.5 9,9.5 L15,9.5 Z M11,13.5 L9,13.5 C8.45,13.5 8,13.95 8,14.5 C8,15.05 8.45,15.5 9,15.5 L11,15.5 C11.55,15.5 12,15.05 12,14.5 C12,13.95 11.55,13.5 11,13.5 Z M10,20 L6,20 L6,4 L14,4 L14,7 C14,7.55 14.45,8 15,8 L18,8 L18,11 C18,11.55 18.45,12 19,12 C19.55,12 20,11.55 20,11 L20,6.5 C20,6.25 19.9,6 19.7,5.8 L16.2,2.3 C16.05,2.15 15.9,2.05 15.7,2.05 L15.5,2.05 L5,2.05 C4.45,2 4,2.45 4,3 L4,21 C4,21.25 4.1,21.5 4.3,21.7 C4.5,21.9 4.75,22 5,22 L10,22 C10.55,22 11,21.55 11,21 C11,20.45 10.55,20 10,20 Z M20,16.5 L17.5,16.5 L17.5,14 C17.5,13.45 17.05,13 16.5,13 C15.95,13 15.5,13.45 15.5,14 L15.5,16.5 L13,16.5 C12.45,16.5 12,16.95 12,17.5 C12,18.05 12.45,18.5 13,18.5 L15.5,18.5 L15.5,21 C15.5,21.55 15.95,22 16.5,22 C17.05,22 17.5,21.55 17.5,21 L17.5,18.5 L20,18.5 C20.55,18.5 21,18.05 21,17.5 C21,16.95 20.55,16.5 20,16.5 Z" id="path-1"></path>
    </defs>
    <g id="⭕-Action-/-Add-Note" stroke="none" stroke-width="1" fill="none" fill-rule="evenodd">
        <mask id="mask-2" fill="white">
            <use xlink:href="#path-1"></use>
        </mask>
        <use id="Color" fill="#333333" xlink:href="#path-1"></use>
    </g>
</svg>