<?xml version="1.0" encoding="UTF-8"?>
<svg width="24px" height="24px" viewBox="0 0 24 24" version="1.1" xmlns="http://www.w3.org/2000/svg" xmlns:xlink="http://www.w3.org/1999/xlink">
    <title>⭕ Action / Add Manage Seat</title>
    <g id="⭕-Action-/-Add-Manage-Seat" stroke="none" stroke-width="1" fill="none" fill-rule="evenodd">
        <path d="M8.75,13.2 C9.2,13.8 9.6,14.45 9.9,15.1 C9.3,15.7 8.4,16.15 7.5,16.15 C5.7,16.15 4.2,14.65 4.2,12.8 C4.2,11.65 4.8,10.6 5.65,10 C6.15,10.4 6.6,10.8 7.05,11.25 C6.4,11.4 5.9,12 5.9,12.7 C5.9,13.5 6.55,14.2 7.35,14.2 C8,14.15 8.55,13.75 8.75,13.2 Z M5.65,6.7 C7.8,7.15 9.8,8 11.5,9 C11.75,9.15 11.9,9.25 12.1,9.35 C12.15,9.4 12.25,9.4 12.35,9.4 C12.45,9.4 12.5,9.4 12.6,9.35 C12.75,9.25 12.95,9.1 13.2,9 C14.85,8 16.9,7.15 19.05,6.7 C19.2,6.65 19.45,6.6 19.5,6.45 C19.55,6.3 19.35,6.05 19.25,5.95 C17.3,4.3 14.95,3.5 12.45,3.5 L12.25,3.5 L12.05,3.5 C9.6,3.5 7.25,4.3 5.4,5.95 C5.3,6.05 5.1,6.3 5.15,6.45 C5.25,6.6 5.5,6.65 5.65,6.7 L5.65,6.7 Z M3.55,12.9 C3.55,11.8 4,10.75 4.75,9.95 C4.85,9.85 4.9,9.7 4.9,9.6 C4.9,9.45 4.8,9.35 4.7,9.25 C4.4,9.05 4.05,8.85 3.75,8.7 C3.7,8.65 3.6,8.65 3.55,8.65 C3.4,8.65 3.25,8.75 3.15,8.9 C2.4,10.4 2,12.1 2,13.8 C2,14.3 2.05,14.85 2.1,15.35 C2.1,15.5 2.25,15.65 2.4,15.7 C2.65,15.8 2.85,15.85 3.1,15.85 C3.4,15.85 3.65,15.8 3.95,15.65 C4.05,15.6 4.15,15.5 4.2,15.35 C4.25,15.25 4.2,15.1 4.15,15 C3.75,14.4 3.55,13.65 3.55,12.9 L3.55,12.9 Z M21.45,7.85 C21.5,7.85 21.5,7.85 21.55,7.8 C21.8,7.7 21.9,7.6 21.95,7.5 C21.95,7.45 22,7.45 22,7.4 L22,7.35 L22,7.3 C22,7.2 21.9,7 21.5,6.95 C21.5,6.95 21.5,6.95 21.45,6.95 C19.55,6.95 18.65,7.3 16.9,7.95 C14.75,8.75 13.15,9.75 12.55,10.2 C12.45,10.25 12.4,10.3 12.3,10.3 C12.2,10.3 12.05,10.2 11.95,10.15 C11.25,9.7 9.75,8.75 7.65,7.95 C5.9,7.3 5,6.95 3.1,6.95 C3.1,6.95 3.1,6.95 3.05,6.95 C2.65,7 2.55,7.2 2.55,7.3 L2.55,7.35 L2.55,7.4 C2.55,7.45 2.55,7.45 2.6,7.5 C2.65,7.6 2.75,7.7 3,7.8 C3.05,7.8 3.05,7.8 3.1,7.85 C5.35,8.7 6.75,9.9 8.05,11.15 C9.75,12.9 10.9,15.5 11.55,18.1 C11.65,18.4 11.9,18.5 12.15,18.5 L12.2,18.5 L12.25,18.5 L12.3,18.5 L12.35,18.5 C12.55,18.5 12.85,18.4 12.95,18.1 C13.65,15.5 14.75,12.9 16.45,11.15 C17.75,9.85 19.2,8.7 21.45,7.85 L21.45,7.85 Z M21,16 L19.5,16 L19.5,14.5 C19.5,13.95 19.05,13.5 18.5,13.5 C17.95,13.5 17.5,13.95 17.5,14.5 L17.5,16 L16,16 C15.45,16 15,16.45 15,17 C15,17.55 15.45,18 16,18 L17.5,18 L17.5,19.5 C17.5,20.05 17.95,20.5 18.5,20.5 C19.05,20.5 19.5,20.05 19.5,19.5 L19.5,18 L21,18 C21.55,18 22,17.55 22,17 C22,16.45 21.55,16 21,16 Z" id="Color" fill="#333333"></path>
    </g>
</svg>