<?xml version="1.0" encoding="UTF-8"?>
<svg width="24px" height="24px" viewBox="0 0 24 24" version="1.1" xmlns="http://www.w3.org/2000/svg" xmlns:xlink="http://www.w3.org/1999/xlink">
    <title>⭕ Action / Add Activity</title>
    <g id="⭕-Action-/-Add-Activity" stroke="none" stroke-width="1" fill="none" fill-rule="evenodd">
        <path d="M16.92,14.1 C17.4722847,14.1 17.92,14.5477153 17.92,15.1 L17.92,15.1 L17.92,17.075 L19.92,17.075 C20.4722847,17.075 20.92,17.5227153 20.92,18.075 C20.92,18.6272847 20.4722847,19.075 19.92,19.075 L19.92,19.075 L17.92,19.075 L17.92,21.1 C17.92,21.6522847 17.4722847,22.1 16.92,22.1 C16.3677153,22.1 15.92,21.6522847 15.92,21.1 L15.92,21.1 L15.92,19.075 L13.92,19.075 C13.3677153,19.075 12.92,18.6272847 12.92,18.075 C12.92,17.5227153 13.3677153,17.075 13.92,17.075 L13.92,17.075 L15.92,17.075 L15.92,15.1 C15.92,14.5477153 16.3677153,14.1 16.92,14.1 Z M18,2 C18.5522847,2 19,2.44771525 19,3 L19,3 L19,11.05 C19,11.6022847 18.5522847,12.05 18,12.05 C17.4477153,12.05 17,11.6022847 17,11.05 L17,11.05 L17,4 L15,4 L15,5 C15,5.55228475 14.5522847,6 14,6 L14,6 L8,6 C7.44771525,6 7,5.55228475 7,5 L7,5 L7,4 L5,4 L5,20 L9.92,20 C10.4722847,20 10.92,20.4477153 10.92,21 C10.92,21.5522847 10.4722847,22 9.92,22 L9.92,22 L4,22 C3.44771525,22 3,21.5522847 3,21 L3,21 L3,3 C3,2.44771525 3.44771525,2 4,2 L4,2 Z M12,15.5 C12.5522847,15.5 13,15.9477153 13,16.5 C13,17.0522847 12.5522847,17.5 12,17.5 L12,17.5 L10.5,17.5 C9.94771525,17.5 9.5,17.0522847 9.5,16.5 C9.5,15.9477153 9.94771525,15.5 10.5,15.5 L10.5,15.5 Z M7.5,15.5 C8.05228475,15.5 8.5,15.9477153 8.5,16.5 C8.5,17.0522847 8.05228475,17.5 7.5,17.5 C6.94771525,17.5 6.5,17.0522847 6.5,16.5 C6.5,15.9477153 6.94771525,15.5 7.5,15.5 Z M14.5,12 C15.0522847,12 15.5,12.4477153 15.5,13 C15.5,13.5522847 15.0522847,14 14.5,14 L14.5,14 L10.5,14 C9.94771525,14 9.5,13.5522847 9.5,13 C9.5,12.4477153 9.94771525,12 10.5,12 L10.5,12 Z M7.5,12 C8.05228475,12 8.5,12.4477153 8.5,13 C8.5,13.5522847 8.05228475,14 7.5,14 C6.94771525,14 6.5,13.5522847 6.5,13 C6.5,12.4477153 6.94771525,12 7.5,12 Z M14.5,8.5 C15.0522847,8.5 15.5,8.94771525 15.5,9.5 C15.5,10.0522847 15.0522847,10.5 14.5,10.5 L14.5,10.5 L10.5,10.5 C9.94771525,10.5 9.5,10.0522847 9.5,9.5 C9.5,8.94771525 9.94771525,8.5 10.5,8.5 L10.5,8.5 Z M7.5,8.5 C8.05228475,8.5 8.5,8.94771525 8.5,9.5 C8.5,10.0522847 8.05228475,10.5 7.5,10.5 C6.94771525,10.5 6.5,10.0522847 6.5,9.5 C6.5,8.94771525 6.94771525,8.5 7.5,8.5 Z" id="Color" fill="#333333"></path>
    </g>
</svg>