<?xml version="1.0" encoding="UTF-8"?>
<svg width="24px" height="24px" viewBox="0 0 24 24" version="1.1" xmlns="http://www.w3.org/2000/svg" xmlns:xlink="http://www.w3.org/1999/xlink">
    <title>⭕ Action / Add Opportunity</title>
    <g id="⭕-Action-/-Add-Opportunity" stroke="none" stroke-width="1" fill="none" fill-rule="evenodd">
        <path d="M16.65,5.1 L13.3,5.1 C12.35,5.1 11.5,5.4 10.8,5.9 C10.3,4.25 8.8,3 6.95,3 L4,3 C3.45,3 3,3.45 3,4 L3,7 C3,9.2 4.8,11 7,11 L9,11 L9,20 C9,20.55 9.45,21 10,21 C10.55,21 11,20.55 11,20 L11,13.75 L13.35,13.75 C15.75,13.75 17.7,11.8 17.7,9.4 L17.7,6.05 C17.65,5.55 17.2,5.1 16.65,5.1 Z M5,7 L5,5 L7,5 C8.1,5 9,5.9 9,7 L9,7.55 L8.05,6.6 C7.65,6.2 7.05,6.2 6.65,6.6 C6.25,7 6.25,7.6 6.65,8 L7.6,8.95 L7,8.95 C5.9,9 5,8.1 5,7 Z M15.65,9.4 C15.65,10.7 14.6,11.75 13.3,11.75 L12.35,11.75 L14,10.15 C14.4,9.75 14.4,9.15 14,8.75 C13.6,8.35 13,8.35 12.6,8.75 L11,10.3 L11,9.4 C11,8.1 12.05,7.05 13.35,7.05 L15.7,7.05 L15.65,9.4 L15.65,9.4 Z M22,17 C22,17.55 21.55,18 21,18 L19,18 L19,20 C19,20.55 18.55,21 18,21 C17.45,21 17,20.55 17,20 L17,18 L15,18 C14.45,18 14,17.55 14,17 C14,16.45 14.45,16 15,16 L17,16 L17,14 C17,13.45 17.45,13 18,13 C18.55,13 19,13.45 19,14 L19,16 L21,16 C21.55,16 22,16.45 22,17 Z" id="Color" fill="#333333"></path>
    </g>
</svg>