<?xml version="1.0" encoding="UTF-8"?>
<svg width="24px" height="24px" viewBox="0 0 24 24" version="1.1" xmlns="http://www.w3.org/2000/svg" xmlns:xlink="http://www.w3.org/1999/xlink">
    <title>⭕ Action / Advance Stage</title>
    <g id="⭕-Action-/-Advance-Stage" stroke="none" stroke-width="1" fill="none" fill-rule="evenodd">
        <path d="M20,3 L4,3 C3.45,3 3,3.45 3,4 L3,20 C3,20.55 3.45,21 4,21 L20,21 C20.55,21 21,20.55 21,20 L21,4 C21,3.45 20.55,3 20,3 Z M19,19 L5,19 L5,13 L13.6,13 L11.3,15.3 C10.85,15.65 10.75,16.25 11.1,16.7 C11.45,17.15 12.05,17.25 12.5,16.9 C12.6,16.85 12.65,16.8 12.7,16.7 L16.7,12.7 C17.1,12.3 17.1,11.7 16.7,11.3 L12.7,7.3 C12.25,6.95 11.65,7.05 11.3,7.5 C11.05,7.85 11.05,8.35 11.3,8.7 L13.6,11 L5,11 L5,5 L19,5 L19,19 Z" id="Color" fill="#333333"></path>
    </g>
</svg>