<?xml version="1.0" encoding="UTF-8"?>
<svg width="24px" height="24px" viewBox="0 0 24 24" version="1.1" xmlns="http://www.w3.org/2000/svg" xmlns:xlink="http://www.w3.org/1999/xlink">
    <title>⭕ Action / Align Center</title>
    <defs>
        <path d="M3,4 C3,3.45 3.45,3 4,3 L20,3 C20.55,3 21,3.45 21,4 C21,4.55 20.55,5 20,5 L4,5 C3.45,5 3,4.55 3,4 Z M7,7 C6.45,7 6,7.45 6,8 C6,8.55 6.45,9 7,9 L17,9 C17.55,9 18,8.55 18,8 C18,7.45 17.55,7 17,7 L7,7 Z M20,11 L4,11 C3.45,11 3,11.45 3,12 C3,12.55 3.45,13 4,13 L20,13 C20.55,13 21,12.55 21,12 C21,11.45 20.55,11 20,11 Z M20,19 L4,19 C3.45,19 3,19.45 3,20 C3,20.55 3.45,21 4,21 L20,21 C20.55,21 21,20.55 21,20 C21,19.45 20.55,19 20,19 Z M17,17 C17.55,17 18,16.55 18,16 C18,15.45 17.55,15 17,15 L7,15 C6.45,15 6,15.45 6,16 C6,16.55 6.45,17 7,17 L17,17 Z" id="path-1"></path>
    </defs>
    <g id="⭕-Action-/-Align-Center" stroke="none" stroke-width="1" fill="none" fill-rule="evenodd">
        <mask id="mask-2" fill="white">
            <use xlink:href="#path-1"></use>
        </mask>
        <use id="Color" fill="#333333" xlink:href="#path-1"></use>
    </g>
</svg>