<?xml version="1.0" encoding="UTF-8"?>
<svg width="24px" height="24px" viewBox="0 0 24 24" version="1.1" xmlns="http://www.w3.org/2000/svg" xmlns:xlink="http://www.w3.org/1999/xlink">
    <title>⭕ Action / Apply</title>
    <defs>
        <path d="M12,2 C6.5,2 2,6.5 2,12 C2,17.5 6.5,22 12,22 C17.5,22 22,17.5 22,12 C22,6.5 17.5,2 12,2 Z M12,20 C7.6,20 4,16.4 4,12 C4,7.6 7.6,4 12,4 C16.4,4 20,7.6 20,12 C20,16.4 16.4,20 12,20 Z M15.95,9.15 C16.35,9.55 16.35,10.15 15.95,10.55 L11,15.5 C10.8,15.7 10.55,15.8 10.3,15.8 C10.05,15.8 9.8,15.7 9.6,15.5 L7.35,13.25 C6.95,12.85 6.95,12.25 7.35,11.85 C7.75,11.45 8.35,11.45 8.75,11.85 L10.3,13.4 L14.55,9.15 C14.95,8.75 15.55,8.75 15.95,9.15 L15.95,9.15 Z" id="path-1"></path>
    </defs>
    <g id="⭕-Action-/-Apply" stroke="none" stroke-width="1" fill="none" fill-rule="evenodd">
        <mask id="mask-2" fill="white">
            <use xlink:href="#path-1"></use>
        </mask>
        <use id="Color" fill="#333333" xlink:href="#path-1"></use>
    </g>
</svg>