<?xml version="1.0" encoding="UTF-8"?>
<svg width="24px" height="24px" viewBox="0 0 24 24" version="1.1" xmlns="http://www.w3.org/2000/svg" xmlns:xlink="http://www.w3.org/1999/xlink">
    <title>⭕ Action / Archive</title>
    <defs>
        <path d="M19,2 L5,2 C4.45,2 4,2.45 4,3 L4,21 C4,21.25 4.1,21.5 4.3,21.7 C4.5,21.9 4.75,22 5,22 L19,22 C19.55,22 20,21.55 20,21 L20,3 C20,2.45 19.55,2 19,2 Z M18,20 L6,20 L6,4 L18,4 L18,20 Z M11,7.5 L11,5.5 L13,5.5 L13,7.5 L11,7.5 Z M11,11 L11,9 L13,9 L13,11 L11,11 Z M12,17 C12.85,17 13.5,16.35 13.5,15.5 C13.5,15.35 13.45,15.2 13.45,15.05 L13,12.5 L11,12.5 L10.55,15.05 C10.55,15.2 10.5,15.35 10.5,15.5 C10.5,16.35 11.15,17 12,17 Z M12,16 C11.7,16 11.5,15.8 11.5,15.5 C11.5,15.2 11.7,15 12,15 C12.3,15 12.5,15.2 12.5,15.5 C12.5,15.8 12.3,16 12,16 Z" id="path-1"></path>
    </defs>
    <g id="⭕-Action-/-Archive" stroke="none" stroke-width="1" fill="none" fill-rule="evenodd">
        <mask id="mask-2" fill="white">
            <use xlink:href="#path-1"></use>
        </mask>
        <use id="Color" fill="#333333" xlink:href="#path-1"></use>
    </g>
</svg>