<?xml version="1.0" encoding="UTF-8"?>
<svg width="24px" height="24px" viewBox="0 0 24 24" version="1.1" xmlns="http://www.w3.org/2000/svg" xmlns:xlink="http://www.w3.org/1999/xlink">
    <title>⭕ Action / Attach</title>
    <defs>
        <path d="M18.5,8.5 L18.5,16 C18.5,19.3 15.8,22 12.5,22 C9.2,22 6.5,19.3 6.5,16 L6.5,6.5 C6.5,4 8.5,2 11,2 C13.5,2 15.5,4 15.5,6.5 L15.5,14.5 C15.5,16.15 14.15,17.5 12.5,17.5 C10.85,17.5 9.5,16.15 9.5,14.5 L9.5,8.5 C9.5,7.95 9.95,7.5 10.5,7.5 C11.05,7.5 11.5,7.95 11.5,8.5 L11.5,14.5 C11.5,15.05 11.95,15.5 12.5,15.5 C13.05,15.5 13.5,15.05 13.5,14.5 L13.5,6.5 C13.5,5.1 12.4,4 11,4 C9.6,4 8.5,5.1 8.5,6.5 L8.5,16 C8.5,18.2 10.3,20 12.5,20 C14.7,20 16.5,18.2 16.5,16 L16.5,8.5 C16.5,7.95 16.95,7.5 17.5,7.5 C18.05,7.5 18.5,7.95 18.5,8.5 Z" id="path-1"></path>
    </defs>
    <g id="⭕-Action-/-Attach" stroke="none" stroke-width="1" fill="none" fill-rule="evenodd">
        <mask id="mask-2" fill="white">
            <use xlink:href="#path-1"></use>
        </mask>
        <use id="Color" fill="#333333" xlink:href="#path-1"></use>
    </g>
</svg>