<?xml version="1.0" encoding="UTF-8"?>
<svg width="24px" height="24px" viewBox="0 0 24 24" version="1.1" xmlns="http://www.w3.org/2000/svg" xmlns:xlink="http://www.w3.org/1999/xlink">
    <title>⭕ Action / Bold </title>
    <defs>
        <path d="M15.6,10.8 C16.55,10.15 17.25,9.05 17.25,8 C17.25,5.75 15.5,4 13.25,4 L11.5,4 L10,4 L8.5,4 C7.65,4 7,4.65 7,5.5 L7,16.5 C7,17.35 7.65,18 8.5,18 L10,18 L11.15,18 L14,18 C16.1,18 17.7,16.3 17.7,14.2 C17.75,12.7 16.9,11.4 15.6,10.8 Z M10,6.5 L13,6.5 C13.85,6.5 14.5,7.15 14.5,8 C14.5,8.85 13.85,9.5 13,9.5 L10,9.5 L10,6.5 Z M13.5,15.5 L10,15.5 L10,12.5 L13.5,12.5 C14.35,12.5 15,13.15 15,14 C15,14.85 14.35,15.5 13.5,15.5 Z" id="path-1"></path>
    </defs>
    <g id="⭕-Action-/-Bold-" stroke="none" stroke-width="1" fill="none" fill-rule="evenodd">
        <mask id="mask-2" fill="white">
            <use xlink:href="#path-1"></use>
        </mask>
        <use id="Color" fill="#333333" xlink:href="#path-1"></use>
    </g>
</svg>