<?xml version="1.0" encoding="UTF-8"?>
<svg width="24px" height="24px" viewBox="0 0 24 24" version="1.1" xmlns="http://www.w3.org/2000/svg" xmlns:xlink="http://www.w3.org/1999/xlink">
    <title>⭕ Action / Bulleted list </title>
    <defs>
        <path d="M5,6 C5,6.55 4.55,7 4,7 C3.45,7 3,6.55 3,6 C3,5.45 3.45,5 4,5 C4.55,5 5,5.45 5,6 Z M4,11 C3.45,11 3,11.45 3,12 C3,12.55 3.45,13 4,13 C4.55,13 5,12.55 5,12 C5,11.45 4.55,11 4,11 Z M4,17 C3.45,17 3,17.45 3,18 C3,18.55 3.45,19 4,19 C4.55,19 5,18.55 5,18 C5,17.45 4.55,17 4,17 Z M8,7 L20,7 C20.55,7 21,6.55 21,6 C21,5.45 20.55,5 20,5 L8,5 C7.45,5 7,5.45 7,6 C7,6.55 7.45,7 8,7 Z M20,11 L8,11 C7.45,11 7,11.45 7,12 C7,12.55 7.45,13 8,13 L20,13 C20.55,13 21,12.55 21,12 C21,11.45 20.55,11 20,11 Z M20,17 L8,17 C7.45,17 7,17.45 7,18 C7,18.55 7.45,19 8,19 L20,19 C20.55,19 21,18.55 21,18 C21,17.45 20.55,17 20,17 Z" id="path-1"></path>
    </defs>
    <g id="⭕-Action-/-Bulleted-list-" stroke="none" stroke-width="1" fill="none" fill-rule="evenodd">
        <mask id="mask-2" fill="white">
            <use xlink:href="#path-1"></use>
        </mask>
        <use id="Color" fill="#333333" xlink:href="#path-1"></use>
    </g>
</svg>