<?xml version="1.0" encoding="UTF-8"?>
<svg width="24px" height="24px" viewBox="0 0 24 24" version="1.1" xmlns="http://www.w3.org/2000/svg" xmlns:xlink="http://www.w3.org/1999/xlink">
    <title>⭕ Action / Chat</title>
    <defs>
        <path d="M20,4 L4,4 C3.45,4 3,4.45 3,5 L3,17 C3,17.55 3.45,18 4,18 L7,18 L7,21 C7,21.4 7.25,21.75 7.6,21.9 C7.7,21.95 7.85,22 8,22 C8.25,22 8.5,21.9 8.7,21.7 L12.4,18 L20,18 C20.55,18 21,17.55 21,17 L21,5 C21,4.45 20.55,4 20,4 Z M19,6 L19,16 L11.7,16 C11.65,16 11.65,16 11.6,16.05 C11.55,16.05 11.55,16.1 11.5,16.1 C11.45,16.1 11.45,16.15 11.4,16.15 L11.25,16.3 L11.25,16.3 L9,18.6 L9,17 C9,16.45 8.55,16 8,16 L5,16 L5,6 L19,6 Z M8,10 C7.44771525,10 7,10.4477153 7,11 C7,11.5522847 7.44771525,12 8,12 C8.55228475,12 9,11.5522847 9,11 C9,10.4477153 8.55228475,10 8,10 Z M12,10 C11.4477153,10 11,10.4477153 11,11 C11,11.5522847 11.4477153,12 12,12 C12.5522847,12 13,11.5522847 13,11 C13,10.4477153 12.5522847,10 12,10 Z M16,10 C15.4477153,10 15,10.4477153 15,11 C15,11.5522847 15.4477153,12 16,12 C16.5522847,12 17,11.5522847 17,11 C17,10.4477153 16.5522847,10 16,10 Z" id="path-1"></path>
    </defs>
    <g id="⭕-Action-/-Chat" stroke="none" stroke-width="1" fill="none" fill-rule="evenodd">
        <mask id="mask-2" fill="white">
            <use xlink:href="#path-1"></use>
        </mask>
        <use id="Color" fill="#333333" xlink:href="#path-1"></use>
    </g>
</svg>