<?xml version="1.0" encoding="UTF-8"?>
<svg width="24px" height="24px" viewBox="0 0 24 24" version="1.1" xmlns="http://www.w3.org/2000/svg" xmlns:xlink="http://www.w3.org/1999/xlink">
    <title>⭕ Action / Checkbox</title>
    <defs>
        <path d="M22,3.42857143 L22,20.5714286 C22,21.3571429 21.3571429,22 20.5714286,22 L3.42857143,22 C2.64285714,22 2,21.3571429 2,20.5714286 L2,3.42857143 C2,2.64285714 2.64285714,2 3.42857143,2 L20.5714286,2 C21.3571429,2 22,2.64285714 22,3.42857143 Z M20,4 L4,4 L4,20 L20,20 L20,4 Z M11.2857143,15.5714286 C11.6428571,15.5714286 12,15.4285714 12.2857143,15.1428571 L16.5714286,10.8571429 C17.1428571,10.2857143 17.1428571,9.42857143 16.5714286,8.85714286 C16,8.28571429 15.1428571,8.28571429 14.5714286,8.85714286 L11.2857143,12.1428571 L10.1428571,11 C9.57142857,10.4285714 8.71428571,10.4285714 8.14285714,11 C7.57142857,11.5714286 7.57142857,12.4285714 8.14285714,13 L10.2857143,15.1428571 C10.5714286,15.4285714 10.9285714,15.5714286 11.2857143,15.5714286 Z" id="path-1"></path>
    </defs>
    <g id="⭕-Action-/-Checkbox" stroke="none" stroke-width="1" fill="none" fill-rule="evenodd">
        <mask id="mask-2" fill="white">
            <use xlink:href="#path-1"></use>
        </mask>
        <use id="Color" fill="#333333" xlink:href="#path-1"></use>
    </g>
</svg>