<?xml version="1.0" encoding="UTF-8"?>
<svg width="24px" height="24px" viewBox="0 0 24 24" version="1.1" xmlns="http://www.w3.org/2000/svg" xmlns:xlink="http://www.w3.org/1999/xlink">
    <title>⭕ Action / Chevron Double Right</title>
    <g id="⭕-Action-/-Chevron-Double-Right" stroke="none" stroke-width="1" fill="none" fill-rule="evenodd">
        <path d="M11.7,12.7 L5.7,18.7 C5.5,18.9 5.25,19 5,19 C4.75,19 4.5,18.9 4.3,18.7 C3.9,18.3 3.9,17.7 4.3,17.3 L9.6,12 L4.3,6.7 C3.9,6.3 3.9,5.7 4.3,5.3 C4.7,4.9 5.3,4.9 5.7,5.3 L11.7,11.3 C12.1,11.7 12.1,12.3 11.7,12.7 L11.7,12.7 Z M19.7,12.7 L13.7,18.7 C13.5,18.9 13.25,19 13,19 C12.75,19 12.5,18.9 12.3,18.7 C11.9,18.3 11.9,17.7 12.3,17.3 L17.6,12 L12.3,6.7 C11.9,6.3 11.9,5.7 12.3,5.3 C12.7,4.9 13.3,4.9 13.7,5.3 L19.7,11.3 C20.1,11.7 20.1,12.3 19.7,12.7 L19.7,12.7 Z" id="Color" fill="#333333"></path>
    </g>
</svg>