<?xml version="1.0" encoding="UTF-8"?>
<svg width="24px" height="24px" viewBox="0 0 24 24" version="1.1" xmlns="http://www.w3.org/2000/svg" xmlns:xlink="http://www.w3.org/1999/xlink">
    <title>⭕ Action / Chevron Double Up</title>
    <g id="⭕-Action-/-Chevron-Double-Up" stroke="none" stroke-width="1" fill="none" fill-rule="evenodd">
        <path d="M12.7,11.6925 L18.7,17.5425 C18.9,17.7375 19,17.98125 19,18.225 C19,18.46875 18.9,18.7125 18.7,18.9075 C18.3,19.2975 17.7,19.2975 17.3,18.9075 L12,13.74 L6.7,18.9075 C6.3,19.2975 5.7,19.2975 5.3,18.9075 C4.9,18.5175 4.9,17.9325 5.3,17.5425 L11.3,11.6925 C11.7,11.3025 12.3,11.3025 12.7,11.6925 Z M12.7,3.8925 L18.7,9.7425 C18.9,9.9375 19,10.18125 19,10.425 C19,10.66875 18.9,10.9125 18.7,11.1075 C18.3,11.4975 17.7,11.4975 17.3,11.1075 L12,5.94 L6.7,11.1075 C6.3,11.4975 5.7,11.4975 5.3,11.1075 C4.9,10.7175 4.9,10.1325 5.3,9.7425 L11.3,3.8925 C11.7,3.5025 12.3,3.5025 12.7,3.8925 Z" id="Color" fill="#333333"></path>
    </g>
</svg>