<?xml version="1.0" encoding="UTF-8"?>
<svg width="24px" height="24px" viewBox="0 0 24 24" version="1.1" xmlns="http://www.w3.org/2000/svg" xmlns:xlink="http://www.w3.org/1999/xlink">
    <title>⭕ Action / Chevron Double Left</title>
    <g id="⭕-Action-/-Chevron-Double-Left" stroke="none" stroke-width="1" fill="none" fill-rule="evenodd">
        <path d="M19.7,17.3 C20.1,17.7 20.1,18.3 19.7,18.7 C19.3,19.1 18.7,19.1 18.3,18.7 L12.3,12.7 C11.9,12.3 11.9,11.7 12.3,11.3 L18.3,5.3 C18.5,5.1 18.75,5 19,5 C19.25,5 19.5,5.1 19.7,5.3 C20.1,5.7 20.1,6.3 19.7,6.7 L14.4,12 L19.7,17.3 Z M6.4,12 L11.7,6.7 C12.1,6.3 12.1,5.7 11.7,5.3 C11.5,5.1 11.25,5 11,5 C10.75,5 10.5,5.1 10.3,5.3 L4.3,11.3 C3.9,11.7 3.9,12.3 4.3,12.7 L10.3,18.7 C10.7,19.1 11.3,19.1 11.7,18.7 C12.1,18.3 12.1,17.7 11.7,17.3 L6.4,12 Z" id="Color" fill="#333333"></path>
    </g>
</svg>