<?xml version="1.0" encoding="UTF-8"?>
<svg width="24px" height="24px" viewBox="0 0 24 24" version="1.1" xmlns="http://www.w3.org/2000/svg" xmlns:xlink="http://www.w3.org/1999/xlink">
    <title>⭕ Action / Chevron Double Down</title>
    <g id="⭕-Action-/-Chevron-Double-Down" stroke="none" stroke-width="1" fill="none" fill-rule="evenodd">
        <path d="M11.3,11.7 L5.3,5.7 C5.1,5.5 5,5.25 5,5 C5,4.75 5.1,4.5 5.3,4.3 C5.7,3.9 6.3,3.9 6.7,4.3 L12,9.6 L17.3,4.3 C17.7,3.9 18.3,3.9 18.7,4.3 C19.1,4.7 19.1,5.3 18.7,5.7 L12.7,11.7 C12.3,12.1 11.7,12.1 11.3,11.7 Z M11.3,19.7 L5.3,13.7 C5.1,13.5 5,13.25 5,13 C5,12.75 5.1,12.5 5.3,12.3 C5.7,11.9 6.3,11.9 6.7,12.3 L12,17.6 L17.3,12.3 C17.7,11.9 18.3,11.9 18.7,12.3 C19.1,12.7 19.1,13.3 18.7,13.7 L12.7,19.7 C12.3,20.1 11.7,20.1 11.3,19.7 Z" id="Color" fill="#333333"></path>
    </g>
</svg>