<?xml version="1.0" encoding="UTF-8"?>
<svg width="24px" height="24px" viewBox="0 0 24 24" version="1.1" xmlns="http://www.w3.org/2000/svg" xmlns:xlink="http://www.w3.org/1999/xlink">
    <title>⭕ Action / Clear Daytime Patching</title>
    <defs>
        <path d="M18.65,12.8 C18.95,12.5 19.4,12.5 19.7,12.8 C20,13.1 20,13.55 19.7,13.85 L19.35,14.2 C19.2,14.35 19,14.4 18.8,14.4 C18.6,14.4 18.4,14.35 18.25,14.2 C17.95,13.9 17.95,13.45 18.25,13.15 L18.65,12.8 L18.65,12.8 Z M13.15,18.25 L12.8,18.6 C12.5,18.9 12.5,19.35 12.8,19.65 C12.95,19.8 13.15,19.85 13.35,19.85 C13.55,19.85 13.75,19.8 13.9,19.65 L14.25,19.3 C14.55,19 14.55,18.55 14.25,18.25 C13.95,17.95 13.45,17.95 13.15,18.25 L13.15,18.25 Z M13.75,16.25 C13.75,15.85 13.4,15.5 13,15.5 L12.25,15.5 C11.85,15.5 11.5,15.85 11.5,16.25 C11.5,16.65 11.85,17 12.25,17 L13,17 C13.4,17 13.75,16.65 13.75,16.25 L13.75,16.25 Z M18.75,16.25 C18.75,16.65 19.1,17 19.5,17 L20.25,17 C20.65,17 21,16.65 21,16.25 C21,15.85 20.65,15.5 20.25,15.5 L19.5,15.5 C19.1,15.5 18.75,15.85 18.75,16.25 Z M16.25,18.75 C15.85,18.75 15.5,19.1 15.5,19.5 L15.5,20.25 C15.5,20.65 15.85,21 16.25,21 C16.65,21 17,20.65 17,20.25 L17,19.5 C17,19.1 16.65,18.75 16.25,18.75 Z M15.5,12.25 L15.5,13 C15.5,13.4 15.85,13.75 16.25,13.75 C16.65,13.75 17,13.4 17,13 L17,12.25 C17,11.85 16.65,11.5 16.25,11.5 C15.85,11.5 15.5,11.85 15.5,12.25 Z M21.55,20.45 L18.1,17 C18.2,16.75 18.25,16.5 18.25,16.2 C18.25,15.1 17.35,14.2 16.25,14.2 C15.95,14.2 15.7,14.25 15.45,14.35 L8.05,7 L9,7 C9.55,7 10,6.55 10,6 L10,5 C10,4.5 10.5,4 11,4 C11.5,4 12,4.5 12,5 L12,6 C12,6.55 12.45,7 13,7 L17,7 L17,9.5 C17,10.05 17.45,10.5 18,10.5 C18.55,10.5 19,10.05 19,9.5 L19,6 C19,5.45 18.55,5 18,5 L14,5 C14,3.35 12.65,2 11,2 C9.35,2 8,3.35 8,5 L6.05,5 L3.55,2.45 C3.25,2.15 2.8,2.15 2.5,2.45 C2.2,2.75 2.2,3.2 2.5,3.5 L4,5 C3.4,5.05 3,5.45 3,6 L3,11 C3,11.55 3.45,12 4,12 L5,12 C5.5,12 6,12.5 6,13 C6,13.5 5.5,14 5,14 L4,14 C3.45,14 3,14.45 3,15 L3,20 C3,20.55 3.45,21 4,21 L9.5,21 C10.05,21 10.5,20.55 10.5,20 C10.5,19.45 10.05,19 9.5,19 L5,19 L5,16 C6.65,16 8,14.65 8,13 C8,11.35 6.65,10 5,10 L5,7 L5.95,7 L14.4,15.45 C14.3,15.7 14.25,15.95 14.25,16.25 C14.25,17.35 15.15,18.25 16.25,18.25 C16.55,18.25 16.8,18.2 17.05,18.1 L20.5,21.55 C20.65,21.7 20.85,21.75 21.05,21.75 C21.25,21.75 21.45,21.7 21.6,21.55 C21.8,21.25 21.8,20.75 21.55,20.45 Z" id="path-1"></path>
    </defs>
    <g id="⭕-Action-/-Clear-Daytime-Patching" stroke="none" stroke-width="1" fill="none" fill-rule="evenodd">
        <mask id="mask-2" fill="white">
            <use xlink:href="#path-1"></use>
        </mask>
        <use id="Color" fill="#333333" xlink:href="#path-1"></use>
    </g>
</svg>