<?xml version="1.0" encoding="UTF-8"?>
<svg width="24px" height="24px" viewBox="0 0 24 24" version="1.1" xmlns="http://www.w3.org/2000/svg" xmlns:xlink="http://www.w3.org/1999/xlink">
    <title>⭕ Action / Clear Filters</title>
    <defs>
        <path d="M21.7,18.3 C22.1,18.7 22.1,19.3 21.7,19.7 C21.5,19.9 21.25,20 21,20 C20.75,20 20.5,19.9 20.3,19.7 L19,18.4 L17.7,19.7 C17.5,19.9 17.25,20 17,20 C16.75,20 16.5,19.9 16.3,19.7 C15.9,19.3 15.9,18.7 16.3,18.3 L17.6,17 L16.3,15.7 C15.9,15.3 15.9,14.7 16.3,14.3 C16.7,13.9 17.3,13.9 17.7,14.3 L19,15.6 L20.3,14.3 C20.7,13.9 21.3,13.9 21.7,14.3 C22.1,14.7 22.1,15.3 21.7,15.7 L20.4,17 L21.7,18.3 Z M18.7,8.7 L14,13.4 L14,21 C14,21.4 13.75,21.75 13.4,21.9 C13.25,22 13.15,22 13,22 C12.75,22 12.5,21.9 12.3,21.7 L8.3,17.7 C8.1,17.5 8,17.25 8,17 L8,13.4 L3.3,8.7 C3.1,8.5 3,8.25 3,8 L3,3 C3,2.45 3.45,2 4,2 L18,2 C18.55,2 19,2.45 19,3 L19,8 C19,8.25 18.9,8.5 18.7,8.7 L18.7,8.7 Z M17,4 L5,4 L5,7.6 L9.7,12.3 C9.9,12.5 10,12.75 10,13 L10,16.6 L12,18.6 L12,13 C12,12.75 12.1,12.5 12.3,12.3 L17,7.6 L17,4 Z" id="path-1"></path>
    </defs>
    <g id="⭕-Action-/-Clear-Filters" stroke="none" stroke-width="1" fill="none" fill-rule="evenodd">
        <mask id="mask-2" fill="white">
            <use xlink:href="#path-1"></use>
        </mask>
        <use id="Color" fill="#333333" xlink:href="#path-1"></use>
    </g>
</svg>