<?xml version="1.0" encoding="UTF-8"?>
<svg width="24px" height="24px" viewBox="0 0 24 24" version="1.1" xmlns="http://www.w3.org/2000/svg" xmlns:xlink="http://www.w3.org/1999/xlink">
    <title>⭕ Action / Clear</title>
    <defs>
        <path d="M6.29997079,16.5485588 L10.5993573,11.9991966 L6.29997079,7.44983446 C5.90000974,7.04987341 5.95000487,6.3999367 6.29997079,6.04997079 C6.69993184,5.65000974 7.34986854,5.70000487 7.69983446,6.04997079 L11.999221,10.5493378 L16.2986075,6.04997079 C16.6985685,5.65000974 17.2985101,5.65000974 17.6984712,6.04997079 C18.0984322,6.44993184 18.0984322,7.04987341 17.6984712,7.44983446 C17.2985101,7.84979551 13.3990846,11.9991966 13.3990846,11.9991966 L17.7484663,16.5485588 C18.1484273,16.9485199 18.0984322,17.5984566 17.7484663,17.9484225 C17.5484858,18.148403 17.2985101,18.2483933 17.0485345,18.2483933 C16.7985588,18.2483933 16.5485831,18.148403 16.3486026,17.9484225 L11.999221,13.4490554 L7.69983446,17.9484225 C7.49985393,18.148403 7.24987828,18.2483933 6.99990262,18.2483933 C6.74992697,18.2483933 6.49995131,18.148403 6.29997079,17.9484225 C5.90000974,17.5984566 5.90000974,16.9485199 6.29997079,16.5485588 Z" id="path-1"></path>
    </defs>
    <g id="⭕-Action-/-Clear" stroke="none" stroke-width="1" fill="none" fill-rule="evenodd">
        <mask id="mask-2" fill="white">
            <use xlink:href="#path-1"></use>
        </mask>
        <use id="Color" fill="#333333" xlink:href="#path-1"></use>
    </g>
</svg>