<?xml version="1.0" encoding="UTF-8"?>
<svg width="24px" height="24px" viewBox="0 0 24 24" version="1.1" xmlns="http://www.w3.org/2000/svg" xmlns:xlink="http://www.w3.org/1999/xlink">
    <title>⭕ Action / Close Ticket</title>
    <defs>
        <path d="M16,9 C16,9.55 15.55,10 15,10 C14.45,10 14,9.55 14,9 C14,8.45 14.45,8 15,8 C15.55,8 16,8.45 16,9 Z M2.3,14.7 L9.3,21.7 C9.5,21.9 9.75,22 10,22 C10.25,22 10.5,21.9 10.7,21.7 C11.1,21.3 11.1,20.7 10.7,20.3 L4.4,14 L12.4,6 L18,6 L18,11.6 L16.8,12.8 C16.4,13.2 16.4,13.8 16.8,14.2 C17.2,14.6 17.8,14.6 18.2,14.2 L19.7,12.7 C19.9,12.5 20,12.25 20,12 L20,5 C20,4.45 19.55,4 19,4 L12,4 C11.75,4 11.5,4.1 11.3,4.3 L2.3,13.3 C1.9,13.7 1.9,14.3 2.3,14.7 L2.3,14.7 Z M18.2,16.3 C17.8,15.9 17.2,15.9 16.8,16.3 L15.5,17.6 L14.2,16.3 C13.8,15.9 13.2,15.9 12.8,16.3 C12.4,16.7 12.4,17.3 12.8,17.7 L14.1,19 L12.8,20.3 C12.4,20.7 12.4,21.3 12.8,21.7 C13,21.9 13.25,22 13.5,22 C13.75,22 14,21.9 14.2,21.7 L15.5,20.4 L16.8,21.7 C17,21.9 17.25,22 17.5,22 C17.75,22 18,21.9 18.2,21.7 C18.6,21.3 18.6,20.7 18.2,20.3 L16.9,19 L18.2,17.7 C18.6,17.3 18.6,16.7 18.2,16.3 Z" id="path-1"></path>
    </defs>
    <g id="⭕-Action-/-Close-Ticket" stroke="none" stroke-width="1" fill="none" fill-rule="evenodd">
        <mask id="mask-2" fill="white">
            <use xlink:href="#path-1"></use>
        </mask>
        <use id="Color" fill="#333333" xlink:href="#path-1"></use>
    </g>
</svg>