<?xml version="1.0" encoding="UTF-8"?>
<svg width="24px" height="24px" viewBox="0 0 24 24" version="1.1" xmlns="http://www.w3.org/2000/svg" xmlns:xlink="http://www.w3.org/1999/xlink">
    <title>⭕ Action / Comment</title>
    <defs>
        <path d="M20,4 L4,4 C3.45,4 3,4.45 3,5 L3,17 C3,17.55 3.45,18 4,18 L7,18 L7,21 C7,21.4 7.25,21.75 7.6,21.9 C7.75,22 7.85,22 8,22 C8.25,22 8.5,21.9 8.7,21.7 L12.4,18 L20,18 C20.55,18 21,17.55 21,17 L21,5 C21,4.45 20.55,4 20,4 Z M19,16 L12,16 L11.8,16 L11.7,16 C11.65,16 11.65,16 11.6,16.05 C11.55,16.05 11.55,16.1 11.5,16.1 C11.45,16.1 11.45,16.15 11.4,16.15 C11.35,16.2 11.3,16.25 11.25,16.3 L9,18.6 L9,17 C9,16.45 8.55,16 8,16 L5,16 L5,6 L19,6 L19,16 Z M7,9 C7,8.45 7.45,8 8,8 L16,8 C16.55,8 17,8.45 17,9 C17,9.55 16.55,10 16,10 L8,10 C7.45,10 7,9.55 7,9 Z M7,13 C7,12.45 7.45,12 8,12 L16,12 C16.55,12 17,12.45 17,13 C17,13.55 16.55,14 16,14 L8,14 C7.45,14 7,13.55 7,13 Z" id="path-1"></path>
    </defs>
    <g id="⭕-Action-/-Comment" stroke="none" stroke-width="1" fill="none" fill-rule="evenodd">
        <mask id="mask-2" fill="white">
            <use xlink:href="#path-1"></use>
        </mask>
        <use id="Color" fill="#333333" xlink:href="#path-1"></use>
    </g>
</svg>