<?xml version="1.0" encoding="UTF-8"?>
<svg width="24px" height="24px" viewBox="0 0 24 24" version="1.1" xmlns="http://www.w3.org/2000/svg" xmlns:xlink="http://www.w3.org/1999/xlink">
    <title>⭕ Action / Configure Product</title>
    <g id="⭕-Action-/-Configure-Product" stroke="none" stroke-width="1" fill="none" fill-rule="evenodd">
        <path d="M20.95,15.05 L20,13.5 C19.95,13.4 19.8,13.35 19.7,13.4 L18.55,13.85 C18.3,13.65 18.05,13.5 17.75,13.4 L17.55,12.2 C17.55,12.1 17.45,12 17.3,12 L15.45,12 C15.35,12 15.25,12.1 15.2,12.2 L15,13.4 C14.7,13.5 14.45,13.65 14.2,13.85 L13.05,13.4 C12.95,13.35 12.8,13.4 12.75,13.5 L11.8,15.05 C11.75,15.15 11.75,15.25 11.85,15.35 L12.85,16.1 C12.85,16.25 12.8,16.4 12.8,16.55 C12.8,16.7 12.8,16.85 12.85,17 L11.85,17.75 C11.75,17.8 11.75,17.95 11.8,18.05 L12.75,19.6 C12.8,19.7 12.95,19.75 13.05,19.7 L14.2,19.25 C14.45,19.45 14.7,19.6 15,19.7 L15.2,20.9 C15.2,21 15.3,21.1 15.45,21.1 L17.3,21.1 C17.4,21.1 17.5,21 17.55,20.9 L17.75,19.7 C18.05,19.6 18.3,19.45 18.55,19.25 L19.7,19.7 C19.8,19.75 19.95,19.7 20,19.6 L20.95,18.05 C21,17.95 21,17.85 20.9,17.75 L19.9,17 C19.9,16.85 19.95,16.7 19.95,16.55 C19.95,16.4 19.95,16.25 19.9,16.1 L20.9,15.35 C21,15.25 21.05,15.15 20.95,15.05 Z M16.5,18.05 C15.6,18.05 14.9,17.35 14.9,16.5 C14.9,15.65 15.65,14.9 16.5,14.9 C17.4,14.9 18.1,15.6 18.1,16.5 C18.1,17.4 17.4,18.05 16.5,18.05 Z M21,4 L21,9 C21,9.55 20.55,10 20,10 C19.45,10 19,9.55 19,9 L19,5 L13.5,5 L13.5,9 L10.5,9 L10.5,5 L5,5 L5,18 L9,18 C9.55,18 10,18.45 10,19 C10,19.55 9.55,20 9,20 L4,20 C3.45,20 3,19.55 3,19 L3,4 C3,3.45 3.45,3 4,3 L20,3 C20.55,3 21,3.45 21,4 Z" id="Color" fill="#333333"></path>
    </g>
</svg>