<?xml version="1.0" encoding="UTF-8"?>
<svg width="24px" height="24px" viewBox="0 0 24 24" version="1.1" xmlns="http://www.w3.org/2000/svg" xmlns:xlink="http://www.w3.org/1999/xlink">
    <title>⭕ Action / Connect</title>
    <defs>
        <path d="M18,16 C17.25,16 16.6,16.25 16.05,16.7 L8.9,12.65 C8.95,12.45 9,12.2 9,12 C9,11.85 9,11.7 8.95,11.55 L16.1,7.35 C16.6,7.8 17.3,8.05 18,8.05 C19.65,8.05 21,6.7 21,5.05 C21,3.4 19.65,2.05 18,2.05 C16.35,2.05 15,3.4 15,5.05 C15,5.25 15,5.45 15.05,5.65 L8,9.75 C7.45,9.25 6.75,9 6,9 C4.35,9 3,10.35 3,12 C3,13.65 4.35,15 6,15 C6.7,15 7.35,14.75 7.85,14.35 L15.05,18.45 C15,18.65 15,18.8 15,19 C15,20.65 16.35,22 18,22 C19.65,22 21,20.65 21,19 C21,17.35 19.65,16 18,16 Z M18,4 C18.55,4 19,4.45 19,5 C19,5.55 18.55,6 18,6 C17.45,6 17,5.55 17,5 C17,4.45 17.45,4 18,4 Z M6,13 C5.45,13 5,12.55 5,12 C5,11.45 5.45,11 6,11 C6.55,11 7,11.45 7,12 C7,12.55 6.55,13 6,13 Z M18,20 C17.45,20 17,19.55 17,19 C17,18.45 17.45,18 18,18 C18.55,18 19,18.45 19,19 C19,19.55 18.55,20 18,20 Z" id="path-1"></path>
    </defs>
    <g id="⭕-Action-/-Connect" stroke="none" stroke-width="1" fill="none" fill-rule="evenodd">
        <mask id="mask-2" fill="white">
            <use xlink:href="#path-1"></use>
        </mask>
        <use id="Color" fill="#333333" xlink:href="#path-1"></use>
    </g>
</svg>