<?xml version="1.0" encoding="UTF-8"?>
<svg width="24px" height="24px" viewBox="0 0 24 24" version="1.1" xmlns="http://www.w3.org/2000/svg" xmlns:xlink="http://www.w3.org/1999/xlink">
    <title>⭕ Action / Deselect All</title>
    <defs>
        <path d="M3,19.1 L3,4 C3,3.45 3.45,3 4,3 L19.1,3 C19.65,3 20.1,3.45 20.1,4 C20.1,4.55 19.65,5 19.1,5 L5,5 L5,19.1 C5,19.65 4.55,20.1 4,20.1 C3.45,20.1 3,19.65 3,19.1 Z M16.7,11.3 C16.3,10.9 15.7,10.9 15.3,11.3 L14,12.6 L12.75,11.35 C12.35,10.95 11.75,10.95 11.35,11.35 C10.95,11.75 10.95,12.35 11.35,12.75 L12.6,14 L11.3,15.3 C10.9,15.7 10.9,16.3 11.3,16.7 C11.5,16.9 11.75,17 12,17 C12.25,17 12.5,16.9 12.7,16.7 L14,15.4 L15.3,16.7 C15.5,16.9 15.75,17 16,17 C16.25,17 16.5,16.9 16.7,16.7 C17.1,16.3 17.1,15.7 16.7,15.3 L15.4,14 L16.7,12.7 C17.1,12.3 17.1,11.7 16.7,11.3 L16.7,11.3 Z M8,21 C7.45,21 7,20.55 7,20 L7,8 C7,7.45 7.45,7 8,7 L20,7 C20.55,7 21,7.45 21,8 L21,20 C21,20.55 20.55,21 20,21 L8,21 Z M9,19 L19,19 L19,9 L9,9 L9,19 Z" id="path-1"></path>
    </defs>
    <g id="⭕-Action-/-Deselect-All" stroke="none" stroke-width="1" fill="none" fill-rule="evenodd">
        <mask id="mask-2" fill="white">
            <use xlink:href="#path-1"></use>
        </mask>
        <use id="Color" fill="#333333" xlink:href="#path-1"></use>
    </g>
</svg>