<?xml version="1.0" encoding="UTF-8"?>
<svg width="24px" height="24px" viewBox="0 0 24 24" version="1.1" xmlns="http://www.w3.org/2000/svg" xmlns:xlink="http://www.w3.org/1999/xlink">
    <title>⭕ Action / Drag Multi-directional</title>
    <defs>
        <path d="M20.7,12.7 L18.2,15.2 C18,15.4 17.75,15.5 17.5,15.5 C17.25,15.5 17,15.4 16.8,15.2 C16.4,14.8 16.4,14.2 16.8,13.8 L17.6,13 L13,13 L13,17.6 L13.8,16.8 C14.2,16.4 14.8,16.4 15.2,16.8 C15.6,17.2 15.6,17.8 15.2,18.2 L12.7,20.7 C12.5,20.9 12.25,21 12,21 C11.75,21 11.5,20.9 11.3,20.7 L8.8,18.2 C8.4,17.8 8.4,17.2 8.8,16.8 C9.2,16.4 9.8,16.4 10.2,16.8 L11,17.6 L11,13 L6.4,13 L7.2,13.8 C7.6,14.2 7.6,14.8 7.2,15.2 C7,15.4 6.75,15.5 6.5,15.5 C6.25,15.5 6,15.4 5.8,15.2 L3.3,12.7 C2.9,12.3 2.9,11.7 3.3,11.3 L5.8,8.8 C6.2,8.4 6.8,8.4 7.2,8.8 C7.6,9.2 7.6,9.8 7.2,10.2 L6.4,11 L11,11 L11,6.4 L10.2,7.2 C9.8,7.6 9.2,7.6 8.8,7.2 C8.4,6.8 8.4,6.2 8.8,5.8 L11.3,3.3 C11.7,2.9 12.3,2.9 12.7,3.3 L15.2,5.8 C15.6,6.2 15.6,6.8 15.2,7.2 C15,7.4 14.75,7.5 14.5,7.5 C14.25,7.5 14,7.4 13.8,7.2 L13,6.4 L13,11 L17.6,11 L16.8,10.2 C16.4,9.8 16.4,9.2 16.8,8.8 C17.2,8.4 17.8,8.4 18.2,8.8 L20.7,11.3 C21.1,11.7 21.1,12.3 20.7,12.7 Z" id="path-1"></path>
    </defs>
    <g id="⭕-Action-/-Drag-Multi-directional" stroke="none" stroke-width="1" fill="none" fill-rule="evenodd">
        <mask id="mask-2" fill="white">
            <use xlink:href="#path-1"></use>
        </mask>
        <use id="Color" fill="#333333" xlink:href="#path-1"></use>
    </g>
</svg>