<?xml version="1.0" encoding="UTF-8"?>
<svg width="24px" height="24px" viewBox="0 0 24 24" version="1.1" xmlns="http://www.w3.org/2000/svg" xmlns:xlink="http://www.w3.org/1999/xlink">
    <title>⭕ Action / Drag Vertical</title>
    <defs>
        <path d="M13.8,15.8 L13,16.6 L13,7.4 L13.8,8.2 C14,8.4 14.25,8.5 14.5,8.5 C14.75,8.5 15,8.4 15.2,8.2 C15.6,7.8 15.6,7.2 15.2,6.8 L12.7,4.3 C12.3,3.9 11.7,3.9 11.3,4.3 L8.8,6.8 C8.4,7.2 8.4,7.8 8.8,8.2 C9.2,8.6 9.8,8.6 10.2,8.2 L11,7.4 L11,16.6 L10.2,15.8 C9.8,15.4 9.2,15.4 8.8,15.8 C8.4,16.2 8.4,16.8 8.8,17.2 L11.3,19.7 C11.5,19.9 11.75,20 12,20 C12.25,20 12.5,19.9 12.7,19.7 L15.2,17.2 C15.6,16.8 15.6,16.2 15.2,15.8 C14.8,15.4 14.2,15.4 13.8,15.8 L13.8,15.8 Z" id="path-1"></path>
    </defs>
    <g id="⭕-Action-/-Drag-Vertical" stroke="none" stroke-width="1" fill="none" fill-rule="evenodd">
        <mask id="mask-2" fill="white">
            <use xlink:href="#path-1"></use>
        </mask>
        <use id="Color" fill="#333333" xlink:href="#path-1"></use>
    </g>
</svg>