<?xml version="1.0" encoding="UTF-8"?>
<svg width="24px" height="24px" viewBox="0 0 24 24" version="1.1" xmlns="http://www.w3.org/2000/svg" xmlns:xlink="http://www.w3.org/1999/xlink">
    <title>⭕ Action / Dropdown</title>
    <defs>
        <path d="M22,3.78571429 L22,20.2142857 C22,21.1964286 21.3571429,22 20.5714286,22 L3.42857143,22 C2.64285714,22 2,21.1964286 2,20.2142857 L2,3.78571429 C2,2.80357143 2.64285714,2 3.42857143,2 L20.5714286,2 C21.3571429,2 22,2.80357143 22,3.78571429 Z M20,4 L4,4 L4,20 L20,20 L20,4 Z M7.3,10.7 C6.9,10.3 6.9,9.7 7.3,9.3 C7.7,8.9 8.3,8.9 8.7,9.3 L12,12.6 L15.3,9.3 C15.7,8.9 16.3,8.9 16.7,9.3 C17.1,9.7 17.1,10.3 16.7,10.7 L12.7,14.7 C12.5,14.9 12.25,15 12,15 C11.75,15 11.5,14.9 11.3,14.7 L7.3,10.7 L7.3,10.7 Z" id="path-1"></path>
    </defs>
    <g id="⭕-Action-/-Dropdown" stroke="none" stroke-width="1" fill="none" fill-rule="evenodd">
        <mask id="mask-2" fill="white">
            <use xlink:href="#path-1"></use>
        </mask>
        <use id="Color" fill="#333333" xlink:href="#path-1"></use>
    </g>
</svg>