<?xml version="1.0" encoding="UTF-8"?>
<svg width="24px" height="24px" viewBox="0 0 24 24" version="1.1" xmlns="http://www.w3.org/2000/svg" xmlns:xlink="http://www.w3.org/1999/xlink">
    <title>⭕ Action / Duplicate</title>
    <defs>
        <path d="M4,17 L7,17 L7,20 C7,20.55 7.45,21 8,21 L20,21 C20.55,21 21,20.55 21,20 L21,8 C21,7.45 20.55,7 20,7 L17,7 L17,4 C17,3.45 16.55,3 16,3 L4,3 C3.45,3 3,3.45 3,4 L3,16 C3,16.55 3.45,17 4,17 Z M19,19 L9,19 L9,9 L19,9 L19,19 Z M5,5 L15,5 L15,7 L8,7 C7.45,7 7,7.45 7,8 L7,15 L5,15 L5,5 Z" id="path-1"></path>
    </defs>
    <g id="⭕-Action-/-Duplicate" stroke="none" stroke-width="1" fill="none" fill-rule="evenodd">
        <mask id="mask-2" fill="white">
            <use xlink:href="#path-1"></use>
        </mask>
        <use id="Color" fill="#333333" xlink:href="#path-1"></use>
    </g>
</svg>