<?xml version="1.0" encoding="UTF-8"?>
<svg width="24px" height="24px" viewBox="0 0 24 24" version="1.1" xmlns="http://www.w3.org/2000/svg" xmlns:xlink="http://www.w3.org/1999/xlink">
    <title>⭕ Action / Edit Note</title>
    <defs>
        <path d="M9,21 C9,21.55 8.55,22 8,22 L5,22 C4.75,22 4.5,21.9 4.3,21.7 C4.1,21.5 4,21.25 4,21 L4,3 C4,2.45 4.45,2 5,2 L15.5,2 C15.6,2 15.65,2 15.75,2.05 C15.95,2.1 16.1,2.2 16.2,2.3 L19.7,5.8 C19.9,6 20,6.25 20,6.5 L20,9.5 C20,10.05 19.55,10.5 19,10.5 C18.45,10.5 18,10.05 18,9.5 L18,8 L15,8 C14.45,8 14,7.55 14,7 L14,4 L6,4 L6,20 L8,20 C8.55,20 9,20.45 9,21 Z M20.3,16.3 L14.8,21.8 C14.65,21.95 14.45,22 14.25,22 L11.75,22 C11.35,22 11,21.65 11,21.25 L11,18.75 C11,18.55 11.1,18.35 11.2,18.2 L16.7,12.7 C17,12.4 17.45,12.4 17.75,12.7 L20.25,15.2 C20.55,15.5 20.55,16 20.3,16.3 Z M18.7,15.75 L17.25,14.3 L12.5,19.05 L12.5,20.5 L13.95,20.5 L18.7,15.75 Z M9,9.5 C8.45,9.5 8,9.95 8,10.5 C8,11.05 8.45,11.5 9,11.5 L15,11.5 C15.55,11.5 16,11.05 16,10.5 C16,9.95 15.55,9.5 15,9.5 L9,9.5 Z M12,14.5 C12,13.95 11.55,13.5 11,13.5 L9,13.5 C8.45,13.5 8,13.95 8,14.5 C8,15.05 8.45,15.5 9,15.5 L11,15.5 C11.55,15.5 12,15.05 12,14.5 Z" id="path-1"></path>
    </defs>
    <g id="⭕-Action-/-Edit-Note" stroke="none" stroke-width="1" fill="none" fill-rule="evenodd">
        <mask id="mask-2" fill="white">
            <use xlink:href="#path-1"></use>
        </mask>
        <use id="Color" fill="#333333" xlink:href="#path-1"></use>
    </g>
</svg>