<?xml version="1.0" encoding="UTF-8"?>
<svg width="24px" height="24px" viewBox="0 0 24 24" version="1.1" xmlns="http://www.w3.org/2000/svg" xmlns:xlink="http://www.w3.org/1999/xlink">
    <title>⭕ Action / Edit Report Category</title>
    <defs>
        <path d="M10,10 L10,17 C10,17.55 9.55,18 9,18 C8.45,18 8,17.55 8,17 L8,10 C8,9.45 8.45,9 9,9 C9.55,9 10,9.45 10,10 Z M11.5,11.5 L11.5,13.5 C11.5,14.05 11.95,14.5 12.5,14.5 C13.05,14.5 13.5,14.05 13.5,13.5 L13.5,11.5 C13.5,10.95 13.05,10.5 12.5,10.5 C11.95,10.5 11.5,10.95 11.5,11.5 Z M8,20 L6,20 L6,4 L14,4 L14,7 C14,7.55 14.45,8 15,8 L18,8 L18,9.5 C18,10.05 18.45,10.5 19,10.5 C19.55,10.5 20,10.05 20,9.5 L20,6.5 C20,6.25 19.9,6 19.7,5.8 L16.2,2.3 C16.05,2.15 15.9,2.1 15.75,2.05 C15.65,2 15.6,2 15.5,2 L5,2 C4.45,2 4,2.45 4,3 L4,21 C4,21.25 4.1,21.5 4.3,21.7 C4.5,21.9 4.75,22 5,22 L8,22 C8.55,22 9,21.55 9,21 C9,20.45 8.55,20 8,20 Z M20.3,16.3 L14.8,21.8 C14.65,21.95 14.45,22 14.25,22 L11.75,22 C11.35,22 11,21.65 11,21.25 L11,18.75 C11,18.55 11.1,18.35 11.2,18.2 L16.7,12.7 C17,12.4 17.45,12.4 17.75,12.7 L20.25,15.2 C20.55,15.5 20.55,16 20.3,16.3 Z M18.7,15.75 L17.25,14.3 L12.5,19.05 L12.5,20.5 L13.95,20.5 L18.7,15.75 Z" id="path-1"></path>
    </defs>
    <g id="⭕-Action-/-Edit-Report-Category" stroke="none" stroke-width="1" fill="none" fill-rule="evenodd">
        <mask id="mask-2" fill="white">
            <use xlink:href="#path-1"></use>
        </mask>
        <use id="Color" fill="#333333" xlink:href="#path-1"></use>
    </g>
</svg>