<?xml version="1.0" encoding="UTF-8"?>
<svg width="24px" height="24px" viewBox="0 0 24 24" version="1.1" xmlns="http://www.w3.org/2000/svg" xmlns:xlink="http://www.w3.org/1999/xlink">
    <title>⭕ Action / Edit AlertTemplate</title>
    <defs>
        <path d="M15,11.5 L15,13.5 C15,14.05 14.55,14.5 14,14.5 C13.45,14.5 13,14.05 13,13.5 L13,11.5 C13,10.95 13.45,10.5 14,10.5 C14.55,10.5 15,10.95 15,11.5 Z M14,15.5 C13.45,15.5 13,15.95 13,16.5 C13,17.05 13.45,17.5 14,17.5 C14.55,17.5 15,17.05 15,16.5 C15,15.95 14.55,15.5 14,15.5 Z M21,4 L21,20 C21,20.55 20.55,21 20,21 L4,21 C3.45,21 3,20.55 3,20 L3,4 C3,3.45 3.45,3 4,3 L20,3 C20.55,3 21,3.45 21,4 Z M5,5 L5,7 L19,7 L19,5 L5,5 Z M7,19 L7,9 L5,9 L5,19 L7,19 Z M19,19 L19,9 L9,9 L9,19 L19,19 Z" id="path-1"></path>
    </defs>
    <g id="⭕-Action-/-Edit-AlertTemplate" stroke="none" stroke-width="1" fill="none" fill-rule="evenodd">
        <mask id="mask-2" fill="white">
            <use xlink:href="#path-1"></use>
        </mask>
        <use id="Color" fill="#333333" xlink:href="#path-1"></use>
    </g>
</svg>