<?xml version="1.0" encoding="UTF-8"?>
<svg width="24px" height="24px" viewBox="0 0 24 24" version="1.1" xmlns="http://www.w3.org/2000/svg" xmlns:xlink="http://www.w3.org/1999/xlink">
    <title>⭕ Action / Edit</title>
    <defs>
        <path d="M4,21 L8.5,21 C8.75,21 9,20.9 9.2,20.7 L20.7,9.2 C21.1,8.8 21.1,8.2 20.7,7.8 L16.2,3.3 C15.8,2.9 15.2,2.9 14.8,3.3 L3.3,14.8 C3.1,15 3,15.25 3,15.5 L3,20 C3,20.55 3.45,21 4,21 L4,21 Z M15.5,5.4 L18.6,8.5 L16.5,10.6 L13.4,7.5 L15.5,5.4 Z M5,15.9 L12,8.9 L15.1,12 L8.1,19 L5,19 L5,15.9 Z" id="path-1"></path>
    </defs>
    <g id="⭕-Action-/-Edit" stroke="none" stroke-width="1" fill="none" fill-rule="evenodd">
        <mask id="mask-2" fill="white">
            <use xlink:href="#path-1"></use>
        </mask>
        <use id="Color" fill="#333333" xlink:href="#path-1"></use>
    </g>
</svg>