<?xml version="1.0" encoding="UTF-8"?>
<svg width="24px" height="24px" viewBox="0 0 24 24" version="1.1" xmlns="http://www.w3.org/2000/svg" xmlns:xlink="http://www.w3.org/1999/xlink">
    <title>⭕ Action / Email</title>
    <defs>
        <path d="M21.95,19.3 C21.95,19.25 21.95,19.25 22,19.2 L22,19 L22,5 L22,4.8 C22,4.75 22,4.75 21.95,4.7 C21.95,4.65 21.95,4.65 21.9,4.6 C21.9,4.55 21.85,4.55 21.85,4.5 C21.85,4.5 21.85,4.45 21.8,4.45 C21.75,4.35 21.65,4.25 21.5,4.15 L21.45,4.1 C21.4,4.1 21.4,4.05 21.35,4.05 C21.3,4.05 21.3,4.05 21.25,4 C21.2,4 21.2,4 21.15,3.95 L20.95,3.95 L3,3.95 C2.1,3.95 2,4.6 2,5 L2,19 L2,19.2 C2,19.25 2,19.25 2.05,19.3 C2.05,19.35 2.05,19.35 2.1,19.4 C2.1,19.45 2.15,19.45 2.15,19.5 C2.15,19.5 2.15,19.55 2.2,19.55 C2.25,19.65 2.35,19.75 2.5,19.85 L2.55,19.9 C2.6,19.9 2.6,19.95 2.65,19.95 C2.7,19.95 2.7,19.95 2.75,20 C2.8,20 2.8,20 2.85,20.05 L3.05,20.05 L21.05,20.05 L21.25,20.05 C21.3,20.05 21.3,20.05 21.35,20 C21.4,20 21.4,20 21.45,19.95 C21.5,19.95 21.5,19.9 21.55,19.9 C21.55,19.9 21.6,19.9 21.6,19.85 C21.7,19.8 21.8,19.7 21.9,19.55 L21.95,19.5 C21.9,19.45 21.9,19.4 21.9,19.4 C21.9,19.35 21.9,19.35 21.95,19.3 Z M12,12.6 L5.4,6 L18.55,6 L12,12.6 Z M8.6,12 L4,16.6 L4,7.4 L8.6,12 Z M10,13.4 L11.3,14.7 C11.5,14.9 11.75,15 12,15 C12.25,15 12.5,14.9 12.7,14.7 L14,13.4 L18.6,18 L5.4,18 L10,13.4 Z M15.4,12 L20,7.4 L20,16.55 L15.4,12 Z" id="path-1"></path>
    </defs>
    <g id="⭕-Action-/-Email" stroke="none" stroke-width="1" fill="none" fill-rule="evenodd">
        <mask id="mask-2" fill="white">
            <use xlink:href="#path-1"></use>
        </mask>
        <use id="Color" fill="#333333" xlink:href="#path-1"></use>
    </g>
</svg>