<svg id="Layer_1" data-name="Layer 1" xmlns="http://www.w3.org/2000/svg" viewBox="0 0 24 24"><defs><style>.cls-1{fill:#fff;}.cls-1,.cls-2{fill-rule:evenodd;}.cls-2{fill:#333;}</style></defs><g id="mask-2"><path id="path-1" class="cls-1" d="M19.7,8.7,15,13.4V21a1,1,0,0,1-.6.9.6.6,0,0,1-.4.1,1,1,0,0,1-.7-.3l-4-4A1,1,0,0,1,9,17V13.4L4.3,8.7A1,1,0,0,1,4,8V3A1,1,0,0,1,5,2H19a1,1,0,0,1,1,1V8a1,1,0,0,1-.3.7ZM18,4H6V7.6l4.7,4.7a1,1,0,0,1,.3.7v3.6l2,2V13a1,1,0,0,1,.3-.7L18,7.6Z"/></g><g id="_-Action-_-Clear-Filters" data-name="⭕-Action-/-Clear-Filters"><g id="Color"><path id="path-1-2" data-name="path-1" class="cls-2" d="M19.7,8.7,15,13.4V21a1,1,0,0,1-.6.9.6.6,0,0,1-.4.1,1,1,0,0,1-.7-.3l-4-4A1,1,0,0,1,9,17V13.4L4.3,8.7A1,1,0,0,1,4,8V3A1,1,0,0,1,5,2H19a1,1,0,0,1,1,1V8a1,1,0,0,1-.3.7ZM18,4H6V7.6l4.7,4.7a1,1,0,0,1,.3.7v3.6l2,2V13a1,1,0,0,1,.3-.7L18,7.6Z"/></g></g></svg>