<?xml version="1.0" encoding="UTF-8"?>
<svg width="24px" height="24px" viewBox="0 0 24 24" version="1.1" xmlns="http://www.w3.org/2000/svg" xmlns:xlink="http://www.w3.org/1999/xlink">
    <title>⭕ Action / Hide</title>
    <defs>
        <path d="M18.35,16.95 C19.9,15.8 21.15,14.25 21.9,12.35 C22,12.1 22,11.85 21.9,11.6 C20.35,7.6 16.45,5 12,5 C10.35,5 8.8,5.35 7.4,6 L3.7,2.3 C3.3,1.9 2.7,1.9 2.3,2.3 C1.9,2.7 1.9,3.3 2.3,3.7 L5.65,7.05 C4.1,8.2 2.85,9.75 2.1,11.65 C2,11.9 2,12.15 2.1,12.4 C3.65,16.4 7.55,19 12,19 C13.65,19 15.2,18.65 16.6,18 L20.3,21.7 C20.5,21.9 20.75,22 21,22 C21.25,22 21.5,21.9 21.7,21.7 C22.1,21.3 22.1,20.7 21.7,20.3 L18.35,16.95 L18.35,16.95 Z M12,7 C15.5,7 18.55,8.95 19.9,12 C19.25,13.45 18.2,14.65 16.9,15.55 L14.7,13.35 C14.9,12.95 15,12.5 15,12.05 C15,10.4 13.65,9.05 12,9.05 C11.55,9.05 11.1,9.15 10.7,9.35 L8.95,7.6 C9.9,7.2 10.95,7 12,7 L12,7 Z M12,17 C8.5,17 5.45,15.05 4.1,12 C4.75,10.55 5.8,9.35 7.1,8.5 L9.35,10.75 C9.1,11.1 9,11.55 9,12 C9,13.65 10.35,15 12,15 C12.45,15 12.9,14.9 13.3,14.7 L15.05,16.45 C14.1,16.8 13.05,17 12,17 Z" id="path-1"></path>
    </defs>
    <g id="⭕-Action-/-Hide" stroke="none" stroke-width="1" fill="none" fill-rule="evenodd">
        <mask id="mask-2" fill="white">
            <use xlink:href="#path-1"></use>
        </mask>
        <use id="Color" fill="#333333" xlink:href="#path-1"></use>
    </g>
</svg>