<?xml version="1.0" encoding="UTF-8"?>
<svg width="24px" height="24px" viewBox="0 0 24 24" version="1.1" xmlns="http://www.w3.org/2000/svg" xmlns:xlink="http://www.w3.org/1999/xlink">
    <title>⭕ Action / Highlight</title>
    <defs>
        <path d="M17,8.5 L7,8.5 C6.45,8.5 6,8.95 6,9.5 L6,14 C6,14.25 6.1,14.5 6.3,14.7 L8.5,16.9 L8.5,21 C8.5,21.55 8.95,22 9.5,22 L14.5,22 C15.05,22 15.5,21.55 15.5,21 L15.5,16.9 L17.7,14.7 C17.9,14.5 18,14.25 18,14 L18,9.5 C18,8.95 17.55,8.5 17,8.5 Z M16,13.6 L13.8,15.8 C13.6,16 13.5,16.25 13.5,16.5 L13.5,20 L10.5,20 L10.5,16.5 C10.5,16.25 10.4,16 10.2,15.8 L8,13.6 L8,10.5 L16,10.5 L16,13.6 Z M11,4.5 L11,3 C11,2.45 11.45,2 12,2 C12.55,2 13,2.45 13,3 L13,4.5 C13,5.05 12.55,5.5 12,5.5 C11.45,5.5 11,5.05 11,4.5 Z M20.2,5.7 L18.7,7.2 C18.5,7.4 18.25,7.5 18,7.5 C17.75,7.5 17.5,7.4 17.3,7.2 C16.9,6.8 16.9,6.2 17.3,5.8 L18.8,4.3 C19.2,3.9 19.8,3.9 20.2,4.3 C20.6,4.7 20.6,5.3 20.2,5.7 Z M6,7.5 C5.75,7.5 5.5,7.4 5.3,7.2 L3.8,5.7 C3.4,5.3 3.4,4.7 3.8,4.3 C4.2,3.9 4.8,3.9 5.2,4.3 L6.7,5.8 C7.1,6.2 7.1,6.8 6.7,7.2 C6.5,7.4 6.25,7.5 6,7.5 Z" id="path-1"></path>
    </defs>
    <g id="⭕-Action-/-Highlight" stroke="none" stroke-width="1" fill="none" fill-rule="evenodd">
        <mask id="mask-2" fill="white">
            <use xlink:href="#path-1"></use>
        </mask>
        <use id="Color" fill="#333333" xlink:href="#path-1"></use>
    </g>
</svg>