<?xml version="1.0" encoding="UTF-8"?>
<svg width="24px" height="24px" viewBox="0 0 24 24" version="1.1" xmlns="http://www.w3.org/2000/svg" xmlns:xlink="http://www.w3.org/1999/xlink">
    <title>⭕ Action / Ignore</title>
    <defs>
        <path d="M12,2 C6.5,2 2,6.5 2,12 C2,17.5 6.5,22 12,22 C17.5,22 22,17.5 22,12 C22,6.5 17.5,2 12,2 Z M4,12 C4,7.6 7.6,4 12,4 C13.85,4 15.55,4.65 16.9,5.7 L5.7,16.9 C4.65,15.55 4,13.85 4,12 Z M12,20 C10.15,20 8.45,19.35 7.1,18.3 L18.3,7.1 C19.35,8.45 20,10.15 20,12 C20,16.4 16.4,20 12,20 L12,20 Z" id="path-1"></path>
    </defs>
    <g id="⭕-Action-/-Ignore" stroke="none" stroke-width="1" fill="none" fill-rule="evenodd">
        <mask id="mask-2" fill="white">
            <use xlink:href="#path-1"></use>
        </mask>
        <use id="Color" fill="#333333" xlink:href="#path-1"></use>
    </g>
</svg>