<?xml version="1.0" encoding="UTF-8"?>
<svg width="24px" height="24px" viewBox="0 0 24 24" version="1.1" xmlns="http://www.w3.org/2000/svg" xmlns:xlink="http://www.w3.org/1999/xlink">
    <title>⭕ Action / Increase Indent</title>
    <g id="⭕-Action-/-Increase-Indent" stroke="none" stroke-width="1" fill="none" fill-rule="evenodd">
        <path d="M3,4 C3,3.45 3.45,3 4,3 L20,3 C20.55,3 21,3.45 21,4 C21,4.55 20.55,5 20,5 L4,5 C3.45,5 3,4.55 3,4 Z M20,7 L10,7 C9.45,7 9,7.45 9,8 C9,8.55 9.45,9 10,9 L20,9 C20.55,9 21,8.55 21,8 C21,7.45 20.55,7 20,7 Z M20,11 L10,11 C9.45,11 9,11.45 9,12 C9,12.55 9.45,13 10,13 L20,13 C20.55,13 21,12.55 21,12 C21,11.45 20.55,11 20,11 Z M20,19 L4,19 C3.45,19 3,19.45 3,20 C3,20.55 3.45,21 4,21 L20,21 C20.55,21 21,20.55 21,20 C21,19.45 20.55,19 20,19 Z M20,15 L10,15 C9.45,15 9,15.45 9,16 C9,16.55 9.45,17 10,17 L20,17 C20.55,17 21,16.55 21,16 C21,15.45 20.55,15 20,15 Z M3.3,15.2 C3.5,15.4 3.75,15.5 4,15.5 C4.25,15.5 4.5,15.4 4.7,15.2 L7.2,12.7 C7.6,12.3 7.6,11.7 7.2,11.3 L4.7,8.8 C4.3,8.4 3.7,8.4 3.3,8.8 C2.9,9.2 2.9,9.8 3.3,10.2 L5.1,12 L3.3,13.8 C2.9,14.2 2.9,14.8 3.3,15.2 Z" id="Color" fill="#333333"></path>
    </g>
</svg>