<?xml version="1.0" encoding="UTF-8"?>
<svg width="24px" height="24px" viewBox="0 0 24 24" version="1.1" xmlns="http://www.w3.org/2000/svg" xmlns:xlink="http://www.w3.org/1999/xlink">
    <title>⭕ Action / Insert Image</title>
    <defs>
        <path d="M21,4 L3,4 C2.45,4 2,4.45 2,5 L2,19 C2,19.55 2.45,20 3,20 L21,20 C21.55,20 22,19.55 22,19 L22,5 C22,4.45 21.55,4 21,4 Z M20,18 L4,18 L4,6 L20,6 L20,18 Z M8.5,16 L6.5,16 L9.5,13 L10.5,14 L13,11.5 L17.5,16 L12.5,16 L8.5,16 Z M8,9.5 C8,8.65 8.65,8 9.5,8 C10.35,8 11,8.65 11,9.5 C11,10.35 10.35,11 9.5,11 C8.65,11 8,10.35 8,9.5 Z" id="path-1"></path>
    </defs>
    <g id="⭕-Action-/-Insert-Image" stroke="none" stroke-width="1" fill="none" fill-rule="evenodd">
        <mask id="mask-2" fill="white">
            <use xlink:href="#path-1"></use>
        </mask>
        <use id="Color" fill="#333333" xlink:href="#path-1"></use>
    </g>
</svg>