<?xml version="1.0" encoding="UTF-8"?>
<svg width="24px" height="24px" viewBox="0 0 24 24" version="1.1" xmlns="http://www.w3.org/2000/svg" xmlns:xlink="http://www.w3.org/1999/xlink">
    <title>⭕ Action / Insert Emoji</title>
    <g id="⭕-Action-/-Insert-Emoji" stroke="none" stroke-width="1" fill="none" fill-rule="evenodd">
        <path d="M17.6568517,6.34314523 C14.5326629,3.21895148 9.46734097,3.21895148 6.34314589,6.34314569 C3.21895148,9.46734097 3.21895148,14.5326629 6.34314595,17.6568524 C9.46734117,20.7810491 14.5326627,20.7810491 17.6568514,17.6568531 C20.7810491,14.5326627 20.7810491,9.46734117 17.6568517,6.34314523 Z M19.0710656,4.92893206 C22.9763116,8.83417616 22.9763116,15.1658292 19.071065,19.0710666 C15.1658292,22.9763116 8.83417616,22.9763116 4.92893278,19.0710664 C1.02368918,15.165829 1.02368918,8.83417636 4.92893232,4.92893213 C8.83417636,1.02368918 15.165829,1.02368918 19.0710656,4.92893206 Z M16,12.25 L8,12.25 C7.58578644,12.25 7.25,12.5857864 7.25,13 C7.25,15.6233526 9.37664744,17.75 12,17.75 C14.6233526,17.75 16.75,15.6233526 16.75,13 C16.75,12.5857864 16.4142136,12.25 16,12.25 L16,12.25 Z M15.1630341,13.75 C14.8244522,15.18335 13.5367908,16.25 12,16.25 C10.4632092,16.25 9.17554782,15.18335 8.83696592,13.75 L8.83696592,13.75 Z M14.75,7.5 C14.0596441,7.5 13.5,8.05964406 13.5,8.75 C13.5,9.44035594 14.0596441,10 14.75,10 C15.4403559,10 16,9.44035594 16,8.75 C16,8.05964406 15.4403559,7.5 14.75,7.5 Z M9.25,7.5 C8.55964406,7.5 8,8.05964406 8,8.75 C8,9.44035594 8.55964406,10 9.25,10 C9.94035594,10 10.5,9.44035594 10.5,8.75 C10.5,8.05964406 9.94035594,7.5 9.25,7.5 Z" id="Color" fill="#333333"></path>
    </g>
</svg>