<?xml version="1.0" encoding="UTF-8"?>
<svg width="24px" height="24px" viewBox="0 0 24 24" version="1.1" xmlns="http://www.w3.org/2000/svg" xmlns:xlink="http://www.w3.org/1999/xlink">
    <title>⭕ Action / Italic</title>
    <defs>
        <path d="M18,6.5 C18,7.35 17.35,8 16.5,8 L15.45,8 L11.8,16 L12.5,16 C13.35,16 14,16.65 14,17.5 C14,18.35 13.35,19 12.5,19 L7.5,19 C6.65,19 6,18.35 6,17.5 C6,16.65 6.65,16 7.5,16 L8.55,16 L12.2,8 L11.5,8 C10.65,8 10,7.35 10,6.5 C10,5.65 10.65,5 11.5,5 L16.5,5 C17.35,5 18,5.65 18,6.5 Z" id="path-1"></path>
    </defs>
    <g id="⭕-Action-/-Italic" stroke="none" stroke-width="1" fill="none" fill-rule="evenodd">
        <mask id="mask-2" fill="white">
            <use xlink:href="#path-1"></use>
        </mask>
        <use id="Color" fill="#333333" xlink:href="#path-1"></use>
    </g>
</svg>