<?xml version="1.0" encoding="UTF-8"?>
<svg width="24px" height="24px" viewBox="0 0 24 24" version="1.1" xmlns="http://www.w3.org/2000/svg" xmlns:xlink="http://www.w3.org/1999/xlink">
    <title>⭕ Action / Launch Control</title>
    <defs>
        <path d="M3,6 L6,6 L6,3 C6,2.45 6.45,2 7,2 L21,2 C21.55,2 22,2.45 22,3 L22,13.5 C22,14.05 21.55,14.5 21,14.5 L18,14.5 L18,17.5 C18,18.05 17.55,18.5 17,18.5 L11,18.5 L11,20 L12.5,20 C13.05,20 13.5,20.45 13.5,21 C13.5,21.55 13.05,22 12.5,22 L7.5,22 C6.95,22 6.5,21.55 6.5,21 C6.5,20.45 6.95,20 7.5,20 L9,20 L9,18.5 L3,18.5 C2.45,18.5 2,18.05 2,17.5 L2,7 C2,6.45 2.45,6 3,6 Z M20,12.5 L20,4 L8,4 L8,6 L17,6 C17.55,6 18,6.45 18,7 L18,12.5 L20,12.5 Z M4,16.5 L16,16.5 L16,8 L4,8 L4,16.5 Z" id="path-1"></path>
    </defs>
    <g id="⭕-Action-/-Launch-Control" stroke="none" stroke-width="1" fill="none" fill-rule="evenodd">
        <mask id="mask-2" fill="white">
            <use xlink:href="#path-1"></use>
        </mask>
        <use id="Color" fill="#333333" xlink:href="#path-1"></use>
    </g>
</svg>