<?xml version="1.0" encoding="UTF-8"?>
<svg width="24px" height="24px" viewBox="0 0 24 24" version="1.1" xmlns="http://www.w3.org/2000/svg" xmlns:xlink="http://www.w3.org/1999/xlink">
    <title>⭕ Action / Link</title>
    <defs>
        <path d="M19.25,9.9 L18.5,10.65 C18.1,11.05 17.5,11.05 17.1,10.65 C16.7,10.25 16.7,9.65 17.1,9.25 L17.8,8.55 C18.6,7.75 18.6,6.45 17.8,5.65 C17,4.85 15.7,4.85 14.9,5.65 L10.6,9.95 C9.8,10.75 9.8,12.05 10.6,12.85 C11,13.25 11,13.85 10.6,14.25 C10.4,14.45 10.15,14.55 9.9,14.55 C9.65,14.55 9.4,14.45 9.2,14.25 C7.6,12.65 7.6,10.1 9.2,8.5 L13.5,4.2 C15.1,2.6 17.65,2.6 19.25,4.2 C20.8,5.75 20.8,8.35 19.25,9.9 Z M13.4,10.8 C13,11.2 13,11.8 13.4,12.2 C14.2,13 14.2,14.3 13.4,15.1 L9.1,19.4 C8.7,19.8 8.2,20 7.65,20 C7.1,20 6.6,19.8 6.2,19.4 C5.8,19 5.6,18.5 5.6,18 C5.6,17.5 5.8,16.95 6.2,16.55 L6.9,15.85 C7.3,15.45 7.3,14.85 6.9,14.45 C6.5,14.05 5.9,14.05 5.5,14.45 L4.8,15.15 C4,15.9 3.6,16.9 3.6,18 C3.6,19.1 4,20.1 4.8,20.85 C5.55,21.6 6.6,22.05 7.65,22.05 C8.75,22.05 9.75,21.65 10.5,20.85 L14.8,16.55 C16.4,14.95 16.4,12.4 14.8,10.8 C14.4,10.4 13.8,10.4 13.4,10.8 Z" id="path-1"></path>
    </defs>
    <g id="⭕-Action-/-Link" stroke="none" stroke-width="1" fill="none" fill-rule="evenodd">
        <mask id="mask-2" fill="white">
            <use xlink:href="#path-1"></use>
        </mask>
        <use id="Color" fill="#333333" xlink:href="#path-1"></use>
    </g>
</svg>