<?xml version="1.0" encoding="UTF-8"?>
<svg width="24px" height="24px" viewBox="0 0 24 24" version="1.1" xmlns="http://www.w3.org/2000/svg" xmlns:xlink="http://www.w3.org/1999/xlink">
    <title>⭕ Action / Loading</title>
    <g id="⭕-Action-/-Loading" stroke="none" stroke-width="1" fill="none" fill-rule="evenodd">
        <path d="M12.4994017,18 C13.328122,18 14,18.6712295 14,19.5005408 C14,20.3280751 13.328122,21 12.4994017,21 C11.6713376,21 11,20.3281137 11,19.5005408 C11,18.6712295 11.671299,18 12.4994017,18 Z M6.43923874,16.4397938 C7.02543069,15.8534021 7.97510961,15.8534021 8.56076126,16.4397938 C9.14641291,17.0250359 9.14641291,17.9748796 8.56076126,18.5606627 C7.97510961,19.1464458 7.02539692,19.1464458 6.43923874,18.5606627 C5.85358709,17.9748796 5.85358709,17.0251374 6.43923874,16.4397938 Z M17.2926758,17.2929643 C17.6833905,16.9023452 18.3160992,16.9023452 18.7073242,17.2929643 C19.0975586,17.6831328 19.0975586,18.3164165 18.7073242,18.7070357 C18.3161292,19.0976548 17.6834205,19.0976548 17.2926758,18.7070357 C16.9024414,18.3164165 16.9024414,17.6830426 17.2926758,17.2929643 Z M5,10 C6.10443101,10 7,10.8963942 7,12 C7,13.1049279 6.10443101,14 5,14 C3.89556899,14 3,13.1048077 3,12 C3,10.8963942 3.89556899,10 5,10 Z M19.9994597,11 C20.5520818,11 21,11.4473091 21,12.000018 C21,12.5527269 20.5520818,13 19.9994597,13 C19.4474139,13 19,12.5527269 19,12.000018 C19,11.4473091 19.4474139,11 19.9994597,11 Z M7,5 C8.1049664,5 9,5.89532808 9,7.0002885 C9,8.10467192 8.1049664,9 7,9 C5.89557401,9 5,8.10467192 5,7.0002885 C5,5.89536414 5.89557401,5 7,5 Z M17.9996402,6 C18.5525441,5.99923449 19,6.44731579 19,6.99963979 C19,7.5526401 18.5525441,8 17.9996402,8 C17.4481321,8 17,7.5526401 17,6.99963979 C16.9992805,6.44731579 17.4481321,6 17.9996402,6 Z M11.9998033,3 C13.1050811,3 14.0005892,3.89576897 14,5.00001639 C14,6.10423103 13.1050811,7 11.9998033,7 C10.8954754,7 10,6.10423103 10,5.00001639 C10,3.89576897 10.8955409,3 11.9998033,3 Z" id="Combined-Shape" fill="#333333"></path>
    </g>
</svg>