<?xml version="1.0" encoding="UTF-8"?>
<svg width="24px" height="24px" viewBox="0 0 24 24" version="1.1" xmlns="http://www.w3.org/2000/svg" xmlns:xlink="http://www.w3.org/1999/xlink">
    <title>⭕ Action / Locate</title>
    <defs>
        <path d="M17.65,4.85 C16.15,3.35 14.15,2.5 12,2.5 C9.85,2.5 7.85,3.35 6.35,4.85 C3.25,8 3.25,13.1 6.35,16.2 L11.3,21.2 C11.5,21.4 11.75,21.5 12,21.5 C12.25,21.5 12.5,21.4 12.7,21.2 L17.65,16.2 C20.75,13.1 20.75,8 17.65,4.85 L17.65,4.85 Z M12,19.1 L7.75,14.85 C5.4,12.5 5.4,8.65 7.75,6.3 C8.9,5.15 10.4,4.5 12,4.5 C13.6,4.5 15.1,5.15 16.25,6.25 C18.6,8.6 18.6,12.45 16.25,14.8 L12,19.1 Z M14.5,10.5 C14.5,11.9 13.4,13 12,13 C10.6,13 9.5,11.9 9.5,10.5 C9.5,9.1 10.6,8 12,8 C13.4,8 14.5,9.1 14.5,10.5 Z" id="path-1"></path>
    </defs>
    <g id="⭕-Action-/-Locate" stroke="none" stroke-width="1" fill="none" fill-rule="evenodd">
        <mask id="mask-2" fill="white">
            <use xlink:href="#path-1"></use>
        </mask>
        <use id="Color" fill="#333333" xlink:href="#path-1"></use>
    </g>
</svg>