<?xml version="1.0" encoding="UTF-8"?>
<svg width="24px" height="24px" viewBox="0 0 24 24" version="1.1" xmlns="http://www.w3.org/2000/svg" xmlns:xlink="http://www.w3.org/1999/xlink">
    <title>⭕ Action / Maximize</title>
    <defs>
        <path d="M21,4 L21,8 C21,8.55 20.55,9 20,9 C19.45,9 19,8.55 19,8 L19,6.4 L14.7,10.7 C14.5,10.9 14.25,11 14,11 C13.75,11 13.5,10.9 13.3,10.7 C12.9,10.3 12.9,9.7 13.3,9.3 L17.6,5 L16,5 C15.45,5 15,4.55 15,4 C15,3.45 15.45,3 16,3 L20,3 L20.2,3 C20.25,3 20.25,3 20.3,3.05 C20.35,3.05 20.35,3.05 20.4,3.1 C20.45,3.1 20.45,3.15 20.5,3.15 C20.5,3.15 20.55,3.15 20.55,3.2 C20.65,3.25 20.75,3.35 20.85,3.5 L20.9,3.55 C20.9,3.6 20.95,3.6 20.95,3.65 C20.95,3.7 20.95,3.7 21,3.75 C21,3.8 21,3.8 21.05,3.85 C21,3.85 21,3.95 21,4 L21,4 Z M4,13 C4.55,13 5,12.55 5,12 L5,5 L12,5 C12.55,5 13,4.55 13,4 C13,3.45 12.55,3 12,3 L4,3 C3.45,3 3,3.45 3,4 L3,12 C3,12.55 3.45,13 4,13 Z M20,11 C19.45,11 19,11.45 19,12 L19,19 L12,19 C11.45,19 11,19.45 11,20 C11,20.55 11.45,21 12,21 L20,21 C20.55,21 21,20.55 21,20 L21,12 C21,11.45 20.55,11 20,11 Z M10.7,13.3 C10.3,12.9 9.7,12.9 9.3,13.3 L5,17.6 L5,16 C5,15.45 4.55,15 4,15 C3.45,15 3,15.45 3,16 L3,20 L3,20.2 C3,20.25 3,20.25 3.05,20.3 C3.05,20.35 3.05,20.35 3.1,20.4 C3.1,20.45 3.15,20.45 3.15,20.5 C3.15,20.5 3.15,20.55 3.2,20.55 C3.25,20.65 3.35,20.75 3.5,20.85 L3.55,20.9 C3.6,20.9 3.6,20.95 3.65,20.95 C3.7,20.95 3.7,20.95 3.75,21 C3.8,21 3.8,21 3.85,21.05 L4.05,21.05 L8.05,21.05 C8.6,21.05 9.05,20.6 9.05,20.05 C9.05,19.5 8.6,19.05 8.05,19.05 L6.45,19.05 L10.75,14.75 C11.1,14.3 11.1,13.7 10.7,13.3 L10.7,13.3 Z" id="path-1"></path>
    </defs>
    <g id="⭕-Action-/-Maximize" stroke="none" stroke-width="1" fill="none" fill-rule="evenodd">
        <mask id="mask-2" fill="white">
            <use xlink:href="#path-1"></use>
        </mask>
        <use id="Color" fill="#333333" xlink:href="#path-1"></use>
    </g>
</svg>