<?xml version="1.0" encoding="UTF-8"?>
<svg width="24px" height="24px" viewBox="0 0 24 24" version="1.1" xmlns="http://www.w3.org/2000/svg" xmlns:xlink="http://www.w3.org/1999/xlink">
    <title>⭕ Action / Move Down Copy</title>
    <defs>
        <path d="M7.3,17.7 C6.9,17.3 6.9,16.7 7.3,16.3 C7.7,15.9 8.3,15.9 8.7,16.3 L11,18.6 L10.95,3 C10.95,2.45 11.4,2 11.95,2 C12.5,2 12.95,2.45 12.95,3 L13,18.6 L15.3,16.3 C15.7,15.9 16.3,15.9 16.7,16.3 C17.1,16.7 17.1,17.3 16.7,17.7 L12.7,21.7 C12.7,21.7 12.7,21.7 12.65,21.7 C12.6,21.75 12.55,21.75 12.55,21.8 C12.55,21.8 12.5,21.8 12.5,21.85 C12.45,21.85 12.4,21.9 12.4,21.9 L12.35,21.9 C12.3,21.9 12.25,21.95 12.25,21.95 L12.1,21.95 L12.05,21.95 L11.85,21.95 C11.8,21.95 11.75,21.95 11.7,21.9 L11.65,21.9 C11.6,21.9 11.55,21.85 11.5,21.85 C11.5,21.85 11.5,21.85 11.45,21.85 C11.4,21.8 11.35,21.75 11.3,21.75 L7.3,17.7 L7.3,17.7 Z" id="path-1"></path>
    </defs>
    <g id="⭕-Action-/-Move-Down-Copy" stroke="none" stroke-width="1" fill="none" fill-rule="evenodd">
        <mask id="mask-2" fill="white">
            <use xlink:href="#path-1"></use>
        </mask>
        <use id="Color" fill="#333333" xlink:href="#path-1"></use>
    </g>
</svg>