<?xml version="1.0" encoding="UTF-8"?>
<svg width="24px" height="24px" viewBox="0 0 24 24" version="1.1" xmlns="http://www.w3.org/2000/svg" xmlns:xlink="http://www.w3.org/1999/xlink">
    <title>⭕ Action / Move Up</title>
    <defs>
        <path d="M10.95,21 L11,5.4 L8.7,7.7 C8.3,8.1 7.7,8.1 7.3,7.7 C6.9,7.3 6.9,6.7 7.3,6.3 L11.3,2.3 C11.45,2.1 11.7,2 12,2 C12.25,2 12.5,2.1 12.7,2.3 L16.7,6.3 C17.1,6.7 17.1,7.3 16.7,7.7 C16.5,7.9 16.25,8 16,8 C15.75,8 15.5,7.9 15.3,7.7 L13,5.4 L12.95,21 C12.95,21.55 12.5,22 11.95,22 C11.4,22 10.95,21.55 10.95,21 Z" id="path-1"></path>
    </defs>
    <g id="⭕-Action-/-Move-Up" stroke="none" stroke-width="1" fill="none" fill-rule="evenodd">
        <mask id="mask-2" fill="white">
            <use xlink:href="#path-1"></use>
        </mask>
        <use id="Color" fill="#333333" xlink:href="#path-1"></use>
    </g>
</svg>