<?xml version="1.0" encoding="UTF-8"?>
<svg width="24px" height="24px" viewBox="0 0 24 24" version="1.1" xmlns="http://www.w3.org/2000/svg" xmlns:xlink="http://www.w3.org/1999/xlink">
    <title>⭕ Action / mute</title>
    <defs>
        <path d="M10.4,4.1 C10,3.9 9.6,4 9.3,4.3 L5.6,8 L3,8 C2.45,8 2,8.45 2,9 L2,15 C2,15.55 2.45,16 3,16 L5.6,16 L9.3,19.7 C9.5,19.9 9.75,20 10,20 C10.15,20 10.25,20 10.4,19.9 C10.75,19.75 11,19.4 11,19 L11,5 C11,4.6 10.75,4.25 10.4,4.1 Z M9,16.6 L6.7,14.3 C6.5,14.1 6.25,14 6,14 L4,14 L4,10 L6,10 C6.25,10 6.5,9.9 6.7,9.7 L9,7.4 L9,16.6 L9,16.6 Z M20.7,14.3 C21.1,14.7 21.1,15.3 20.7,15.7 C20.5,15.9 20.25,16 20,16 C19.75,16 19.5,15.9 19.3,15.7 L17,13.4 L14.7,15.7 C14.5,15.9 14.25,16 14,16 C13.75,16 13.5,15.9 13.3,15.7 C12.9,15.3 12.9,14.7 13.3,14.3 L15.6,12 L13.3,9.7 C12.9,9.3 12.9,8.7 13.3,8.3 C13.7,7.9 14.3,7.9 14.7,8.3 L17,10.6 L19.3,8.3 C19.7,7.9 20.3,7.9 20.7,8.3 C21.1,8.7 21.1,9.3 20.7,9.7 L18.4,12 L20.7,14.3 Z" id="path-1"></path>
    </defs>
    <g id="⭕-Action-/-mute" stroke="none" stroke-width="1" fill="none" fill-rule="evenodd">
        <mask id="mask-2" fill="white">
            <use xlink:href="#path-1"></use>
        </mask>
        <use id="Color" fill="#333333" xlink:href="#path-1"></use>
    </g>
</svg>