<?xml version="1.0" encoding="UTF-8"?>
<svg width="24px" height="24px" viewBox="0 0 24 24" version="1.1" xmlns="http://www.w3.org/2000/svg" xmlns:xlink="http://www.w3.org/1999/xlink">
    <title>⭕ Action / Mute Microphone</title>
    <defs>
        <path d="M21.7,21.7 C21.5,21.9 21.25,22 21,22 C20.75,22 20.5,21.9 20.3,21.7 L16.25,17.65 C15.3,18.3 14.2,18.75 13,18.9 L13,21 C13,21.55 12.55,22 12,22 C11.45,22 11,21.55 11,21 L11,18.95 C7.95,18.5 5.45,16.3 4.7,13.25 C4.55,12.7 4.9,12.15 5.45,12.05 C6,11.9 6.55,12.25 6.65,12.8 C7.25,15.3 9.45,17.05 12,17.05 C13,17.05 14,16.75 14.8,16.3 L13.3,14.8 C12.9,14.9 12.45,15 12,15 C10.05,15 8.5,13.45 8.5,11.5 L8.5,9.9 L2.3,3.7 C1.9,3.3 1.9,2.7 2.3,2.3 C2.7,1.9 3.3,1.9 3.7,2.3 L8.5,7.1 L8.5,5.5 C8.5,3.55 10.05,2 12,2 C13.95,2 15.5,3.55 15.5,5.5 L15.5,11.5 C15.5,12.25 15.25,12.9 14.9,13.45 L16.35,14.9 C16.85,14.3 17.2,13.55 17.4,12.75 C17.55,12.2 18.05,11.9 18.6,12 C19.15,12.15 19.45,12.65 19.35,13.2 C19.05,14.4 18.55,15.4 17.8,16.3 L21.75,20.25 C22.1,20.7 22.1,21.3 21.7,21.7 L21.7,21.7 Z" id="path-1"></path>
    </defs>
    <g id="⭕-Action-/-Mute-Microphone" stroke="none" stroke-width="1" fill="none" fill-rule="evenodd">
        <mask id="mask-2" fill="white">
            <use xlink:href="#path-1"></use>
        </mask>
        <use id="Color" fill="#333333" xlink:href="#path-1"></use>
    </g>
</svg>