<?xml version="1.0" encoding="UTF-8"?>
<svg width="24px" height="24px" viewBox="0 0 24 24" version="1.1" xmlns="http://www.w3.org/2000/svg" xmlns:xlink="http://www.w3.org/1999/xlink">
    <title>⭕ Action / New Ticket</title>
    <defs>
        <path d="M16,9 C16,9.55 15.55,10 15,10 C14.45,10 14,9.55 14,9 C14,8.45 14.45,8 15,8 C15.55,8 16,8.45 16,9 Z M20,12 L20,5 C20,4.45 19.55,4 19,4 L12,4 C11.75,4 11.5,4.1 11.3,4.3 L2.3,13.3 C1.9,13.7 1.9,14.3 2.3,14.7 L9.3,21.7 C9.5,21.9 9.75,22 10,22 C10.25,22 10.5,21.9 10.7,21.7 C11.1,21.3 11.1,20.7 10.7,20.3 L4.4,14 L12.4,6 L18,6 L18,11.6 L16.8,12.8 C16.4,13.2 16.4,13.8 16.8,14.2 C17.2,14.6 17.8,14.6 18.2,14.2 L19.7,12.7 C19.9,12.5 20,12.25 20,12 Z M15,22 C15.55,22 16,21.55 16,21 L16,19.5 L17.5,19.5 C18.05,19.5 18.5,19.05 18.5,18.5 C18.5,17.95 18.05,17.5 17.5,17.5 L16,17.5 L16,16 C16,15.45 15.55,15 15,15 C14.45,15 14,15.45 14,16 L14,17.5 L12.5,17.5 C11.95,17.5 11.5,17.95 11.5,18.5 C11.5,19.05 11.95,19.5 12.5,19.5 L14,19.5 L14,21 C14,21.55 14.45,22 15,22 Z" id="path-1"></path>
    </defs>
    <g id="⭕-Action-/-New-Ticket" stroke="none" stroke-width="1" fill="none" fill-rule="evenodd">
        <mask id="mask-2" fill="white">
            <use xlink:href="#path-1"></use>
        </mask>
        <use id="Color" fill="#333333" xlink:href="#path-1"></use>
    </g>
</svg>