<?xml version="1.0" encoding="UTF-8"?>
<svg width="24px" height="24px" viewBox="0 0 24 24" version="1.1" xmlns="http://www.w3.org/2000/svg" xmlns:xlink="http://www.w3.org/1999/xlink">
    <title>⭕ Action / Normal Screen</title>
    <g id="⭕-Action-/-Normal-Screen" stroke="none" stroke-width="1" fill="none" fill-rule="evenodd">
        <path d="M11.5,4 C11.5,4.55 11.05,5 10.5,5 L5,5 L5,10.5 C5,11.05 4.55,11.5 4,11.5 C3.45,11.5 3,11.05 3,10.5 L3,4 C3,3.45 3.45,3 4,3 L10.5,3 C11.05,3 11.5,3.45 11.5,4 Z M20,12.5 C19.45,12.5 19,12.95 19,13.5 L19,19 L13.5,19 C12.95,19 12.5,19.45 12.5,20 C12.5,20.55 12.95,21 13.5,21 L20,21 C20.55,21 21,20.55 21,20 L21,13.5 C21,12.95 20.55,12.5 20,12.5 Z M10,13 L6,13 C5.45,13 5,13.45 5,14 C5,14.55 5.45,15 6,15 L7.6,15 L3.3,19.3 C2.9,19.7 2.9,20.3 3.3,20.7 C3.5,20.9 3.75,21 4,21 C4.25,21 4.5,20.9 4.7,20.7 L9,16.4 L9,18 C9,18.55 9.45,19 10,19 C10.55,19 11,18.55 11,18 L11,14 C11,13.45 10.55,13 10,13 Z M14,11 L18,11 C18.55,11 19,10.55 19,10 C19,9.45 18.55,9 18,9 L16.4,9 L20.7,4.7 C21.1,4.3 21.1,3.7 20.7,3.3 C20.3,2.9 19.7,2.9 19.3,3.3 L15,7.6 L15,6 C15,5.45 14.55,5 14,5 C13.45,5 13,5.45 13,6 L13,10 C13,10.55 13.45,11 14,11 Z" id="Color" fill="#333333"></path>
    </g>
</svg>