<?xml version="1.0" encoding="UTF-8"?>
<svg width="24px" height="24px" viewBox="0 0 24 24" version="1.1" xmlns="http://www.w3.org/2000/svg" xmlns:xlink="http://www.w3.org/1999/xlink">
    <title>⭕ Action / Numbered List </title>
    <defs>
        <path d="M5.5,16 C5.8,16 6,16.2 6,16.5 L6,16.5 L6,19.5 C6,19.8 5.8,20 5.5,20 L5.5,20 L3.5,20 C3.2,20 3,19.8 3,19.5 C3,19.2 3.2,19 3.5,19 L3.5,19 L5,19 L5,18.5 L4.5,18.5 C4.2,18.5 4,18.3 4,18 C4,17.7 4.2,17.5 4.5,17.5 L4.5,17.5 L5,17.5 L5,17 L3.5,17 C3.2,17 3,16.8 3,16.5 C3,16.2 3.2,16 3.5,16 L3.5,16 Z M20,17 C20.55,17 21,17.45 21,18 C21,18.55 20.55,19 20,19 L20,19 L8,19 C7.45,19 7,18.55 7,18 C7,17.45 7.45,17 8,17 L8,17 Z M5.5,10 C5.8,10 6,10.2 6,10.5 L6,10.5 L6,12 C6,12.3 5.8,12.5 5.5,12.5 L5.5,12.5 L4,12.5 L4,13 L5.5,13 C5.8,13 6,13.2 6,13.5 C6,13.8 5.8,14 5.5,14 L5.5,14 L3.5,14 C3.2,14 3,13.8 3,13.5 L3,13.5 L3,12 C3,11.7 3.2,11.5 3.5,11.5 L3.5,11.5 L5,11.5 L5,11 L3.5,11 C3.2,11 3,10.8 3,10.5 C3,10.2 3.2,10 3.5,10 L3.5,10 Z M20,11 C20.55,11 21,11.45 21,12 C21,12.55 20.55,13 20,13 L20,13 L8,13 C7.45,13 7,12.55 7,12 C7,11.45 7.45,11 8,11 L8,11 Z M4.5,4 C4.8,4 5,4.2 5,4.5 L5,4.5 L5,7.5 C5,7.8 4.8,8 4.5,8 C4.2,8 4,7.8 4,7.5 L4,7.5 L4,5 L3.5,5 C3.2,5 3,4.8 3,4.5 C3,4.2 3.2,4 3.5,4 L3.5,4 Z M20,5 C20.55,5 21,5.45 21,6 C21,6.55 20.55,7 20,7 L20,7 L8,7 C7.45,7 7,6.55 7,6 C7,5.45 7.45,5 8,5 L8,5 Z" id="path-1"></path>
    </defs>
    <g id="⭕-Action-/-Numbered-List-" stroke="none" stroke-width="1" fill="none" fill-rule="evenodd">
        <mask id="mask-2" fill="white">
            <use xlink:href="#path-1"></use>
        </mask>
        <use id="Color" fill="#333333" xlink:href="#path-1"></use>
    </g>
</svg>