<?xml version="1.0" encoding="UTF-8"?>
<svg width="24px" height="24px" viewBox="0 0 24 24" version="1.1" xmlns="http://www.w3.org/2000/svg" xmlns:xlink="http://www.w3.org/1999/xlink">
    <title>⭕ Action / Number</title>
    <defs>
        <path d="M22,3.42857143 L22,20.5714286 C22,21.3571429 21.3571429,22 20.5714286,22 L3.42857143,22 C2.64285714,22 2,21.3571429 2,20.5714286 L2,3.42857143 C2,2.64285714 2.64285714,2 3.42857143,2 L20.5714286,2 C21.3571429,2 22,2.64285714 22,3.42857143 Z M20,4 L4,4 L4,20 L20,20 L20,4 Z M11.409902,7 L11.5,7 C11.7263826,7 11.909902,7.18351935 11.909902,7.40990195 C11.909902,7.43689481 11.9072357,7.46382166 11.9019419,7.49029034 L10.0803884,16.5980581 C10.033646,16.8317702 9.82843856,17 9.59009805,17 L9.5,17 C9.2736174,17 9.09009805,16.8164806 9.09009805,16.590098 C9.09009805,16.5631052 9.09276433,16.5361783 9.09805807,16.5097097 L10.9196116,7.40194193 C10.966354,7.16822983 11.1715614,7 11.409902,7 Z M14.409902,7 L14.5,7 C14.7263826,7 14.909902,7.18351935 14.909902,7.40990195 C14.909902,7.43689481 14.9072357,7.46382166 14.9019419,7.49029034 L13.0803884,16.5980581 C13.033646,16.8317702 12.8284386,17 12.590098,17 L12.5,17 C12.2736174,17 12.090098,16.8164806 12.090098,16.590098 C12.090098,16.5631052 12.0927643,16.5361783 12.0980581,16.5097097 L13.9196116,7.40194193 C13.966354,7.16822983 14.1715614,7 14.409902,7 Z M17,13.5 C17,13.7761424 16.7761424,14 16.5,14 L7.5,14 C7.22385763,14 7,13.7761424 7,13.5 C7,13.2238576 7.22385763,13 7.5,13 L10.5047954,13 L16.5,13 C16.7761424,13 17,13.2238576 17,13.5 Z M17,10.5 C17,10.7761424 16.7761424,11 16.5,11 L7.5,11 C7.22385763,11 7,10.7761424 7,10.5 C7,10.2238576 7.22385763,10 7.5,10 L10.5047954,10 L16.5,10 C16.7761424,10 17,10.2238576 17,10.5 Z" id="path-1"></path>
    </defs>
    <g id="⭕-Action-/-Number" stroke="none" stroke-width="1" fill="none" fill-rule="evenodd">
        <mask id="mask-2" fill="white">
            <use xlink:href="#path-1"></use>
        </mask>
        <use id="Color" fill="#333333" xlink:href="#path-1"></use>
    </g>
</svg>