<?xml version="1.0" encoding="UTF-8"?>
<svg width="24px" height="24px" viewBox="0 0 24 24" version="1.1" xmlns="http://www.w3.org/2000/svg" xmlns:xlink="http://www.w3.org/1999/xlink">
    <title>⭕ Action / Open Quote</title>
    <defs>
        <path d="M22,7 L22,19 C22,19.55 21.55,20 21,20 L16,20 C15.45,20 15,19.55 15,19 C15,18.45 15.45,18 16,18 L20,18 L20,8 L11,8 C10.75,8 10.5,7.9 10.3,7.7 L8.6,6 L4,6 L4,18 L8,18 C8.55,18 9,18.45 9,19 C9,19.55 8.55,20 8,20 L3,20 C2.45,20 2,19.55 2,19 L2,5 C2,4.45 2.45,4 3,4 L9,4 C9.25,4 9.5,4.1 9.7,4.3 L11.4,6 L21,6 C21.55,6 22,6.45 22,7 Z M15.2,13.8 L12.7,11.3 C12.65,11.25 12.6,11.2 12.55,11.15 L12.5,11.1 C12.45,11.1 12.45,11.05 12.4,11.05 C12.35,11.05 12.35,11.05 12.3,11 C12.25,11 12.25,11 12.2,10.95 C12.05,10.9 11.95,10.9 11.8,10.95 C11.75,10.95 11.75,10.95 11.7,11 C11.65,11 11.65,11 11.6,11.05 C11.55,11.05 11.55,11.1 11.5,11.1 C11.5,11.1 11.45,11.1 11.45,11.15 C11.4,11.2 11.35,11.25 11.3,11.3 L8.8,13.8 C8.4,14.2 8.4,14.8 8.8,15.2 C9.2,15.6 9.8,15.6 10.2,15.2 L11,14.4 L11,19 C11,19.55 11.45,20 12,20 C12.55,20 13,19.55 13,19 L13,14.4 L13.8,15.2 C14,15.4 14.25,15.5 14.5,15.5 C14.75,15.5 15,15.4 15.2,15.2 C15.6,14.8 15.6,14.2 15.2,13.8 Z" id="path-1"></path>
    </defs>
    <g id="⭕-Action-/-Open-Quote" stroke="none" stroke-width="1" fill="none" fill-rule="evenodd">
        <mask id="mask-2" fill="white">
            <use xlink:href="#path-1"></use>
        </mask>
        <use id="Color" fill="#333333" xlink:href="#path-1"></use>
    </g>
</svg>