<?xml version="1.0" encoding="UTF-8"?>
<svg width="24px" height="24px" viewBox="0 0 24 24" version="1.1" xmlns="http://www.w3.org/2000/svg" xmlns:xlink="http://www.w3.org/1999/xlink">
    <title>⭕ Action / Open Folder</title>
    <defs>
        <path d="M15.2,15.2 C15,15.4 14.75,15.5 14.5,15.5 C14.25,15.5 14,15.4 13.8,15.2 L13,14.4 L13,19 C13,19.55 12.55,20 12,20 C11.45,20 11,19.55 11,19 L11,14.4 L10.2,15.2 C9.8,15.6 9.2,15.6 8.8,15.2 C8.4,14.8 8.4,14.2 8.8,13.8 L11.3,11.3 C11.35,11.25 11.4,11.2 11.45,11.15 L11.5,11.1 C11.55,11.1 11.55,11.05 11.6,11.05 C11.65,11.05 11.65,11.05 11.7,11 C11.75,11 11.75,11 11.8,10.95 C11.95,10.9 12.05,10.9 12.2,10.95 C12.25,10.95 12.25,10.95 12.3,11 C12.35,11 12.35,11 12.4,11.05 C12.45,11.05 12.45,11.1 12.5,11.1 C12.5,11.1 12.55,11.1 12.55,11.15 C12.6,11.2 12.65,11.25 12.7,11.3 L15.2,13.8 C15.6,14.2 15.6,14.8 15.2,15.2 L15.2,15.2 Z M21,6 L11.4,6 L9.7,4.3 C9.5,4.1 9.25,4 9,4 L3,4 C2.45,4 2,4.45 2,5 L2,19 C2,19.55 2.45,20 3,20 L8,20 C8.55,20 9,19.55 9,19 C9,18.45 8.55,18 8,18 L4,18 L4,6 L8.6,6 L10.3,7.7 C10.5,7.9 10.75,8 11,8 L20,8 L20,18 L16,18 C15.45,18 15,18.45 15,19 C15,19.55 15.45,20 16,20 L21,20 C21.55,20 22,19.55 22,19 L22,7 C22,6.45 21.55,6 21,6 Z" id="path-1"></path>
    </defs>
    <g id="⭕-Action-/-Open-Folder" stroke="none" stroke-width="1" fill="none" fill-rule="evenodd">
        <mask id="mask-2" fill="white">
            <use xlink:href="#path-1"></use>
        </mask>
        <use id="Color" fill="#333333" xlink:href="#path-1"></use>
    </g>
</svg>