<?xml version="1.0" encoding="UTF-8"?>
<svg width="24px" height="24px" viewBox="0 0 24 24" version="1.1" xmlns="http://www.w3.org/2000/svg" xmlns:xlink="http://www.w3.org/1999/xlink">
    <title>⭕ Action / Pay 2</title>
    <g id="⭕-Action-/-Pay-2" stroke="none" stroke-width="1" fill="none" fill-rule="evenodd">
        <path d="M8,10 C8.55228475,10 9,10.4477153 9,11 C9,11.5522847 8.55228475,12 8,12 L8,12 L6,12 L6,12 C6,13.1 5.1,14 4,14 L4,18 L4,18 C5.1,18 6,18.9 6,20 L18,20 L18,20 C18,18.9 18.9,18 20,18 L20,14 L20,14 C18.9,14 18,13.1 18,12 L16,12 C15.4477153,12 15,11.5522847 15,11 C15,10.4477153 15.4477153,10 16,10 L16,10 L21,10 C21.5522847,10 22,10.4477153 22,11 L22,11 L22,21 C22,21.5522847 21.5522847,22 21,22 L21,22 L3,22 C2.44771525,22 2,21.5522847 2,21 L2,21 L2,11 C2,10.4477153 2.44771525,10 3,10 L3,10 Z M12,2 C12.25,2 12.5,2.1 12.7,2.3 L16.7,6.3 C17.1,6.7 17.1,7.3 16.7,7.7 C16.3,8.1 15.7,8.1 15.3,7.7 L13,5.4 L12.9627693,14.2486126 C13.5798245,14.5901723 14,15.2484 14,16 C14,17.1 13.1,18 12,18 L11.970274,17.9997959 C11.9635316,17.9999318 11.9567734,18 11.95,18 C11.9058036,18 11.8622529,17.9970942 11.8195295,17.9914643 C10.803013,17.8996349 10,17.0390411 10,16 C10,15.2793388 10.3862953,14.6445211 10.9620458,14.2923867 L11,5.4 L8.7,7.7 C8.3,8.1 7.7,8.1 7.3,7.7 C6.9,7.3 6.9,6.7 7.3,6.3 L11.3,2.3 C11.5,2.1 11.75,2 12,2 Z" id="Color" fill="#333333"></path>
    </g>
</svg>