<?xml version="1.0" encoding="UTF-8"?>
<svg width="24px" height="24px" viewBox="0 0 24 24" version="1.1" xmlns="http://www.w3.org/2000/svg" xmlns:xlink="http://www.w3.org/1999/xlink">
    <title>⭕ Action / Pay</title>
    <g id="⭕-Action-/-Pay" stroke="none" stroke-width="1" fill="none" fill-rule="evenodd">
        <path d="M3,12 C3.55228475,12 4,12.4477153 4,13 L4,13 L4,20 L18,20 C18.5522847,20 19,20.4477153 19,21 C19,21.5522847 18.5522847,22 18,22 L18,22 L3,22 C2.44771525,22 2,21.5522847 2,21 L2,21 L2,13 C2,12.4477153 2.44771525,12 3,12 Z M9,9 C9.55228475,9 10,9.44771525 10,10 C10,10.5522847 9.55228475,11 9,11 L9,11 C9,12.1 8.1,13 7,13 L7,15 L7,15 C8.1,15 9,15.9 9,17 L18,17 L18,17 C18,15.9 18.9,15 20,15 L20,13 L20,13 C18.9,13 18,12.1 18,11 L17.8833789,10.9932723 C17.3860402,10.9355072 17,10.5128358 17,10 C17,9.44771525 17.4477153,9 18,9 L18,9 L21,9 C21.5522847,9 22,9.44771525 22,10 L22,10 L22,18 C22,18.5522847 21.5522847,19 21,19 L21,19 L6,19 C5.44771525,19 5,18.5522847 5,18 L5,18 L5,10 C5,9.44771525 5.44771525,9 6,9 L6,9 Z M12.8,2.3 C13.2,1.9 13.8,1.9 14.2,2.3 L14.2,2.3 L16.7,4.8 C17.1,5.2 17.1,5.8 16.7,6.2 C16.5,6.4 16.25,6.5 16,6.5 C15.75,6.5 15.5,6.4 15.3,6.2 L15.3,6.2 L14.5,5.4 L14.5000514,12.2697734 C15.0966874,12.6168978 15.5,13.2636364 15.5,14 C15.5,15.1 14.6,16 13.5,16 C12.4,16 11.5,15.1 11.5,14 C11.5,13.2636364 11.9033126,12.6168978 12.4999486,12.2697734 L12.5,5.4 L11.7,6.2 C11.3,6.6 10.7,6.6 10.3,6.2 C9.9,5.8 9.9,5.2 10.3,4.8 L10.3,4.8 Z" id="Color" fill="#333333"></path>
    </g>
</svg>