<?xml version="1.0" encoding="UTF-8"?>
<svg width="24px" height="24px" viewBox="0 0 24 24" version="1.1" xmlns="http://www.w3.org/2000/svg" xmlns:xlink="http://www.w3.org/1999/xlink">
    <title>⭕ Action / Pop Out</title>
    <defs>
        <path d="M11.3,11.4 L17.6,5 L16,5 C15.45,5 15,4.55 15,4 C15,3.45 15.45,3 16,3 L20,3 L20.05,3 L20.2,3 L20.3,3 C20.35,3 20.35,3 20.4,3.05 C20.45,3.05 20.45,3.1 20.5,3.1 C20.55,3.1 20.55,3.15 20.6,3.15 C20.65,3.2 20.65,3.2 20.7,3.25 C20.7,3.25 20.75,3.25 20.75,3.3 C20.8,3.35 20.85,3.4 20.9,3.45 C20.9,3.45 20.9,3.5 20.95,3.5 C20.95,3.55 21,3.55 21,3.6 C21,3.65 21,3.65 21.05,3.7 L21.05,3.8 L21.05,4 L21.05,8 C21.05,8.55 20.6,9 20.05,9 C19.5,9 19.05,8.55 19.05,8 L19.05,6.45 L12.7,12.8 C12.5,13 12.25,13.1 12,13.1 C11.75,13.1 11.5,13 11.3,12.8 C10.9,12.45 10.9,11.8 11.3,11.4 Z M12,3 L4,3 C3.45,3 3,3.45 3,4 L3,20 C3,20.55 3.45,21 4,21 L20,21 C20.55,21 21,20.55 21,20 L21,12 C21,11.45 20.55,11 20,11 C19.45,11 19,11.45 19,12 L19,19 L5,19 L5,5 L12,5 C12.55,5 13,4.55 13,4 C13,3.45 12.55,3 12,3 Z" id="path-1"></path>
    </defs>
    <g id="⭕-Action-/-Pop-Out" stroke="none" stroke-width="1" fill="none" fill-rule="evenodd">
        <mask id="mask-2" fill="white">
            <use xlink:href="#path-1"></use>
        </mask>
        <use id="Color" fill="#333333" xlink:href="#path-1"></use>
    </g>
</svg>