<?xml version="1.0" encoding="UTF-8"?>
<svg width="24px" height="24px" viewBox="0 0 24 24" version="1.1" xmlns="http://www.w3.org/2000/svg" xmlns:xlink="http://www.w3.org/1999/xlink">
    <title>⭕ Action / Print</title>
    <defs>
        <path d="M21,7.5 L18,7.5 L18,5 C18,4.45 17.55,4 17,4 L7,4 C6.45,4 6,4.45 6,5 L6,7.5 L3,7.5 C2.45,7.5 2,7.95 2,8.5 L2,15.5 C2,16.05 2.45,16.5 3,16.5 L6,16.5 L6,21 C6,21.55 6.45,22 7,22 L17,22 C17.55,22 18,21.55 18,21 L18,16.5 L21,16.5 C21.55,16.5 22,16.05 22,15.5 L22,8.5 C22,7.95 21.55,7.5 21,7.5 Z M8,6 L16,6 L16,7.5 L8,7.5 L8,6 Z M16,20 L8,20 L8,13.5 L16,13.5 L16,20 Z M20,14.5 L18,14.5 L18,12.5 C18,11.95 17.55,11.5 17,11.5 L7,11.5 C6.45,11.5 6,11.95 6,12.5 L6,14.5 L4,14.5 L4,9.5 L20,9.5 L20,14.5 Z M9.25,15.5 C9.25,15.1 9.6,14.75 10,14.75 L14,14.75 C14.4,14.75 14.75,15.1 14.75,15.5 C14.75,15.9 14.4,16.25 14,16.25 L10,16.25 C9.6,16.25 9.25,15.9 9.25,15.5 Z M9.25,18 C9.25,17.6 9.6,17.25 10,17.25 L14,17.25 C14.4,17.25 14.75,17.6 14.75,18 C14.75,18.4 14.4,18.75 14,18.75 L10,18.75 C9.6,18.75 9.25,18.4 9.25,18 Z" id="path-1"></path>
    </defs>
    <g id="⭕-Action-/-Print" stroke="none" stroke-width="1" fill="none" fill-rule="evenodd">
        <mask id="mask-2" fill="white">
            <use xlink:href="#path-1"></use>
        </mask>
        <use id="Color" fill="#333333" xlink:href="#path-1"></use>
    </g>
</svg>