<?xml version="1.0" encoding="UTF-8"?>
<svg width="24px" height="24px" viewBox="0 0 24 24" version="1.1" xmlns="http://www.w3.org/2000/svg" xmlns:xlink="http://www.w3.org/1999/xlink">
    <title>⭕ Action / Radio</title>
    <defs>
        <path d="M12,2 C6.5,2 2,6.5 2,12 C2,17.5 6.5,22 12,22 C17.5,22 22,17.5 22,12 C22,6.5 17.5,2 12,2 Z M12,20 C7.6,20 4,16.4 4,12 C4,7.6 7.6,4 12,4 C16.4,4 20,7.6 20,12 C20,16.4 16.4,20 12,20 Z M12,16 C14.209139,16 16,14.209139 16,12 C16,9.790861 14.209139,8 12,8 C9.790861,8 8,9.790861 8,12 C8,14.209139 9.790861,16 12,16 Z" id="path-1"></path>
    </defs>
    <g id="⭕-Action-/-Radio" stroke="none" stroke-width="1" fill="none" fill-rule="evenodd">
        <mask id="mask-2" fill="white">
            <use xlink:href="#path-1"></use>
        </mask>
        <use id="Color" fill="#333333" xlink:href="#path-1"></use>
    </g>
</svg>