<?xml version="1.0" encoding="UTF-8"?>
<svg width="24px" height="24px" viewBox="0 0 24 24" version="1.1" xmlns="http://www.w3.org/2000/svg" xmlns:xlink="http://www.w3.org/1999/xlink">
    <title>⭕ Action / Reboot</title>
    <defs>
        <path d="M3,12 C3,9.75 3.85,7.65 5.25,6 L4,6 C3.45,6 3,5.55 3,5 C3,4.45 3.45,4 4,4 L8,4 C8.5,4 8.95,4.4 9,4.9 C9,4.9 9,4.9 9,4.95 L9,5.05 L9,8.55 C9,9.1 8.55,9.55 8,9.55 C7.45,9.55 7,9.1 7,8.55 L7,7.15 C5.75,8.45 5,10.2 5,12.05 C5,15.95 8.15,19.1 12,19.1 C15.85,19.1 19,15.9 19,12 C19,9.5 17.65,7.15 15.5,5.9 C15,5.6 14.85,5 15.15,4.55 C15.45,4.05 16.05,3.9 16.5,4.2 C19.25,5.8 21,8.8 21,12.05 C21,17.05 16.95,21.1 12,21.1 C7.05,21.1 3,17 3,12 Z M11,3 L11,8.5 C11,9.05 11.45,9.5 12,9.5 C12.55,9.5 13,9.05 13,8.5 L13,3 C13,2.45 12.55,2 12,2 C11.45,2 11,2.45 11,3 Z" id="path-1"></path>
    </defs>
    <g id="⭕-Action-/-Reboot" stroke="none" stroke-width="1" fill="none" fill-rule="evenodd">
        <mask id="mask-2" fill="white">
            <use xlink:href="#path-1"></use>
        </mask>
        <use id="Color" fill="#333333" xlink:href="#path-1"></use>
    </g>
</svg>