<?xml version="1.0" encoding="UTF-8"?>
<svg width="24px" height="24px" viewBox="0 0 24 24" version="1.1" xmlns="http://www.w3.org/2000/svg" xmlns:xlink="http://www.w3.org/1999/xlink">
    <title>⭕ Action / Redo</title>
    <defs>
        <path d="M21.5,7.5 L21.5,12 C21.5,12.55 21.05,13 20.5,13 L16,13 C15.45,13 15,12.55 15,12 C15,11.45 15.45,11 16,11 L18.4,11 C16.9,9.4 14.8,8.5 12.55,8.5 C8.1,8.5 4.5,12.1 4.5,16.5 C4.5,17.05 4.05,17.5 3.5,17.5 C2.95,17.5 2.5,17.05 2.5,16.5 C2.5,11 7,6.5 12.55,6.5 C15.2,6.5 17.65,7.5 19.5,9.3 L19.5,7.5 C19.5,6.95 19.95,6.5 20.5,6.5 C21.05,6.5 21.5,6.95 21.5,7.5 Z" id="path-1"></path>
    </defs>
    <g id="⭕-Action-/-Redo" stroke="none" stroke-width="1" fill="none" fill-rule="evenodd">
        <mask id="mask-2" fill="white">
            <use xlink:href="#path-1"></use>
        </mask>
        <use id="Color" fill="#333333" xlink:href="#path-1"></use>
    </g>
</svg>