<?xml version="1.0" encoding="UTF-8"?>
<svg width="24px" height="24px" viewBox="0 0 24 24" version="1.1" xmlns="http://www.w3.org/2000/svg" xmlns:xlink="http://www.w3.org/1999/xlink">
    <title>⭕ Action / Refresh</title>
    <defs>
        <path d="M21.7,12.2 L19.2,14.7 C19,14.9 18.75,15 18.5,15 C18.25,15 18,14.9 17.8,14.7 L15.3,12.2 C14.9,11.8 14.9,11.2 15.3,10.8 C15.7,10.4 16.3,10.4 16.7,10.8 L17.5,11.6 L17.5,11.5 C17.5,8.5 14.95,6 11.85,6 C11,6 10.15,6.2 9.4,6.55 C8.9,6.8 8.3,6.55 8.05,6.05 C7.8,5.55 8.05,4.95 8.55,4.7 C9.6,4.2 10.7,3.95 11.85,3.95 C16.1,4 19.5,7.35 19.5,11.5 L19.5,11.55 L20.3,10.75 C20.7,10.35 21.3,10.35 21.7,10.75 C22.1,11.2 22.1,11.8 21.7,12.2 Z M15,17.15 C14,17.75 13.05,18 12.15,18 C9.05,18 6.5,15.55 6.5,12.5 L6.5,12.4 L7.3,13.2 C7.5,13.4 7.75,13.5 8,13.5 C8.25,13.5 8.5,13.4 8.7,13.2 C9.1,12.8 9.1,12.2 8.7,11.8 L6.2,9.3 C5.8,8.9 5.2,8.9 4.8,9.3 L2.3,11.8 C1.9,12.2 1.9,12.8 2.3,13.2 C2.7,13.6 3.3,13.6 3.7,13.2 L4.5,12.4 L4.5,12.5 C4.5,16.65 7.9,20 12.15,20 C13.4,20 14.7,19.6 16,18.85 C16.5,18.55 16.65,17.95 16.35,17.5 C16.1,17 15.5,16.85 15,17.15 L15,17.15 Z" id="path-1"></path>
    </defs>
    <g id="⭕-Action-/-Refresh" stroke="none" stroke-width="1" fill="none" fill-rule="evenodd">
        <mask id="mask-2" fill="white">
            <use xlink:href="#path-1"></use>
        </mask>
        <use id="Color" fill="#333333" xlink:href="#path-1"></use>
    </g>
</svg>