<?xml version="1.0" encoding="UTF-8"?>
<svg width="24px" height="24px" viewBox="0 0 24 24" version="1.1" xmlns="http://www.w3.org/2000/svg" xmlns:xlink="http://www.w3.org/1999/xlink">
    <title>⭕ Action / Remote Access</title>
    <defs>
        <path d="M6.02785714,8.55062727 C6.05322078,8.58171818 6.02785714,9.75908182 6.02785714,9.75908182 L6.02785714,9.75908182 L4.85867532,9.75908182 L4.85458442,12.1228091 L4.85376623,13.8344455 L4.85212987,17.1693545 L18.7972208,17.1693545 L18.7955844,13.8344455 L18.7947662,12.1228091 L18.7906753,9.75908182 L17.5953117,9.75908182 C17.5953117,9.75908182 17.5756753,8.57435455 17.5953117,8.55062727 L17.5953117,8.55062727 L18.906039,8.55062727 C19.5131299,8.55062727 20.0064935,9.08980909 20.0064935,9.75171818 L20.0064935,9.75171818 L20.0064935,17.1767182 C20.0064935,17.8394455 19.5123117,18.3786273 18.9052208,18.3786273 L18.9052208,18.3786273 L13.5723117,18.3786273 L13.5723117,19.8783545 L16.6568571,19.8783545 L16.6568571,20.9059909 L7.81067532,20.9059909 L7.81067532,19.8783545 L10.8952208,19.8783545 L10.8952208,18.3786273 L4.74412987,18.3786273 C4.13703896,18.3786273 3.64285714,17.8394455 3.64285714,17.1767182 L3.64285714,17.1767182 L3.64285714,9.75171818 C3.64285714,9.08980909 4.13622078,8.55062727 4.74249351,8.55062727 L4.74249351,8.55062727 Z M12.5446753,18.3786273 L11.9228571,18.3786273 L11.9228571,19.8783545 L12.5446753,19.8783545 L12.5446753,18.3786273 Z M7.51179351,3 C11.2885208,3 13.6097026,4.78445455 13.7242481,7.77245455 L13.7242481,7.77245455 L13.7455208,8.35172727 L15.9210662,8.35172727 L11.8097026,14.6959091 L7.70242987,8.35172727 L9.96961169,8.35172727 L9.94424805,7.725 C9.84033896,5.25490909 8.46415714,4.017 6.3557026,3.10718182 C6.7337026,3.036 7.11906623,3 7.51179351,3 Z" id="path-1"></path>
    </defs>
    <g id="⭕-Action-/-Remote-Access" stroke="none" stroke-width="1" fill="none" fill-rule="evenodd">
        <mask id="mask-2" fill="white">
            <use xlink:href="#path-1"></use>
        </mask>
        <use id="Mask" fill="#333333" xlink:href="#path-1"></use>
    </g>
</svg>