<?xml version="1.0" encoding="UTF-8"?>
<svg width="24px" height="24px" viewBox="0 0 24 24" version="1.1" xmlns="http://www.w3.org/2000/svg" xmlns:xlink="http://www.w3.org/1999/xlink">
    <title>⭕ Action / Resend Patch Inventory</title>
    <defs>
        <path d="M11.5,17.5 C11.5,15 13.5,13 16,13 C16.9,13 17.75,13.3 18.5,13.75 L18.5,13.25 C18.5,12.85 18.85,12.5 19.25,12.5 C19.65,12.5 20,12.85 20,13.25 L20,15.65 L20,15.75 L20,15.8 L20,15.85 C20,15.85 20,15.9 19.95,15.9 C19.95,15.9 19.95,15.95 19.9,15.95 C19.9,15.95 19.9,16 19.85,16 L19.8,16.05 L19.75,16.1 L19.7,16.15 L19.65,16.2 C19.65,16.2 19.65,16.2 19.6,16.2 C19.55,16.2 19.55,16.25 19.5,16.25 L19.45,16.25 L19.35,16.25 L19.25,16.25 L19.2,16.25 L16.85,16.25 C16.45,16.25 16.1,15.9 16.1,15.5 C16.1,15.1 16.45,14.75 16.85,14.75 L17.4,14.75 C17,14.65 16.5,14.5 16,14.5 C14.35,14.5 13,15.85 13,17.5 C13,19.15 14.35,20.5 16,20.5 C17.05,20.5 18.05,19.95 18.6,19 C18.8,18.65 19.25,18.5 19.6,18.75 C19.95,18.95 20.1,19.4 19.85,19.75 C19.1,21.15 17.6,22 16,22 C13.5,22 11.5,20 11.5,17.5 Z M4,21 C4,21.55 4.45,22 5,22 L9.5,22 C10.05,22 10.5,21.55 10.5,21 C10.5,20.45 10.05,20 9.5,20 L6,20 L6,4 L8,4 L8,5 C8,5.55 8.45,6 9,6 L15,6 C15.55,6 16,5.55 16,5 L16,4 L18,4 L18,9.5 C18,10.05 18.45,10.5 19,10.5 C19.55,10.5 20,10.05 20,9.5 L20,3 C20,2.45 19.55,2 19,2 L5,2 C4.45,2 4,2.45 4,3 L4,21 Z M16,9 C16,8.45 15.55,8 15,8 L9,8 C8.45,8 8,8.45 8,9 C8,9.55 8.45,10 9,10 L15,10 C15.55,10 16,9.55 16,9 Z" id="path-1"></path>
    </defs>
    <g id="⭕-Action-/-Resend-Patch-Inventory" stroke="none" stroke-width="1" fill="none" fill-rule="evenodd">
        <mask id="mask-2" fill="white">
            <use xlink:href="#path-1"></use>
        </mask>
        <use id="Color" fill="#333333" xlink:href="#path-1"></use>
    </g>
</svg>