<?xml version="1.0" encoding="UTF-8"?>
<svg width="24px" height="24px" viewBox="0 0 24 24" version="1.1" xmlns="http://www.w3.org/2000/svg" xmlns:xlink="http://www.w3.org/1999/xlink">
    <title>⭕ Action / Resize Area</title>
    <defs>
        <path d="M21,19 C21,20.1 20.1,21 19,21 C17.9,21 17,20.1 17,19 C17,17.9 17.9,17 19,17 C20.1,17 21,17.9 21,19 Z M19,11 C17.9,11 17,11.9 17,13 C17,14.1 17.9,15 19,15 C20.1,15 21,14.1 21,13 C21,11.9 20.1,11 19,11 Z M19,5 C17.9,5 17,5.9 17,7 C17,8.1 17.9,9 19,9 C20.1,9 21,8.1 21,7 C21,5.9 20.1,5 19,5 Z M15,19 C15,20.1 14.1,21 13,21 C11.9,21 11,20.1 11,19 C11,17.9 11.9,17 13,17 C14.1,17 15,17.9 15,19 Z M13,11 C11.9,11 11,11.9 11,13 C11,14.1 11.9,15 13,15 C14.1,15 15,14.1 15,13 C15,11.9 14.1,11 13,11 Z M7,17 C5.9,17 5,17.9 5,19 C5,20.1 5.9,21 7,21 C8.1,21 9,20.1 9,19 C9,17.9 8.1,17 7,17 Z" id="path-1"></path>
    </defs>
    <g id="⭕-Action-/-Resize-Area" stroke="none" stroke-width="1" fill="none" fill-rule="evenodd">
        <mask id="mask-2" fill="white">
            <use xlink:href="#path-1"></use>
        </mask>
        <use id="Color" fill="#333333" xlink:href="#path-1"></use>
    </g>
</svg>