<?xml version="1.0" encoding="UTF-8"?>
<svg width="24px" height="24px" viewBox="0 0 24 24" version="1.1" xmlns="http://www.w3.org/2000/svg" xmlns:xlink="http://www.w3.org/1999/xlink">
    <title>⭕ Action / Restart</title>
    <defs>
        <path d="M21,12 C21,17.5 16.5,22 10.95,22 C7.4,22 4.05,20.1 2.25,17 C1.95,16.5 2.15,15.9 2.6,15.65 C3.1,15.35 3.7,15.55 3.95,16 C5.4,18.45 8.05,20 10.9,20 C15.4,20 19,16.4 19,12 C19,7.6 15.4,4 10.95,4 C8.7,4 6.6,4.9 5.1,6.5 L7.5,6.5 C8.05,6.5 8.5,6.95 8.5,7.5 C8.5,8.05 8.05,8.5 7.5,8.5 L3,8.5 C2.45,8.5 2,8.05 2,7.5 L2,3 C2,2.45 2.45,2 3,2 C3.55,2 4,2.45 4,3 L4,4.8 C5.85,3 8.35,2 10.95,2 C16.5,2 21,6.5 21,12 Z" id="path-1"></path>
    </defs>
    <g id="⭕-Action-/-Restart" stroke="none" stroke-width="1" fill="none" fill-rule="evenodd">
        <mask id="mask-2" fill="white">
            <use xlink:href="#path-1"></use>
        </mask>
        <use id="Color" fill="#333333" transform="translate(11.500000, 12.000000) scale(-1, 1) translate(-11.500000, -12.000000) " xlink:href="#path-1"></use>
    </g>
</svg>