<?xml version="1.0" encoding="UTF-8"?>
<svg width="24px" height="24px" viewBox="0 0 24 24" version="1.1" xmlns="http://www.w3.org/2000/svg" xmlns:xlink="http://www.w3.org/1999/xlink">
    <title>⭕ Action / Restore</title>
    <defs>
        <path d="M22,12 C22,17.5 17.5,22 11.95,22 C8.4,22 5.05,20.1 3.25,17 C2.95,16.5 3.15,15.9 3.6,15.65 C4.1,15.35 4.7,15.55 4.95,16 C6.4,18.45 9.05,20 11.9,20 C16.4,20 20,16.4 20,12 C20,7.6 16.4,4 11.95,4 C9.7,4 7.6,4.9 6.1,6.5 L8.5,6.5 C9.05,6.5 9.5,6.95 9.5,7.5 C9.5,8.05 9.05,8.5 8.5,8.5 L4,8.5 C3.45,8.5 3,8.05 3,7.5 L3,3 C3,2.45 3.45,2 4,2 C4.55,2 5,2.45 5,3 L5,4.8 C6.85,3 9.35,2 11.95,2 C17.5,2 22,6.5 22,12 Z" id="path-1"></path>
    </defs>
    <g id="⭕-Action-/-Restore" stroke="none" stroke-width="1" fill="none" fill-rule="evenodd">
        <mask id="mask-2" fill="white">
            <use xlink:href="#path-1"></use>
        </mask>
        <use id="Color" fill="#333333" xlink:href="#path-1"></use>
    </g>
</svg>