<?xml version="1.0" encoding="UTF-8"?>
<svg width="24px" height="24px" viewBox="0 0 24 24" version="1.1" xmlns="http://www.w3.org/2000/svg" xmlns:xlink="http://www.w3.org/1999/xlink">
    <title>⭕ Action / Save &amp; Close</title>
    <defs>
        <path d="M20.7,6.8 L17.2,3.3 C17,3.1 16.75,3 16.5,3 L4,3 C3.45,3 3,3.45 3,4 L3,20 C3,20.55 3.45,21 4,21 L20,21 C20.55,21 21,20.55 21,20 L21,7.5 C21,7.25 20.9,7 20.7,6.8 Z M9,5 L12,5 L12,7.5 L9,7.5 L9,5 Z M19,19 L5,19 L5,5 L7,5 L7,8.5 C7,9.05 7.45,9.5 8,9.5 L13,9.5 C13.55,9.5 14,9.05 14,8.5 L14,5 L16.1,5 L19,7.9 L19,19 Z M16,14.5 C16,15.05 15.55,15.5 15,15.5 L11.4,15.5 L11.7,15.8 C12.1,16.2 12.1,16.8 11.7,17.2 C11.5,17.4 11.25,17.5 11,17.5 C10.75,17.5 10.5,17.4 10.3,17.2 L8.3,15.2 C8.1,15 8,14.75 8,14.5 C8,14.25 8.1,14 8.3,13.8 L10.3,11.8 C10.7,11.4 11.3,11.4 11.7,11.8 C12.1,12.2 12.1,12.8 11.7,13.2 L11.4,13.5 L15,13.5 C15.55,13.5 16,13.95 16,14.5 L16,14.5 Z" id="path-1"></path>
    </defs>
    <g id="⭕-Action-/-Save-&amp;-Close" stroke="none" stroke-width="1" fill="none" fill-rule="evenodd">
        <mask id="mask-2" fill="white">
            <use xlink:href="#path-1"></use>
        </mask>
        <use id="Color" fill="#333333" xlink:href="#path-1"></use>
    </g>
</svg>