<?xml version="1.0" encoding="UTF-8"?>
<svg width="24px" height="24px" viewBox="0 0 24 24" version="1.1" xmlns="http://www.w3.org/2000/svg" xmlns:xlink="http://www.w3.org/1999/xlink">
    <title>⭕ Action / Scan Barcode</title>
    <defs>
        <path d="M21,17 C21.55,17 22,17.45 22,18 L22,18 L22,21 C22,21.55 21.55,22 21,22 L21,22 L18,22 C17.45,22 17,21.55 17,21 C17,20.45 17.45,20 18,20 L18,20 L20,20 L20,18 C20,17.45 20.45,17 21,17 Z M3,17 C3.55,17 4,17.45 4,18 L4,18 L4,20 L6,20 C6.55,20 7,20.45 7,21 C7,21.55 6.55,22 6,22 L6,22 L3,22 C2.45,22 2,21.55 2,21 L2,21 L2,18 C2,17.45 2.45,17 3,17 Z M17.25,7 C17.8,7 18.25,7.45 18.25,8 L18.25,8 L18.25,16.5 C18.25,17.05 17.8,17.5 17.25,17.5 C16.7,17.5 16.25,17.05 16.25,16.5 L16.25,16.5 L16.25,8 C16.25,7.45 16.7,7 17.25,7 Z M6.75,7 C7.3,7 7.75,7.45 7.75,8 L7.75,8 L7.75,16.5 C7.75,17.05 7.3,17.5 6.75,17.5 C6.2,17.5 5.75,17.05 5.75,16.5 L5.75,16.5 L5.75,8 C5.75,7.45 6.2,7 6.75,7 Z M13.75,7 C14.3,7 14.75,7.45 14.75,8 L14.75,8 L14.75,15 C14.75,15.55 14.3,16 13.75,16 C13.2,16 12.75,15.55 12.75,15 L12.75,15 L12.75,8 C12.75,7.45 13.2,7 13.75,7 Z M10.25,7 C10.8,7 11.25,7.45 11.25,8 L11.25,8 L11.25,15 C11.25,15.55 10.8,16 10.25,16 C9.7,16 9.25,15.55 9.25,15 L9.25,15 L9.25,8 C9.25,7.45 9.7,7 10.25,7 Z M21,2 C21.55,2 22,2.45 22,3 L22,3 L22,6 C22,6.55 21.55,7 21,7 C20.45,7 20,6.55 20,6 L20,6 L20,4 L18,4 C17.45,4 17,3.55 17,3 C17,2.45 17.45,2 18,2 L18,2 Z M6,2 C6.55,2 7,2.45 7,3 C7,3.55 6.55,4 6,4 L6,4 L4,4 L4,6 C4,6.55 3.55,7 3,7 C2.45,7 2,6.55 2,6 L2,6 L2,3 C2,2.45 2.45,2 3,2 L3,2 Z" id="path-1"></path>
    </defs>
    <g id="⭕-Action-/-Scan-Barcode" stroke="none" stroke-width="1" fill="none" fill-rule="evenodd">
        <mask id="mask-2" fill="white">
            <use xlink:href="#path-1"></use>
        </mask>
        <use id="Color" fill="#333333" xlink:href="#path-1"></use>
    </g>
</svg>