<?xml version="1.0" encoding="UTF-8"?>
<svg width="24px" height="24px" viewBox="0 0 24 24" version="1.1" xmlns="http://www.w3.org/2000/svg" xmlns:xlink="http://www.w3.org/1999/xlink">
    <title>⭕ Action / Screenshot</title>
    <defs>
        <path d="M12,8 C9.8,8 8,9.8 8,12 C8,14.2 9.8,16 12,16 C14.2,16 16,14.2 16,12 C16,9.8 14.2,8 12,8 Z M12,14 C10.9,14 10,13.1 10,12 C10,10.9 10.9,10 12,10 C13.1,10 14,10.9 14,12 C14,13.1 13.1,14 12,14 Z M19.85,4 L15.9,4 L14.2,2.3 C14,2.1 13.75,2 13.5,2 L10.5,2 C10.25,2 10,2.1 9.8,2.3 L8.1,4 L4.15,4 C2.95,4 2,4.95 2,6.15 L2,17.85 C2,19.05 2.95,20 4.15,20 L19.85,20 C21.05,20 22,19.05 22,17.85 L22,6.15 C22,4.95 21.05,4 19.85,4 Z M20,17.85 C20,17.95 19.95,18 19.85,18 L4.15,18 C4.05,18 4,17.95 4,17.85 L4,6.15 C4,6.05 4.05,6 4.15,6 L8.5,6 C8.75,6 9,5.9 9.2,5.7 L10.9,4 L13.05,4 L14.75,5.7 C15,5.9 15.25,6 15.5,6 L19.85,6 C19.95,6 20,6.05 20,6.15 L20,17.85 Z M7,8 C7,8.55 6.55,9 6,9 C5.45,9 5,8.55 5,8 C5,7.45 5.45,7 6,7 C6.55,7 7,7.45 7,8 Z" id="path-1"></path>
    </defs>
    <g id="⭕-Action-/-Screenshot" stroke="none" stroke-width="1" fill="none" fill-rule="evenodd">
        <mask id="mask-2" fill="white">
            <use xlink:href="#path-1"></use>
        </mask>
        <use id="Color" fill="#333333" xlink:href="#path-1"></use>
    </g>
</svg>