<?xml version="1.0" encoding="UTF-8"?>
<svg width="24px" height="24px" viewBox="0 0 24 24" version="1.1" xmlns="http://www.w3.org/2000/svg" xmlns:xlink="http://www.w3.org/1999/xlink">
    <title>⭕ Action / Search Folder</title>
    <defs>
        <path d="M22,7 L22,9.5 C22,10.05 21.55,10.5 21,10.5 C20.45,10.5 20,10.05 20,9.5 L20,8 L11,8 C10.75,8 10.5,7.9 10.3,7.7 L8.6,6 L4,6 L4,18 L11.5,18 C12.05,18 12.5,18.45 12.5,19 C12.5,19.55 12.05,20 11.5,20 L3,20 C2.45,20 2,19.55 2,19 L2,5 C2,4.45 2.45,4 3,4 L9,4 C9.25,4 9.5,4.1 9.7,4.3 L11.4,6 L21,6 C21.55,6 22,6.45 22,7 Z M21.8,18.7 C22.1,19 22.1,19.45 21.8,19.75 C21.65,19.9 21.45,19.95 21.25,19.95 C21.05,19.95 20.85,19.9 20.7,19.75 L18.5,17.6 C17.9,18 17.15,18.25 16.35,18.25 C14.2,18.25 12.45,16.5 12.45,14.35 C12.45,12.2 14.2,10.45 16.35,10.45 C18.5,10.45 20.25,12.2 20.25,14.35 C20.25,15.15 20,15.9 19.6,16.5 L21.8,18.7 Z M16.4,16.75 C17.7,16.75 18.8,15.7 18.8,14.35 C18.8,13 17.7,12 16.4,12 C15.1,12 14,13.05 14,14.35 C14,15.65 15.05,16.75 16.4,16.75 Z" id="path-1"></path>
    </defs>
    <g id="⭕-Action-/-Search-Folder" stroke="none" stroke-width="1" fill="none" fill-rule="evenodd">
        <mask id="mask-2" fill="white">
            <use xlink:href="#path-1"></use>
        </mask>
        <use id="Color" fill="#333333" xlink:href="#path-1"></use>
    </g>
</svg>