<?xml version="1.0" encoding="UTF-8"?>
<svg width="24px" height="24px" viewBox="0 0 24 24" version="1.1" xmlns="http://www.w3.org/2000/svg" xmlns:xlink="http://www.w3.org/1999/xlink">
    <title>⭕ Action / Search Product</title>
    <g id="⭕-Action-/-Search-Product" stroke="none" stroke-width="1" fill="none" fill-rule="evenodd">
        <path d="M18.35,17.25 C18.75,16.65 19,15.9 19,15.1 C19,12.95 17.25,11.2 15.1,11.2 C12.95,11.2 11.2,12.95 11.2,15.1 C11.2,17.25 13,19 15.1,19 C15.9,19 16.65,18.75 17.25,18.35 L19.45,20.55 C19.6,20.7 19.8,20.75 20,20.75 C20.2,20.75 20.4,20.7 20.55,20.55 C20.85,20.25 20.85,19.8 20.55,19.5 C20.55,19.5 18.35,17.25 18.35,17.25 Z M12.75,15.1 C12.75,13.8 13.8,12.7 15.15,12.7 C16.5,12.7 17.55,13.75 17.55,15.1 C17.55,16.45 16.45,17.5 15.1,17.5 C13.75,17.5 12.75,16.4 12.75,15.1 Z M21,4 L21,9 C21,9.55 20.55,10 20,10 C19.45,10 19,9.55 19,9 L19,5 L13.5,5 L13.5,9 L10.5,9 L10.5,5 L5,5 L5,18 L9,18 C9.55,18 10,18.45 10,19 C10,19.55 9.55,20 9,20 L4,20 C3.45,20 3,19.55 3,19 L3,4 C3,3.45 3.45,3 4,3 L20,3 C20.55,3 21,3.45 21,4 Z" id="Color" fill="#333333"></path>
    </g>
</svg>