<?xml version="1.0" encoding="UTF-8"?>
<svg width="24px" height="24px" viewBox="0 0 24 24" version="1.1" xmlns="http://www.w3.org/2000/svg" xmlns:xlink="http://www.w3.org/1999/xlink">
    <title>⭕ Action / Search File</title>
    <defs>
        <path d="M9.5,21 C9.5,21.55 9.05,22 8.5,22 L5,22 C4.75,22 4.5,21.9 4.3,21.7 C4.1,21.5 4,21.25 4,21 L4,3 C4,2.45 4.45,2 5,2 L15.5,2 C15.6,2 15.65,2 15.75,2.05 C15.95,2.1 16.1,2.2 16.2,2.3 L19.7,5.8 C19.9,6 20,6.25 20,6.5 L20,11 C20,11.55 19.55,12 19,12 C18.45,12 18,11.55 18,11 L18,8 L15,8 C14.45,8 14,7.55 14,7 L14,4 L6,4 L6,20 L8.5,20 C9.05,20 9.5,20.45 9.5,21 Z M20.05,22.05 C19.9,22.2 19.7,22.25 19.5,22.25 C19.3,22.25 19.1,22.2 18.95,22.05 L16.75,19.85 C16.15,20.25 15.4,20.5 14.6,20.5 C12.45,20.5 10.7,18.75 10.7,16.6 C10.7,14.45 12.45,12.7 14.6,12.7 C16.75,12.7 18.5,14.45 18.5,16.6 C18.5,17.4 18.25,18.15 17.85,18.75 L20.05,20.95 C20.3,21.25 20.3,21.75 20.05,22.05 Z M14.6,19 C15.9,19 17,17.95 17,16.6 C17,15.25 15.95,14.2 14.6,14.2 C13.25,14.2 12.2,15.25 12.2,16.6 C12.2,17.95 13.3,19 14.6,19 Z" id="path-1"></path>
    </defs>
    <g id="⭕-Action-/-Search-File" stroke="none" stroke-width="1" fill="none" fill-rule="evenodd">
        <mask id="mask-2" fill="white">
            <use xlink:href="#path-1"></use>
        </mask>
        <use id="Color" fill="#333333" xlink:href="#path-1"></use>
    </g>
</svg>