<?xml version="1.0" encoding="UTF-8"?>
<svg width="24px" height="24px" viewBox="0 0 24 24" version="1.1" xmlns="http://www.w3.org/2000/svg" xmlns:xlink="http://www.w3.org/1999/xlink">
    <title>⭕ Action / Select All</title>
    <defs>
        <path d="M3,19.1 L3,4 C3,3.45 3.45,3 4,3 L19.1,3 C19.65,3 20.1,3.45 20.1,4 C20.1,4.55 19.65,5 19.1,5 L5,5 L5,19.1 C5,19.65 4.55,20.1 4,20.1 C3.45,20.1 3,19.65 3,19.1 Z M21,8 L21,20 C21,20.55 20.55,21 20,21 L8,21 C7.45,21 7,20.55 7,20 L7,8 C7,7.45 7.45,7 8,7 L20,7 C20.55,7 21,7.45 21,8 Z M19,9 L9,9 L9,19 L19,19 L19,9 Z M12.8,16.2 C13,16.4 13.25,16.5 13.5,16.5 C13.75,16.5 14,16.4 14.2,16.2 L17.2,13.2 C17.6,12.8 17.6,12.2 17.2,11.8 C16.8,11.4 16.2,11.4 15.8,11.8 L13.5,14.1 L12.7,13.3 C12.3,12.9 11.7,12.9 11.3,13.3 C10.9,13.7 10.9,14.3 11.3,14.7 L12.8,16.2 L12.8,16.2 Z" id="path-1"></path>
    </defs>
    <g id="⭕-Action-/-Select-All" stroke="none" stroke-width="1" fill="none" fill-rule="evenodd">
        <mask id="mask-2" fill="white">
            <use xlink:href="#path-1"></use>
        </mask>
        <use id="Color" fill="#333333" xlink:href="#path-1"></use>
    </g>
</svg>