<?xml version="1.0" encoding="UTF-8"?>
<svg width="24px" height="24px" viewBox="0 0 24 24" version="1.1" xmlns="http://www.w3.org/2000/svg" xmlns:xlink="http://www.w3.org/1999/xlink">
    <title>⭕ Action / Send Status Notification</title>
    <defs>
        <path d="M5,8 C5,6.05 6.55,4.5 8.5,4.5 C10.45,4.5 12,6.05 12,8 C12,9.95 10.45,11.5 8.5,11.5 C6.55,11.5 5,9.95 5,8 Z M8.5,13 C6.2,13 4,14.05 2.25,16 C2.1,16.2 2,16.45 2,16.7 L2,19 C2,19.55 2.45,20 3,20 L14,20 C14.55,20 15,19.55 15,19 L15,16.7 C15,16.45 14.9,16.2 14.75,16.05 C13,14.1 10.8,13 8.5,13 Z M17.5,12 C16.95,12 16.5,12.45 16.5,13 C16.5,13.55 16.95,14 17.5,14 C18.05,14 18.5,13.55 18.5,13 C18.5,12.45 18.05,12 17.5,12 Z M17.45,3 C15.95,3 14.65,3.95 14.1,5.45 C14,5.9 14.25,6.4 14.75,6.55 C15.2,6.65 15.65,6.4 15.8,6 C16.05,5.3 16.7,4.8 17.45,4.8 C18.4,4.8 19.2,5.6 19.2,6.6 C19.2,8.1 17.35,8.15 16.7,9.9 C16.55,10.35 16.85,10.85 17.3,11 C17.75,11.15 18.25,10.85 18.4,10.4 C18.9,8.95 20.95,8.55 20.95,6.6 C21,4.6 19.4,3 17.45,3 L17.45,3 Z" id="path-1"></path>
    </defs>
    <g id="⭕-Action-/-Send-Status-Notification" stroke="none" stroke-width="1" fill="none" fill-rule="evenodd">
        <mask id="mask-2" fill="white">
            <use xlink:href="#path-1"></use>
        </mask>
        <use id="Color" fill="#333333" xlink:href="#path-1"></use>
    </g>
</svg>