<?xml version="1.0" encoding="UTF-8"?>
<svg width="24px" height="24px" viewBox="0 0 24 24" version="1.1" xmlns="http://www.w3.org/2000/svg" xmlns:xlink="http://www.w3.org/1999/xlink">
    <title>⭕ Action / Send File</title>
    <defs>
        <path d="M16.2,2.3 C16,2.1 15.75,2 15.5,2 L5,2 C4.45,2 4,2.45 4,3 L4,21 C4,21.55 4.45,22 5,22 L19,22 C19.55,22 20,21.55 20,21 L20,6.5 C20,6.25 19.9,6 19.7,5.8 L16.2,2.3 Z M18,20 L6,20 L6,4 L15.1,4 L18,6.9 L18,20 Z M15.95,11.65 C15.95,11.7 16,11.75 16,11.8 L16,12 L16,12.2 C16,12.25 15.95,12.3 15.95,12.35 L15.95,12.4 C15.95,12.45 15.9,12.5 15.9,12.55 L15.9,12.6 C15.85,12.65 15.85,12.7 15.8,12.7 C15.8,12.7 15.8,12.7 15.8,12.75 L13.8,14.75 C13.5,14.9 13.25,15 13,15 C12.75,15 12.5,14.9 12.3,14.7 C11.9,14.3 11.9,13.7 12.3,13.3 L12.6,13 L9,13 C8.45,13 8,12.55 8,12 C8,11.45 8.45,11 9,11 L12.6,11 L12.3,10.7 C11.9,10.3 11.9,9.7 12.3,9.3 C12.7,8.9 13.3,8.9 13.7,9.3 L15.7,11.3 C15.7,11.3 15.7,11.3 15.7,11.35 C15.75,11.4 15.75,11.45 15.8,11.45 L15.8,11.5 C15.85,11.55 15.85,11.6 15.85,11.65 L15.95,11.65 Z" id="path-1"></path>
    </defs>
    <g id="⭕-Action-/-Send-File" stroke="none" stroke-width="1" fill="none" fill-rule="evenodd">
        <mask id="mask-2" fill="white">
            <use xlink:href="#path-1"></use>
        </mask>
        <use id="Color" fill="#333333" xlink:href="#path-1"></use>
    </g>
</svg>