<?xml version="1.0" encoding="UTF-8"?>
<svg width="24px" height="24px" viewBox="0 0 24 24" version="1.1" xmlns="http://www.w3.org/2000/svg" xmlns:xlink="http://www.w3.org/1999/xlink">
    <title>⭕ Action / Set Recurring Meeting</title>
    <g id="⭕-Action-/-Set-Recurring-Meeting" stroke="none" stroke-width="1" fill="none" fill-rule="evenodd">
        <path d="M21,5 L21,10.5 C21,11.05 20.55,11.5 20,11.5 C19.45,11.5 19,11.05 19,10.5 L19,9 L5,9 L5,19 L10.5,19 C11.05,19 11.5,19.45 11.5,20 C11.5,20.55 11.05,21 10.5,21 L4,21 C3.45,21 3,20.55 3,20 L3,5 C3,4.45 3.45,4 4,4 L5,4 L5,3 C5,2.45 5.45,2 6,2 C6.55,2 7,2.45 7,3 L7,4 L17,4 L17,3 C17,2.45 17.45,2 18,2 C18.55,2 19,2.45 19,3 L19,4 L20,4 C20.55,4 21,4.45 21,5 Z M11,15 L11,11 L7,11 L7,15 L11,15 Z M20.25,12.5 C19.85,12.5 19.5,12.85 19.5,13.25 L19.5,13.75 C18.75,13.25 17.9,13 17,13 C14.5,13 12.5,15 12.5,17.5 C12.5,20 14.5,22 17,22 C18.6,22 20.1,21.15 20.9,19.75 C21.1,19.4 21,18.95 20.65,18.75 C20.3,18.55 19.85,18.65 19.65,19 C19.1,19.95 18.1,20.5 17.05,20.5 C15.4,20.5 14.05,19.15 14.05,17.5 C14.05,15.85 15.4,14.5 17.05,14.5 C17.55,14.5 18.05,14.65 18.5,14.9 L17.95,14.9 C17.55,14.9 17.2,15.25 17.2,15.65 C17.2,16.05 17.55,16.4 17.95,16.4 L20.3,16.4 C20.7,16.4 21.05,16.05 21.05,15.65 L21.05,13.25 C21,12.85 20.65,12.5 20.25,12.5 L20.25,12.5 Z" id="Color" fill="#333333"></path>
    </g>
</svg>