<?xml version="1.0" encoding="UTF-8"?>
<svg width="24px" height="24px" viewBox="0 0 24 24" version="1.1" xmlns="http://www.w3.org/2000/svg" xmlns:xlink="http://www.w3.org/1999/xlink">
    <title>⭕ Action / Small Arrow Up</title>
    <defs>
        <path d="M10.95,17 L11,9.4 L10.4,10 C10,10.4 9.4,10.4 9,10 C8.6,9.6 8.6,9 9,8.6 L11.3,6.3 C11.45,6.1 11.7,6 12,6 C12.25,6 12.5,6.1 12.7,6.3 L15,8.6 C15.4,9 15.4,9.6 15,10 C14.8,10.2 14.55,10.3 14.3,10.3 C14.05,10.3 13.8,10.2 13.6,10 L13,9.4 L12.95,17 C12.95,17.55 12.5,18 11.95,18 C11.4,18 10.95,17.55 10.95,17 Z" id="path-1"></path>
    </defs>
    <g id="⭕-Action-/-Small-Arrow-Up" stroke="none" stroke-width="1" fill="none" fill-rule="evenodd">
        <mask id="mask-2" fill="white">
            <use xlink:href="#path-1"></use>
        </mask>
        <use id="Color" fill="#333333" xlink:href="#path-1"></use>
    </g>
</svg>