<?xml version="1.0" encoding="UTF-8"?>
<svg width="24px" height="24px" viewBox="0 0 24 24" version="1.1" xmlns="http://www.w3.org/2000/svg" xmlns:xlink="http://www.w3.org/1999/xlink">
    <title>⭕ Action / Strikethrough</title>
    <defs>
        <path d="M7.25,10.25 C7,9.75 6.85,9.2 6.85,8.6 C6.85,8 7,7.45 7.25,6.95 C7.5,6.45 7.9,6 8.35,5.65 C8.85,5.3 9.4,5 10.05,4.8 C10.7,4.6 11.45,4.5 12.25,4.5 C13.05,4.5 13.8,4.6 14.45,4.85 C15.1,5.05 15.7,5.4 16.15,5.8 C16.6,6.2 17,6.7 17.25,7.25 C17.5,7.8 17.65,8.4 17.65,9.05 L14.65,9.05 C14.65,8.75 14.6,8.45 14.5,8.2 C14.4,7.95 14.25,7.7 14.05,7.5 C13.85,7.3 13.6,7.15 13.3,7.05 C13,6.95 12.65,6.9 12.25,6.9 C11.85,6.9 11.5,6.95 11.2,7.05 C10.9,7.15 10.65,7.25 10.5,7.4 C10.3,7.55 10.15,7.75 10.05,7.95 C9.95,8.15 9.9,8.4 9.9,8.6 C9.9,9.1 10.15,9.5 10.65,9.8 C11.05,10.05 11.4,10.3 12.05,10.5 L7.45,10.5 C7.35,10.4 7.3,10.35 7.25,10.25 Z M21,13.5 L21,11.5 L3,11.5 L3,13.5 L12.6,13.5 C12.8,13.55 13,13.65 13.15,13.7 C13.5,13.85 13.8,14.05 14,14.2 C14.2,14.35 14.35,14.55 14.45,14.75 C14.5,14.95 14.55,15.2 14.55,15.45 C14.55,15.7 14.5,15.9 14.4,16.1 C14.3,16.3 14.15,16.5 14,16.65 C13.8,16.8 13.6,16.9 13.3,17 C13,17.1 12.65,17.15 12.3,17.15 C11.85,17.15 11.45,17.1 11.1,17 C10.75,16.9 10.45,16.75 10.2,16.6 C9.95,16.4 9.75,16.15 9.6,15.85 C9.45,15.55 9.35,15.1 9.35,14.65 L6.4,14.65 C6.4,15.2 6.5,15.8 6.65,16.25 C6.8,16.7 7,17.1 7.3,17.45 C7.6,17.8 7.9,18.1 8.3,18.35 C8.65,18.6 9.1,18.85 9.5,19 C9.95,19.15 10.4,19.3 10.9,19.4 C11.4,19.5 11.85,19.55 12.35,19.55 C13.15,19.55 13.9,19.45 14.55,19.25 C15.2,19.05 15.75,18.8 16.2,18.45 C16.65,18.1 17,17.7 17.25,17.2 C17.5,16.7 17.65,16.15 17.65,15.5 C17.65,14.9 17.55,14.35 17.35,13.9 C17.3,13.8 17.25,13.65 17.2,13.55 L21,13.5 L21,13.5 Z" id="path-1"></path>
    </defs>
    <g id="⭕-Action-/-Strikethrough" stroke="none" stroke-width="1" fill="none" fill-rule="evenodd">
        <mask id="mask-2" fill="white">
            <use xlink:href="#path-1"></use>
        </mask>
        <use id="Color" fill="#333333" xlink:href="#path-1"></use>
    </g>
</svg>