<?xml version="1.0" encoding="UTF-8"?>
<svg width="24px" height="24px" viewBox="0 0 24 24" version="1.1" xmlns="http://www.w3.org/2000/svg" xmlns:xlink="http://www.w3.org/1999/xlink">
    <title>⭕ Action / Switch User</title>
    <defs>
        <path d="M9.45,5.45 C9.45,4.05 10.6,2.9 12,2.9 C13.4,2.9 14.55,4.05 14.55,5.45 C14.55,6.85 13.4,8 12,8 C10.6,8 9.45,6.85 9.45,5.45 Z M8,14.5 L16,14.5 C16.55,14.5 17,14.05 17,13.5 L17,11.8 C17,11.55 16.9,11.3 16.75,11.15 C15.45,9.65 13.75,8.85 12,8.85 C10.25,8.85 8.55,9.65 7.25,11.15 C7.1,11.35 7,11.55 7,11.8 L7,13.5 C7,14.05 7.45,14.5 8,14.5 Z M10,17.45 L5.8,17.45 L6.5,16.75 C6.8,16.45 6.8,16 6.5,15.7 C6.2,15.4 5.75,15.4 5.45,15.7 L3.45,17.7 C3.4,17.75 3.4,17.75 3.35,17.8 C3.3,17.9 3.25,18 3.25,18.1 L3.25,18.2 L3.25,18.25 L3.25,18.35 C3.25,18.4 3.25,18.4 3.3,18.45 C3.3,18.45 3.3,18.45 3.3,18.5 C3.3,18.55 3.35,18.6 3.35,18.6 C3.4,18.65 3.4,18.7 3.45,18.7 L5.45,20.7 C5.6,20.85 5.8,20.9 6,20.9 C6.2,20.9 6.4,20.85 6.55,20.7 C6.85,20.4 6.85,19.95 6.55,19.65 L5.8,19 L10,19 C10.4,19 10.75,18.65 10.75,18.25 C10.75,17.8 10.4,17.45 10,17.45 Z M20.7,18.55 C20.7,18.55 20.7,18.5 20.7,18.55 C20.7,18.5 20.75,18.45 20.75,18.4 L20.75,18.3 L20.75,18.25 L20.75,18.15 C20.75,18.05 20.7,17.95 20.65,17.85 L20.55,17.75 L18.55,15.75 C18.25,15.45 17.8,15.45 17.5,15.75 C17.2,16.05 17.2,16.5 17.5,16.8 L18.2,17.5 L14.05,17.5 C13.65,17.5 13.3,17.85 13.3,18.25 C13.3,18.65 13.65,19 14.05,19 L18.25,19 L17.5,19.75 C17.2,20.05 17.2,20.5 17.5,20.8 C17.65,20.95 17.85,21 18.05,21 C18.25,21 18.45,20.95 18.6,20.8 L20.6,18.8 L20.7,18.7 C20.65,18.6 20.7,18.6 20.7,18.55 L20.7,18.55 Z" id="path-1"></path>
    </defs>
    <g id="⭕-Action-/-Switch-User" stroke="none" stroke-width="1" fill="none" fill-rule="evenodd">
        <mask id="mask-2" fill="white">
            <use xlink:href="#path-1"></use>
        </mask>
        <use id="Color" fill="#333333" xlink:href="#path-1"></use>
    </g>
</svg>