<?xml version="1.0" encoding="UTF-8"?>
<svg width="24px" height="24px" viewBox="0 0 24 24" version="1.1" xmlns="http://www.w3.org/2000/svg" xmlns:xlink="http://www.w3.org/1999/xlink">
    <title>⭕ Action / Table</title>
    <g id="⭕-Action-/-Table" stroke="none" stroke-width="1" fill="none" fill-rule="evenodd">
        <path d="M21,4 L3,4 C2.45,4 2,4.45 2,5 L2,19 C2,19.55 2.45,20 3,20 L21,20 C21.55,20 22,19.55 22,19 L22,5 C22,4.45 21.55,4 21,4 Z M10,14 L10,12 L14,12 L14,14 L10,14 Z M14,16 L14,18 L10,18 L10,16 L14,16 Z M8,10 L4,10 L4,8 L8,8 L8,10 Z M10,8 L14,8 L14,10 L10,10 L10,8 Z M8,12 L8,14 L4,14 L4,12 L8,12 Z M16,12 L20,12 L20,14 L16,14 L16,12 Z M16,10 L16,8 L20,8 L20,10 L16,10 Z M4,16 L8,16 L8,18 L4,18 L4,16 Z M16,18 L16,16 L20,16 L20,18 L16,18 Z" id="Color" fill="#333333"></path>
    </g>
</svg>