<?xml version="1.0" encoding="UTF-8"?>
<svg width="24px" height="24px" viewBox="0 0 24 24" version="1.1" xmlns="http://www.w3.org/2000/svg" xmlns:xlink="http://www.w3.org/1999/xlink">
    <title>⭕ Action / Textarea</title>
    <defs>
        <path d="M15,4 C15,3.45 15.5064967,3 16.1255483,3 L19.8744517,3 C20.4935033,3 21,3.45 21,4 C21,4.55 20.4935033,5 19.8744517,5 L16.1255483,5 C15.5064967,5 15,4.55 15,4 Z M19.8744517,7 L16.1255483,7 C15.5064967,7 15,7.45 15,8 C15,8.55 15.5064967,9 16.1255483,9 L19.8744517,9 C20.4935033,9 21,8.55 21,8 C21,7.45 20.4935033,7 19.8744517,7 Z M19.8744517,11 L16.1255483,11 C15.5064967,11 15,11.45 15,12 C15,12.55 15.5064967,13 16.1255483,13 L19.8744517,13 C20.4935033,13 21,12.55 21,12 C21,11.45 20.4935033,11 19.8744517,11 Z M20,19 L4,19 C3.45,19 3,19.45 3,20 C3,20.55 3.45,21 4,21 L20,21 C20.55,21 21,20.55 21,20 C21,19.45 20.55,19 20,19 Z M20,15 L4,15 C3.45,15 3,15.45 3,16 C3,16.55 3.45,17 4,17 L20,17 C20.55,17 21,16.55 21,16 C21,15.45 20.55,15 20,15 Z M11,4 C11,4.55 10.55,5 10,5 L8,5 L8,11 C8,11.55 7.55,12 7,12 C6.45,12 6,11.55 6,11 L6,5 L4,5 C3.45,5 3,4.55 3,4 C3,3.45 3.45,3 4,3 L10,3 C10.55,3 11,3.45 11,4 Z" id="path-1"></path>
    </defs>
    <g id="⭕-Action-/-Textarea" stroke="none" stroke-width="1" fill="none" fill-rule="evenodd">
        <mask id="mask-2" fill="white">
            <use xlink:href="#path-1"></use>
        </mask>
        <use id="Color" fill="#333333" xlink:href="#path-1"></use>
    </g>
</svg>