<?xml version="1.0" encoding="UTF-8"?>
<svg width="24px" height="24px" viewBox="0 0 24 24" version="1.1" xmlns="http://www.w3.org/2000/svg" xmlns:xlink="http://www.w3.org/1999/xlink">
    <title>⭕ Action / Undo</title>
    <defs>
        <path d="M21.5,16.5 C21.5,17.05 21.05,17.5 20.5,17.5 C19.95,17.5 19.5,17.05 19.5,16.5 C19.5,12.1 15.9,8.5 11.45,8.5 C9.2,8.5 7.1,9.4 5.6,11 L8,11 C8.55,11 9,11.45 9,12 C9,12.55 8.55,13 8,13 L3.5,13 C2.95,13 2.5,12.55 2.5,12 L2.5,7.5 C2.5,6.95 2.95,6.5 3.5,6.5 C4.05,6.5 4.5,6.95 4.5,7.5 L4.5,9.3 C6.35,7.5 8.85,6.5 11.45,6.5 C17,6.5 21.5,11 21.5,16.5 Z" id="path-1"></path>
    </defs>
    <g id="⭕-Action-/-Undo" stroke="none" stroke-width="1" fill="none" fill-rule="evenodd">
        <mask id="mask-2" fill="white">
            <use xlink:href="#path-1"></use>
        </mask>
        <use id="Color" fill="#333333" xlink:href="#path-1"></use>
    </g>
</svg>