<?xml version="1.0" encoding="UTF-8"?>
<svg width="24px" height="24px" viewBox="0 0 24 24" version="1.1" xmlns="http://www.w3.org/2000/svg" xmlns:xlink="http://www.w3.org/1999/xlink">
    <title>⭕ Action / Uninstall</title>
    <defs>
        <path d="M19.7,14.7 L18.9,15.5 L19.7,16.3 C20.1,16.7 20.1,17.3 19.7,17.7 C19.5,17.9 19.25,18 19,18 C18.75,18 18.5,17.9 18.3,17.7 L17.5,16.9 L16.7,17.7 C16.5,17.9 16.25,18 16,18 C15.75,18 15.5,17.9 15.3,17.7 C14.9,17.3 14.9,16.7 15.3,16.3 L16.1,15.5 L15.3,14.7 C14.9,14.3 14.9,13.7 15.3,13.3 C15.7,12.9 16.3,12.9 16.7,13.3 L17.5,14.1 L18.3,13.3 C18.7,12.9 19.3,12.9 19.7,13.3 C20.1,13.7 20.1,14.3 19.7,14.7 Z M4,21 C4,21.55 4.45,22 5,22 L19,22 C19.55,22 20,21.55 20,21 C20,20.45 19.55,20 19,20 L5,20 C4.45,20 4,20.45 4,21 Z M11.95,18 C12.5,18 12.95,17.55 12.95,17 L13,5.4 L15.3,7.7 C15.5,7.9 15.75,8 16,8 C16.25,8 16.5,7.9 16.7,7.7 C17.1,7.3 17.1,6.7 16.7,6.3 L12.7,2.3 C12.3,1.9 11.65,1.9 11.3,2.3 L7.3,6.3 C6.9,6.7 6.9,7.3 7.3,7.7 C7.7,8.1 8.3,8.1 8.7,7.7 L11,5.4 L10.95,17 C10.95,17.55 11.4,18 11.95,18 Z" id="path-1"></path>
    </defs>
    <g id="⭕-Action-/-Uninstall" stroke="none" stroke-width="1" fill="none" fill-rule="evenodd">
        <mask id="mask-2" fill="white">
            <use xlink:href="#path-1"></use>
        </mask>
        <use id="Color" fill="#333333" xlink:href="#path-1"></use>
    </g>
</svg>