<?xml version="1.0" encoding="UTF-8"?>
<svg width="24px" height="24px" viewBox="0 0 24 24" version="1.1" xmlns="http://www.w3.org/2000/svg" xmlns:xlink="http://www.w3.org/1999/xlink">
    <title>⭕ Action / Unlink</title>
    <defs>
        <path d="M18.4,11.95 C18.15,11.95 17.9,11.85 17.7,11.65 C17.3,11.25 17.3,10.65 17.7,10.25 L18.4,9.55 C19.2,8.75 19.2,7.45 18.4,6.65 C17.6,5.85 16.3,5.85 15.5,6.65 L11.2,10.95 C10.8,11.35 10.2,11.35 9.8,10.95 C9.4,10.55 9.4,9.95 9.8,9.55 L14.1,5.25 C15.7,3.65 18.25,3.65 19.85,5.25 C21.45,6.85 21.45,9.4 19.85,11 L19.15,11.7 C18.9,11.85 18.65,11.95 18.4,11.95 Z M9.85,19.85 L14.15,15.55 C14.55,15.15 14.55,14.55 14.15,14.15 C13.75,13.75 13.15,13.75 12.75,14.15 L8.45,18.45 C8.05,18.85 7.55,19.05 7,19.05 C6.45,19.05 5.95,18.85 5.55,18.45 C5.15,18.05 4.9,17.5 4.9,17 C4.9,16.5 5.1,15.95 5.5,15.55 L6.2,14.85 C6.6,14.45 6.6,13.85 6.2,13.45 C5.8,13.05 5.2,13.05 4.8,13.45 L4.1,14.15 C3.35,14.9 2.9,15.95 2.9,17 C2.9,18.1 3.3,19.1 4.1,19.85 C4.85,20.6 5.9,21.05 6.95,21.05 C8.05,21.05 9.05,20.6 9.85,19.85 L9.85,19.85 Z M15.65,20.85 L15.65,18.75 C15.65,18.2 15.2,17.75 14.65,17.75 C14.1,17.75 13.65,18.2 13.65,18.75 L13.65,20.85 C13.65,21.4 14.1,21.85 14.65,21.85 C15.2,21.85 15.65,21.4 15.65,20.85 Z M22,14.5 C22,13.95 21.55,13.5 21,13.5 L18.9,13.5 C18.35,13.5 17.9,13.95 17.9,14.5 C17.9,15.05 18.35,15.5 18.9,15.5 L21,15.5 C21.55,15.5 22,15.05 22,14.5 Z M19.6,19.45 C20,19.05 20,18.45 19.6,18.05 L17.85,16.3 C17.45,15.9 16.85,15.9 16.45,16.3 C16.05,16.7 16.05,17.3 16.45,17.7 L18.2,19.45 C18.4,19.65 18.65,19.75 18.9,19.75 C19.15,19.75 19.4,19.65 19.6,19.45 Z M10.35,6.1 L10.35,3.95 C10.35,3.4 9.9,2.95 9.35,2.95 C8.8,2.95 8.35,3.4 8.35,3.95 L8.35,6.05 C8.35,6.6 8.8,7.05 9.35,7.05 C9.9,7.05 10.35,6.65 10.35,6.1 L10.35,6.1 Z M6.1,10.35 C6.1,9.8 5.65,9.35 5.1,9.35 L3,9.35 C2.45,9.35 2,9.8 2,10.35 C2,10.9 2.45,11.35 3,11.35 L5.1,11.35 C5.65,11.35 6.1,10.9 6.1,10.35 Z M7.6,8.55 C8,8.15 8,7.55 7.6,7.15 L5.85,5.4 C5.45,5 4.85,5 4.45,5.4 C4.05,5.8 4.05,6.4 4.45,6.8 L6.2,8.55 C6.4,8.75 6.65,8.85 6.9,8.85 C7.15,8.85 7.4,8.75 7.6,8.55 Z" id="path-1"></path>
    </defs>
    <g id="⭕-Action-/-Unlink" stroke="none" stroke-width="1" fill="none" fill-rule="evenodd">
        <mask id="mask-2" fill="white">
            <use xlink:href="#path-1"></use>
        </mask>
        <use id="Color" fill="#333333" xlink:href="#path-1"></use>
    </g>
</svg>