<?xml version="1.0" encoding="UTF-8"?>
<svg width="24px" height="24px" viewBox="0 0 24 24" version="1.1" xmlns="http://www.w3.org/2000/svg" xmlns:xlink="http://www.w3.org/1999/xlink">
    <title>⭕ Action / Unlock</title>
    <defs>
        <path d="M14,14 C14,14.75 13.6,15.4 13,15.7 L13,17 C13,17.55 12.55,18 12,18 C11.45,18 11,17.55 11,17 L11,15.7 C10.4,15.35 10,14.7 10,14 C10,12.9 10.9,12 12,12 C13.1,12 14,12.9 14,14 Z M17,7 L17,8 L19,8 C19.55,8 20,8.45 20,9 L20,21 C20,21.55 19.55,22 19,22 L5,22 C4.45,22 4,21.55 4,21 L4,9 C4,8.45 4.45,8 5,8 L15,8 L15,7 C15,5.35 13.65,4 12,4 C10.95,4 9.95,4.6 9.4,5.5 C9.1,6 8.5,6.15 8.05,5.85 C7.55,5.55 7.4,4.95 7.7,4.5 C8.6,2.95 10.25,2 12.05,2 C14.75,2 17,4.25 17,7 Z M18,10 L6,10 L6,20 L18,20 L18,10 Z" id="path-1"></path>
    </defs>
    <g id="⭕-Action-/-Unlock" stroke="none" stroke-width="1" fill="none" fill-rule="evenodd">
        <mask id="mask-2" fill="white">
            <use xlink:href="#path-1"></use>
        </mask>
        <use id="Color" fill="#333333" xlink:href="#path-1"></use>
    </g>
</svg>