<?xml version="1.0" encoding="UTF-8"?>
<svg width="24px" height="24px" viewBox="0 0 24 24" version="1.1" xmlns="http://www.w3.org/2000/svg" xmlns:xlink="http://www.w3.org/1999/xlink">
    <title>⭕ Action / Upload</title>
    <defs>
        <path d="M6,17 L6,20 L18,20 L18,17 C18,16.45 18.45,16 19,16 C19.55,16 20,16.45 20,17 L20,21 C20,21.55 19.55,22 19,22 L5,22 C4.45,22 4,21.55 4,21 L4,17 C4,16.45 4.45,16 5,16 C5.55,16 6,16.45 6,17 Z M8.7,7.7 L11,5.4 L10.95,17 C10.95,17.55 11.4,18 11.95,18 C12.5,18 12.95,17.55 12.95,17 L13,5.4 L15.3,7.7 C15.7,8.1 16.3,8.1 16.7,7.7 C17.1,7.3 17.1,6.7 16.7,6.3 L12.7,2.3 C12.5,2.1 12.25,2 12,2 C11.75,2 11.5,2.1 11.3,2.3 L7.3,6.3 C6.9,6.7 6.9,7.3 7.3,7.7 C7.7,8.1 8.3,8.1 8.7,7.7 L8.7,7.7 Z" id="path-1"></path>
    </defs>
    <g id="⭕-Action-/-Upload" stroke="none" stroke-width="1" fill="none" fill-rule="evenodd">
        <mask id="mask-2" fill="white">
            <use xlink:href="#path-1"></use>
        </mask>
        <use id="Color" fill="#333333" xlink:href="#path-1"></use>
    </g>
</svg>