<?xml version="1.0" encoding="UTF-8"?>
<svg width="24px" height="24px" viewBox="0 0 24 24" version="1.1" xmlns="http://www.w3.org/2000/svg" xmlns:xlink="http://www.w3.org/1999/xlink">
    <title>⭕ Action / Wake</title>
    <defs>
        <path d="M12,3 C7.05,3 3,7.05 3,12 C3,14.4 3.95,16.55 5.45,18.15 L4.3,19.3 C3.9,19.7 3.9,20.3 4.3,20.7 C4.5,20.9 4.75,21 5,21 C5.25,21 5.5,20.9 5.7,20.7 L6.95,19.45 C8.4,20.45 10.1,21 12,21 C13.9,21 15.6,20.45 17.05,19.45 L18.3,20.7 C18.5,20.9 18.75,21 19,21 C19.25,21 19.5,20.9 19.7,20.7 C20.1,20.3 20.1,19.7 19.7,19.3 L18.55,18.15 C20.05,16.55 21,14.4 21,12 C21,7.05 16.95,3 12,3 L12,3 Z M5,12 C5,8.15 8.15,5 12,5 C15.85,5 19,8.15 19,12 C19,15.85 15.85,19 12,19 C8.15,19 5,15.85 5,12 Z M15.2,13.8 C15.6,14.2 15.6,14.8 15.2,15.2 C15,15.4 14.75,15.5 14.5,15.5 C14.25,15.5 14,15.4 13.8,15.2 L11.3,12.7 C11.1,12.5 11,12.25 11,12 L11,8.5 C11,7.95 11.45,7.5 12,7.5 C12.55,7.5 13,7.95 13,8.5 L13,11.6 L15.2,13.8 Z M21.7,4.8 C22.1,5.2 22.1,5.8 21.7,6.2 C21.5,6.4 21.25,6.5 21,6.5 C20.75,6.5 20.5,6.4 20.3,6.2 L17.8,3.7 C17.4,3.3 17.4,2.7 17.8,2.3 C18.2,1.9 18.8,1.9 19.2,2.3 L21.7,4.8 Z M2.3,6.2 C1.9,5.8 1.9,5.2 2.3,4.8 L4.8,2.3 C5.2,1.9 5.8,1.9 6.2,2.3 C6.6,2.7 6.6,3.3 6.2,3.7 L3.7,6.2 C3.5,6.4 3.25,6.5 3,6.5 C2.75,6.5 2.5,6.4 2.3,6.2 L2.3,6.2 Z" id="path-1"></path>
    </defs>
    <g id="⭕-Action-/-Wake" stroke="none" stroke-width="1" fill="none" fill-rule="evenodd">
        <mask id="mask-2" fill="white">
            <use xlink:href="#path-1"></use>
        </mask>
        <use id="Color" fill="#333333" xlink:href="#path-1"></use>
    </g>
</svg>