<?xml version="1.0" encoding="UTF-8"?>
<svg width="24px" height="24px" viewBox="0 0 24 24" version="1.1" xmlns="http://www.w3.org/2000/svg" xmlns:xlink="http://www.w3.org/1999/xlink">
    <title>⭕ Action / Watch</title>
    <defs>
        <path d="M21.95,11.6 C20.35,7.6 16.45,5 12,5 C7.55,5 3.65,7.6 2.05,11.65 C1.95,11.9 1.95,12.15 2.05,12.4 C3.65,16.4 7.55,19 12,19 C16.45,19 20.35,16.4 21.95,12.35 C22,12.1 22,11.85 21.95,11.6 Z M12,17 C8.5,17 5.45,15.05 4.1,12 C5.45,8.95 8.5,7 12,7 C15.5,7 18.55,8.95 19.9,12 C18.55,15.05 15.5,17 12,17 Z M15,12 C15,13.65 13.65,15 12,15 C10.35,15 9,13.65 9,12 C9,10.35 10.35,9 12,9 C13.65,9 15,10.35 15,12 Z" id="path-1"></path>
    </defs>
    <g id="⭕-Action-/-Watch" stroke="none" stroke-width="1" fill="none" fill-rule="evenodd">
        <mask id="mask-2" fill="white">
            <use xlink:href="#path-1"></use>
        </mask>
        <use id="Color" fill="#333333" xlink:href="#path-1"></use>
    </g>
</svg>