<?xml version="1.0" encoding="UTF-8"?>
<svg width="24px" height="24px" viewBox="0 0 24 24" version="1.1" xmlns="http://www.w3.org/2000/svg" xmlns:xlink="http://www.w3.org/1999/xlink">
    <title>⭕ Icon/Status/Blacklisted</title>
    <defs>
        <path d="M4,14 C4,17.45 6.15,18.7 9.45,20.65 C10.1,21 10.75,21.4 11.5,21.85 C11.65,21.95 11.85,22 12.05,22 C12.25,22 12.4,21.95 12.6,21.85 C13.35,21.4 14,21 14.65,20.65 C17.85,18.7 20,17.45 20,14 L20,5.5 C20,4.95 19.55,4.5 19,4.5 C16.45,4.5 15,4.2 12.65,2.25 C12.3,1.95 11.75,1.95 11.35,2.25 C9,4.2 7.55,4.5 5,4.5 C4.45,4.5 4,4.95 4,5.5 L4,14 Z M6,6.5 C8.15,6.4 9.85,5.9 12,4.3 C14.15,5.9 15.85,6.4 18,6.5 L18,14 C18,16.2 16.85,16.95 13.55,18.9 C13.05,19.2 12.55,19.5 12,19.8 C11.45,19.45 10.95,19.15 10.45,18.9 C7.15,16.95 6,16.2 6,14 L6,6.5 L6,6.5 Z M8.8,13.8 L10.6,12 L8.8,10.2 C8.4,9.8 8.4,9.2 8.8,8.8 C9.2,8.4 9.8,8.4 10.2,8.8 L12,10.6 L13.8,8.8 C14.2,8.4 14.8,8.4 15.2,8.8 C15.6,9.2 15.6,9.8 15.2,10.2 L13.4,12 L15.2,13.8 C15.6,14.2 15.6,14.8 15.2,15.2 C15,15.4 14.75,15.5 14.5,15.5 C14.25,15.5 14,15.4 13.8,15.2 L12,13.4 L10.2,15.2 C10,15.4 9.75,15.5 9.5,15.5 C9.25,15.5 9,15.4 8.8,15.2 C8.4,14.8 8.4,14.2 8.8,13.8 Z" id="path-1"></path>
    </defs>
    <g id="⭕-Icon/Status/Blacklisted" stroke="none" stroke-width="1" fill="none" fill-rule="evenodd">
        <mask id="mask-2" fill="white">
            <use xlink:href="#path-1"></use>
        </mask>
        <use id="Color" fill="#212121" xlink:href="#path-1"></use>
    </g>
</svg>