<?xml version="1.0" encoding="UTF-8"?>
<svg width="24px" height="24px" viewBox="0 0 24 24" version="1.1" xmlns="http://www.w3.org/2000/svg" xmlns:xlink="http://www.w3.org/1999/xlink">
    <title>⭕ Icon/Status/Credentials Invalid</title>
    <defs>
        <path d="M12,2 C6.5,2 2,6.5 2,12 C2,17.5 6.5,22 12,22 C17.5,22 22,17.5 22,12 C22,6.5 17.5,2 12,2 Z M12,20 C7.6,20 4,16.4 4,12 C4,7.6 7.6,4 12,4 C16.4,4 20,7.6 20,12 C20,16.4 16.4,20 12,20 Z M15.5,9.9 L13.4,12 L15.5,14.1 C15.9,14.5 15.9,15.1 15.5,15.5 C15.3,15.7 15.05,15.8 14.8,15.8 C14.55,15.8 14.3,15.7 14.1,15.5 L12,13.4 L9.9,15.5 C9.7,15.7 9.45,15.8 9.2,15.8 C8.95,15.8 8.7,15.7 8.5,15.5 C8.1,15.1 8.1,14.5 8.5,14.1 L10.6,12 L8.5,9.9 C8.1,9.5 8.1,8.9 8.5,8.5 C8.9,8.1 9.5,8.1 9.9,8.5 L12,10.6 L14.1,8.5 C14.5,8.1 15.1,8.1 15.5,8.5 C15.9,8.85 15.9,9.5 15.5,9.9 L15.5,9.9 Z" id="path-1"></path>
    </defs>
    <g id="⭕-Icon/Status/Credentials-Invalid" stroke="none" stroke-width="1" fill="none" fill-rule="evenodd">
        <mask id="mask-2" fill="white">
            <use xlink:href="#path-1"></use>
        </mask>
        <use id="Color" fill="#212121" xlink:href="#path-1"></use>
    </g>
</svg>