<?xml version="1.0" encoding="UTF-8"?>
<svg width="24px" height="24px" viewBox="0 0 24 24" version="1.1" xmlns="http://www.w3.org/2000/svg" xmlns:xlink="http://www.w3.org/1999/xlink">
    <title>⭕ Icon/Status/Failed</title>
    <defs>
        <path d="M4.3,18.55 L10.6,12 L4.3,5.45 C3.9,5.05 3.95,4.4 4.3,4.05 C4.7,3.65 5.35,3.7 5.7,4.05 L12,10.55 L18.3,4.05 C18.7,3.65 19.3,3.65 19.7,4.05 C20.1,4.45 20.1,5.05 19.7,5.45 L13.4,12 L19.75,18.55 C20.15,18.95 20.1,19.6 19.75,19.95 C19.55,20.15 19.3,20.25 19.05,20.25 C18.8,20.25 18.55,20.15 18.35,19.95 L12,13.45 L5.7,19.95 C5.5,20.15 5.25,20.25 5,20.25 C4.75,20.25 4.5,20.15 4.3,19.95 C3.9,19.6 3.9,18.95 4.3,18.55 Z" id="path-1"></path>
    </defs>
    <g id="⭕-Icon/Status/Failed" stroke="none" stroke-width="1" fill="none" fill-rule="evenodd">
        <mask id="mask-2" fill="white">
            <use xlink:href="#path-1"></use>
        </mask>
        <use id="Color" fill="#212121" xlink:href="#path-1"></use>
    </g>
</svg>