<?xml version="1.0" encoding="UTF-8"?>
<svg width="24px" height="24px" viewBox="0 0 24 24" version="1.1" xmlns="http://www.w3.org/2000/svg" xmlns:xlink="http://www.w3.org/1999/xlink">
    <title>⭕ Icon/Status/Grayware</title>
    <defs>
        <path d="M11,15 C11,14.45 11.45,14 12,14 C12.55,14 13,14.45 13,15 C13,15.55 12.55,16 12,16 C11.45,16 11,15.55 11,15 Z M12,13 C12.55,13 13,12.55 13,12 L13,9 C13,8.45 12.55,8 12,8 C11.45,8 11,8.45 11,9 L11,12 C11,12.55 11.45,13 12,13 Z M4,14 L4,5.5 C4,4.95 4.45,4.5 5,4.5 C7.55,4.5 9,4.2 11.35,2.25 C11.7,1.95 12.25,1.95 12.65,2.25 C15,4.2 16.45,4.5 19,4.5 C19.55,4.5 20,4.95 20,5.5 L20,14 C20,17.45 17.85,18.7 14.55,20.65 C13.9,21 13.25,21.4 12.5,21.85 C12.35,21.95 12.15,22 12,22 C11.85,22 11.65,21.95 11.5,21.85 C10.75,21.4 10.1,21 9.45,20.65 C6.15,18.7 4,17.45 4,14 Z M6,14 C6,16.2 7.15,16.95 10.45,18.9 C10.95,19.2 11.45,19.5 12,19.8 C12.55,19.45 13.05,19.15 13.55,18.9 C16.85,16.95 18,16.2 18,14 L18,6.5 C15.85,6.4 14.15,5.9 12,4.3 C9.85,5.9 8.15,6.4 6,6.5 L6,14 Z" id="path-1"></path>
    </defs>
    <g id="⭕-Icon/Status/Grayware" stroke="none" stroke-width="1" fill="none" fill-rule="evenodd">
        <mask id="mask-2" fill="white">
            <use xlink:href="#path-1"></use>
        </mask>
        <use id="Color" fill="#212121" xlink:href="#path-1"></use>
    </g>
</svg>