<?xml version="1.0" encoding="UTF-8"?>
<svg width="24px" height="24px" viewBox="0 0 24 24" version="1.1" xmlns="http://www.w3.org/2000/svg" xmlns:xlink="http://www.w3.org/1999/xlink">
    <title>⭕ Icon/Status/Install Not Attempted</title>
    <defs>
        <path d="M5,20 L19,20 C19.55,20 20,20.45 20,21 C20,21.55 19.55,22 19,22 L5,22 C4.45,22 4,21.55 4,21 C4,20.45 4.45,20 5,20 Z M11.95,2 C12.5,2 12.95,2.45 12.95,3 L12.95,3 L13,14.6 L15.3,12.3 C15.7,11.9 16.3,11.9 16.7,12.3 C17.1,12.7 17.1,13.3 16.7,13.7 L16.7,13.7 L12.7,17.7 C12.5,17.9 12.25,18 12,18 C11.75,18 11.5,17.9 11.3,17.7 L11.3,17.7 L7.3,13.7 C6.9,13.3 6.9,12.7 7.3,12.3 L7.3,12.3 C7.7,11.9 8.3,11.9 8.7,12.3 L8.7,12.3 L11,14.6 L10.95,3 C10.95,2.45 11.4,2 11.95,2 Z M16.7,2.3 L17.5,3.1 L18.3,2.3 C18.7,1.9 19.3,1.9 19.7,2.3 C20.1,2.7 20.1,3.3 19.7,3.7 L18.9,4.5 L19.7,5.3 C20.1,5.7 20.1,6.3 19.7,6.7 C19.5,6.9 19.25,7 19,7 C18.75,7 18.5,6.9 18.3,6.7 L17.5,5.9 L16.7,6.7 C16.5,6.9 16.25,7 16,7 C15.75,7 15.5,6.9 15.3,6.7 C14.9,6.3 14.9,5.7 15.3,5.3 L16.1,4.5 L15.3,3.7 C14.9,3.3 14.9,2.7 15.3,2.3 C15.7,1.9 16.3,1.9 16.7,2.3 Z" id="path-1"></path>
    </defs>
    <g id="⭕-Icon/Status/Install-Not-Attempted" stroke="none" stroke-width="1" fill="none" fill-rule="evenodd">
        <mask id="mask-2" fill="white">
            <use xlink:href="#path-1"></use>
        </mask>
        <use id="Color" fill="#212121" xlink:href="#path-1"></use>
    </g>
</svg>