<?xml version="1.0" encoding="UTF-8"?>
<svg width="24px" height="24px" viewBox="0 0 24 24" version="1.1" xmlns="http://www.w3.org/2000/svg" xmlns:xlink="http://www.w3.org/1999/xlink">
    <title>⭕ Icon/Status/Redirector Connected</title>
    <defs>
        <path d="M19.5,8 L19.5,19 C19.5,19.55 19.05,20 18.5,20 C17.95,20 17.5,19.55 17.5,19 L17.5,8 C17.5,5.8 15.7,4 13.5,4 C11.3,4 9.5,5.8 9.5,8 L9.5,18.6 L10.8,17.3 C11.2,16.9 11.8,16.9 12.2,17.3 C12.6,17.7 12.6,18.3 12.2,18.7 L9.2,21.7 C9,21.9 8.75,22 8.5,22 C8.25,22 8,21.9 7.8,21.7 L4.8,18.7 C4.4,18.3 4.4,17.7 4.8,17.3 C5.2,16.9 5.8,16.9 6.2,17.3 L7.5,18.6 L7.5,8 C7.5,4.7 10.2,2 13.5,2 C16.8,2 19.5,4.7 19.5,8 Z M15.2,9.7 L12.75,12.15 L11.8,11.2 C11.5,10.9 11.05,10.9 10.75,11.2 C10.45,11.5 10.45,11.95 10.75,12.25 L12.25,13.75 C12.4,13.9 12.6,13.95 12.8,13.95 C13,13.95 13.2,13.9 13.35,13.75 L16.35,10.75 C16.65,10.45 16.65,10 16.35,9.7 C16.05,9.4 15.5,9.45 15.2,9.7 L15.2,9.7 Z" id="path-1"></path>
    </defs>
    <g id="⭕-Icon/Status/Redirector-Connected" stroke="none" stroke-width="1" fill="none" fill-rule="evenodd">
        <mask id="mask-2" fill="white">
            <use xlink:href="#path-1"></use>
        </mask>
        <use id="Color" fill="#212121" xlink:href="#path-1"></use>
    </g>
</svg>