<?xml version="1.0" encoding="UTF-8"?>
<svg width="24px" height="24px" viewBox="0 0 24 24" version="1.1" xmlns="http://www.w3.org/2000/svg" xmlns:xlink="http://www.w3.org/1999/xlink">
    <title>⭕ Icon/Status/Software Missing</title>
    <defs>
        <path d="M21.7,20.3 L19.6,18.2 C19.7,17.8 19.75,17.45 19.75,17 C19.75,14.4 17.6,12.25 15,12.25 C14.6,12.25 14.2,12.3 13.8,12.4 L6,4.6 L6,4 L14.5,4 C16.45,4 18,5.55 18,7.5 L18,10 C18,10.55 18.45,11 19,11 C19.55,11 20,10.55 20,10 L20,7.5 C20,4.45 17.55,2 14.5,2 L5,2 C4.55,2 4.2,2.25 4.05,2.65 L3.7,2.3 C3.3,1.9 2.7,1.9 2.3,2.3 C1.9,2.7 1.9,3.3 2.3,3.7 L4,5.4 L4,21 C4,21.55 4.45,22 5,22 L8.5,22 C9.05,22 9.5,21.55 9.5,21 C9.5,20.45 9.05,20 8.5,20 L6,20 L6,7.4 L11.95,13.35 C10.9,14.2 10.25,15.55 10.25,17 C10.25,19.6 12.4,21.75 15,21.75 C16.45,21.75 17.75,21.1 18.65,20.05 L20.3,21.7 C20.5,21.9 20.75,22 21,22 C21.25,22 21.5,21.9 21.7,21.7 C22.1,21.3 22.1,20.7 21.7,20.3 L21.7,20.3 Z M18.25,16.85 L15.2,13.8 C16.85,13.85 18.15,15.15 18.25,16.85 Z M15,20.25 C13.2,20.25 11.75,18.8 11.75,17 C11.75,15.95 12.25,15.05 13,14.45 L14.65,16.1 C14.25,16.25 14,16.6 14,17.05 C14,17.6 14.45,18.05 15,18.05 C15.45,18.05 15.8,17.8 15.95,17.4 L17.6,19.05 C16.95,19.75 16.05,20.25 15,20.25 L15,20.25 Z" id="path-1"></path>
    </defs>
    <g id="⭕-Icon/Status/Software-Missing" stroke="none" stroke-width="1" fill="none" fill-rule="evenodd">
        <mask id="mask-2" fill="white">
            <use xlink:href="#path-1"></use>
        </mask>
        <use id="Color" fill="#212121" xlink:href="#path-1"></use>
    </g>
</svg>