<?xml version="1.0" encoding="UTF-8"?>
<svg width="24px" height="24px" viewBox="0 0 24 24" version="1.1" xmlns="http://www.w3.org/2000/svg" xmlns:xlink="http://www.w3.org/1999/xlink">
    <title>⭕ Icon/Status/Virus Spyware</title>
    <defs>
        <path d="M12.5,10.6 L14.3,8.8 C14.7,8.4 15.3,8.4 15.7,8.8 C16.1,9.2 16.1,9.8 15.7,10.2 L13.9,12 L15.7,13.8 C16.1,14.2 16.1,14.8 15.7,15.2 C15.5,15.4 15.25,15.5 15,15.5 C14.75,15.5 14.5,15.4 14.3,15.2 L12.5,13.4 L10.7,15.2 C10.5,15.4 10.25,15.5 10,15.5 C9.75,15.5 9.5,15.4 9.3,15.2 C8.9,14.8 8.9,14.2 9.3,13.8 L11.1,12 L9.3,10.2 C8.9,9.8 8.9,9.2 9.3,8.8 C9.7,8.4 10.3,8.4 10.7,8.8 L12.5,10.6 L12.5,10.6 Z M15.05,20.65 C14.4,21 13.75,21.4 13,21.85 C12.85,21.95 12.65,22 12.5,22 C12.35,22 12.15,21.95 12,21.85 C11.25,21.4 10.6,21 9.95,20.65 C6.65,18.7 4.5,17.45 4.5,14 L4.5,5.5 C4.5,4.95 4.95,4.5 5.5,4.5 C8.05,4.5 9.5,4.2 11.85,2.25 C12.2,1.95 12.75,1.95 13.15,2.25 C15.5,4.2 16.95,4.5 19.5,4.5 C20.05,4.5 20.5,4.95 20.5,5.5 L20.5,14 C20.5,17.45 18.35,18.7 15.05,20.65 Z M18.5,6.5 C16.35,6.4 14.65,5.9 12.5,4.3 C10.35,5.9 8.65,6.4 6.5,6.5 L6.5,14 C6.5,16.2 7.65,16.95 10.95,18.9 C11.45,19.2 11.95,19.5 12.5,19.8 C13.05,19.45 13.55,19.15 14.05,18.9 C17.35,16.95 18.5,16.2 18.5,14 L18.5,6.5 Z" id="path-1"></path>
    </defs>
    <g id="⭕-Icon/Status/Virus-Spyware" stroke="none" stroke-width="1" fill="none" fill-rule="evenodd">
        <mask id="mask-2" fill="white">
            <use xlink:href="#path-1"></use>
        </mask>
        <use id="Color" fill="#212121" xlink:href="#path-1"></use>
    </g>
</svg>