<?xml version="1.0" encoding="UTF-8"?>
<svg width="24px" height="24px" viewBox="0 0 24 24" version="1.1" xmlns="http://www.w3.org/2000/svg" xmlns:xlink="http://www.w3.org/1999/xlink">
    <title>⭕ Icon/Status/Whitelisted</title>
    <defs>
        <path d="M7.8,13.2 C7.4,12.8 7.4,12.2 7.8,11.8 C8.2,11.4 8.8,11.4 9.2,11.8 L10.5,13.1 L14.3,9.3 C14.7,8.9 15.3,8.9 15.7,9.3 C16.1,9.7 16.1,10.3 15.7,10.7 L11.2,15.2 C11,15.4 10.75,15.5 10.5,15.5 C10.25,15.5 10,15.4 9.8,15.2 L7.8,13.2 L7.8,13.2 Z M4,14 L4,5.5 C4,4.95 4.45,4.5 5,4.5 C7.55,4.5 9,4.2 11.35,2.25 C11.7,1.95 12.25,1.95 12.65,2.25 C15,4.2 16.45,4.5 19,4.5 C19.55,4.5 20,4.95 20,5.5 L20,14 C20,17.45 17.85,18.7 14.55,20.65 C13.9,21 13.25,21.4 12.5,21.85 C12.35,21.95 12.2,22 12,22 C11.8,22 11.65,21.95 11.45,21.85 C10.7,21.4 10.05,21 9.4,20.65 C6.15,18.7 4,17.45 4,14 Z M6,14 C6,16.2 7.15,16.95 10.45,18.9 C10.95,19.2 11.45,19.5 12,19.8 C12.55,19.45 13.05,19.15 13.55,18.9 C16.85,16.95 18,16.2 18,14 L18,6.5 C15.85,6.4 14.15,5.9 12,4.3 C9.85,5.9 8.15,6.4 6,6.5 L6,14 Z" id="path-1"></path>
    </defs>
    <g id="⭕-Icon/Status/Whitelisted" stroke="none" stroke-width="1" fill="none" fill-rule="evenodd">
        <mask id="mask-2" fill="white">
            <use xlink:href="#path-1"></use>
        </mask>
        <use id="Color" fill="#212121" xlink:href="#path-1"></use>
    </g>
</svg>