<?xml version="1.0" encoding="UTF-8"?>
<svg width="24px" height="24px" viewBox="0 0 24 24" version="1.1" xmlns="http://www.w3.org/2000/svg" xmlns:xlink="http://www.w3.org/1999/xlink">
    <title>⭕ Icon/Object/Address Book</title>
    <g id="⭕-Icon/Object/Address-Book" stroke="none" stroke-width="1" fill="none" fill-rule="evenodd">
        <path d="M6.23252093,16.2790698 L6.23252093,18.3255814 C6.23252093,18.8465116 5.8232186,19.255814 5.30228837,19.255814 L4.93019535,19.255814 C4.40926512,19.255814 3.99996279,18.8465116 3.99996279,18.3255814 L3.99996279,16.2790698 C3.99996279,15.7581395 4.40926512,15.3488372 4.93019535,15.3488372 L5.30228837,15.3488372 C5.8232186,15.3488372 6.23252093,15.7581395 6.23252093,16.2790698 L6.23252093,16.2790698 Z M6.23252093,10.9767442 L6.23252093,13.0232558 C6.23252093,13.544186 5.8232186,13.9534884 5.30228837,13.9534884 L4.93019535,13.9534884 C4.40926512,13.9534884 3.99996279,13.544186 3.99996279,13.0232558 L3.99996279,10.9767442 C3.99996279,10.455814 4.40926512,10.0465116 4.93019535,10.0465116 L5.30228837,10.0465116 C5.8232186,10.0465116 6.23252093,10.4744186 6.23252093,10.9767442 L6.23252093,10.9767442 Z M6.23252093,5.6744186 L6.23252093,7.72093023 C6.23252093,8.24186047 5.8232186,8.65116279 5.30228837,8.65116279 L4.93019535,8.65116279 C4.40926512,8.65116279 3.99996279,8.24186047 3.99996279,7.72093023 L3.99996279,5.6744186 C3.99996279,5.15348837 4.40926512,4.74418605 4.93019535,4.74418605 L5.30228837,4.74418605 C5.8232186,4.74418605 6.23252093,5.15348837 6.23252093,5.6744186 L6.23252093,5.6744186 Z M9.09763721,16.1860465 C9.09763721,14.2325581 10.1022884,12.6511628 11.3301953,12.6511628 L14.6790326,12.6511628 C15.9069395,12.6511628 16.9115907,14.2325581 16.9115907,16.1860465 L9.09763721,16.1860465 Z M13.004614,7.81395349 C14.2325209,7.81395349 15.2371721,8.81860465 15.2371721,10.0465116 C15.2371721,11.2744186 14.2325209,12.2790698 13.004614,12.2790698 C11.776707,12.2790698 10.7720558,11.2744186 10.7720558,10.0465116 C10.7720558,8.81860465 11.7581023,7.81395349 13.004614,7.81395349 L13.004614,7.81395349 Z M18.0278698,4 L7.98135814,4 C7.46042791,4 7.05112558,4.40930233 7.05112558,4.93023256 L7.05112558,19.0697674 C7.05112558,19.5906977 7.46042791,20 7.98135814,20 L18.0278698,20 C18.5488,20 18.9581023,19.5906977 18.9581023,19.0697674 L18.9581023,4.93023256 C18.9581023,4.40930233 18.5303814,4 18.0278698,4 L18.0278698,4 Z" id="Color" fill="#212121"></path>
    </g>
</svg>