<?xml version="1.0" encoding="UTF-8"?>
<svg width="24px" height="24px" viewBox="0 0 24 24" version="1.1" xmlns="http://www.w3.org/2000/svg" xmlns:xlink="http://www.w3.org/1999/xlink">
    <title>⭕ Icon/Object/Bridge</title>
    <defs>
        <path d="M12,12.199 C13.494,12.199 14.914,11.5635 16,10.509 L16,13.4415 L8,13.4415 L8,10.494 C9.0885,11.5575 10.509,12.199 12,12.199 M21,13.4415 L18,13.4415 L18,10.778 C18.925,11.554 20.1015,12.074 21.25,12.074 C21.664,12.074 22,11.738 22,11.324 C22,10.91 21.664,10.574 21.25,10.574 C20.018,10.574 18.569,9.5555 18,8.467 L18,7.5155 C18,6.963 17.552,6.5155 17,6.5155 C16.448,6.5155 16,6.963 16,7.5155 L16,7.9595 C15.2955,9.412 13.8295,10.699 12,10.699 C10.1795,10.699 8.7105,9.4015 8,7.939 L8,7.5 C8,6.9475 7.552,6.5 7,6.5 C6.448,6.5 6,6.9475 6,7.5 L6,8.467 C5.431,9.5555 3.982,10.574 2.75,10.574 C2.336,10.574 2,10.91 2,11.324 C2,11.738 2.336,12.074 2.75,12.074 C3.8985,12.074 5.075,11.554 6,10.778 L6,13.4415 L3,13.4415 C2.448,13.4415 2,13.8895 2,14.4415 C2,14.994 2.448,15.4415 3,15.4415 L6,15.4415 L6,16.867 C6,17.419 6.448,17.867 7,17.867 C7.552,17.867 8,17.419 8,16.867 L8,15.4415 L16,15.4415 L16,16.8825 C16,17.435 16.448,17.8825 17,17.8825 C17.552,17.8825 18,17.435 18,16.8825 L18,15.4415 L21,15.4415 C21.552,15.4415 22,14.994 22,14.4415 C22,13.8895 21.552,13.4415 21,13.4415" id="path-1"></path>
    </defs>
    <g id="⭕-Icon/Object/Bridge" stroke="none" stroke-width="1" fill="none" fill-rule="evenodd">
        <mask id="mask-2" fill="white">
            <use xlink:href="#path-1"></use>
        </mask>
        <use id="Color" fill="#212121" xlink:href="#path-1"></use>
    </g>
</svg>