<?xml version="1.0" encoding="UTF-8"?>
<svg width="24px" height="24px" viewBox="0 0 24 24" version="1.1" xmlns="http://www.w3.org/2000/svg" xmlns:xlink="http://www.w3.org/1999/xlink">
    <title>⭕ Icon/Object/Calculator</title>
    <defs>
        <path d="M9.5,12.5 L7.5,12.5 L7.5,10.5 L9.5,10.5 L9.5,12.5 Z M13,10.5 L11,10.5 L11,12.5 L13,12.5 L13,10.5 Z M16.5,10.5 L14.5,10.5 L14.5,12.5 L16.5,12.5 L16.5,10.5 Z M9.5,13.5 L7.5,13.5 L7.5,15.5 L9.5,15.5 L9.5,13.5 Z M13,13.5 L11,13.5 L11,15.5 L13,15.5 L13,13.5 Z M16.5,13.5 L14.5,13.5 L14.5,18.5 L16.5,18.5 L16.5,13.5 Z M9.5,16.5 L7.5,16.5 L7.5,18.5 L9.5,18.5 L9.5,16.5 Z M13,16.5 L11,16.5 L11,18.5 L13,18.5 L13,16.5 Z M20,3 L20,21 C20,21.55 19.55,22 19,22 L5,22 C4.45,22 4,21.55 4,21 L4,3 C4,2.45 4.45,2 5,2 L19,2 C19.55,2 20,2.45 20,3 Z M6,4 L6,7 L18,7 L18,4 L6,4 Z M18,20 L18,9 L6,9 L6,20 L18,20 Z" id="path-1"></path>
    </defs>
    <g id="⭕-Icon/Object/Calculator" stroke="none" stroke-width="1" fill="none" fill-rule="evenodd">
        <mask id="mask-2" fill="white">
            <use xlink:href="#path-1"></use>
        </mask>
        <use id="Color" fill="#212121" xlink:href="#path-1"></use>
    </g>
</svg>