<?xml version="1.0" encoding="UTF-8"?>
<svg width="24px" height="24px" viewBox="0 0 24 24" version="1.1" xmlns="http://www.w3.org/2000/svg" xmlns:xlink="http://www.w3.org/1999/xlink">
    <title>⭕ Icon/Object/Camera Scanner</title>
    <defs>
        <path d="M17.257,11.000013 C17.671,11.000013 18.007,10.664013 18.007,10.250013 C18.007,9.83601303 17.671,9.50001303 17.257,9.50001303 L4.757,9.50001303 C4.343,9.50001303 4.007,9.83601303 4.007,10.250013 C4.007,10.664013 4.343,11.000013 4.757,11.000013 L17.257,11.000013 Z M4,17.992013 L20,17.992013 L20,13.992013 L4,13.992013 L4,17.992013 Z M22.007,13.000013 C22.007,13.023013 22.0015,13.045013 22,13.068013 L22,18.992013 C22,19.544513 21.5525,19.992013 21,19.992013 L3,19.992013 C2.448,19.992013 2,19.544513 2,18.992013 L2,12.992013 C2,12.440013 2.448,11.992013 3,11.992013 L20.007,11.992013 L20.007,9.30451303 L4.793,5.97701303 C4.2535,5.85901303 3.9125,5.32551303 4.03,4.78601303 C4.148,4.24651303 4.6805,3.90601303 5.221,4.02301303 L21.221,7.52301303 C21.68,7.62351303 22.007,8.03051303 22.007,8.50001303 L22.007,13.000013 Z M5.007,16.000013 C5.007,15.447513 5.4545,15.000013 6.007,15.000013 C6.5595,15.000013 7.007,15.447513 7.007,16.000013 C7.007,16.552513 6.5595,17.000013 6.007,17.000013 C5.4545,17.000013 5.007,16.552513 5.007,16.000013 L5.007,16.000013 Z" id="path-1"></path>
    </defs>
    <g id="⭕-Icon/Object/Camera-Scanner" stroke="none" stroke-width="1" fill="none" fill-rule="evenodd">
        <mask id="mask-2" fill="white">
            <use xlink:href="#path-1"></use>
        </mask>
        <use id="Color" fill="#212121" xlink:href="#path-1"></use>
    </g>
</svg>