<?xml version="1.0" encoding="UTF-8"?>
<svg width="24px" height="24px" viewBox="0 0 24 24" version="1.1" xmlns="http://www.w3.org/2000/svg" xmlns:xlink="http://www.w3.org/1999/xlink">
    <title>⭕ Icon/Object/Cloud</title>
    <defs>
        <path d="M18.75,10.2 C17.95,7.2 15.25,5 12,5 C9.15,5 6.65,6.75 5.6,9.2 C3.5,9.8 2,11.7 2,14 C2,16.7 4.15,18.9 6.85,19 L7,19 L17.5,19 C20,19 22,17 22,14.5 C22,12.45 20.65,10.75 18.75,10.2 Z M17.5,17 L7,17 C5.35,17 4,15.65 4,14 C4,13.1 4.4,12.3 5,11.75 C5.1,11.65 5.25,11.55 5.4,11.45 L5.45,11.45 C5.6,11.35 5.75,11.3 5.9,11.25 L5.95,11.25 C6.1,11.2 6.25,11.15 6.45,11.1 L6.5,11.1 C6.65,11 6.8,11 7,11 L7.1,11 C7.15,10.85 7.2,10.65 7.25,10.5 L7.25,10.45 C7.3,10.3 7.35,10.15 7.4,10 C7.4,10 7.4,10 7.4,9.95 C7.55,9.65 7.7,9.35 7.9,9.05 C8.8,7.8 10.3,6.95 11.95,6.95 C14.05,6.95 15.8,8.25 16.55,10.05 C16.8,10.65 16.95,11.3 16.95,11.95 L16.95,12 C17.1,11.95 17.3,11.95 17.45,11.95 C18.85,11.95 19.95,13.05 19.95,14.45 C19.95,15.85 18.9,17 17.5,17 Z" id="path-1"></path>
    </defs>
    <g id="⭕-Icon/Object/Cloud" stroke="none" stroke-width="1" fill="none" fill-rule="evenodd">
        <mask id="mask-2" fill="white">
            <use xlink:href="#path-1"></use>
        </mask>
        <use id="Color" fill="#212121" xlink:href="#path-1"></use>
    </g>
</svg>