<?xml version="1.0" encoding="UTF-8"?>
<svg width="24px" height="24px" viewBox="0 0 24 24" version="1.1" xmlns="http://www.w3.org/2000/svg" xmlns:xlink="http://www.w3.org/1999/xlink">
    <title>⭕ Icon/Object/Delivery</title>
    <defs>
        <path d="M21.7,9.8 L19.7,7.8 C19.5,7.6 19.25,7.5 19,7.5 L15.5,7.5 L15.5,5 C15.5,4.45 15.05,4 14.5,4 L3,4 C2.45,4 2,4.45 2,5 L2,16 C2,16.55 2.45,17 3,17 L4,17 C4,18.65 5.35,20 7,20 C8.65,20 10,18.65 10,17 L14,17 C14,18.65 15.35,20 17,20 C18.65,20 20,18.65 20,17 L21,17 C21.55,17 22,16.55 22,16 L22,10.5 C22,10.25 21.9,10 21.7,9.8 Z M7,18 C6.45,18 6,17.55 6,17 L8,17 C8,17.55 7.55,18 7,18 Z M4,15 L4,6 L13.5,6 L13.5,15 L4,15 Z M17,18 C16.45,18 16,17.55 16,17 L18,17 C18,17.55 17.55,18 17,18 Z M20,15 L15.5,15 L15.5,9.5 L18.6,9.5 L20,10.9 L20,15 Z" id="path-1"></path>
    </defs>
    <g id="⭕-Icon/Object/Delivery" stroke="none" stroke-width="1" fill="none" fill-rule="evenodd">
        <mask id="mask-2" fill="white">
            <use xlink:href="#path-1"></use>
        </mask>
        <use id="Color" fill="#212121" xlink:href="#path-1"></use>
    </g>
</svg>