<?xml version="1.0" encoding="UTF-8"?>
<svg width="24px" height="24px" viewBox="0 0 24 24" version="1.1" xmlns="http://www.w3.org/2000/svg" xmlns:xlink="http://www.w3.org/1999/xlink">
    <title>⭕ Icon/Object/Dell Drac</title>
    <defs>
        <path d="M20.626,12.769 L21.9625,12.769 C21.945,13.157 21.8405,13.5 21.649,13.797 C21.457,14.095 21.1885,14.325 20.8425,14.4885 C20.4965,14.6525 20.1015,14.734 19.657,14.734 C18.924,14.734 18.347,14.495 17.926,14.0175 C17.5045,13.54 17.294,12.866 17.294,11.995 L17.294,11.7195 C17.294,11.173 17.389,10.695 17.579,10.285 C17.7695,9.875 18.043,9.5585 18.401,9.335 C18.7585,9.1115 19.172,9 19.642,9 C20.3185,9 20.862,9.178 21.2735,9.5345 C21.6845,9.8905 21.918,10.381 21.9745,11.007 L20.634,11.007 C20.6235,10.667 20.538,10.4235 20.377,10.2755 C20.2165,10.1275 19.9715,10.053 19.642,10.053 C19.3075,10.053 19.062,10.1785 18.9065,10.4285 C18.7505,10.679 18.669,11.0785 18.661,11.6275 L18.661,12.022 C18.661,12.617 18.736,13.0425 18.8855,13.2975 C19.0345,13.5525 19.292,13.6805 19.657,13.6805 C19.966,13.6805 20.202,13.6075 20.366,13.4625 C20.529,13.3165 20.6155,13.0855 20.626,12.769 L20.626,12.769 Z M13.835,12.5775 L14.433,10.643 L15.0345,12.5775 L13.835,12.5775 Z M13.801,9.08 L11.755,14.657 L13.1915,14.657 L13.5135,13.6155 L15.356,13.6155 L15.6815,14.657 L17.1255,14.657 L15.0645,9.08 L13.801,9.08 Z M9.842,11.449 C9.713,11.5835 9.521,11.6505 9.2655,11.6505 L8.4155,11.6505 L8.4155,10.1145 L9.2655,10.1145 C9.5185,10.1145 9.71,10.183 9.84,10.32 C9.97,10.457 10.0355,10.6455 10.0355,10.886 C10.0355,11.127 9.9705,11.3145 9.842,11.449 L9.842,11.449 Z M11.1405,11.728 C11.2975,11.473 11.376,11.1515 11.376,10.764 C11.376,10.228 11.1895,9.8135 10.817,9.52 C10.444,9.227 9.9265,9.08 9.2655,9.08 L7.071,9.08 L7.071,14.657 L8.4155,14.657 L8.4155,12.6845 L9.143,12.6845 L10.127,14.657 L11.5675,14.657 L11.5675,14.5995 L10.4035,12.348 C10.738,12.1895 10.9835,11.9835 11.1405,11.728 L11.1405,11.728 Z M5.01,11.9875 C5.01,12.529 4.907,12.9365 4.7005,13.2115 C4.4935,13.4855 4.197,13.623 3.8115,13.623 L3.3445,13.623 L3.3445,10.118 L3.7965,10.118 C4.1925,10.118 4.4935,10.255 4.7005,10.5285 C4.907,10.8015 5.01,11.2075 5.01,11.746 L5.01,11.9875 Z M5.125,9.4155 C4.732,9.192 4.289,9.08 3.7965,9.08 L2,9.08 L2,14.657 L3.8345,14.657 C4.317,14.6545 4.7545,14.539 5.1465,14.3105 C5.5385,14.082 5.8425,13.7655 6.058,13.3605 C6.2735,12.956 6.3815,12.498 6.3815,11.9875 L6.3815,11.731 C6.379,11.2255 6.267,10.769 6.0465,10.3615 C5.826,9.9545 5.5185,9.639 5.125,9.4155 L5.125,9.4155 Z" id="path-1"></path>
    </defs>
    <g id="⭕-Icon/Object/Dell-Drac" stroke="none" stroke-width="1" fill="none" fill-rule="evenodd">
        <mask id="mask-2" fill="white">
            <use xlink:href="#path-1"></use>
        </mask>
        <use id="Color" fill="#212121" xlink:href="#path-1"></use>
    </g>
</svg>