<?xml version="1.0" encoding="UTF-8"?>
<svg width="24px" height="24px" viewBox="0 0 24 24" version="1.1" xmlns="http://www.w3.org/2000/svg" xmlns:xlink="http://www.w3.org/1999/xlink">
    <title>⭕ Icon/Object/Device Group</title>
    <g id="⭕-Icon/Object/Device-Group" stroke="none" stroke-width="1" fill="none" fill-rule="evenodd">
        <path d="M16.5,12 C16.775,12 17,12.2215396 17,12.4923103 L17,12.4923103 L17,18.8923435 C17,19.1631142 16.775,19.3846538 16.5,19.3846538 L16.5,19.3846538 L12.9349289,19.3846538 L12.9349289,20.7631225 L14.2833233,20.7631225 C14.5583233,20.7631225 14.7828118,21.075141 14.7828118,21.3459117 C14.7828118,21.6166823 14.5583233,22 14.2833233,22 L14.2833233,22 L9.72126369,22 C9.44626369,22 9.22075214,21.6166823 9.22075214,21.3459117 C9.22075214,21.075141 9.44626369,20.7631225 9.72126369,20.7631225 L9.72126369,20.7631225 L11.0894356,20.7631225 L11.0894356,19.3846538 L7.5,19.3846538 C7.225,19.3846538 7,19.1631142 7,18.8923435 L7,18.8923435 L7,12.4923103 C7,12.2215396 7.225,12 7.5,12 L7.5,12 Z M15,14 L9,14 L9,18 L15,18 L15,14 Z M10.55,2 C10.7975,2 11,2.19938565 11,2.44307923 L11,2.44307923 L11,8.20310917 C11,8.44680275 10.7975,8.6461884 10.55,8.6461884 L10.55,8.6461884 L7.34143603,8.6461884 L7.34143603,9.88681023 L8.55499099,9.88681023 C8.80249099,9.88681023 9.00453059,10.1676269 9.00453059,10.4113205 C9.00453059,10.6550141 8.80249099,11 8.55499099,11 L8.55499099,11 L4.44913732,11 C4.20163732,11 3.99867692,10.6550141 3.99867692,10.4113205 C3.99867692,10.1676269 4.20163732,9.88681023 4.44913732,9.88681023 L4.44913732,9.88681023 L5.68049208,9.88681023 L5.68049208,8.6461884 L2.45,8.6461884 C2.2025,8.6461884 2,8.44680275 2,8.20310917 L2,8.20310917 L2,2.44307923 C2,2.19938565 2.2025,2 2.45,2 L2.45,2 Z M21.55,2 C21.7975,2 22,2.19938565 22,2.44307923 L22,2.44307923 L22,8.20310917 C22,8.44680275 21.7975,8.6461884 21.55,8.6461884 L21.55,8.6461884 L18.341436,8.6461884 L18.341436,9.88681023 L19.554991,9.88681023 C19.802491,9.88681023 20.0045306,10.1676269 20.0045306,10.4113205 C20.0045306,10.6550141 19.802491,11 19.554991,11 L19.554991,11 L15.4491373,11 C15.2016373,11 14.9986769,10.6550141 14.9986769,10.4113205 C14.9986769,10.1676269 15.2016373,9.88681023 15.4491373,9.88681023 L15.4491373,9.88681023 L16.6804921,9.88681023 L16.6804921,8.6461884 L13.45,8.6461884 C13.2025,8.6461884 13,8.44680275 13,8.20310917 L13,8.20310917 L13,2.44307923 C13,2.19938565 13.2025,2 13.45,2 L13.45,2 Z M9.2,3.8 L3.8,3.8 L3.8,7.4 L9.2,7.4 L9.2,3.8 Z M20.2,3.8 L14.8,3.8 L14.8,7.4 L20.2,7.4 L20.2,3.8 Z" id="Color" fill="#212121"></path>
    </g>
</svg>