<?xml version="1.0" encoding="UTF-8"?>
<svg width="24px" height="24px" viewBox="0 0 24 24" version="1.1" xmlns="http://www.w3.org/2000/svg" xmlns:xlink="http://www.w3.org/1999/xlink">
    <title>⭕ Icon/Object/Firewall</title>
    <defs>
        <path d="M16,18.4998243 L20,18.4998243 L20,16.5078243 L16,16.5078243 L16,18.4998243 Z M10,16.8918243 C10.624,17.1243243 11.296,17.2578243 12,17.2578243 C12.704,17.2578243 13.376,17.1243243 14,16.8918243 L14,18.4998243 L10,18.4998243 L10,16.8918243 Z M4,18.4998243 L8,18.4998243 L8,16.5078243 L4,16.5078243 L4,18.4998243 Z M6.3415,12.4998243 C6.4685,13.2253243 6.7315,13.9028243 7.104,14.5078243 L4,14.5078243 L4,12.4998243 L6.3415,12.4998243 Z M8.9225,7.65282432 C9.3945,8.36182432 10.1375,9.24182432 11.1595,9.76232432 C11.3915,9.87932432 11.669,9.86932432 11.892,9.73332432 C12.114,9.59682432 12.25,9.35432432 12.25,9.09382432 C12.25,7.16432432 13.0855,6.06582432 13.765,5.49132432 C14.015,6.46882432 14.5205,7.34682432 15.0135,8.20432432 C15.6495,9.30882432 16.25,10.3513243 16.25,11.5078243 C16.25,12.6778243 15.7745,13.7383243 15.007,14.5078243 L15,14.5078243 L15,14.5148243 C14.2305,15.2823243 13.1695,15.7578243 12,15.7578243 C10.83,15.7578243 9.769,15.2823243 9,14.5148243 L9,14.5078243 L8.9925,14.5078243 C8.225,13.7383243 7.75,12.6778243 7.75,11.5078243 C7.75,9.90732432 8.4015,8.51232432 8.9225,7.65282432 L8.9225,7.65282432 Z M20,14.5078243 L16.8955,14.5078243 C17.268,13.9028243 17.531,13.2253243 17.658,12.4998243 L20,12.4998243 L20,14.5078243 Z M21,10.4998243 L17.6435,10.4998243 C17.4185,9.38382432 16.861,8.40632432 16.314,7.45532432 C15.6915,6.37432432 15.104,5.35332432 15.104,4.24982432 C15.104,4.00432432 14.9835,3.77432432 14.7815,3.63432432 C14.5805,3.49382432 14.322,3.46132432 14.092,3.54732432 C13.972,3.59182432 11.4695,4.56132432 10.876,7.69932432 C10.106,6.91782432 9.6915,5.96932432 9.6865,5.95732432 C9.586,5.71982432 9.37,5.55082432 9.1155,5.50982432 C8.8575,5.46632432 8.6025,5.56082432 8.4325,5.75482432 C8.353,5.84532432 6.68,7.78532432 6.321,10.4998243 L3,10.4998243 C2.4475,10.4998243 2,10.9478243 2,11.4998243 L2,19.4998243 C2,20.0523243 2.4475,20.4998243 3,20.4998243 L8,20.4998243 L8,20.5078243 L10,20.5078243 L10,20.4998243 L21,20.4998243 C21.552,20.4998243 22,20.0523243 22,19.4998243 L22,11.4998243 C22,10.9478243 21.552,10.4998243 21,10.4998243 L21,10.4998243 Z" id="path-1"></path>
    </defs>
    <g id="⭕-Icon/Object/Firewall" stroke="none" stroke-width="1" fill="none" fill-rule="evenodd">
        <mask id="mask-2" fill="white">
            <use xlink:href="#path-1"></use>
        </mask>
        <use id="Color" fill="#212121" xlink:href="#path-1"></use>
    </g>
</svg>