<?xml version="1.0" encoding="UTF-8"?>
<svg width="24px" height="24px" viewBox="0 0 24 24" version="1.1" xmlns="http://www.w3.org/2000/svg" xmlns:xlink="http://www.w3.org/1999/xlink">
    <title>⭕ Icon/Object/Hand</title>
    <defs>
        <path d="M20,7.1 L20,18 C20,19.65 18.7,21 17.1,21 L11.8,21 C11,21 10.25,20.7 9.75,20.1 L4,14.1 C4,14.1 4.9,13.2 4.95,13.15 C5.1,13 5.3,12.95 5.5,12.95 C5.65,12.95 5.8,13 5.95,13.05 C6,13.05 9.1,14.9 9.1,14.9 L9.1,6 C9.1,5.4 9.6,4.9 10.2,4.9 C10.8,4.9 11.3,5.4 11.3,6 L11.3,11.25 L12,11.25 L12,4.1 C12,3.5 12.5,3 13.1,3 C13.7,3 14.2,3.5 14.2,4.1 L14.2,11.2 L14.95,11.2 L14.95,4.9 C14.95,4.3 15.45,3.8 16.05,3.8 C16.65,3.8 17.15,4.3 17.15,4.9 L17.15,11.3 L17.9,11.3 L17.9,7.2 C17.9,6.6 18.4,6.1 19,6.1 C19.6,6.1 20,6.5 20,7.1 Z" id="path-1"></path>
    </defs>
    <g id="⭕-Icon/Object/Hand" stroke="none" stroke-width="1" fill="none" fill-rule="evenodd">
        <mask id="mask-2" fill="white">
            <use xlink:href="#path-1"></use>
        </mask>
        <use id="Color" fill="#212121" xlink:href="#path-1"></use>
    </g>
</svg>