<?xml version="1.0" encoding="UTF-8"?>
<svg width="24px" height="24px" viewBox="0 0 24 24" version="1.1" xmlns="http://www.w3.org/2000/svg" xmlns:xlink="http://www.w3.org/1999/xlink">
    <title>⭕ Icon/Object/Microphone</title>
    <defs>
        <path d="M12,15 C13.95,15 15.5,13.45 15.5,11.5 L15.5,5.5 C15.5,3.55 13.95,2 12,2 C10.45,2 9.1,3.05 8.65,4.45 C8.55,4.6 8.5,4.8 8.5,5 L8.5,11.5 C8.5,13.45 10.05,15 12,15 Z M10.5,5.5 C10.5,4.65 11.15,4 12,4 C12.85,4 13.5,4.65 13.5,5.5 L13.5,11.5 C13.5,12.35 12.85,13 12,13 C11.15,13 10.5,12.35 10.5,11.5 L10.5,5.5 Z M19.3,13.25 C18.55,16.3 16.05,18.5 13,18.95 L13,21 C13,21.55 12.55,22 12,22 C11.45,22 11,21.55 11,21 L11,18.95 C7.95,18.5 5.45,16.3 4.7,13.25 C4.55,12.7 4.9,12.15 5.45,12.05 C6,11.9 6.55,12.25 6.65,12.8 C7.25,15.3 9.45,17.05 12,17.05 C14.55,17.05 16.75,15.3 17.35,12.8 C17.5,12.25 18,11.95 18.55,12.05 C19.1,12.15 19.45,12.7 19.3,13.25 Z" id="path-1"></path>
    </defs>
    <g id="⭕-Icon/Object/Microphone" stroke="none" stroke-width="1" fill="none" fill-rule="evenodd">
        <mask id="mask-2" fill="white">
            <use xlink:href="#path-1"></use>
        </mask>
        <use id="Color" fill="#212121" xlink:href="#path-1"></use>
    </g>
</svg>