<?xml version="1.0" encoding="UTF-8"?>
<svg width="24px" height="24px" viewBox="0 0 24 24" version="1.1" xmlns="http://www.w3.org/2000/svg" xmlns:xlink="http://www.w3.org/1999/xlink">
    <title>⭕ Icon/Object/Network Switch</title>
    <defs>
        <path d="M17.7,2.3 L21.7,6.3 C22.1,6.7 22.1,7.3 21.7,7.7 C21.5,7.9 21.25,8 21,8 C20.75,8 20.5,7.9 20.3,7.7 L18,5.4 L17.95,21 C17.95,21.55 17.5,22 16.95,22 C16.4,22 15.95,21.55 15.95,21 L16,5.4 L13.7,7.7 C13.3,8.1 12.7,8.1 12.3,7.7 C11.9,7.3 11.9,6.7 12.3,6.3 L16.3,2.3 C16.45,2.1 16.7,2 17,2 C17.3,2 17.55,2.1 17.7,2.3 L17.7,2.3 Z M6.3,21.7 C6.35,21.75 6.4,21.8 6.45,21.8 L6.5,21.8 C6.55,21.85 6.6,21.85 6.65,21.85 L6.7,21.85 C6.75,21.85 6.8,21.9 6.8,21.9 L7,21.9 L7.05,21.9 L7.2,21.9 C7.25,21.9 7.3,21.9 7.3,21.85 L7.35,21.85 C7.4,21.85 7.45,21.8 7.5,21.8 L7.55,21.8 C7.6,21.75 7.65,21.7 7.7,21.65 L11.7,17.65 C12.1,17.25 12.1,16.65 11.7,16.25 C11.3,15.85 10.7,15.85 10.3,16.25 L8,18.6 L7.95,3 C7.95,2.45 7.5,2 6.95,2 C6.4,2 5.95,2.45 5.95,3 L6,18.6 L3.7,16.3 C3.3,15.9 2.7,15.9 2.3,16.3 C1.9,16.7 1.9,17.3 2.3,17.7 L6.3,21.7 L6.3,21.7 Z" id="path-1"></path>
    </defs>
    <g id="⭕-Icon/Object/Network-Switch" stroke="none" stroke-width="1" fill="none" fill-rule="evenodd">
        <mask id="mask-2" fill="white">
            <use xlink:href="#path-1"></use>
        </mask>
        <use id="Color" fill="#212121" transform="translate(12.000000, 12.000000) rotate(90.000000) translate(-12.000000, -12.000000) " xlink:href="#path-1"></use>
    </g>
</svg>