<?xml version="1.0" encoding="UTF-8"?>
<svg width="24px" height="24px" viewBox="0 0 24 24" version="1.1" xmlns="http://www.w3.org/2000/svg" xmlns:xlink="http://www.w3.org/1999/xlink">
    <title>⭕ Icon/Object/Powerpoint File</title>
    <defs>
        <path d="M20,6.5 L20,21 C20,21.55 19.55,22 19,22 L5,22 C4.75,22 4.5,21.9 4.3,21.7 C4.1,21.5 4,21.25 4,21 L4,19.5 C4,18.95 4.45,18.5 5,18.5 C5.55,18.5 6,18.95 6,19.5 L6,20 L18,20 L18,8 L15,8 C14.45,8 14,7.55 14,7 L14,4 L6,4 L6,9 C6,9.55 5.55,10 5,10 C4.45,10 4,9.55 4,9 L4,3 C4,2.45 4.45,2 5,2 L15.5,2 C15.6,2 15.65,2 15.75,2.05 C15.95,2.1 16.1,2.2 16.2,2.3 L19.7,5.8 C19.9,6 20,6.25 20,6.5 Z M4.05,16.5 L3,16.5 L3,12.25 L4.7,12.25 C5.05,12.25 5.3,12.3 5.55,12.45 C5.8,12.6 6,12.75 6.15,12.95 C6.3,13.15 6.35,13.4 6.35,13.7 C6.35,14.1 6.2,14.45 5.9,14.7 C5.6,14.95 5.2,15.05 4.65,15.05 L4.05,15.05 L4.05,16.5 Z M4.05,14.25 L4.7,14.25 C4.9,14.25 5.05,14.2 5.15,14.1 C5.25,14 5.3,13.85 5.3,13.7 C5.3,13.5 5.25,13.35 5.15,13.2 C5.05,13.05 4.9,13 4.7,13 L4.05,13 L4.05,14.25 Z M7.95,15.05 L7.95,16.5 L6.9,16.5 L6.9,12.25 L8.6,12.25 C8.95,12.25 9.2,12.3 9.45,12.45 C9.7,12.6 9.9,12.75 10.05,12.95 C10.2,13.15 10.25,13.4 10.25,13.7 C10.25,14.1 10.1,14.45 9.8,14.7 C9.5,14.95 9.1,15.05 8.55,15.05 L7.95,15.05 L7.95,15.05 Z M7.95,14.25 L8.6,14.25 C8.8,14.25 8.95,14.2 9.05,14.1 C9.15,14 9.2,13.85 9.2,13.7 C9.2,13.5 9.15,13.35 9.05,13.2 C8.95,13.05 8.8,13 8.6,13 L7.9,13 L7.9,14.25 L7.95,14.25 Z M12.9,16.5 L12.9,13.05 L14.2,13.05 L14.2,12.25 L10.65,12.25 L10.65,13.05 L11.9,13.05 L11.9,16.5 L12.9,16.5 Z" id="path-1"></path>
    </defs>
    <g id="⭕-Icon/Object/Powerpoint-File" stroke="none" stroke-width="1" fill="none" fill-rule="evenodd">
        <mask id="mask-2" fill="white">
            <use xlink:href="#path-1"></use>
        </mask>
        <use id="Color" fill="#212121" xlink:href="#path-1"></use>
    </g>
</svg>