<?xml version="1.0" encoding="UTF-8"?>
<svg width="24px" height="24px" viewBox="0 0 24 24" version="1.1" xmlns="http://www.w3.org/2000/svg" xmlns:xlink="http://www.w3.org/1999/xlink">
    <title>⭕ Icon/Object/Programmable Logic Controller</title>
    <defs>
        <path d="M9,14.5 C9,15.8 9.85,16.9 11,17.3 L11,20 C11,20.55 11.45,21 12,21 C12.55,21 13,20.55 13,20 L13,17.3 C14.15,16.9 15,15.8 15,14.5 C15,13.2 14.15,12.1 13,11.7 L13,4 C13,3.45 12.55,3 12,3 C11.45,3 11,3.45 11,4 L11,11.7 C9.85,12.1 9,13.2 9,14.5 Z M12,13.5 C12.55,13.5 13,13.95 13,14.5 C13,15.05 12.55,15.5 12,15.5 C11.45,15.5 11,15.05 11,14.5 C11,13.95 11.45,13.5 12,13.5 Z M17,12.3 L17,20 C17,20.55 17.45,21 18,21 C18.55,21 19,20.55 19,20 L19,12.3 C20.15,11.9 21,10.8 21,9.5 C21,8.2 20.15,7.1 19,6.7 L19,4 C19,3.45 18.55,3 18,3 C17.45,3 17,3.45 17,4 L17,6.7 C15.85,7.1 15,8.2 15,9.5 C15,10.8 15.85,11.9 17,12.3 Z M18,8.5 C18.55,8.5 19,8.95 19,9.5 C19,10.05 18.55,10.5 18,10.5 C17.45,10.5 17,10.05 17,9.5 C17,8.95 17.45,8.5 18,8.5 Z M5,12.3 L5,20 C5,20.55 5.45,21 6,21 C6.55,21 7,20.55 7,20 L7,12.3 C8.15,11.9 9,10.8 9,9.5 C9,8.2 8.15,7.1 7,6.7 L7,4 C7,3.45 6.55,3 6,3 C5.45,3 5,3.45 5,4 L5,6.7 C3.85,7.1 3,8.2 3,9.5 C3,10.8 3.85,11.9 5,12.3 Z M6,8.5 C6.55,8.5 7,8.95 7,9.5 C7,10.05 6.55,10.5 6,10.5 C5.45,10.5 5,10.05 5,9.5 C5,8.95 5.45,8.5 6,8.5 Z" id="path-1"></path>
    </defs>
    <g id="⭕-Icon/Object/Programmable-Logic-Controller" stroke="none" stroke-width="1" fill="none" fill-rule="evenodd">
        <mask id="mask-2" fill="white">
            <use xlink:href="#path-1"></use>
        </mask>
        <use id="Color" fill="#212121" xlink:href="#path-1"></use>
    </g>
</svg>