<?xml version="1.0" encoding="UTF-8"?>
<svg width="24px" height="24px" viewBox="0 0 24 24" version="1.1" xmlns="http://www.w3.org/2000/svg" xmlns:xlink="http://www.w3.org/1999/xlink">
    <title>⭕ Icon/Object/Redirector1</title>
    <defs>
        <path d="M13.5,2 C16.8,2 19.5,4.7 19.5,8 L19.5,19 C19.5,19.55 19.05,20 18.5,20 C17.95,20 17.5,19.55 17.5,19 L17.5,8 C17.5,5.8 15.7,4 13.5,4 C11.3,4 9.5,5.8 9.5,8 L9.5,18.6 L10.8,17.3 C11.2,16.9 11.8,16.9 12.2,17.3 C12.4,17.5 12.5,17.75 12.5,18 C12.5,18.25 12.4,18.5 12.2,18.7 L9.2,21.7 C8.8,22.1 8.2,22.1 7.8,21.7 L4.8,18.7 C4.4,18.3 4.4,17.7 4.8,17.3 C5.2,16.9 5.8,16.9 6.2,17.3 L7.5,18.6 L7.5,8 C7.5,4.7 10.2,2 13.5,2 Z" id="path-1"></path>
    </defs>
    <g id="⭕-Icon/Object/Redirector1" stroke="none" stroke-width="1" fill="none" fill-rule="evenodd">
        <mask id="mask-2" fill="white">
            <use xlink:href="#path-1"></use>
        </mask>
        <use id="Color" fill="#212121" xlink:href="#path-1"></use>
    </g>
</svg>