<?xml version="1.0" encoding="UTF-8"?>
<svg width="24px" height="24px" viewBox="0 0 24 24" version="1.1" xmlns="http://www.w3.org/2000/svg" xmlns:xlink="http://www.w3.org/1999/xlink">
    <title>⭕ Icon/Object/Redirector2</title>
    <defs>
        <path d="M2,18.2 L2,17.8 C2,17.75 2,17.75 2.05,17.7 C2.05,17.65 2.05,17.65 2.1,17.6 C2.1,17.55 2.15,17.55 2.15,17.5 C2.15,17.45 2.2,17.45 2.2,17.4 C2.25,17.35 2.3,17.3 2.35,17.25 L5.35,14.25 C5.75,13.85 6.35,13.85 6.75,14.25 C7.15,14.65 7.15,15.25 6.75,15.65 L5.4,17 L17,17 C17.55,17 18,16.55 18,16 L18,13 C18,12.45 18.45,12 19,12 C19.55,12 20,12.45 20,13 L20,16 C20,17.65 18.65,19 17,19 L5.4,19 L6.7,20.3 C7.1,20.7 7.1,21.3 6.7,21.7 C6.5,21.9 6.25,22 6,22 C5.75,22 5.5,21.9 5.3,21.7 L2.3,18.7 C2.25,18.65 2.2,18.6 2.15,18.55 C2.15,18.55 2.1,18.5 2.1,18.45 C2.1,18.4 2.05,18.4 2.05,18.35 C2.05,18.3 2.05,18.3 2,18.25 C2.05,18.25 2.05,18.25 2,18.2 L2,18.2 Z M17.35,9.7 C17.55,9.9 17.8,10 18.05,10 C18.3,10 18.55,9.9 18.75,9.7 L21.75,6.7 C21.8,6.65 21.85,6.6 21.9,6.55 C21.9,6.55 21.95,6.5 21.95,6.45 C21.95,6.4 22,6.4 22,6.35 C22,6.3 22,6.3 22.05,6.25 C22.05,6.2 22.05,6.2 22.1,6.15 C22.15,6 22.15,5.9 22.1,5.75 C22.1,5.7 22.1,5.7 22.05,5.65 C22.05,5.6 22.05,5.6 22,5.55 C22,5.5 21.95,5.5 21.95,5.45 C21.95,5.4 21.9,5.4 21.9,5.35 C21.85,5.3 21.8,5.25 21.75,5.2 L18.75,2.2 C18.35,1.8 17.75,1.8 17.35,2.2 C16.95,2.6 16.95,3.2 17.35,3.6 L18.65,4.9 L7.05,4.9 C5.4,4.9 4.05,6.25 4.05,7.9 L4.05,10.9 C4.05,11.45 4.5,11.9 5.05,11.9 C5.6,11.9 6.05,11.45 6.05,10.9 L6.05,7.9 C6.05,7.35 6.5,6.9 7.05,6.9 L18.65,6.9 L17.35,8.2 C16.95,8.7 16.95,9.3 17.35,9.7 L17.35,9.7 Z" id="path-1"></path>
    </defs>
    <g id="⭕-Icon/Object/Redirector2" stroke="none" stroke-width="1" fill="none" fill-rule="evenodd">
        <mask id="mask-2" fill="white">
            <use xlink:href="#path-1"></use>
        </mask>
        <use id="Color" fill="#212121" xlink:href="#path-1"></use>
    </g>
</svg>