<?xml version="1.0" encoding="UTF-8"?>
<svg width="24px" height="24px" viewBox="0 0 24 24" version="1.1" xmlns="http://www.w3.org/2000/svg" xmlns:xlink="http://www.w3.org/1999/xlink">
    <title>⭕ Icon/Object/Report</title>
    <defs>
        <path d="M10,10 L10,17 C10,17.55 9.55,18 9,18 C8.45,18 8,17.55 8,17 L8,10 C8,9.45 8.45,9 9,9 C9.55,9 10,9.45 10,10 Z M12,11 C11.45,11 11,11.45 11,12 L11,17 C11,17.55 11.45,18 12,18 C12.55,18 13,17.55 13,17 L13,12 C13,11.45 12.55,11 12,11 Z M15,13.5 C14.45,13.5 14,13.95 14,14.5 L14,17 C14,17.55 14.45,18 15,18 C15.55,18 16,17.55 16,17 L16,14.5 C16,13.95 15.55,13.5 15,13.5 Z M19.7,5.8 C19.9,6 20,6.25 20,6.5 L20,21 C20,21.55 19.55,22 19,22 L5,22 C4.75,22 4.5,21.9 4.3,21.7 C4.1,21.5 4,21.25 4,21 L4,3 C4,2.45 4.45,2 5,2 L15.5,2 C15.6,2 15.65,2 15.75,2.05 C15.95,2.1 16.1,2.2 16.2,2.3 L19.7,5.8 Z M18,20 L18,8 L15,8 C14.45,8 14,7.55 14,7 L14,4 L6,4 L6,20 L18,20 Z" id="path-1"></path>
        <polygon id="path-3" points="5.16129032e-05 0 15.812129 0 15.812129 15.8120774 5.16129032e-05 15.8120774"></polygon>
    </defs>
    <g id="⭕-Icon/Object/Report" stroke="none" stroke-width="1" fill="none" fill-rule="evenodd">
        <mask id="mask-2" fill="white">
            <use xlink:href="#path-1"></use>
        </mask>
        <use id="Color" fill="#212121" xlink:href="#path-1"></use>
        <g id="Group" mask="url(#mask-2)">
            <g transform="translate(2.000000, 2.000000)" id="Group-3">
                <mask id="mask-4" fill="white">
                    <use xlink:href="#path-3"></use>
                </mask>
                <g id="Clip-2"></g>
                <path d="M14.3876645,6.49930323 C14.0671484,3.84614194 11.9659871,1.74498065 9.31282581,1.42446452 L9.31282581,6.49930323 L14.3876645,6.49930323 Z M15.8121806,7.19375484 L15.8121806,7.88820645 L7.92392258,7.88820645 L7.92392258,-5.16129032e-05 L8.61837419,-5.16129032e-05 C12.5892129,-5.16129032e-05 15.8121806,3.22291613 15.8121806,7.19375484 L15.8121806,7.19375484 Z M5.16129032e-05,9.31272258 C5.16129032e-05,5.71581935 2.92030968,2.81336774 6.49940645,2.81336774 L6.49940645,9.31272258 L12.9987613,9.31272258 C12.9987613,12.9096258 10.0785032,15.8120774 6.49940645,15.8120774 C2.92030968,15.8120774 5.16129032e-05,12.9096258 5.16129032e-05,9.31272258 L5.16129032e-05,9.31272258 Z" id="Fill-1" fill="#333333" mask="url(#mask-4)"></path>
            </g>
        </g>
    </g>
</svg>