<?xml version="1.0" encoding="UTF-8"?>
<svg width="24px" height="24px" viewBox="0 0 24 24" version="1.1" xmlns="http://www.w3.org/2000/svg" xmlns:xlink="http://www.w3.org/1999/xlink">
    <title>⭕ Icon/Object/Router</title>
    <defs>
        <path d="M9.707,11.292875 C10.0975,11.683375 10.0975,12.316375 9.707,12.706875 L7.207,15.206875 C7.0115,15.402375 6.756,15.499875 6.5,15.499875 C6.244,15.499875 5.9885,15.402375 5.793,15.206875 C5.4025,14.816375 5.4025,14.183375 5.793,13.792875 L6.586,12.999875 L3,12.999875 C2.4475,12.999875 2,12.552375 2,11.999875 C2,11.447875 2.4475,10.999875 3,10.999875 L6.586,10.999875 L5.793,10.206875 C5.4025,9.816375 5.4025,9.183375 5.793,8.792875 C6.1835,8.402375 6.8165,8.402375 7.207,8.792875 L9.707,11.292875 Z M21,10.999875 C21.552,10.999875 22,11.447875 22,11.999875 C22,12.552375 21.552,12.999875 21,12.999875 L17.414,12.999875 L18.207,13.792875 C18.5975,14.183375 18.5975,14.816375 18.207,15.206875 C18.0115,15.402375 17.756,15.499875 17.5,15.499875 C17.244,15.499875 16.9885,15.402375 16.793,15.206875 L14.293,12.706875 C13.9025,12.316375 13.9025,11.683375 14.293,11.292875 L16.793,8.792875 C17.1835,8.402375 17.8165,8.402375 18.207,8.792875 C18.5975,9.183375 18.5975,9.816375 18.207,10.206875 L17.414,10.999875 L21,10.999875 Z M13.793,17.792875 C14.1835,17.402375 14.8165,17.402375 15.207,17.792875 C15.5975,18.183375 15.5975,18.816375 15.207,19.206875 L12.707,21.706875 C12.5115,21.902375 12.256,21.999875 12,21.999875 C11.744,21.999875 11.4885,21.902375 11.293,21.706875 L8.793,19.206875 C8.4025,18.816375 8.4025,18.183375 8.793,17.792875 C9.1835,17.402375 9.8165,17.402375 10.207,17.792875 L11,18.585875 L11,14.999875 C11,14.447875 11.4475,13.999875 12,13.999875 C12.552,13.999875 13,14.447875 13,14.999875 L13,18.585875 L13.793,17.792875 Z M8.793,6.206875 C8.4025,5.816375 8.4025,5.183375 8.793,4.792875 L11.293,2.292875 C11.6835,1.902375 12.3165,1.902375 12.707,2.292875 L15.207,4.792875 C15.5975,5.183375 15.5975,5.816375 15.207,6.206875 C15.0115,6.402375 14.756,6.499875 14.5,6.499875 C14.244,6.499875 13.9885,6.402375 13.793,6.206875 L13,5.413875 L13,8.999875 C13,9.552375 12.552,9.999875 12,9.999875 C11.4475,9.999875 11,9.552375 11,8.999875 L11,5.413875 L10.207,6.206875 C9.8165,6.597375 9.1835,6.597375 8.793,6.206875 Z" id="path-1"></path>
    </defs>
    <g id="⭕-Icon/Object/Router" stroke="none" stroke-width="1" fill="none" fill-rule="evenodd">
        <mask id="mask-2" fill="white">
            <use xlink:href="#path-1"></use>
        </mask>
        <use id="Color" fill="#212121" xlink:href="#path-1"></use>
    </g>
</svg>