<?xml version="1.0" encoding="UTF-8"?>
<svg width="24px" height="24px" viewBox="0 0 24 24" version="1.1" xmlns="http://www.w3.org/2000/svg" xmlns:xlink="http://www.w3.org/1999/xlink">
    <title>⭕ Icon/Object/Template</title>
    <defs>
        <path d="M4,21 L20,21 C20.55,21 21,20.55 21,20 L21,4 C21,3.45 20.55,3 20,3 L4,3 C3.45,3 3,3.45 3,4 L3,20 C3,20.55 3.45,21 4,21 Z M5,11 L9,11 L9,19 L5,19 L5,11 Z M11,19 L11,11 L19,11 L19,19 L11,19 Z M19,5 L19,9 L5,9 L5,5 L19,5 Z" id="path-1"></path>
    </defs>
    <g id="⭕-Icon/Object/Template" stroke="none" stroke-width="1" fill="none" fill-rule="evenodd">
        <mask id="mask-2" fill="white">
            <use xlink:href="#path-1"></use>
        </mask>
        <use id="Color" fill="#212121" xlink:href="#path-1"></use>
    </g>
</svg>