<?xml version="1.0" encoding="UTF-8"?>
<svg width="24px" height="24px" viewBox="0 0 24 24" version="1.1" xmlns="http://www.w3.org/2000/svg" xmlns:xlink="http://www.w3.org/1999/xlink">
    <title>⭕ Icon/Object/Text File</title>
    <defs>
        <path d="M20,6.5 L20,21 C20,21.55 19.55,22 19,22 L5,22 C4.75,22 4.5,21.9 4.3,21.7 C4.1,21.5 4,21.25 4,21 L4,19.5 C4,18.95 4.45,18.5 5,18.5 C5.55,18.5 6,18.95 6,19.5 L6,20 L18,20 L18,8 L15,8 C14.45,8 14,7.55 14,7 L14,4 L6,4 L6,9 C6,9.55 5.55,10 5,10 C4.45,10 4,9.55 4,9 L4,3 C4,2.45 4.45,2 5,2 L15.5,2 C15.6,2 15.65,2 15.75,2.05 C15.95,2.1 16.1,2.2 16.2,2.3 L19.7,5.8 C19.9,6 20,6.25 20,6.5 Z M4.25,16.5 L5.3,16.5 L5.3,13.05 L6.6,13.05 L6.6,12.25 L3,12.25 L3,13.05 L4.25,13.05 L4.25,16.5 Z M7.9,16.5 L8.6,15.05 L9.3,16.5 L10.5,16.5 L9.3,14.35 L10.5,12.25 L9.35,12.25 L8.65,13.65 L7.95,12.25 L6.8,12.25 L8,14.35 L6.7,16.5 L7.9,16.5 Z M12.9,16.5 L12.9,13.05 L14.2,13.05 L14.2,12.25 L10.65,12.25 L10.65,13.05 L11.9,13.05 L11.9,16.5 L12.9,16.5 L12.9,16.5 Z" id="path-1"></path>
    </defs>
    <g id="⭕-Icon/Object/Text-File" stroke="none" stroke-width="1" fill="none" fill-rule="evenodd">
        <mask id="mask-2" fill="white">
            <use xlink:href="#path-1"></use>
        </mask>
        <use id="Color" fill="#212121" xlink:href="#path-1"></use>
    </g>
</svg>