<?xml version="1.0" encoding="UTF-8"?>
<svg width="24px" height="24px" viewBox="0 0 24 24" version="1.1" xmlns="http://www.w3.org/2000/svg" xmlns:xlink="http://www.w3.org/1999/xlink">
    <title>⭕ Icon/Object/Today</title>
    <defs>
        <path d="M20,4.5 L19,4.5 L19,3.5 C19,2.95 18.55,2.5 18,2.5 C17.45,2.5 17,2.95 17,3.5 L17,4.5 L7,4.5 L7,3.5 C7,2.95 6.55,2.5 6,2.5 C5.45,2.5 5,2.95 5,3.5 L5,4.5 L4,4.5 C3.45,4.5 3,4.95 3,5.5 L3,20.5 C3,21.05 3.45,21.5 4,21.5 L20,21.5 C20.55,21.5 21,21.05 21,20.5 L21,5.5 C21,4.95 20.55,4.5 20,4.5 Z M5,19.5 L5,9.5 L19,9.5 L19,19.5 L5,19.5 Z M7,11.5 L11,11.5 L11,15.5 L7,15.5 L7,11.5 Z" id="path-1"></path>
    </defs>
    <g id="⭕-Icon/Object/Today" stroke="none" stroke-width="1" fill="none" fill-rule="evenodd">
        <mask id="mask-2" fill="white">
            <use xlink:href="#path-1"></use>
        </mask>
        <use id="Color" fill="#212121" xlink:href="#path-1"></use>
    </g>
</svg>