<?xml version="1.0" encoding="UTF-8"?>
<svg width="24px" height="24px" viewBox="0 0 24 24" version="1.1" xmlns="http://www.w3.org/2000/svg" xmlns:xlink="http://www.w3.org/1999/xlink">
    <title>⭕ Icon/Object/UPS</title>
    <defs>
        <path d="M20.9,9.55 C20.75,9.2 20.4,9 20,9 L13,9 L13,3 C13,2.55 12.7,2.2 12.3,2.05 C11.9,1.9 11.45,2.05 11.2,2.4 L3.2,13.4 C3,13.7 2.95,14.1 3.1,14.45 C3.3,14.8 3.6,15 4,15 L11,15 L11,21 C11,21.45 11.3,21.8 11.7,21.95 C11.8,22 11.9,22 12,22 C12.3,22 12.6,21.85 12.8,21.6 L20.8,10.6 C21.05,10.3 21.05,9.9 20.9,9.55 L20.9,9.55 Z M13,17.9 L13,14 C13,13.45 12.55,13 12,13 L5.95,13 L11,6.1 L11,10 C11,10.55 11.45,11 12,11 L18.05,11 L13,17.9 Z" id="path-1"></path>
    </defs>
    <g id="⭕-Icon/Object/UPS" stroke="none" stroke-width="1" fill="none" fill-rule="evenodd">
        <mask id="mask-2" fill="white">
            <use xlink:href="#path-1"></use>
        </mask>
        <use id="Color" fill="#212121" xlink:href="#path-1"></use>
    </g>
</svg>