<?xml version="1.0" encoding="UTF-8"?>
<svg width="24px" height="24px" viewBox="0 0 24 24" version="1.1" xmlns="http://www.w3.org/2000/svg" xmlns:xlink="http://www.w3.org/1999/xlink">
    <title>⭕ Icon/Object/Visio File</title>
    <defs>
        <path d="M19.7,5.8 L16.2,2.3 C16.05,2.15 15.9,2.05 15.7,2.05 L15.5,2.05 L5,2.05 C4.45,2 4,2.45 4,3 L4,21 C4,21.25 4.1,21.5 4.3,21.7 C4.5,21.9 4.75,22 5,22 L19,22 C19.55,22 20,21.55 20,21 L20,6.5 C20,6.25 19.9,6 19.7,5.8 Z M6,20 L6,4 L14,4 L14,7 C14,7.55 14.45,8 15,8 L18,8 L18,20 L6,20 Z M13.7,9.5 L16,9.5 L13.15,18 L10.9,18 L8,9.5 L10.3,9.5 L12,15.7 L13.7,9.5 Z" id="path-1"></path>
    </defs>
    <g id="⭕-Icon/Object/Visio-File" stroke="none" stroke-width="1" fill="none" fill-rule="evenodd">
        <mask id="mask-2" fill="white">
            <use xlink:href="#path-1"></use>
        </mask>
        <use id="Color" fill="#212121" xlink:href="#path-1"></use>
    </g>
</svg>