<?xml version="1.0" encoding="UTF-8"?>
<svg width="24px" height="24px" viewBox="0 0 24 24" version="1.1" xmlns="http://www.w3.org/2000/svg" xmlns:xlink="http://www.w3.org/1999/xlink">
    <title>⭕ Icon/Object/VMware ESX Hosts</title>
    <defs>
        <path d="M18.1525,11.7785 L19.951,8.5885 L18.1795,8.5885 L17.1275,10.727 L16.0765,8.5885 L14.309,8.5885 L16.1025,11.7785 L14.26,15.022 L16.045,15.022 L17.1275,12.8435 L18.21,15.022 L20,15.022 L18.1525,11.7785 Z M10.838,9.854 C10.9985,9.732 11.217,9.6705 11.494,9.6705 C11.768,9.6705 11.985,9.743 12.146,9.8875 C12.3065,10.032 12.3865,10.235 12.3865,10.497 L13.933,10.497 C13.933,10.105 13.831,9.757 13.6285,9.452 C13.4245,9.147 13.1395,8.912 12.7735,8.7475 C12.4065,8.5825 11.992,8.5 11.5295,8.5 C11.055,8.5 10.628,8.576 10.248,8.7275 C9.868,8.8795 9.574,9.0915 9.3665,9.364 C9.159,9.6365 9.055,9.951 9.055,10.307 C9.055,11.023 9.472,11.5855 10.3055,11.9955 C10.5615,12.1215 10.8915,12.2525 11.2955,12.3885 C11.699,12.524 11.9805,12.655 12.141,12.7815 C12.302,12.908 12.382,13.085 12.382,13.3115 C12.382,13.512 12.3075,13.6675 12.159,13.778 C12.01,13.8885 11.808,13.9435 11.551,13.9435 C11.151,13.9435 10.8615,13.862 10.683,13.6985 C10.5045,13.535 10.416,13.281 10.416,12.936 L8.8605,12.936 C8.8605,13.3605 8.967,13.735 9.1805,14.0605 C9.3945,14.386 9.7125,14.6425 10.135,14.8295 C10.5575,15.0165 11.03,15.11 11.551,15.11 C12.291,15.11 12.8725,14.9495 13.2965,14.629 C13.721,14.3075 13.933,13.8655 13.933,13.303 C13.933,12.599 13.585,12.0465 12.89,11.646 C12.6045,11.481 12.2395,11.3275 11.7945,11.1845 C11.3495,11.0415 11.0385,10.903 10.862,10.769 C10.685,10.635 10.5965,10.485 10.5965,10.3205 C10.5965,10.1315 10.6775,9.9765 10.838,9.854 L10.838,9.854 Z M4,8.5885 L8.441,8.5885 L8.441,9.786 L5.5505,9.786 L5.5505,11.142 L7.9895,11.142 L7.9895,12.291 L5.5505,12.291 L5.5505,13.8285 L8.4315,13.8285 L8.4315,15.022 L4,15.022 L4,8.5885 Z" id="path-1"></path>
    </defs>
    <g id="⭕-Icon/Object/VMware-ESX-Hosts" stroke="none" stroke-width="1" fill="none" fill-rule="evenodd">
        <mask id="mask-2" fill="white">
            <use xlink:href="#path-1"></use>
        </mask>
        <use id="Color" fill="#212121" xlink:href="#path-1"></use>
    </g>
</svg>