<?xml version="1.0" encoding="UTF-8"?>
<svg width="24px" height="24px" viewBox="0 0 24 24" version="1.1" xmlns="http://www.w3.org/2000/svg" xmlns:xlink="http://www.w3.org/1999/xlink">
    <title>⭕ Icon/Object/Volume</title>
    <defs>
        <path d="M10.4,4.1 C10,3.9 9.6,4 9.3,4.3 L5.6,8 L3,8 C2.45,8 2,8.45 2,9 L2,15 C2,15.55 2.45,16 3,16 L5.6,16 L9.3,19.7 C9.5,19.9 9.75,20 10,20 C10.15,20 10.25,20 10.4,19.9 C10.75,19.75 11,19.4 11,19 L11,5 C11,4.6 10.75,4.25 10.4,4.1 Z M9,16.6 L6.7,14.3 C6.5,14.1 6.25,14 6,14 L4,14 L4,10 L6,10 C6.25,10 6.5,9.9 6.7,9.7 L9,7.4 L9,16.6 L9,16.6 Z M17,12 C17,14.45 15.3,15.75 15.25,15.8 C15.05,15.95 14.85,16 14.65,16 C14.35,16 14.05,15.85 13.85,15.6 C13.5,15.15 13.6,14.55 14.05,14.2 C14.1,14.2 15.05,13.4 15.05,12 C15.05,10.55 14.1,9.8 14.05,9.8 C13.6,9.45 13.5,8.85 13.85,8.4 C14.2,7.95 14.8,7.85 15.25,8.2 C15.3,8.25 17,9.55 17,12 Z M22,12 C22,17.05 18.35,19.7 18.2,19.8 C18,19.9 17.8,20 17.6,20 C17.3,20 17,19.85 16.8,19.6 C16.5,19.15 16.6,18.55 17.05,18.2 C17.15,18.1 20,16 20,12 C20,7.9 17.1,5.85 17.05,5.8 C16.6,5.5 16.5,4.9 16.8,4.45 C17.1,4 17.75,3.9 18.2,4.2 C18.35,4.3 22,6.9 22,12 L22,12 Z" id="path-1"></path>
    </defs>
    <g id="⭕-Icon/Object/Volume" stroke="none" stroke-width="1" fill="none" fill-rule="evenodd">
        <mask id="mask-2" fill="white">
            <use xlink:href="#path-1"></use>
        </mask>
        <use id="Color" fill="#212121" xlink:href="#path-1"></use>
    </g>
</svg>