<?xml version="1.0" encoding="UTF-8"?>
<svg width="24px" height="24px" viewBox="0 0 24 24" version="1.1" xmlns="http://www.w3.org/2000/svg" xmlns:xlink="http://www.w3.org/1999/xlink">
    <title>⭕ Icon/Object/WiFi</title>
    <defs>
        <path d="M13,18.5 C13,19.05 12.55,19.5 12,19.5 C11.45,19.5 11,19.05 11,18.5 C11,17.95 11.45,17.5 12,17.5 C12.55,17.5 13,17.95 13,18.5 Z M15.6,14.7 C14.55,13.9 13.3,13.5 12,13.5 C10.7,13.5 9.45,13.9 8.4,14.7 C7.95,15.05 7.85,15.65 8.2,16.1 C8.4,16.35 8.7,16.5 9,16.5 C9.2,16.5 9.4,16.45 9.6,16.3 C10.3,15.8 11.15,15.5 12,15.5 C12.85,15.5 13.7,15.8 14.4,16.3 C14.85,16.65 15.45,16.55 15.8,16.1 C16.15,15.65 16.05,15.05 15.6,14.7 L15.6,14.7 Z M12,9.5 C9.55,9.5 7.15,10.4 5.35,12.05 C4.95,12.4 4.9,13.05 5.25,13.45 C5.45,13.65 5.7,13.8 6,13.8 C6.25,13.8 6.5,13.7 6.65,13.55 C8.15,12.2 10.05,11.5 12,11.5 C13.95,11.5 15.85,12.2 17.35,13.55 C17.75,13.9 18.4,13.9 18.75,13.45 C19.1,13.05 19.1,12.4 18.65,12.05 C16.85,10.4 14.45,9.5 12,9.5 Z M21.55,9.25 C18.95,6.85 15.55,5.5 12,5.5 C8.45,5.5 5.05,6.85 2.45,9.25 C2.05,9.65 2,10.25 2.4,10.65 C2.6,10.9 2.85,11 3.15,11 C3.4,11 3.65,10.9 3.85,10.75 C6.05,8.65 8.95,7.5 12,7.5 C15.05,7.5 17.95,8.65 20.2,10.75 C20.6,11.15 21.25,11.1 21.6,10.7 C22,10.3 21.95,9.65 21.55,9.25 L21.55,9.25 Z" id="path-1"></path>
    </defs>
    <g id="⭕-Icon/Object/WiFi" stroke="none" stroke-width="1" fill="none" fill-rule="evenodd">
        <mask id="mask-2" fill="white">
            <use xlink:href="#path-1"></use>
        </mask>
        <use id="Color" fill="#212121" xlink:href="#path-1"></use>
    </g>
</svg>