<?xml version="1.0" encoding="UTF-8"?>
<svg width="24px" height="24px" viewBox="0 0 24 24" version="1.1" xmlns="http://www.w3.org/2000/svg" xmlns:xlink="http://www.w3.org/1999/xlink">
    <title>⭕ Icon/Object/Word File</title>
    <defs>
        <path d="M20,6.5 L20,21 C20,21.55 19.55,22 19,22 L5,22 C4.75,22 4.5,21.9 4.3,21.7 C4.1,21.5 4,21.25 4,21 L4,19.5 C4,18.95 4.45,18.5 5,18.5 C5.55,18.5 6,18.95 6,19.5 L6,20 L18,20 L18,8 L15,8 C14.45,8 14,7.55 14,7 L14,4 L6,4 L6,9 C6,9.55 5.55,10 5,10 C4.45,10 4,9.55 4,9 L4,3 C4,2.45 4.45,2 5,2 L15.5,2 L15.7,2 C15.9,2.05 16.05,2.15 16.2,2.25 L19.7,5.75 C19.9,6 20,6.25 20,6.5 Z M4.4,16.45 L3,16.45 L3,12.2 L4.35,12.2 C4.75,12.2 5.05,12.3 5.35,12.45 C5.65,12.6 5.9,12.85 6.05,13.15 C6.2,13.45 6.3,13.8 6.3,14.2 L6.3,14.4 C6.3,14.8 6.2,15.15 6.05,15.45 C5.9,15.75 5.65,16 5.35,16.2 C5.05,16.4 4.75,16.45 4.4,16.45 L4.4,16.45 Z M4.4,15.65 C4.7,15.65 4.9,15.55 5.1,15.35 C5.3,15.15 5.35,14.85 5.35,14.4 L5.35,14.2 C5.35,13.8 5.25,13.5 5.1,13.25 C4.95,13 4.7,12.95 4.4,12.95 L4.05,12.95 L4.05,15.65 L4.4,15.65 Z M7,15.55 C6.85,15.25 6.75,14.9 6.75,14.5 L6.75,14.25 C6.75,13.85 6.85,13.45 7,13.15 C7.15,12.85 7.35,12.6 7.65,12.4 C7.95,12.2 8.25,12.15 8.65,12.15 C9,12.15 9.35,12.25 9.6,12.4 C9.85,12.55 10.1,12.8 10.25,13.15 C10.4,13.5 10.5,13.85 10.5,14.25 L10.5,14.45 C10.5,14.85 10.4,15.25 10.25,15.55 C10.1,15.85 9.9,16.1 9.6,16.3 C9.3,16.5 9,16.5 8.65,16.5 C8.3,16.5 7.95,16.4 7.7,16.25 C7.45,16.1 7.15,15.85 7,15.55 L7,15.55 Z M7.8,14.4 C7.8,14.8 7.85,15.15 8,15.35 C8.15,15.55 8.35,15.7 8.6,15.7 C8.85,15.7 9.05,15.6 9.2,15.35 C9.35,15.1 9.4,14.8 9.4,14.4 L9.4,14.2 C9.4,13.8 9.35,13.45 9.2,13.25 C9.05,13.05 8.85,12.9 8.6,12.9 C8.1,12.9 7.8,13.3 7.8,14.05 L7.8,14.4 L7.8,14.4 Z M12.15,13.2 C12.25,13 12.45,12.9 12.7,12.9 C12.95,12.9 13.15,12.95 13.25,13.05 C13.35,13.15 13.45,13.35 13.45,13.6 L14.5,13.6 C14.45,13.1 14.3,12.75 13.95,12.45 C13.6,12.15 13.2,12.05 12.7,12.05 C12.35,12.05 12,12.15 11.75,12.3 C11.5,12.45 11.25,12.7 11.1,13.05 C10.95,13.4 10.9,13.75 10.9,14.15 L10.9,14.35 C10.9,15 11.05,15.55 11.4,15.9 C11.75,16.25 12.15,16.45 12.7,16.45 C13.05,16.45 13.35,16.4 13.6,16.25 C13.85,16.1 14.05,15.95 14.2,15.7 C14.35,15.45 14.45,15.2 14.45,14.9 L13.45,14.9 C13.45,15.15 13.4,15.3 13.25,15.45 C13.1,15.6 12.95,15.6 12.7,15.6 C12.4,15.6 12.2,15.5 12.1,15.3 C12,15.1 11.95,14.8 11.95,14.3 L11.95,14 C11.95,13.7 12,13.4 12.15,13.2 L12.15,13.2 Z" id="path-1"></path>
    </defs>
    <g id="⭕-Icon/Object/Word-File" stroke="none" stroke-width="1" fill="none" fill-rule="evenodd">
        <mask id="mask-2" fill="white">
            <use xlink:href="#path-1"></use>
        </mask>
        <use id="Color" fill="#212121" xlink:href="#path-1"></use>
    </g>
</svg>