<?xml version="1.0" encoding="UTF-8"?>
<svg width="24px" height="24px" viewBox="0 0 24 24" version="1.1" xmlns="http://www.w3.org/2000/svg" xmlns:xlink="http://www.w3.org/1999/xlink">
    <title>⭕ Application / Access</title>
    <defs>
        <path d="M9,8 C9,8.55 8.55,9 8,9 C7.45,9 7,8.55 7,8 C7,7.45 7.45,7 8,7 C8.55,7 9,7.45 9,8 Z M20.7,16.8 C20.9,17 21,17.25 21,17.5 L21,20 C21,20.55 20.55,21 20,21 L16.75,21 C16.5,21 16.25,20.9 16.05,20.7 L10.2,14.9 C9.8,14.95 9.4,15 9,15 C5.7,15 3,12.3 3,9 C3,5.7 5.7,3 9,3 C12.3,3 15,5.7 15,9 C15,9.6 14.95,10.15 14.7,10.8 L16.4,12.5 L18.5,12.5 C19.05,12.5 19.5,12.95 19.5,13.5 L19.5,15.6 L20.7,16.8 Z M19,17.9 L17.8,16.7 C17.6,16.5 17.5,16.25 17.5,16 L17.5,14.5 L16,14.5 C15.75,14.5 15.5,14.4 15.3,14.2 L12.8,11.7 C12.5,11.4 12.45,10.9 12.65,10.5 C13,9.9 13.05,9.55 13.05,8.95 C13.05,6.75 11.25,4.95 9.05,4.95 C6.85,4.95 5.05,6.75 5.05,8.95 C5.05,11.15 6.85,12.95 9.05,12.95 C9.45,12.95 9.85,12.9 10.25,12.75 C10.6,12.65 11,12.7 11.25,13 L17.15,19 L19,19 L19,17.9 Z" id="path-1"></path>
    </defs>
    <g id="⭕-Application-/-Access" stroke="none" stroke-width="1" fill="none" fill-rule="evenodd">
        <mask id="mask-2" fill="white">
            <use xlink:href="#path-1"></use>
        </mask>
        <use id="🎨-Icon-Color" fill="#333333" xlink:href="#path-1"></use>
    </g>
</svg>