<?xml version="1.0" encoding="UTF-8"?>
<svg width="24px" height="24px" viewBox="0 0 24 24" version="1.1" xmlns="http://www.w3.org/2000/svg" xmlns:xlink="http://www.w3.org/1999/xlink">
    <title>⭕ Application / Acheivement</title>
    <defs>
        <path d="M17.5,4.25 L17.5,3 C17.5,2.45 17.05,2 16.5,2 L7.5,2 C6.95,2 6.5,2.45 6.5,3 L6.5,4.25 C5,4.25 3.75,5.5 3.75,7 C3.75,8.5 5,9.75 6.5,9.75 L6.65,9.75 C7.15,11.85 8.85,13.5 11,13.9 L11,16 L7.5,16 C6.95,16 6.5,16.45 6.5,17 L6.5,21 C6.5,21.55 6.95,22 7.5,22 L16.5,22 C17.05,22 17.5,21.55 17.5,21 L17.5,17 C17.5,16.45 17.05,16 16.5,16 L13,16 L13,13.9 C15.15,13.5 16.85,11.85 17.35,9.75 L17.5,9.75 C19,9.75 20.25,8.5 20.25,7 C20.25,5.5 19,4.25 17.5,4.25 Z M5.25,7 C5.25,6.3 5.8,5.75 6.5,5.75 L6.5,8.25 C5.8,8.25 5.25,7.7 5.25,7 Z M15.5,20 L8.5,20 L8.5,18 L15.5,18 L15.5,20 Z M15.5,8.5 C15.5,10.45 13.95,12 12,12 C10.05,12 8.5,10.45 8.5,8.5 L8.5,4 L15.5,4 L15.5,8.5 Z M17.5,8.25 L17.5,5.75 C18.2,5.75 18.75,6.3 18.75,7 C18.75,7.7 18.2,8.25 17.5,8.25 Z" id="path-1"></path>
    </defs>
    <g id="⭕-Application-/-Acheivement" stroke="none" stroke-width="1" fill="none" fill-rule="evenodd">
        <mask id="mask-2" fill="white">
            <use xlink:href="#path-1"></use>
        </mask>
        <use id="🎨-Icon-Color" fill="#212121" xlink:href="#path-1"></use>
    </g>
</svg>