<?xml version="1.0" encoding="UTF-8"?>
<svg width="24px" height="24px" viewBox="0 0 24 24" version="1.1" xmlns="http://www.w3.org/2000/svg" xmlns:xlink="http://www.w3.org/1999/xlink">
    <title>⭕ Application / Active Timers</title>
    <defs>
        <path d="M18.65,8.25 L19.7,7.2 C20.1,6.8 20.1,6.2 19.7,5.8 C19.3,5.4 18.7,5.4 18.3,5.8 L17.25,6.85 C15.8,5.7 14,5 12,5 C7.3,5 3.5,8.8 3.5,13.5 C3.5,18.2 7.3,22 12,22 C16.7,22 20.5,18.2 20.5,13.5 C20.5,11.5 19.8,9.7 18.65,8.25 Z M12,20 C8.4,20 5.5,17.1 5.5,13.5 C5.5,9.9 8.4,7 12,7 C15.6,7 18.5,9.9 18.5,13.5 C18.5,17.1 15.6,20 12,20 Z M13,10 L13,13.5 C13,14.05 12.55,14.5 12,14.5 C11.45,14.5 11,14.05 11,13.5 L11,10 C11,9.45 11.45,9 12,9 C12.55,9 13,9.45 13,10 Z M9.5,3 C9.5,2.45 9.95,2 10.5,2 L13.5,2 C14.05,2 14.5,2.45 14.5,3 C14.5,3.55 14.05,4 13.5,4 L10.5,4 C9.95,4 9.5,3.55 9.5,3 Z" id="path-1"></path>
    </defs>
    <g id="⭕-Application-/-Active-Timers" stroke="none" stroke-width="1" fill="none" fill-rule="evenodd">
        <mask id="mask-2" fill="white">
            <use xlink:href="#path-1"></use>
        </mask>
        <use id="🎨-Icon-Color" fill="#212121" xlink:href="#path-1"></use>
    </g>
</svg>