<?xml version="1.0" encoding="UTF-8"?>
<svg width="24px" height="24px" viewBox="0 0 24 24" version="1.1" xmlns="http://www.w3.org/2000/svg" xmlns:xlink="http://www.w3.org/1999/xlink">
    <title>⭕ Application / Activities</title>
    <defs>
        <path d="M19,2 L5,2 C4.45,2 4,2.45 4,3 L4,21 C4,21.55 4.45,22 5,22 L19,22 C19.55,22 20,21.55 20,21 L20,3 C20,2.45 19.55,2 19,2 Z M18,20 L6,20 L6,4 L8,4 L8,5 C8,5.55 8.45,6 9,6 L15,6 C15.55,6 16,5.55 16,5 L16,4 L18,4 L18,20 Z M16.5,9.5 C16.5,10.05 16.05,10.5 15.5,10.5 L11.5,10.5 C10.95,10.5 10.5,10.05 10.5,9.5 C10.5,8.95 10.95,8.5 11.5,8.5 L15.5,8.5 C16.05,8.5 16.5,8.95 16.5,9.5 Z M16.5,13 C16.5,13.55 16.05,14 15.5,14 L11.5,14 C10.95,14 10.5,13.55 10.5,13 C10.5,12.45 10.95,12 11.5,12 L15.5,12 C16.05,12 16.5,12.45 16.5,13 Z M16.5,16.5 C16.5,17.05 16.05,17.5 15.5,17.5 L11.5,17.5 C10.95,17.5 10.5,17.05 10.5,16.5 C10.5,15.95 10.95,15.5 11.5,15.5 L15.5,15.5 C16.05,15.5 16.5,15.95 16.5,16.5 Z M9.5,9.5 C9.5,10.05 9.05,10.5 8.5,10.5 C7.95,10.5 7.5,10.05 7.5,9.5 C7.5,8.95 7.95,8.5 8.5,8.5 C9.05,8.5 9.5,8.95 9.5,9.5 Z M9.5,13 C9.5,13.55 9.05,14 8.5,14 C7.95,14 7.5,13.55 7.5,13 C7.5,12.45 7.95,12 8.5,12 C9.05,12 9.5,12.45 9.5,13 Z M9.5,16.5 C9.5,17.05 9.05,17.5 8.5,17.5 C7.95,17.5 7.5,17.05 7.5,16.5 C7.5,15.95 7.95,15.5 8.5,15.5 C9.05,15.5 9.5,15.95 9.5,16.5 Z" id="path-1"></path>
    </defs>
    <g id="⭕-Application-/-Activities" stroke="none" stroke-width="1" fill="none" fill-rule="evenodd">
        <mask id="mask-2" fill="white">
            <use xlink:href="#path-1"></use>
        </mask>
        <use id="🎨-Icon-Color" fill="#212121" xlink:href="#path-1"></use>
    </g>
</svg>