<?xml version="1.0" encoding="UTF-8"?>
<svg width="24px" height="24px" viewBox="0 0 24 24" version="1.1" xmlns="http://www.w3.org/2000/svg" xmlns:xlink="http://www.w3.org/1999/xlink">
    <title>⭕ Application / Agile Board</title>
    <defs>
        <path d="M22,16.5 C22,16.75 21.9,17 21.7,17.2 L19.2,19.7 C19,19.9 18.75,20 18.5,20 C18.25,20 18,19.9 17.8,19.7 C17.4,19.3 17.4,18.7 17.8,18.3 L18.6,17.5 L3,17.55 C2.45,17.55 2,17.1 2,16.55 C2,16 2.45,15.55 3,15.55 L9.8,15.55 C9.85,15.55 9.95,15.5 10,15.5 C11.95,15.5 13.5,13.95 13.5,12 C13.5,10.2 12.15,8.75 10.45,8.55 L11.2,9.3 C11.6,9.7 11.6,10.3 11.2,10.7 C11,10.9 10.75,11 10.5,11 C10.25,11 10,10.9 9.8,10.7 L7.3,8.2 C7.1,8 7,7.75 7,7.5 C7,7.25 7.1,7 7.3,6.8 L9.8,4.3 C10.2,3.9 10.8,3.9 11.2,4.3 C11.6,4.7 11.6,5.3 11.2,5.7 L10.4,6.5 C13.25,6.7 15.5,9.1 15.5,12 C15.5,13.35 15,14.55 14.2,15.5 L18.55,15.5 L17.75,14.7 C17.35,14.3 17.35,13.7 17.75,13.3 C18.15,12.9 18.75,12.9 19.15,13.3 L21.65,15.8 C21.9,16 22,16.25 22,16.5 L22,16.5 Z" id="path-1"></path>
    </defs>
    <g id="⭕-Application-/-Agile-Board" stroke="none" stroke-width="1" fill="none" fill-rule="evenodd">
        <mask id="mask-2" fill="white">
            <use xlink:href="#path-1"></use>
        </mask>
        <use id="🎨-Icon-Color" fill="#212121" xlink:href="#path-1"></use>
    </g>
</svg>