<?xml version="1.0" encoding="UTF-8"?>
<svg width="24px" height="24px" viewBox="0 0 24 24" version="1.1" xmlns="http://www.w3.org/2000/svg" xmlns:xlink="http://www.w3.org/1999/xlink">
    <title>⭕ Application / Alert Suspended</title>
    <defs>
        <path d="M12,2 C13.1,2 14,2.9 14,4 L14,4 L14,4.35 C16.35,5.2 18,7.4 18,10 L18,10 L18,16.6 L19.7,18.3 C19.95,18.6 20.05,19.05 19.9,19.4 C19.75,19.75 19.4,20 19,20 L19,20 L14,20 C14,21.1 13.1,22 12,22 C10.9,22 10,21.1 10,20 L10,20 L5,20 C4.6,20 4.25,19.75 4.1,19.4 C3.9,19 4,18.6 4.3,18.3 L4.3,18.3 L6,16.6 L6,10 C6,7.4 7.65,5.2 10,4.35 L10,4.35 L10,4 C10,2.9 10.9,2 12,2 Z M12,6 C9.8,6 8,7.8 8,10 L8,10 L8,17 C8,17.25 7.9,17.5 7.7,17.7 L7.7,17.7 L7.4,18 L16.6,18 L16.3,17.7 C16.1,17.5 16,17.25 16,17 L16,17 L16,10 C16,7.8 14.2,6 12,6 Z" id="path-1"></path>
    </defs>
    <g id="⭕-Application-/-Alert-Suspended" stroke="none" stroke-width="1" fill="none" fill-rule="evenodd">
        <mask id="mask-2" fill="white">
            <use xlink:href="#path-1"></use>
        </mask>
        <use id="🎨-Icon-Color" fill="#333333" xlink:href="#path-1"></use>
    </g>
</svg>