<?xml version="1.0" encoding="UTF-8"?>
<svg width="24px" height="24px" viewBox="0 0 24 24" version="1.1" xmlns="http://www.w3.org/2000/svg" xmlns:xlink="http://www.w3.org/1999/xlink">
    <title>⭕ Application / Alerts</title>
    <defs>
        <path d="M12.85,4 C12.65,3.7 12.35,3.5 12,3.5 C11.65,3.5 11.3,3.7 11.15,4 L2.15,19 C1.95,19.3 1.95,19.7 2.15,20 C2.35,20.3 2.65,20.5 3,20.5 L21,20.5 C21.35,20.5 21.7,20.3 21.85,20 C22,19.7 22,19.3 21.85,19 L12.85,4 L12.85,4 Z M4.75,18.5 L12,6.45 L19.25,18.5 L4.75,18.5 Z M13,16.5 C13,17.05 12.55,17.5 12,17.5 C11.45,17.5 11,17.05 11,16.5 C11,15.95 11.45,15.5 12,15.5 C12.55,15.5 13,15.95 13,16.5 Z M12,10.5 C12.55,10.5 13,10.95 13,11.5 L13,13.5 C13,14.05 12.55,14.5 12,14.5 C11.45,14.5 11,14.05 11,13.5 L11,11.5 C11,10.95 11.45,10.5 12,10.5 Z" id="path-1"></path>
    </defs>
    <g id="⭕-Application-/-Alerts" stroke="none" stroke-width="1" fill="none" fill-rule="evenodd">
        <mask id="mask-2" fill="white">
            <use xlink:href="#path-1"></use>
        </mask>
        <use id="🎨-Icon-Color" fill="#212121" xlink:href="#path-1"></use>
    </g>
</svg>