<?xml version="1.0" encoding="UTF-8"?>
<svg width="24px" height="24px" viewBox="0 0 24 24" version="1.1" xmlns="http://www.w3.org/2000/svg" xmlns:xlink="http://www.w3.org/1999/xlink">
    <title>⭕ Application / AntiVirus</title>
    <defs>
        <path d="M19,4.5 C16.45,4.5 15,4.2 12.65,2.25 C12.3,1.95 11.75,1.95 11.35,2.25 C9,4.2 7.55,4.5 5,4.5 C4.45,4.5 4,4.95 4,5.5 L4,14 C4,17.45 6.15,18.7 9.45,20.65 C10.1,21 10.75,21.4 11.5,21.85 C11.65,21.95 11.85,22 12.05,22 C12.25,22 12.4,21.95 12.6,21.85 C13.35,21.4 14,21 14.65,20.65 C17.85,18.7 20,17.45 20,14 L20,5.5 C20,4.95 19.55,4.5 19,4.5 Z M18,14 C18,16.2 16.85,16.95 13.55,18.9 C13.05,19.2 12.55,19.5 12,19.8 L12,12 L6,12 L6,6.5 C8.15,6.4 9.85,5.9 12,4.3 L12,12 L18,12 L18,14 Z" id="path-1"></path>
    </defs>
    <g id="⭕-Application-/-AntiVirus" stroke="none" stroke-width="1" fill="none" fill-rule="evenodd">
        <mask id="mask-2" fill="white">
            <use xlink:href="#path-1"></use>
        </mask>
        <use id="🎨-Icon-Color" fill="#212121" xlink:href="#path-1"></use>
    </g>
</svg>