<?xml version="1.0" encoding="UTF-8"?>
<svg width="24px" height="24px" viewBox="0 0 24 24" version="1.1" xmlns="http://www.w3.org/2000/svg" xmlns:xlink="http://www.w3.org/1999/xlink">
    <title>⭕ Application / Approvals</title>
    <defs>
        <path d="M2.05,13.6 C2.15,14.45 2.7,15.2 3.45,15.6 C3.75,15.75 3.9,16.1 3.8,16.4 C3.65,17.25 3.85,18.1 4.4,18.75 C4.95,19.4 5.8,19.75 6.65,19.7 C7,19.7 7.25,19.85 7.4,20.2 C7.7,21 8.35,21.6 9.2,21.85 C9.45,21.9 9.7,21.95 9.95,21.95 C10.55,21.95 11.1,21.75 11.6,21.4 C11.85,21.2 12.2,21.2 12.45,21.4 C13.15,21.9 14.05,22.05 14.85,21.85 C15.65,21.6 16.35,21 16.65,20.2 C16.75,19.9 17.05,19.7 17.4,19.7 C18.25,19.75 19.1,19.4 19.65,18.75 C20.2,18.1 20.45,17.2 20.25,16.4 C20.2,16.05 20.35,15.75 20.6,15.6 C21.35,15.2 21.85,14.45 22,13.6 C22.1,12.75 21.85,11.9 21.25,11.3 C21,11.05 20.95,10.7 21.1,10.4 C21.5,9.65 21.55,8.75 21.2,7.95 C20.85,7.15 20.15,6.6 19.3,6.4 C19,6.35 18.75,6.05 18.7,5.7 C18.65,4.85 18.15,4.05 17.45,3.6 C16.75,3.15 15.85,3.05 15,3.35 C14.7,3.45 14.35,3.35 14.15,3.1 C13.65,2.4 12.85,2 12,2 C11.15,2 10.35,2.4 9.8,3.1 C9.6,3.35 9.25,3.45 8.95,3.35 C8.15,3.05 7.25,3.15 6.55,3.6 C5.85,4.05 5.35,4.85 5.3,5.7 C5.25,6.05 5.05,6.3 4.7,6.4 C3.85,6.6 3.15,7.15 2.8,7.95 C2.5,8.7 2.5,9.6 2.9,10.4 C3.05,10.7 3,11.05 2.75,11.3 C2.2,11.9 1.9,12.75 2.05,13.6 L2.05,13.6 Z M4.2,12.65 C5.05,11.8 5.25,10.5 4.65,9.4 C4.55,9.2 4.55,8.95 4.65,8.7 C4.75,8.5 4.95,8.35 5.15,8.3 C6.35,8.05 7.2,7.05 7.3,5.85 C7.3,5.6 7.45,5.4 7.65,5.25 C7.85,5.15 8.1,5.1 8.3,5.2 C9.45,5.6 10.7,5.25 11.4,4.3 C11.7,3.95 12.3,3.95 12.6,4.3 C13.35,5.25 14.6,5.65 15.7,5.2 C15.9,5.1 16.15,5.15 16.35,5.25 C16.55,5.4 16.65,5.6 16.7,5.85 C16.8,7.05 17.65,8.05 18.85,8.3 C19.05,8.35 19.25,8.5 19.35,8.7 C19.45,8.9 19.45,9.15 19.35,9.4 C18.8,10.45 18.95,11.75 19.8,12.65 C19.95,12.8 20.05,13.05 20,13.3 C19.95,13.55 19.85,13.75 19.6,13.85 C18.55,14.45 18,15.65 18.25,16.8 C18.3,17.05 18.25,17.3 18.1,17.45 C17.95,17.65 17.75,17.7 17.5,17.7 C16.3,17.6 15.2,18.35 14.75,19.45 C14.65,19.65 14.5,19.85 14.25,19.9 C14.05,19.95 13.8,19.9 13.6,19.8 C12.65,19.1 11.3,19.1 10.35,19.8 C10.15,19.95 9.95,20 9.7,19.9 C9.5,19.85 9.3,19.65 9.2,19.45 C8.8,18.35 7.8,17.7 6.65,17.7 L6.45,17.7 C6.2,17.7 6,17.6 5.85,17.45 C5.7,17.25 5.65,17.05 5.7,16.8 C5.95,15.6 5.4,14.4 4.35,13.85 C4.15,13.75 4,13.55 3.95,13.3 C3.95,13.1 4.05,12.85 4.2,12.65 L4.2,12.65 Z M7.35,13.25 C6.95,12.85 6.95,12.25 7.35,11.85 C7.75,11.45 8.35,11.45 8.75,11.85 L10.3,13.4 L14.55,9.15 C14.95,8.75 15.55,8.75 15.95,9.15 C16.35,9.55 16.35,10.15 15.95,10.55 L11,15.5 C10.8,15.7 10.55,15.8 10.3,15.8 C10.05,15.8 9.8,15.7 9.6,15.5 L7.35,13.25 L7.35,13.25 Z" id="path-1"></path>
    </defs>
    <g id="⭕-Application-/-Approvals" stroke="none" stroke-width="1" fill="none" fill-rule="evenodd">
        <mask id="mask-2" fill="white">
            <use xlink:href="#path-1"></use>
        </mask>
        <use id="🎨-Icon-Color" fill="#212121" xlink:href="#path-1"></use>
    </g>
</svg>