<?xml version="1.0" encoding="UTF-8"?>
<svg width="24px" height="24px" viewBox="0 0 24 24" version="1.1" xmlns="http://www.w3.org/2000/svg" xmlns:xlink="http://www.w3.org/1999/xlink">
    <title>⭕ Application / Automation</title>
    <defs>
        <path d="M16.1,15.9 L15,15.05 L15,14.75 L15,14.45 L16.1,13.6 C16.5,13.3 16.65,12.7 16.35,12.25 L15.05,10 C14.8,9.55 14.25,9.35 13.75,9.55 L12.45,10.05 C12.25,9.95 12.05,9.8 11.9,9.75 L11.7,8.45 C11.65,7.95 11.2,7.55 10.65,7.55 L7.95,7.55 C7.4,7.55 6.95,7.95 6.9,8.45 L6.7,9.8 C6.5,9.9 6.3,10 6.15,10.1 L4.85,9.6 C4.35,9.4 3.8,9.6 3.55,10.05 L2.2,12.3 C1.9,12.75 2.05,13.35 2.45,13.65 L3.5,14.45 L3.5,14.75 L3.5,15.05 L2.4,15.9 C2,16.2 1.85,16.8 2.15,17.25 L3.5,19.5 C3.75,19.95 4.3,20.15 4.8,19.95 L6.1,19.45 C6.3,19.55 6.5,19.7 6.65,19.75 L6.85,21.05 C6.9,21.55 7.35,21.95 7.9,21.95 L10.6,21.95 C11.15,21.95 11.6,21.55 11.65,21.05 L11.85,19.7 C12.05,19.6 12.25,19.5 12.4,19.4 L13.7,19.9 C14.2,20.1 14.75,19.9 15,19.45 L16.35,17.2 C16.65,16.8 16.5,16.2 16.1,15.9 L16.1,15.9 Z M13.5,14.2 C13.55,14.4 13.55,14.6 13.55,14.75 C13.55,14.9 13.55,15.05 13.5,15.3 L13.45,15.7 L14.9,16.8 L13.9,18.45 L12.15,17.75 L11.85,18 C11.5,18.25 11.2,18.4 10.9,18.55 L10.5,18.75 L10.25,20.55 L8.25,20.55 L8,18.75 L7.6,18.6 C7.25,18.45 6.95,18.3 6.65,18.05 L6.35,17.8 L4.55,18.5 L3.55,16.85 L5,15.75 L5,15.3 C4.95,15.1 4.95,14.9 4.95,14.75 C4.95,14.6 4.95,14.4 5,14.2 L5.05,13.8 L3.6,12.7 L4.6,11.05 L6.35,11.75 L6.65,11.5 C7,11.25 7.3,11.1 7.6,10.95 L8,10.8 L8.25,9 L10.25,9 L10.5,10.8 L10.9,10.95 C11.25,11.1 11.55,11.25 11.85,11.5 L12.15,11.75 L13.9,11.05 L14.9,12.7 L13.45,13.8 L13.5,14.2 L13.5,14.2 Z M9.25,11.95 C7.7,11.95 6.45,13.2 6.45,14.75 C6.45,16.3 7.7,17.55 9.25,17.55 C10.8,17.55 12.05,16.3 12.05,14.75 C12.05,13.2 10.8,11.95 9.25,11.95 Z M9.25,15.95 C8.6,15.95 8.05,15.4 8.05,14.75 C8.05,14.1 8.6,13.55 9.25,13.55 C9.9,13.55 10.45,14.1 10.45,14.75 C10.45,15.4 9.9,15.95 9.25,15.95 Z M21.05,6.35 C21.05,6.2 21.1,6.1 21.1,5.95 C21.1,5.8 21.1,5.7 21.05,5.55 L21.9,4.9 C22,4.85 22,4.75 21.95,4.65 L21.15,3.25 C21.1,3.15 21,3.15 20.9,3.15 L19.85,3.55 C19.65,3.4 19.4,3.25 19.15,3.15 L19,2.15 C19,2.05 18.9,2 18.8,2 L17.15,2 C17.05,2 16.95,2.05 16.95,2.15 L16.8,3.2 C16.55,3.3 16.3,3.45 16.1,3.6 L15.05,3.2 C14.95,3.15 14.85,3.2 14.8,3.3 L14,4.65 C13.95,4.75 13.95,4.85 14.05,4.9 L14.9,5.55 C14.9,5.7 14.85,5.8 14.85,5.95 C14.85,6.1 14.85,6.2 14.9,6.35 L14.05,7 C13.95,7.05 13.95,7.15 14,7.25 L14.8,8.65 C14.85,8.75 14.95,8.75 15.05,8.75 L16.1,8.35 C16.3,8.5 16.55,8.65 16.8,8.75 L16.95,9.8 C16.95,9.9 17.05,9.95 17.15,9.95 L18.8,9.95 C18.9,9.95 19,9.9 19,9.8 L19.15,8.75 C19.4,8.65 19.65,8.5 19.85,8.35 L20.9,8.75 C21,8.8 21.1,8.75 21.15,8.65 L21.95,7.25 C22,7.15 22,7.05 21.9,7 L21.05,6.35 L21.05,6.35 Z M18,7.4 C17.2,7.4 16.55,6.75 16.55,6 C16.55,5.25 17.2,4.6 18,4.6 C18.8,4.6 19.45,5.25 19.45,6 C19.45,6.75 18.8,7.4 18,7.4 Z" id="path-1"></path>
    </defs>
    <g id="⭕-Application-/-Automation" stroke="none" stroke-width="1" fill="none" fill-rule="evenodd">
        <mask id="mask-2" fill="white">
            <use xlink:href="#path-1"></use>
        </mask>
        <use id="🎨-Icon-Color" fill="#212121" xlink:href="#path-1"></use>
    </g>
</svg>