<?xml version="1.0" encoding="UTF-8"?>
<svg width="24px" height="24px" viewBox="0 0 24 24" version="1.1" xmlns="http://www.w3.org/2000/svg" xmlns:xlink="http://www.w3.org/1999/xlink">
    <title>⭕ Application / Bug </title>
    <defs>
        <path d="M18,14 L19,14 C19.55,14 20,13.55 20,13 C20,12.45 19.55,12 19,12 L18,12 L18,11 C18,10.65 17.95,10.35 17.9,10 L19,10 C19.55,10 20,9.55 20,9 C20,8.45 19.55,8 19,8 L17.2,8 C16.75,7.2 16.15,6.55 15.4,6.05 L16.75,4.7 C17.15,4.3 17.15,3.7 16.75,3.3 C16.35,2.9 15.75,2.9 15.35,3.3 L13.45,5.2 C12.95,5.05 12.5,5 12,5 C11.5,5 11.05,5.05 10.6,5.15 L8.7,3.25 C8.3,2.85 7.7,2.85 7.3,3.25 C6.9,3.65 6.9,4.25 7.3,4.65 L8.65,6 C7.9,6.5 7.3,7.2 6.85,7.95 L5,7.95 C4.45,7.95 4,8.4 4,8.95 C4,9.5 4.45,9.95 5,9.95 L6.1,9.95 C6.05,10.3 6,10.6 6,10.95 L6,11.95 L5,11.95 C4.45,11.95 4,12.4 4,12.95 C4,13.5 4.45,13.95 5,13.95 L6,13.95 L6,14.95 C6,15.3 6.05,15.6 6.1,15.95 L5,15.95 C4.45,15.95 4,16.4 4,16.95 C4,17.5 4.45,17.95 5,17.95 L6.8,17.95 C7.85,19.75 9.75,20.95 12,20.95 C14.2,20.95 16.15,19.75 17.2,17.95 L19,17.95 C19.55,17.95 20,17.5 20,16.95 C20,16.4 19.55,15.95 19,15.95 L17.9,15.95 C17.95,15.6 18,15.3 18,14.95 L18,14 Z M16,15 C16,17.2 14.2,19 12,19 C9.8,19 8,17.2 8,15 L8,11 C8,8.8 9.8,7 12,7 C14.2,7 16,8.8 16,11 L16,15 Z" id="path-1"></path>
    </defs>
    <g id="⭕-Application-/-Bug-" stroke="none" stroke-width="1" fill="none" fill-rule="evenodd">
        <mask id="mask-2" fill="white">
            <use xlink:href="#path-1"></use>
        </mask>
        <use id="🎨-Icon-Color" fill="#212121" xlink:href="#path-1"></use>
    </g>
</svg>