<?xml version="1.0" encoding="UTF-8"?>
<svg width="24px" height="24px" viewBox="0 0 24 24" version="1.1" xmlns="http://www.w3.org/2000/svg" xmlns:xlink="http://www.w3.org/1999/xlink">
    <title>⭕ Application / Business Profile</title>
    <g id="⭕-Application-/-Business-Profile" stroke="none" stroke-width="1" fill="none" fill-rule="evenodd">
        <path d="M21.535625,5.7 L20.9485,5.7 L20.9485,4.86705 C20.9485,4.53225 20.672125,4.25955 20.331125,4.25955 L18.46525,4.25955 C18.12425,4.25955 17.847875,4.53225 17.847875,4.86705 L17.847875,5.7 L16.09475,5.7 L16.09475,3.95715 C16.09475,3.44685 15.67125,3.03105 15.150125,3.03105 L8.85125,3.03105 C8.330125,3.03105 7.906625,3.44685 7.906625,3.95715 L7.906625,5.7 L6.31575,5.7 L6.31575,4.86705 C6.31575,4.53225 6.039375,4.25955 5.698375,4.25955 L3.8325,4.25955 C3.4915,4.25955 3.215125,4.53225 3.215125,4.86705 L3.215125,5.7 L2.464375,5.7 C1.65725,5.7 1,6.3453 1,7.13775 L1,19.1109 C1,19.9047 1.65725,20.55 2.464375,20.55 L21.53425,20.55 C22.34275,20.55 23,19.9047 23,19.11225 L23,7.13775 C23,6.3453 22.34275,5.7 21.535625,5.7 Z M18.853,5.2491 L19.940625,5.2491 L19.940625,5.6109 L18.853,5.6109 L18.853,5.2491 Z M4.221625,5.2491 L5.30925,5.2491 L5.30925,5.6109 L4.221625,5.6109 L4.221625,5.2491 Z M18.9905,7.1256 L18.9905,19.18785 L5.125,19.1244 L5.125,7.06215 L18.9905,7.1256 Z M9.218375,4.31895 L14.783,4.31895 L14.783,5.7 L9.218375,5.7 L9.218375,4.31895 Z M2.375,19.11225 L2.464375,7.05 L3.75,7.0554 L3.75,19.11765 L2.375,19.11225 Z M21.625,19.11225 C21.625,19.15815 21.582375,19.2 21.535625,19.2 L20.1345,19.19325 L20.1345,7.131 L21.625,7.13775 L21.625,19.11225 Z" id="Mask" fill="#333333"></path>
    </g>
</svg>