<?xml version="1.0" encoding="UTF-8"?>
<svg width="24px" height="24px" viewBox="0 0 24 24" version="1.1" xmlns="http://www.w3.org/2000/svg" xmlns:xlink="http://www.w3.org/1999/xlink">
    <title>⭕ Application / Commands</title>
    <defs>
        <path d="M7.8,20.2 C7.8,20.65 7.45,21 7,21 C6.55,21 6.2,20.65 6.2,20.2 C6.2,18.9 5.1,17.8 3.8,17.8 C3.35,17.8 3,17.45 3,17 C3,16.55 3.35,16.2 3.8,16.2 C6,16.2 7.8,18 7.8,20.2 Z M3.8,13 C3.35,13 3,13.35 3,13.8 C3,14.25 3.35,14.6 3.8,14.6 C6.9,14.6 9.4,17.1 9.4,20.2 C9.4,20.65 9.75,21 10.2,21 C10.65,21 11,20.65 11,20.2 C11,16.25 7.75,13 3.8,13 Z M3.8,19.4 C3.35,19.4 3,19.75 3,20.2 C3,20.65 3.35,21 3.8,21 C4.25,21 4.6,20.65 4.6,20.2 C4.6,19.75 4.25,19.4 3.8,19.4 Z M21,11 C21,15.4 17.4,19 13,19 C12.45,19 12,18.55 12,18 L12,13.3 C11.4,13.05 10.95,12.6 10.7,12 L6.2,12 C6.15,12 6.05,12.05 6,12.05 C5.65,12.05 5.35,11.85 5.15,11.6 C5.1,11.55 5.1,11.5 5.05,11.45 C5.05,11.3 5,11.15 5,11 L5,10.95 C5.05,6.55 8.6,3 13,3 C17.4,3 21,6.6 21,11 Z M14,5.1 L14,8.7 C14.55,8.95 15.05,9.4 15.3,10 L18.9,10 C18.5,7.5 16.5,5.5 14,5.1 L14,5.1 Z M7.1,10 L10.7,10 C10.95,9.4 11.4,8.95 12,8.7 L12,5.1 C9.5,5.5 7.5,7.5 7.1,10 Z M18.9,12 L15.3,12 C15.05,12.55 14.6,13.05 14,13.3 L14,16.9 C16.5,16.5 18.5,14.5 18.9,12 L18.9,12 Z" id="path-1"></path>
    </defs>
    <g id="⭕-Application-/-Commands" stroke="none" stroke-width="1" fill="none" fill-rule="evenodd">
        <mask id="mask-2" fill="white">
            <use xlink:href="#path-1"></use>
        </mask>
        <use id="🎨-Icon-Color" fill="#212121" xlink:href="#path-1"></use>
    </g>
</svg>