<?xml version="1.0" encoding="UTF-8"?>
<svg width="24px" height="24px" viewBox="0 0 24 24" version="1.1" xmlns="http://www.w3.org/2000/svg" xmlns:xlink="http://www.w3.org/1999/xlink">
    <title>⭕ Application / Companies</title>
    <defs>
        <path d="M17,17.5 L15,17.5 L15,15.5 L17,15.5 L17,17.5 Z M17,11.5 L15,11.5 L15,13.5 L17,13.5 L17,11.5 Z M21,9 L21,20 C21,20.55 20.55,21 20,21 L4,21 C3.45,21 3,20.55 3,20 L3,4 C3,3.45 3.45,3 4,3 L12,3 C12.55,3 13,3.45 13,4 L13,8 L20,8 C20.55,8 21,8.45 21,9 Z M7,17 L5,17 L5,19 L7,19 L7,17 Z M7,13 L5,13 L5,15 L7,15 L7,13 Z M7,9 L5,9 L5,11 L7,11 L7,9 Z M7,5 L5,5 L5,7 L7,7 L7,5 Z M11,17 L9,17 L9,19 L11,19 L11,17 Z M11,13 L9,13 L9,15 L11,15 L11,13 Z M11,9 L9,9 L9,11 L11,11 L11,9 Z M11,5 L9,5 L9,7 L11,7 L11,5 Z M19,10 L13,10 L13,19 L19,19 L19,10 Z" id="path-1"></path>
    </defs>
    <g id="⭕-Application-/-Companies" stroke="none" stroke-width="1" fill="none" fill-rule="evenodd">
        <mask id="mask-2" fill="white">
            <use xlink:href="#path-1"></use>
        </mask>
        <use id="🎨-Icon-Color" fill="#212121" xlink:href="#path-1"></use>
    </g>
</svg>