<?xml version="1.0" encoding="UTF-8"?>
<svg width="24px" height="24px" viewBox="0 0 24 24" version="1.1" xmlns="http://www.w3.org/2000/svg" xmlns:xlink="http://www.w3.org/1999/xlink">
    <title>⭕ Application / Configuration</title>
    <defs>
        <path d="M20.15,12.8 L18.35,13.9 L16.95,12.5 L19.05,11.3 L18.45,9 L16.2,9.3 L15.9,8.9 C15.75,8.7 15.6,8.5 15.45,8.4 C15.3,8.25 15.15,8.15 14.95,7.95 L14.5,7.6 L14.8,5.35 L12.45,4.75 L11.5,6.85 L11,6.9 C10.5,6.95 10.1,7.1 9.65,7.25 L9.15,7.45 L7.35,6.1 L5.6,7.85 L6.95,9.65 L6.75,10.15 C6.6,10.55 6.45,11 6.4,11.5 L6.3,12 L4.2,12.95 L4.8,15.3 L7.05,15 L7.35,15.4 C7.5,15.6 7.65,15.8 7.8,15.9 C7.95,16 8.1,16.2 8.3,16.35 L8.7,16.65 L8.5,18.95 L10.85,19.55 L12.05,17.45 L13.45,18.85 L12.35,20.6 C12.05,21.2 11.4,21.5 10.8,21.35 L7.65,20.55 C7,20.35 6.6,19.75 6.7,19.1 L6.95,17.4 C6.85,17.3 6.75,17.25 6.65,17.15 C6.55,17.05 6.5,16.95 6.4,16.85 L4.7,17.1 C4.05,17.2 3.4,16.75 3.25,16.15 L2.4,13 C2.25,12.4 2.55,11.75 3.15,11.45 L4.75,10.75 C4.8,10.5 4.9,10.25 4.95,10 L3.95,8.65 C3.55,8.15 3.6,7.4 4.1,6.95 L6.45,4.6 C6.9,4.15 7.65,4.1 8.15,4.5 L9.5,5.5 C9.75,5.4 10,5.35 10.3,5.3 L11,3.65 C11.3,3.05 11.95,2.75 12.55,2.9 L15.7,3.7 C16.35,3.9 16.75,4.5 16.65,5.15 L16.4,6.85 C16.5,6.95 16.6,7 16.7,7.1 C16.8,7.2 16.9,7.3 16.95,7.4 L18.65,7.15 C19.3,7.05 19.9,7.45 20.05,8.1 L20.85,11.3 C21.05,11.85 20.75,12.5 20.15,12.8 L20.15,12.8 Z M15.3,13.65 C15.75,12.4 15.45,11 14.5,10 C13.4,8.9 11.7,8.7 10.35,9.4 L12,11.05 C12.4,11.45 12.4,12.05 12,12.45 C11.6,12.85 11,12.85 10.6,12.45 L8.95,10.8 C8.25,12.15 8.45,13.8 9.55,14.95 C10.55,15.95 11.95,16.2 13.2,15.75 L16.6,19.15 C17.2,19.75 18.15,19.75 18.7,19.15 C19.25,18.55 19.3,17.6 18.7,17.05 L15.3,13.65 Z" id="path-1"></path>
    </defs>
    <g id="⭕-Application-/-Configuration" stroke="none" stroke-width="1" fill="none" fill-rule="evenodd">
        <mask id="mask-2" fill="white">
            <use xlink:href="#path-1"></use>
        </mask>
        <use id="🎨-Icon-Color" fill="#212121" xlink:href="#path-1"></use>
    </g>
</svg>