<?xml version="1.0" encoding="UTF-8"?>
<svg width="24px" height="24px" viewBox="0 0 24 24" version="1.1" xmlns="http://www.w3.org/2000/svg" xmlns:xlink="http://www.w3.org/1999/xlink">
    <title>⭕ Application / Configuration Help</title>
    <defs>
        <path d="M17.5,21.25 C17.5,21.65 17.15,22 16.75,22 C16.35,22 16,21.65 16,21.25 C16,20.85 16.35,20.5 16.75,20.5 C17.15,20.5 17.5,20.85 17.5,21.25 Z M16.7,12 C15.3,12 14.05,12.85 13.55,14.3 C13.45,14.75 13.7,15.2 14.15,15.3 C14.55,15.4 15,15.15 15.15,14.75 C15.4,14.1 16,13.65 16.7,13.65 C17.6,13.65 18.35,14.4 18.35,15.3 C18.35,16.7 16.6,16.75 16,18.4 C15.85,18.85 16.15,19.3 16.55,19.45 C17,19.6 17.45,19.3 17.6,18.9 C18.05,17.55 20,17.15 20,15.35 C20,13.5 18.5,12 16.7,12 L16.7,12 Z M19,5 L15,5 C15,3.35 13.65,2 12,2 C10.35,2 9,3.35 9,5 L5,5 C4.45,5 4,5.45 4,6 L4,11 C4,11.55 4.45,12 5,12 L6,12 C6.5,12 7,12.5 7,13 C7,13.5 6.5,14 6,14 L5,14 C4.45,14 4,14.45 4,15 L4,20 C4,20.55 4.45,21 5,21 L11,21 C11.55,21 12,20.55 12,20 C12,19.45 11.55,19 11,19 L6,19 L6,16 C7.65,16 9,14.65 9,13 C9,11.35 7.65,10 6,10 L6,7 L10,7 C10.55,7 11,6.55 11,6 L11,5 C11,4.5 11.5,4 12,4 C12.5,4 13,4.5 13,5 L13,6 C13,6.55 13.45,7 14,7 L18,7 L18,9 C18,9.55 18.45,10 19,10 C19.55,10 20,9.55 20,9 L20,6 C20,5.45 19.55,5 19,5 Z" id="path-1"></path>
    </defs>
    <g id="⭕-Application-/-Configuration-Help" stroke="none" stroke-width="1" fill="none" fill-rule="evenodd">
        <mask id="mask-2" fill="white">
            <use xlink:href="#path-1"></use>
        </mask>
        <use id="🎨-Icon-Color" fill="#212121" xlink:href="#path-1"></use>
    </g>
</svg>