<?xml version="1.0" encoding="UTF-8"?>
<svg width="24px" height="24px" viewBox="0 0 24 24" version="1.1" xmlns="http://www.w3.org/2000/svg" xmlns:xlink="http://www.w3.org/1999/xlink">
    <title>⭕ Application / Core Services</title>
    <defs>
        <path d="M9,12 C9,13.65 10.35,15 12,15 C13.65,15 15,13.65 15,12 C15,10.35 13.65,9 12,9 C10.35,9 9,10.35 9,12 Z M13,12 C13,12.55 12.55,13 12,13 C11.45,13 11,12.55 11,12 C11,11.45 11.45,11 12,11 C12.55,11 13,11.45 13,12 Z M15.5,4.8 C14.4,4.25 13.25,4 12,4 C7.6,4 4,7.6 4,12 C4,13.25 4.25,14.4 4.8,15.5 C5.05,16 4.85,16.6 4.35,16.85 C4.2,16.9 4.05,16.95 3.9,16.95 C3.55,16.95 3.15,16.75 3,16.4 C2.35,15 2,13.55 2,12 C2,6.5 6.5,2 12,2 C13.55,2 15,2.35 16.4,3 C16.9,3.25 17.1,3.85 16.85,4.35 C16.6,4.85 16,5.05 15.5,4.8 L15.5,4.8 Z M21,7.6 C21.65,8.95 22,10.45 22,12 C22,17.5 17.5,22 12,22 C10.45,22 9,21.65 7.6,21 C7.1,20.75 6.9,20.15 7.15,19.65 C7.4,19.15 8,18.95 8.5,19.2 C9.6,19.75 10.75,20 12,20 C16.4,20 20,16.4 20,12 C20,10.75 19.75,9.6 19.2,8.5 C18.95,8 19.15,7.4 19.65,7.15 C20.15,6.9 20.75,7.15 21,7.6 L21,7.6 Z" id="path-1"></path>
    </defs>
    <g id="⭕-Application-/-Core-Services" stroke="none" stroke-width="1" fill="none" fill-rule="evenodd">
        <mask id="mask-2" fill="white">
            <use xlink:href="#path-1"></use>
        </mask>
        <use id="🎨-Icon-Color" fill="#212121" xlink:href="#path-1"></use>
    </g>
</svg>