<?xml version="1.0" encoding="UTF-8"?>
<svg width="24px" height="24px" viewBox="0 0 24 24" version="1.1" xmlns="http://www.w3.org/2000/svg" xmlns:xlink="http://www.w3.org/1999/xlink">
    <title>⭕ Application / Dashboard</title>
    <defs>
        <path d="M14,15 C14,16.1 13.1,17 12,17 C10.9,17 10,16.1 10,15 C10,14.25 10.4,13.6 11.05,13.25 L11.5,10.4 C11.55,10.15 11.75,10 12,10 C12.25,10 12.45,10.2 12.5,10.4 L13,13.25 C13.6,13.6 14,14.25 14,15 Z M22,13.5 C22,15.95 21.1,18.35 19.45,20.15 C19.25,20.4 19,20.5 18.7,20.5 L5.3,20.5 C5,20.5 4.75,20.4 4.55,20.15 C2.9,18.35 2,15.95 2,13.5 C2,8 6.5,3.5 12,3.5 C17.5,3.5 22,8 22,13.5 Z M20,13.5 C20,9.1 16.4,5.5 12,5.5 C7.6,5.5 4,9.1 4,13.5 C4,15.3 4.6,17.1 5.75,18.5 L18.25,18.5 C19.4,17.1 20,15.35 20,13.5 Z" id="path-1"></path>
    </defs>
    <g id="⭕-Application-/-Dashboard" stroke="none" stroke-width="1" fill="none" fill-rule="evenodd">
        <mask id="mask-2" fill="white">
            <use xlink:href="#path-1"></use>
        </mask>
        <use id="🎨-Icon-Color" fill="#212121" xlink:href="#path-1"></use>
    </g>
</svg>