<?xml version="1.0" encoding="UTF-8"?>
<svg width="24px" height="24px" viewBox="0 0 24 24" version="1.1" xmlns="http://www.w3.org/2000/svg" xmlns:xlink="http://www.w3.org/1999/xlink">
    <title>⭕ Application / Database</title>
    <defs>
        <path d="M12,2.5 C11.2,2.5 4,2.6 4,5.5 L4,19 C4,21.9 11.2,22 12,22 C12.8,22 20,21.9 20,19 L20,5.5 C20,2.6 12.8,2.5 12,2.5 Z M18,14.35 C17.6,14.75 15.5,15.5 12,15.5 C8.5,15.5 6.4,14.8 6,14.35 L6,12.1 C8.2,12.95 11.45,13 12,13 C12.55,13 15.8,12.95 18,12.1 L18,14.35 Z M18,9.85 C17.6,10.25 15.5,11 12,11 C8.5,11 6.4,10.3 6,9.85 L6,7.6 C8.2,8.45 11.45,8.5 12,8.5 C12.55,8.5 15.8,8.45 18,7.6 L18,9.85 Z M17.85,5.5 C17.2,5.9 15.15,6.5 12,6.5 C8.85,6.5 6.85,5.9 6.15,5.5 C6.8,5.1 8.85,4.5 12,4.5 C15.15,4.5 17.15,5.1 17.85,5.5 Z M6,18.85 L6,16.6 C8.2,17.45 11.45,17.5 12,17.5 C12.55,17.5 15.8,17.45 18,16.6 L18,18.85 C17.6,19.25 15.5,20 12,20 C8.5,20 6.4,19.3 6,18.85 Z" id="path-1"></path>
    </defs>
    <g id="⭕-Application-/-Database" stroke="none" stroke-width="1" fill="none" fill-rule="evenodd">
        <mask id="mask-2" fill="white">
            <use xlink:href="#path-1"></use>
        </mask>
        <use id="🎨-Icon-Color" fill="#212121" xlink:href="#path-1"></use>
    </g>
</svg>