<?xml version="1.0" encoding="UTF-8"?>
<svg width="24px" height="24px" viewBox="0 0 24 24" version="1.1" xmlns="http://www.w3.org/2000/svg" xmlns:xlink="http://www.w3.org/1999/xlink">
    <title>⭕ Application / Default Board</title>
    <defs>
        <path d="M7.5,8.5 C7.5,9.05 7.05,9.5 6.5,9.5 C5.95,9.5 5.5,9.05 5.5,8.5 C5.5,7.95 5.95,7.5 6.5,7.5 C7.05,7.5 7.5,7.95 7.5,8.5 Z M18.5,8.5 C18.5,7.95 18.05,7.5 17.5,7.5 L10,7.5 C9.45,7.5 9,7.95 9,8.5 C9,9.05 9.45,9.5 10,9.5 L17.5,9.5 C18.05,9.5 18.5,9.05 18.5,8.5 Z M6.5,11 C5.95,11 5.5,11.45 5.5,12 C5.5,12.55 5.95,13 6.5,13 C7.05,13 7.5,12.55 7.5,12 C7.5,11.45 7.05,11 6.5,11 Z M18.5,12 C18.5,11.45 18.05,11 17.5,11 L10,11 C9.45,11 9,11.45 9,12 C9,12.55 9.45,13 10,13 L17.5,13 C18.05,13 18.5,12.55 18.5,12 Z M6.5,14.5 C5.95,14.5 5.5,14.95 5.5,15.5 C5.5,16.05 5.95,16.5 6.5,16.5 C7.05,16.5 7.5,16.05 7.5,15.5 C7.5,14.95 7.05,14.5 6.5,14.5 Z M18.5,15.5 C18.5,14.95 18.05,14.5 17.5,14.5 L10,14.5 C9.45,14.5 9,14.95 9,15.5 C9,16.05 9.45,16.5 10,16.5 L17.5,16.5 C18.05,16.5 18.5,16.05 18.5,15.5 Z M22,19 L22,5 C22,4.45 21.55,4 21,4 L3,4 C2.45,4 2,4.45 2,5 L2,19 C2,19.55 2.45,20 3,20 L21,20 C21.55,20 22,19.55 22,19 Z M4,6 L20,6 L20,18 L4,18 L4,6 Z" id="path-1"></path>
    </defs>
    <g id="⭕-Application-/-Default-Board" stroke="none" stroke-width="1" fill="none" fill-rule="evenodd">
        <mask id="mask-2" fill="white">
            <use xlink:href="#path-1"></use>
        </mask>
        <use id="🎨-Icon-Color" fill="#212121" xlink:href="#path-1"></use>
    </g>
</svg>