<?xml version="1.0" encoding="UTF-8"?>
<svg width="24px" height="24px" viewBox="0 0 24 24" version="1.1" xmlns="http://www.w3.org/2000/svg" xmlns:xlink="http://www.w3.org/1999/xlink">
    <title>⭕ Application / Detected Roles</title>
    <defs>
        <path d="M19.15,18.05 C19.55,17.45 19.75,16.75 19.75,16 C19.75,13.95 18.05,12.25 16,12.25 C13.95,12.25 12.25,13.95 12.25,16 C12.25,18.05 13.95,19.75 16,19.75 C16.75,19.75 17.45,19.5 18.05,19.15 L20.45,21.55 C20.6,21.7 20.8,21.75 21,21.75 C21.2,21.75 21.4,21.7 21.55,21.55 C21.85,21.25 21.85,20.8 21.55,20.5 L19.15,18.05 L19.15,18.05 Z M13.75,16 C13.75,14.75 14.75,13.75 16,13.75 C17.25,13.75 18.25,14.75 18.25,16 C18.25,17.25 17.25,18.25 16,18.25 C14.75,18.25 13.75,17.25 13.75,16 Z M12,21 C12,21.55 11.55,22 11,22 L5,22 C4.75,22 4.5,21.9 4.3,21.7 C4.1,21.5 4,21.25 4,21 L4,3 C4,2.45 4.45,2 5,2 L15.5,2 L15.7,2 C15.9,2.05 16.05,2.15 16.2,2.25 L19.7,5.75 C19.9,6 20,6.25 20,6.5 L20,9.5 C20,10.05 19.55,10.5 19,10.5 C18.45,10.5 18,10.05 18,9.5 L18,8 L15,8 C14.45,8 14,7.55 14,7 L14,4 L6,4 L6,20 L11,20 C11.55,20 12,20.45 12,21 Z" id="path-1"></path>
    </defs>
    <g id="⭕-Application-/-Detected-Roles" stroke="none" stroke-width="1" fill="none" fill-rule="evenodd">
        <mask id="mask-2" fill="white">
            <use xlink:href="#path-1"></use>
        </mask>
        <use id="🎨-Icon-Color" fill="#212121" xlink:href="#path-1"></use>
    </g>
</svg>