<?xml version="1.0" encoding="UTF-8"?>
<svg width="24px" height="24px" viewBox="0 0 24 24" version="1.1" xmlns="http://www.w3.org/2000/svg" xmlns:xlink="http://www.w3.org/1999/xlink">
    <title>⭕ Application / Dispatch Portal</title>
    <defs>
        <path d="M15,10.5 C15,12.15 13.65,13.5 12,13.5 C10.35,13.5 9,12.15 9,10.5 C9,8.85 10.35,7.5 12,7.5 C13.65,7.5 15,8.85 15,10.5 Z M17.25,17.5 C15.8,15.9 13.95,15 12,15 C10.05,15 8.2,15.9 6.75,17.45 C6.6,17.65 6.5,17.85 6.5,18.1 L6.5,20 C6.5,20.55 6.95,21 7.5,21 L16.5,21 C17.05,21 17.5,20.55 17.5,20 L17.5,18.15 C17.5,17.9 17.4,17.65 17.25,17.5 Z M19.8,16 C20.6,14.65 21,13.1 21,11.5 C21,6.55 16.95,2.5 12,2.5 C7.05,2.5 3,6.55 3,11.5 C3,13.1 3.4,14.65 4.2,16 C4.5,16.5 5.1,16.65 5.55,16.35 C6.05,16.05 6.2,15.45 5.9,15 C5.3,13.95 4.95,12.75 4.95,11.5 C4.95,7.65 8.1,4.5 11.95,4.5 C15.8,4.5 18.95,7.65 18.95,11.5 C18.95,12.75 18.65,13.95 18,15 C17.7,15.5 17.9,16.1 18.35,16.35 C18.5,16.45 18.7,16.5 18.85,16.5 C19.25,16.5 19.6,16.3 19.8,16 Z" id="path-1"></path>
    </defs>
    <g id="⭕-Application-/-Dispatch-Portal" stroke="none" stroke-width="1" fill="none" fill-rule="evenodd">
        <mask id="mask-2" fill="white">
            <use xlink:href="#path-1"></use>
        </mask>
        <use id="🎨-Icon-Color" fill="#212121" xlink:href="#path-1"></use>
    </g>
</svg>