<?xml version="1.0" encoding="UTF-8"?>
<svg width="24px" height="24px" viewBox="0 0 24 24" version="1.1" xmlns="http://www.w3.org/2000/svg" xmlns:xlink="http://www.w3.org/1999/xlink">
    <title>⭕ Application / EDF</title>
    <defs>
        <path d="M16,11.5 L12.5,11.5 L12.5,13 L16,13 L16,14.5 L12.5,14.5 L12.5,16 L16,16 L16,17.5 L11,17.5 L11,10 L16,10 L16,11.5 Z M17.7,2.3 C17.55,2.15 17.4,2.05 17.2,2.05 L17,2.05 L6.5,2.05 C5.95,2 5.5,2.45 5.5,3 L5.5,21 C5.5,21.25 5.6,21.5 5.8,21.7 C6,21.9 6.25,22 6.5,22 L20.5,22 C21.05,22 21.5,21.55 21.5,21 L21.5,6.5 C21.5,6.25 21.4,6 21.2,5.8 L17.7,2.3 L17.7,2.3 Z M7.5,20 L7.5,4 L15.5,4 L15.5,7 C15.5,7.55 15.95,8 16.5,8 L19.5,8 L19.5,20 L7.5,20 Z" id="path-1"></path>
    </defs>
    <g id="⭕-Application-/-EDF" stroke="none" stroke-width="1" fill="none" fill-rule="evenodd">
        <mask id="mask-2" fill="white">
            <use xlink:href="#path-1"></use>
        </mask>
        <use id="🎨-Icon-Color" fill="#212121" xlink:href="#path-1"></use>
    </g>
</svg>