<?xml version="1.0" encoding="UTF-8"?>
<svg width="24px" height="24px" viewBox="0 0 24 24" version="1.1" xmlns="http://www.w3.org/2000/svg" xmlns:xlink="http://www.w3.org/1999/xlink">
    <title>⭕ Application / Events</title>
    <defs>
        <path d="M20,4.5 L19,4.5 L19,3.5 C19,2.95 18.55,2.5 18,2.5 C17.45,2.5 17,2.95 17,3.5 L17,4.5 L7,4.5 L7,3.5 C7,2.95 6.55,2.5 6,2.5 C5.45,2.5 5,2.95 5,3.5 L5,4.5 L4,4.5 C3.45,4.5 3,4.95 3,5.5 L3,8.5 L3,20.5 C3,21.05 3.45,21.5 4,21.5 L20,21.5 C20.55,21.5 21,21.05 21,20.5 L21,8.5 L21,5.5 C21,4.95 20.55,4.5 20,4.5 Z M5,19.5 L5,9.5 L19,9.5 L19,19.5 L5,19.5 Z M15.5,13.6 C15.55,13.75 15.5,13.9 15.35,14 L13.65,15.2 L14.5,17.5 C14.55,17.65 14.5,17.85 14.4,17.9 C14.35,17.95 14.25,18 14.2,18 C14.1,18 14.05,18 14,17.95 L12,16.5 L10.05,17.9 C9.9,18 9.75,18 9.6,17.9 C9.5,17.8 9.45,17.65 9.5,17.5 L10.4,15.2 L8.65,14 C8.5,13.9 8.45,13.75 8.5,13.6 C8.55,13.45 8.7,13.35 8.85,13.35 L10.95,13.35 L11.65,11.25 C11.7,11.1 11.85,11 12,11 C12.15,11 12.3,11.1 12.35,11.25 L13.05,13.35 L15.15,13.35 C15.3,13.35 15.45,13.45 15.5,13.6 Z" id="path-1"></path>
    </defs>
    <g id="⭕-Application-/-Events" stroke="none" stroke-width="1" fill="none" fill-rule="evenodd">
        <mask id="mask-2" fill="white">
            <use xlink:href="#path-1"></use>
        </mask>
        <use id="🎨-Icon-Color" fill="#212121" xlink:href="#path-1"></use>
    </g>
</svg>