<?xml version="1.0" encoding="UTF-8"?>
<svg width="24px" height="24px" viewBox="0 0 24 24" version="1.1" xmlns="http://www.w3.org/2000/svg" xmlns:xlink="http://www.w3.org/1999/xlink">
    <title>⭕ Application / Favorites</title>
    <defs>
        <path d="M17.85,21.5 C17.65,21.5 17.45,21.45 17.25,21.3 L12,17.5 L6.75,21.3 C6.4,21.55 5.9,21.55 5.55,21.3 C5.2,21.05 5.05,20.55 5.25,20.15 L7.65,13.95 L3,10.7 C2.65,10.45 2.5,10 2.6,9.6 C2.75,9.2 3.1,8.9 3.55,8.9 L9.2,8.9 L11.1,3.2 C11.2,2.8 11.55,2.5 12,2.5 C12.45,2.5 12.8,2.8 12.95,3.2 L14.85,8.9 L20.5,8.9 C20.95,8.9 21.3,9.2 21.45,9.6 C21.6,10 21.45,10.45 21.05,10.7 L16.4,13.95 L18.8,20.15 C18.95,20.55 18.85,21.05 18.5,21.3 C18.25,21.45 18.05,21.5 17.85,21.5 L17.85,21.5 Z M12,15.25 C12.2,15.25 12.4,15.3 12.6,15.45 L15.7,17.7 L14.25,13.95 C14.1,13.5 14.25,13.05 14.6,12.75 L17.3,10.85 L14.1,10.85 C13.65,10.85 13.3,10.55 13.15,10.15 L12,6.65 L10.8,10.2 C10.65,10.6 10.3,10.9 9.85,10.9 L6.65,10.9 L9.35,12.8 C9.75,13.05 9.85,13.55 9.7,14 L8.25,17.75 L11.35,15.5 C11.6,15.3 11.8,15.25 12,15.25 L12,15.25 Z" id="path-1"></path>
    </defs>
    <g id="⭕-Application-/-Favorites" stroke="none" stroke-width="1" fill="none" fill-rule="evenodd">
        <mask id="mask-2" fill="white">
            <use xlink:href="#path-1"></use>
        </mask>
        <use id="🎨-Icon-Color" fill="#212121" xlink:href="#path-1"></use>
    </g>
</svg>