<?xml version="1.0" encoding="UTF-8"?>
<svg width="24px" height="24px" viewBox="0 0 24 24" version="1.1" xmlns="http://www.w3.org/2000/svg" xmlns:xlink="http://www.w3.org/1999/xlink">
    <title>⭕ Application / Groups</title>
    <defs>
        <path d="M21,6 L13.9,6 L12.2,4.3 C12,4.1 11.75,4 11.5,4 L7.5,4 C6.95,4 6.5,4.45 6.5,5 L6.5,8 L3,8 C2.45,8 2,8.45 2,9 L2,19 C2,19.55 2.45,20 3,20 L16.5,20 C17.05,20 17.5,19.55 17.5,19 L17.5,16 L21,16 C21.55,16 22,15.55 22,15 L22,7 C22,6.45 21.55,6 21,6 Z M15.5,18 L4,18 L4,10 L6.6,10 L8.3,11.7 C8.5,11.9 8.75,12 9,12 L15.5,12 L15.5,18 L15.5,18 Z M20,14 L17.5,14 L17.5,11 C17.5,10.45 17.05,10 16.5,10 L9.4,10 L8.5,9.1 L8.5,6 L11.1,6 L12.8,7.7 C13,7.9 13.25,8 13.5,8 L20,8 L20,14 Z" id="path-1"></path>
    </defs>
    <g id="⭕-Application-/-Groups" stroke="none" stroke-width="1" fill="none" fill-rule="evenodd">
        <mask id="mask-2" fill="white">
            <use xlink:href="#path-1"></use>
        </mask>
        <use id="🎨-Icon-Color" fill="#212121" xlink:href="#path-1"></use>
    </g>
</svg>