<?xml version="1.0" encoding="UTF-8"?>
<svg width="24px" height="24px" viewBox="0 0 24 24" version="1.1" xmlns="http://www.w3.org/2000/svg" xmlns:xlink="http://www.w3.org/1999/xlink">
    <title>⭕ Application / Hardware</title>
    <defs>
        <path d="M4,21 L20,21 C20.55,21 21,20.55 21,20 L21,4 C21,3.45 20.55,3 20,3 L4,3 C3.45,3 3,3.45 3,4 L3,20 C3,20.55 3.45,21 4,21 Z M5,5 L19,5 L19,19 L5,19 L5,5 Z M7.25,12 L11.25,12 C11.65,12 12,11.65 12,11.25 L12,7.25 C12,6.85 11.65,6.5 11.25,6.5 L7.25,6.5 C6.85,6.5 6.5,6.85 6.5,7.25 L6.5,11.25 C6.5,11.65 6.85,12 7.25,12 Z M8,8 L10.5,8 L10.5,10.5 L8,10.5 L8,8 Z M13.5,11.25 L13.5,7.25 C13.5,6.85 13.85,6.5 14.25,6.5 C14.65,6.5 15,6.85 15,7.25 L15,11.25 C15,11.65 14.65,12 14.25,12 C13.85,12 13.5,11.65 13.5,11.25 Z M12,16.75 C12,17.15 11.65,17.5 11.25,17.5 L7.25,17.5 C6.85,17.5 6.5,17.15 6.5,16.75 C6.5,16.35 6.85,16 7.25,16 L11.25,16 C11.65,16 12,16.35 12,16.75 Z M17.5,14.25 C17.5,14.65 17.15,15 16.75,15 L7.25,15 C6.85,15 6.5,14.65 6.5,14.25 C6.5,13.85 6.85,13.5 7.25,13.5 L16.75,13.5 C17.15,13.5 17.5,13.85 17.5,14.25 Z M17.5,7.25 L17.5,11.25 C17.5,11.65 17.15,12 16.75,12 C16.35,12 16,11.65 16,11.25 L16,7.25 C16,6.85 16.35,6.5 16.75,6.5 C17.15,6.5 17.5,6.85 17.5,7.25 Z" id="path-1"></path>
    </defs>
    <g id="⭕-Application-/-Hardware" stroke="none" stroke-width="1" fill="none" fill-rule="evenodd">
        <mask id="mask-2" fill="white">
            <use xlink:href="#path-1"></use>
        </mask>
        <use id="🎨-Icon-Color" fill="#212121" xlink:href="#path-1"></use>
    </g>
</svg>