<?xml version="1.0" encoding="UTF-8"?>
<svg width="24px" height="24px" viewBox="0 0 24 24" version="1.1" xmlns="http://www.w3.org/2000/svg" xmlns:xlink="http://www.w3.org/1999/xlink">
    <title>⭕ Application / Harddrive</title>
    <defs>
        <path d="M13,14 C13,14.55 12.55,15 12,15 C11.45,15 11,14.55 11,14 C11,13.45 11.45,13 12,13 C12.55,13 13,13.45 13,14 Z M12,9.25 C14.6,9.25 16.75,11.4 16.75,14 C16.75,15.05 16.4,16 15.85,16.8 L17.05,18 C17.35,18.3 17.35,18.75 17.05,19.05 C16.9,19.2 16.7,19.25 16.5,19.25 C16.3,19.25 16.1,19.2 15.95,19.05 L14.75,17.85 C13.95,18.4 13,18.75 11.95,18.75 C9.35,18.75 7.2,16.6 7.2,14 C7.2,11.4 9.4,9.25 12,9.25 Z M12,10.75 C10.2,10.75 8.75,12.2 8.75,14 C8.75,15.8 10.2,17.25 12,17.25 C12.6,17.25 13.2,17.05 13.7,16.75 L13.45,16.5 C13.15,16.2 13.15,15.75 13.45,15.45 C13.75,15.15 14.2,15.15 14.5,15.45 L14.75,15.7 C15.05,15.2 15.25,14.6 15.25,14 C15.25,12.2 13.8,10.75 12,10.75 Z M7.05,9.5 C7.05,9.55 7.1,9.55 7.1,9.6 C7.1,9.6 7.1,9.65 7.15,9.65 C7.2,9.7 7.25,9.75 7.3,9.75 C7.35,9.8 7.45,9.8 7.5,9.8 C7.55,9.8 7.65,9.8 7.7,9.75 C7.75,9.75 7.75,9.7 7.8,9.7 C7.8,9.7 7.85,9.7 7.85,9.65 C8.95,8.55 10.45,8 12,8 C12.3,8 12.5,7.8 12.5,7.5 L12.5,5.5 C12.5,5.2 12.3,5 12,5 L7.5,5 C7.2,5 7,5.2 7,5.5 L7,9.3 L7,9.35 C7,9.4 7,9.45 7.05,9.5 L7.05,9.5 Z M20,3 L20,21 C20,21.55 19.55,22 19,22 L5,22 C4.45,22 4,21.55 4,21 L4,3 C4,2.45 4.45,2 5,2 L19,2 C19.55,2 20,2.45 20,3 Z M18,4 L6,4 L6,20 L18,20 L18,4 Z" id="path-1"></path>
    </defs>
    <g id="⭕-Application-/-Harddrive" stroke="none" stroke-width="1" fill="none" fill-rule="evenodd">
        <mask id="mask-2" fill="white">
            <use xlink:href="#path-1"></use>
        </mask>
        <use id="🎨-Icon-Color" fill="#212121" xlink:href="#path-1"></use>
    </g>
</svg>