<?xml version="1.0" encoding="UTF-8"?>
<svg width="24px" height="24px" viewBox="0 0 24 24" version="1.1" xmlns="http://www.w3.org/2000/svg" xmlns:xlink="http://www.w3.org/1999/xlink">
    <title>⭕ Application / Information</title>
    <defs>
        <path d="M13,8 C13,8.55 12.55,9 12,9 C11.45,9 11,8.55 11,8 C11,7.45 11.45,7 12,7 C12.55,7 13,7.45 13,8 Z M22,12 C22,17.5 17.5,22 12,22 C6.5,22 2,17.5 2,12 C2,6.5 6.5,2 12,2 C17.5,2 22,6.5 22,12 Z M20,12 C20,7.6 16.4,4 12,4 C7.6,4 4,7.6 4,12 C4,16.4 7.6,20 12,20 C16.4,20 20,16.4 20,12 Z M12,10 C11.45,10 11,10.45 11,11 L11,16 C11,16.55 11.45,17 12,17 C12.55,17 13,16.55 13,16 L13,11 C13,10.45 12.55,10 12,10 Z" id="path-1"></path>
    </defs>
    <g id="⭕-Application-/-Information" stroke="none" stroke-width="1" fill="none" fill-rule="evenodd">
        <mask id="mask-2" fill="white">
            <use xlink:href="#path-1"></use>
        </mask>
        <use id="🎨-Icon-Color" fill="#212121" xlink:href="#path-1"></use>
    </g>
</svg>