<?xml version="1.0" encoding="UTF-8"?>
<svg width="24px" height="24px" viewBox="0 0 24 24" version="1.1" xmlns="http://www.w3.org/2000/svg" xmlns:xlink="http://www.w3.org/1999/xlink">
    <title>⭕ Application / Inventory</title>
    <g id="⭕-Application-/-Inventory" stroke="none" stroke-width="1" fill="none" fill-rule="evenodd">
        <path d="M18.9999,1.9998 C19.5499,1.9998 19.9999,2.4498 19.9999,2.9998 L19.9999,2.9998 L19.9999,20.9998 C19.9999,21.5498 19.5499,21.9998 18.9999,21.9998 L18.9999,21.9998 L4.9999,21.9998 C4.4499,21.9998 3.9999,21.5498 3.9999,20.9998 L3.9999,20.9998 L3.9999,2.9998 C3.9999,2.4498 4.4499,1.9998 4.9999,1.9998 L4.9999,1.9998 Z M7.9999,3.9998 L5.9999,3.9998 L5.9999,19.9998 L17.9999,19.9998 L17.9999,3.9998 L15.9999,3.9998 L15.9999,4.9998 C15.9999,5.5498 15.5499,5.9998 14.9999,5.9998 L14.9999,5.9998 L8.9999,5.9998 C8.4499,5.9998 7.9999,5.5498 7.9999,4.9998 L7.9999,4.9998 L7.9999,3.9998 Z M15.0004,14.8685 C15.5504,14.8685 16.0004,15.3185 16.0004,15.8685 C16.0004,16.4195 15.5504,16.8685 15.0004,16.8685 L15.0004,16.8685 L9.0004,16.8685 C8.4504,16.8685 8.0004,16.4195 8.0004,15.8685 C8.0004,15.3185 8.4504,14.8685 9.0004,14.8685 L9.0004,14.8685 Z M15.0004,11.6097 C15.5504,11.6097 16.0004,12.0597 16.0004,12.6097 C16.0004,13.1597 15.5504,13.6097 15.0004,13.6097 L15.0004,13.6097 L9.0004,13.6097 C8.4504,13.6097 8.0004,13.1597 8.0004,12.6097 C8.0004,12.0597 8.4504,11.6097 9.0004,11.6097 L9.0004,11.6097 Z M15.0004,7.9998 C15.5504,7.9998 16.0004,8.4498 16.0004,8.9998 C16.0004,9.5498 15.5504,9.9998 15.0004,9.9998 L15.0004,9.9998 L9.0004,9.9998 C8.4504,9.9998 8.0004,9.5498 8.0004,8.9998 C8.0004,8.4498 8.4504,7.9998 9.0004,7.9998 L9.0004,7.9998 Z" id="Color" fill="#212121"></path>
    </g>
</svg>