<?xml version="1.0" encoding="UTF-8"?>
<svg width="24px" height="24px" viewBox="0 0 24 24" version="1.1" xmlns="http://www.w3.org/2000/svg" xmlns:xlink="http://www.w3.org/1999/xlink">
    <title>⭕ Application / Knowledge Base</title>
    <defs>
        <path d="M15,19.5 C15,20.05 14.55,20.5 14,20.5 L10,20.5 C9.45,20.5 9,20.05 9,19.5 C9,18.95 9.45,18.5 10,18.5 L14,18.5 C14.55,18.5 15,18.95 15,19.5 Z M16.35,13.15 L16.3,13.2 C15.45,14 15,15.1 15,16.25 L15,16.5 C15,17.05 14.55,17.5 14,17.5 L10,17.5 C9.45,17.5 9,17.05 9,16.5 L9,16.25 C9,15.1 8.55,14 7.75,13.2 L7.7,13.15 C5.4,10.8 5.45,7 7.8,4.7 C8.95,3.6 10.45,2.95 12.05,3 C13.65,3 15.15,3.65 16.25,4.8 C18.55,7.1 18.55,10.8 16.35,13.15 Z M14.8,11.85 C14.85,11.85 14.85,11.8 14.8,11.85 C16.35,10.25 16.35,7.75 14.85,6.2 C14.1,5.45 13.1,5 12.05,5 C11,5 9.95,5.4 9.2,6.15 C7.65,7.7 7.6,10.25 9.15,11.8 L9.2,11.85 C10.2,12.85 10.8,14.15 10.95,15.5 L13.05,15.5 C13.2,14.15 13.85,12.85 14.8,11.85 L14.8,11.85 Z" id="path-1"></path>
    </defs>
    <g id="⭕-Application-/-Knowledge-Base" stroke="none" stroke-width="1" fill="none" fill-rule="evenodd">
        <mask id="mask-2" fill="white">
            <use xlink:href="#path-1"></use>
        </mask>
        <use id="🎨-Icon-Color" fill="#212121" xlink:href="#path-1"></use>
    </g>
</svg>