<?xml version="1.0" encoding="UTF-8"?>
<svg width="24px" height="24px" viewBox="0 0 24 24" version="1.1" xmlns="http://www.w3.org/2000/svg" xmlns:xlink="http://www.w3.org/1999/xlink">
    <title>⭕ Application / Legacy</title>
    <defs>
        <path d="M20,19 L4,19 C3.45,19 3,18.55 3,18 L3,7 C3,6.6 3.25,6.25 3.6,6.1 C3.95,5.95 4.4,6.05 4.7,6.3 L7.5,9.1 L11.3,5.3 C11.7,4.9 12.3,4.9 12.7,5.3 L16.5,9.1 L19.3,6.3 C19.6,6 20,5.95 20.4,6.1 C20.75,6.25 21,6.6 21,7 L21,18 C21,18.55 20.55,19 20,19 L20,19 Z M5,17 L19,17 L19,9.4 L17.2,11.2 C16.8,11.6 16.2,11.6 15.8,11.2 L12,7.4 L8.2,11.2 C7.8,11.6 7.2,11.6 6.8,11.2 L5,9.4 L5,17 Z" id="path-1"></path>
    </defs>
    <g id="⭕-Application-/-Legacy" stroke="none" stroke-width="1" fill="none" fill-rule="evenodd">
        <mask id="mask-2" fill="white">
            <use xlink:href="#path-1"></use>
        </mask>
        <use id="🎨-Icon-Color" fill="#212121" xlink:href="#path-1"></use>
    </g>
</svg>