<?xml version="1.0" encoding="UTF-8"?>
<svg width="24px" height="24px" viewBox="0 0 24 24" version="1.1" xmlns="http://www.w3.org/2000/svg" xmlns:xlink="http://www.w3.org/1999/xlink">
    <title>⭕ Application / Logs</title>
    <defs>
        <path d="M22,6.3 L22,6.25 C22,6.2 22,6.2 21.95,6.15 C21.95,6.1 21.95,6.1 21.9,6.1 C21.9,6.05 21.85,6.05 21.85,6 L21.8,5.95 C21.8,5.9 21.75,5.9 21.75,5.85 L21.7,5.8 L21.65,5.75 C21.65,5.75 21.6,5.75 21.6,5.7 C20.1,4.6 18.35,4 16.5,4 C14.9,4 13.35,4.45 12,5.3 C10.65,4.45 9.1,4 7.5,4 C5.65,4 3.9,4.6 2.4,5.7 C2.35,5.75 2.35,5.75 2.3,5.8 C2.25,5.85 2.25,5.9 2.2,5.95 C2.15,6 2.15,6.05 2.1,6.1 C2.1,6.1 2.1,6.1 2.1,6.15 C2.1,6.2 2.05,6.25 2.05,6.3 L2.05,6.35 L2.05,6.5 C2.05,6.5 2.05,6.5 2.05,6.55 L2.05,19 L2.05,19.15 C2.05,19.15 2.05,19.15 2.05,19.2 C2.05,19.25 2.1,19.3 2.1,19.35 L2.1,19.4 C2.1,19.45 2.15,19.5 2.15,19.5 C2.15,19.5 2.15,19.55 2.2,19.55 C2.2,19.55 2.2,19.55 2.2,19.6 L2.25,19.65 L2.3,19.7 C2.35,19.75 2.35,19.75 2.4,19.8 L2.45,19.85 C2.5,19.85 2.5,19.9 2.55,19.9 C2.6,19.9 2.6,19.95 2.65,19.95 C2.7,19.95 2.7,19.95 2.75,20 L2.85,20 L2.95,20 L3,20 L3.05,20 L3.15,20 L3.25,20 L3.3,20 C3.35,20 3.4,19.95 3.4,19.95 L3.45,19.95 C3.5,19.95 3.55,19.9 3.6,19.85 C4.75,19 6.1,18.55 7.5,18.55 C8.9,18.55 10.25,19 11.4,19.85 C11.4,19.85 11.45,19.85 11.45,19.9 C11.5,19.9 11.5,19.95 11.55,19.95 C11.6,19.95 11.6,20 11.65,20 L11.7,20 L11.75,20 L11.85,20 L11.95,20 L12,20 L12.05,20 L12.15,20 L12.25,20 L12.3,20 C12.35,20 12.4,20 12.4,19.95 C12.4,19.95 12.45,19.95 12.45,19.9 C12.5,19.9 12.55,19.85 12.55,19.85 C13.7,19 15.05,18.55 16.45,18.55 C17.85,18.55 19.2,19 20.35,19.85 C20.45,19.9 20.5,19.95 20.6,20 L20.65,20 L21,20 L21.2,20 L21.25,20 C21.3,20 21.35,19.95 21.4,19.95 C21.4,19.95 21.45,19.95 21.45,19.9 C21.5,19.9 21.55,19.85 21.55,19.85 L21.6,19.8 L21.7,19.7 C21.7,19.7 21.7,19.7 21.75,19.65 C21.75,19.6 21.8,19.6 21.8,19.55 C21.8,19.5 21.85,19.5 21.85,19.45 C21.85,19.4 21.85,19.4 21.9,19.35 C21.9,19.3 21.9,19.3 21.95,19.25 L21.95,19.15 L21.95,19.05 L21.95,6.5 L21.95,6.45 C22,6.4 22,6.35 22,6.3 L22,6.3 Z M4,17.25 L4,7 C5.05,6.35 6.25,6 7.5,6 C8.75,6 9.95,6.35 11,7 L11,17.25 C9.9,16.75 8.75,16.5 7.5,16.5 C6.25,16.5 5.1,16.75 4,17.25 Z M13,17.25 L13,7 C14.05,6.35 15.25,6 16.5,6 C17.75,6 18.95,6.35 20,7 L20,17.25 C18.9,16.75 17.75,16.5 16.5,16.5 C15.25,16.5 14.1,16.75 13,17.25 Z" id="path-1"></path>
    </defs>
    <g id="⭕-Application-/-Logs" stroke="none" stroke-width="1" fill="none" fill-rule="evenodd">
        <mask id="mask-2" fill="white">
            <use xlink:href="#path-1"></use>
        </mask>
        <use id="🎨-Icon-Color" fill="#212121" xlink:href="#path-1"></use>
    </g>
</svg>