<?xml version="1.0" encoding="UTF-8"?>
<svg width="24px" height="24px" viewBox="0 0 24 24" version="1.1" xmlns="http://www.w3.org/2000/svg" xmlns:xlink="http://www.w3.org/1999/xlink">
    <title>⭕ Application / Marketing</title>
    <defs>
        <path d="M14,12 C14,13.1 13.1,14 12,14 C10.9,14 10,13.1 10,12 C10,10.9 10.9,10 12,10 C13.1,10 14,10.9 14,12 Z M18,12 C18,8.7 15.3,6 12,6 C8.7,6 6,8.7 6,12 C6,15.3 8.7,18 12,18 C15.3,18 18,15.3 18,12 Z M16,12 C16,14.2 14.2,16 12,16 C9.8,16 8,14.2 8,12 C8,9.8 9.8,8 12,8 C14.2,8 16,9.8 16,12 Z M22,12 C22,6.5 17.5,2 12,2 C6.5,2 2,6.5 2,12 C2,17.5 6.5,22 12,22 C17.5,22 22,17.5 22,12 Z M20,12 C20,16.4 16.4,20 12,20 C7.6,20 4,16.4 4,12 C4,7.6 7.6,4 12,4 C16.4,4 20,7.6 20,12 Z" id="path-1"></path>
    </defs>
    <g id="⭕-Application-/-Marketing" stroke="none" stroke-width="1" fill="none" fill-rule="evenodd">
        <mask id="mask-2" fill="white">
            <use xlink:href="#path-1"></use>
        </mask>
        <use id="🎨-Icon-Color" fill="#212121" xlink:href="#path-1"></use>
    </g>
</svg>