<?xml version="1.0" encoding="UTF-8"?>
<svg width="24px" height="24px" viewBox="0 0 24 24" version="1.1" xmlns="http://www.w3.org/2000/svg" xmlns:xlink="http://www.w3.org/1999/xlink">
    <title>⭕ Application / Members</title>
    <defs>
        <path d="M5,8 C5,6.05 6.55,4.5 8.5,4.5 C10.45,4.5 12,6.05 12,8 C12,9.95 10.45,11.5 8.5,11.5 C6.55,11.5 5,9.95 5,8 Z M8.5,13 C6.2,13 4,14.05 2.25,16 C2.1,16.2 2,16.45 2,16.7 L2,19 C2,19.55 2.45,20 3,20 L14,20 C14.55,20 15,19.55 15,19 L15,16.7 C15,16.45 14.9,16.2 14.75,16.05 C13,14.1 10.8,13 8.5,13 Z M22,6.95 C21.95,6.75 21.8,6.65 21.6,6.65 L19.2,6.65 L18.4,4.25 C18.35,4.1 18.2,4 18,4 C17.8,4 17.65,4.1 17.6,4.3 L16.8,6.7 L14.4,6.7 C14.2,6.7 14.05,6.8 14,7 C13.95,7.2 14,7.35 14.15,7.45 L16.1,8.85 L15.1,11.45 C15.05,11.6 15.1,11.8 15.25,11.95 C15.4,12.05 15.6,12.05 15.75,11.95 L17.95,10.35 L20.15,11.95 C20.2,12 20.3,12.05 20.4,12.05 C20.5,12.05 20.6,12 20.65,11.95 C20.8,11.85 20.85,11.65 20.8,11.45 L19.8,8.85 L21.75,7.45 C22,7.35 22.05,7.15 22,6.95 L22,6.95 Z" id="path-1"></path>
    </defs>
    <g id="⭕-Application-/-Members" stroke="none" stroke-width="1" fill="none" fill-rule="evenodd">
        <mask id="mask-2" fill="white">
            <use xlink:href="#path-1"></use>
        </mask>
        <use id="🎨-Icon-Color" fill="#212121" xlink:href="#path-1"></use>
    </g>
</svg>