<?xml version="1.0" encoding="UTF-8"?>
<svg width="24px" height="24px" viewBox="0 0 24 24" version="1.1" xmlns="http://www.w3.org/2000/svg" xmlns:xlink="http://www.w3.org/1999/xlink">
    <title>⭕ Application / Menu</title>
    <defs>
        <path d="M20,8 L4,8 C3.45,8 3,7.55 3,7 C3,6.45 3.45,6 4,6 L20,6 C20.55,6 21,6.45 21,7 C21,7.55 20.55,8 20,8 Z M21,12 C21,11.45 20.55,11 20,11 L4,11 C3.45,11 3,11.45 3,12 C3,12.55 3.45,13 4,13 L20,13 C20.55,13 21,12.55 21,12 Z M21,17 C21,16.45 20.55,16 20,16 L4,16 C3.45,16 3,16.45 3,17 C3,17.55 3.45,18 4,18 L20,18 C20.55,18 21,17.55 21,17 Z" id="path-1"></path>
    </defs>
    <g id="⭕-Application-/-Menu" stroke="none" stroke-width="1" fill="none" fill-rule="evenodd">
        <mask id="mask-2" fill="white">
            <use xlink:href="#path-1"></use>
        </mask>
        <use id="🎨-Icon-Color" fill="#212121" xlink:href="#path-1"></use>
    </g>
</svg>