<?xml version="1.0" encoding="UTF-8"?>
<svg width="24px" height="24px" viewBox="0 0 24 24" version="1.1" xmlns="http://www.w3.org/2000/svg" xmlns:xlink="http://www.w3.org/1999/xlink">
    <title>⭕ Application / Messaging</title>
    <defs>
        <path d="M21.95,4.7 C21.95,4.65 21.95,4.65 21.9,4.6 C21.9,4.55 21.85,4.55 21.85,4.5 C21.85,4.5 21.85,4.45 21.8,4.45 C21.75,4.35 21.65,4.25 21.5,4.15 L21.45,4.1 C21.4,4.1 21.4,4.05 21.35,4.05 C21.3,4.05 21.3,4.05 21.25,4 C21.2,4 21.2,4 21.15,3.95 L20.95,3.95 L3,3.95 C2.95,4 2.85,4 2.8,4 L2.7,4 C2.65,4 2.65,4 2.6,4.05 C2.6,4.1 2.55,4.1 2.5,4.15 L2.45,4.15 C2.35,4.25 2.25,4.35 2.15,4.45 L2.1,4.5 C2.1,4.55 2.05,4.55 2.05,4.6 C2.05,4.65 2.05,4.65 2,4.7 C2,4.75 2,4.75 1.95,4.8 C2,4.85 2,4.95 2,5 L2,19 L2,19.2 C2,19.25 2,19.25 2.05,19.3 C2.05,19.35 2.05,19.35 2.1,19.4 C2.1,19.45 2.15,19.45 2.15,19.5 C2.15,19.5 2.15,19.55 2.2,19.55 C2.25,19.65 2.35,19.75 2.5,19.85 C2.5,19.85 2.55,19.9 2.6,19.9 C2.65,19.9 2.65,19.95 2.7,19.95 C2.75,19.95 2.75,19.95 2.8,20 C2.85,20 2.85,20 2.9,20.05 L3.1,20.05 L21.1,20.05 L21.3,20.05 C21.35,20.05 21.35,20.05 21.4,20 C21.45,20 21.45,20 21.5,19.95 C21.55,19.95 21.55,19.9 21.6,19.9 C21.6,19.9 21.65,19.9 21.65,19.85 C21.75,19.8 21.85,19.7 21.95,19.55 L22,19.5 C22,19.45 22.05,19.45 22.05,19.4 C22.05,19.35 22.05,19.35 22.1,19.3 C22.1,19.25 22.1,19.25 22.15,19.2 L22.15,19 L22.15,5 L22.15,4.8 C21.95,4.75 21.95,4.75 21.95,4.7 L21.95,4.7 Z M12,12.6 L5.4,6 L18.55,6 L12,12.6 Z M8.6,12 L4,16.6 L4,7.4 L8.6,12 Z M10,13.4 L11.3,14.7 C11.5,14.9 11.75,15 12,15 C12.25,15 12.5,14.9 12.7,14.7 L14,13.4 L18.6,18 L5.4,18 L10,13.4 Z M15.4,12 L20,7.4 L20,16.55 L15.4,12 Z" id="path-1"></path>
    </defs>
    <g id="⭕-Application-/-Messaging" stroke="none" stroke-width="1" fill="none" fill-rule="evenodd">
        <mask id="mask-2" fill="white">
            <use xlink:href="#path-1"></use>
        </mask>
        <use id="🎨-Icon-Color" fill="#212121" xlink:href="#path-1"></use>
    </g>
</svg>