<?xml version="1.0" encoding="UTF-8"?>
<svg width="24px" height="24px" viewBox="0 0 24 24" version="1.1" xmlns="http://www.w3.org/2000/svg" xmlns:xlink="http://www.w3.org/1999/xlink">
    <title>⭕ Application / Monitor</title>
    <defs>
        <path d="M22,12 C22,12.55 21.55,13 21,13 L19,13 C18.6,13 18.25,12.8 18.1,12.45 L18,12.25 L14.4,19.45 C14.25,19.8 13.9,20 13.5,20 L13.35,20 C12.95,19.95 12.6,19.65 12.5,19.2 L10.1,8 L6.85,14.45 C6.7,14.8 6.35,15 5.95,15 C5.55,15 5.2,14.8 5.05,14.45 L4.4,13 L3,13 C2.45,13 2,12.55 2,12 C2,11.45 2.45,11 3,11 L5,11 C5.4,11 5.75,11.2 5.9,11.55 L6,11.75 L9.6,4.55 C9.8,4.15 10.2,3.95 10.6,4 C11,4.05 11.35,4.35 11.45,4.8 L13.9,16 L17.15,9.55 C17.3,9.2 17.65,9 18.05,9 C18.45,9 18.8,9.2 18.95,9.55 L19.65,11 L21,11 C21.55,11 22,11.45 22,12 Z" id="path-1"></path>
    </defs>
    <g id="⭕-Application-/-Monitor" stroke="none" stroke-width="1" fill="none" fill-rule="evenodd">
        <mask id="mask-2" fill="white">
            <use xlink:href="#path-1"></use>
        </mask>
        <use id="🎨-Icon-Color" fill="#212121" xlink:href="#path-1"></use>
    </g>
</svg>