<?xml version="1.0" encoding="UTF-8"?>
<svg width="24px" height="24px" viewBox="0 0 24 24" version="1.1" xmlns="http://www.w3.org/2000/svg" xmlns:xlink="http://www.w3.org/1999/xlink">
    <title>⭕ Application / Network Probe</title>
    <defs>
        <path d="M19.5,22 L16.5,22 C16.25,22 16,21.8 16,21.5 L16,18.5 C16,18.25 16.2,18 16.5,18 L17,18 L17,17 L12.95,17 L12.95,18 L13.5,18 C13.75,18 14,18.2 14,18.5 L14,21.5 C14,21.75 13.8,22 13.5,22 L10.5,22 C10.25,22 10,21.8 10,21.5 L10,18.5 C10,18.25 10.2,18 10.5,18 L10.95,18 L10.95,17 L7,17 L7,18 L7.5,18 C7.75,18 8,18.2 8,18.5 L8,21.5 C8,21.75 7.8,22 7.5,22 L4.5,22 C4.25,22 4,21.8 4,21.5 L4,18.5 C4,18.25 4.2,18 4.5,18 L5,18 L5,16 C5,15.45 5.45,15 6,15 L10.95,15 L10.95,14.05 L10.95,14 L10.45,14 C10.2,14 9.95,13.8 9.95,13.5 L9.95,10.5 C9.95,10.25 10.15,10 10.45,10 L13.45,10 C13.7,10 13.95,10.2 13.95,10.5 L13.95,13.5 C13.95,13.75 13.75,14 13.45,14 L12.9,14 L12.9,14.05 L12.9,15 L18,15 C18.55,15 19,15.45 19,16 L19,18 L19.5,18 C19.75,18 20,18.2 20,18.5 L20,21.5 C20,21.8 19.8,22 19.5,22 Z M5.15,4.2 C4.7,4.55 4.6,5.15 4.95,5.6 C5.15,5.85 5.45,6 5.75,6 C5.95,6 6.15,5.95 6.35,5.8 C7.9,4.65 9.9,4 12,4 C14.1,4 16.1,4.65 17.65,5.8 C18.1,6.15 18.7,6.05 19.05,5.6 C19.4,5.15 19.3,4.55 18.85,4.2 C16.95,2.8 14.55,2 12,2 C9.5,2 7.05,2.8 5.15,4.2 Z M8.6,7.25 C8.15,7.6 8.1,8.25 8.45,8.65 C8.65,8.9 8.95,9 9.2,9 C9.4,9 9.65,8.95 9.85,8.75 C11.1,7.75 12.85,7.75 14.1,8.75 C14.55,9.1 15.15,9.05 15.5,8.6 C15.85,8.15 15.8,7.55 15.35,7.2 C14.35,6.4 13.2,6 11.95,6 C10.75,6 9.6,6.4 8.6,7.25 L8.6,7.25 Z" id="path-1"></path>
    </defs>
    <g id="⭕-Application-/-Network-Probe" stroke="none" stroke-width="1" fill="none" fill-rule="evenodd">
        <mask id="mask-2" fill="white">
            <use xlink:href="#path-1"></use>
        </mask>
        <use id="🎨-Icon-Color" fill="#333333" xlink:href="#path-1"></use>
    </g>
</svg>