<?xml version="1.0" encoding="UTF-8"?>
<svg width="24px" height="24px" viewBox="0 0 24 24" version="1.1" xmlns="http://www.w3.org/2000/svg" xmlns:xlink="http://www.w3.org/1999/xlink">
    <title>⭕ Application / Network Port</title>
    <defs>
        <path d="M4,21 L20,21 C20.55,21 21,20.55 21,20 L21,4 C21,3.45 20.55,3 20,3 L4,3 C3.45,3 3,3.45 3,4 L3,20 C3,20.55 3.45,21 4,21 Z M5,5 L19,5 L19,19 L5,19 L5,5 Z M16.75,7.5 L7.25,7.5 C6.85,7.5 6.5,7.85 6.5,8.25 L6.5,13.75 C6.5,14.15 6.85,14.5 7.25,14.5 L8.5,14.5 L8.5,15.75 C8.5,16.15 8.85,16.5 9.25,16.5 L14.75,16.5 C15.15,16.5 15.5,16.15 15.5,15.75 L15.5,14.5 L16.75,14.5 C17.15,14.5 17.5,14.15 17.5,13.75 L17.5,8.25 C17.5,7.85 17.15,7.5 16.75,7.5 Z M16,13 L14.75,13 C14.35,13 14,13.35 14,13.75 L14,15 L10,15 L10,13.75 C10,13.35 9.65,13 9.25,13 L8,13 L8,9 L16,9 L16,13 Z" id="path-1"></path>
    </defs>
    <g id="⭕-Application-/-Network-Port" stroke="none" stroke-width="1" fill="none" fill-rule="evenodd">
        <mask id="mask-2" fill="white">
            <use xlink:href="#path-1"></use>
        </mask>
        <use id="🎨-Icon-Color" fill="#212121" xlink:href="#path-1"></use>
    </g>
</svg>