<?xml version="1.0" encoding="UTF-8"?>
<svg width="24px" height="24px" viewBox="0 0 24 24" version="1.1" xmlns="http://www.w3.org/2000/svg" xmlns:xlink="http://www.w3.org/1999/xlink">
    <title>⭕ Application / Notes</title>
    <defs>
        <path d="M19.7,5.8 L16.2,2.3 C16.05,2.15 15.9,2.05 15.7,2.05 L15.5,2.05 L5,2.05 C4.45,2 4,2.45 4,3 L4,21 C4,21.25 4.1,21.5 4.3,21.7 C4.5,21.9 4.75,22 5,22 L19,22 C19.55,22 20,21.55 20,21 L20,6.5 C20,6.25 19.9,6 19.7,5.8 Z M6,20 L6,4 L14,4 L14,7 C14,7.55 14.45,8 15,8 L18,8 L18,20 L6,20 Z M16,12 C16,12.55 15.55,13 15,13 L9,13 C8.45,13 8,12.55 8,12 C8,11.45 8.45,11 9,11 L15,11 C15.55,11 16,11.45 16,12 Z M16,16 C16,16.55 15.55,17 15,17 L9,17 C8.45,17 8,16.55 8,16 C8,15.45 8.45,15 9,15 L15,15 C15.55,15 16,15.45 16,16 Z" id="path-1"></path>
    </defs>
    <g id="⭕-Application-/-Notes" stroke="none" stroke-width="1" fill="none" fill-rule="evenodd">
        <mask id="mask-2" fill="white">
            <use xlink:href="#path-1"></use>
        </mask>
        <use id="🎨-Icon-Color" fill="#333333" xlink:href="#path-1"></use>
    </g>
</svg>