<?xml version="1.0" encoding="UTF-8"?>
<svg width="24px" height="24px" viewBox="0 0 24 24" version="1.1" xmlns="http://www.w3.org/2000/svg" xmlns:xlink="http://www.w3.org/1999/xlink">
    <title>⭕ Application / Notification</title>
    <defs>
        <path d="M12,2 C10.9,2 10,2.9 10,4 L10,4.35 C7.65,5.2 6,7.4 6,10 L6,16.6 L4.3,18.3 C4,18.6 3.9,19 4.1,19.4 C4.25,19.75 4.6,20 5,20 L10,20 C10,21.1 10.9,22 12,22 C13.1,22 14,21.1 14,20 L19,20 C19.4,20 19.75,19.75 19.9,19.4 C20.05,19.05 19.95,18.6 19.7,18.3 L18,16.6 L18,10 C18,7.4 16.35,5.2 14,4.35 L14,4 C14,2.9 13.1,2 12,2 Z M16,10 L16,17 C16,17.25 16.1,17.5 16.3,17.7 L16.6,18 L7.4,18 L7.7,17.7 C7.9,17.5 8,17.25 8,17 L8,10 C8,7.8 9.8,6 12,6 C14.2,6 16,7.8 16,10 Z" id="path-1"></path>
    </defs>
    <g id="⭕-Application-/-Notification" stroke="none" stroke-width="1" fill="none" fill-rule="evenodd">
        <mask id="mask-2" fill="white">
            <use xlink:href="#path-1"></use>
        </mask>
        <use id="🎨-Icon-Color" fill="#333333" xlink:href="#path-1"></use>
    </g>
</svg>