<?xml version="1.0" encoding="UTF-8"?>
<svg width="24px" height="24px" viewBox="0 0 24 24" version="1.1" xmlns="http://www.w3.org/2000/svg" xmlns:xlink="http://www.w3.org/1999/xlink">
    <title>⭕ Application / Patching</title>
    <defs>
        <path d="M19.05,10 L19,6 C19,5.45 18.55,5 18,5 L14,5 C14,3.35 12.65,2 11,2 C9.35,2 8,3.35 8,5 L4,5 C3.45,5 3,5.45 3,6 L3,11 C3,11.55 3.45,12 4,12 L5,12 C5.5,12 6,12.5 6,13 C6,13.5 5.5,14 5,14 L4,14 C3.45,14 3,14.45 3,15 L3,20 C3,20.55 3.45,21 4,21 L9,21 C9.55,21 10,20.55 10,20 L10,19 C10,18.45 10.45,18 11,18 C11.55,18 12,18.45 12,19 L12,20 C12,20.55 12.45,21 13,21 L18,21 C18.55,21 19,20.55 19,20 L19,16 C20.65,16 22,14.65 22,13 C22,11.35 20.65,10 19.05,10 Z M19,14 L18,14 C17.45,14 17,14.45 17,15 L17,19 L14,19 C14,17.35 12.65,16 11,16 C9.35,16 8,17.35 8,19 L5,19 L5,16 C6.65,16 8,14.65 8,13 C8,11.35 6.65,10 5,10 L5,7 L9,7 C9.55,7 10,6.55 10,6 L10,5 C10,4.5 10.5,4 11,4 C11.5,4 12,4.5 12,5 L12,6 C12,6.55 12.45,7 13,7 L17,7 L17,11 C17,11.55 17.45,12 18,12 L19.05,12 C19.55,12 20,12.5 20,13 C20,13.5 19.5,14 19,14 Z" id="path-1"></path>
    </defs>
    <g id="⭕-Application-/-Patching" stroke="none" stroke-width="1" fill="none" fill-rule="evenodd">
        <mask id="mask-2" fill="white">
            <use xlink:href="#path-1"></use>
        </mask>
        <use id="🎨-Icon-Color" fill="#333333" xlink:href="#path-1"></use>
    </g>
</svg>