<?xml version="1.0" encoding="UTF-8"?>
<svg width="24px" height="24px" viewBox="0 0 24 24" version="1.1" xmlns="http://www.w3.org/2000/svg" xmlns:xlink="http://www.w3.org/1999/xlink">
    <title>⭕ Application / Plugins</title>
    <defs>
        <path d="M4,21 C4.25,21 4.5,20.9 4.7,20.7 L8.05,17.35 C9.55,18.55 11.4,19.15 13.25,19.15 C15.4,19.15 17.55,18.35 19.2,16.7 L20.7,15.2 C21.1,14.8 21.1,14.2 20.7,13.8 L17.9,11 L20.7,8.2 C21.1,7.8 21.1,7.2 20.7,6.8 C20.3,6.4 19.7,6.4 19.3,6.8 L16.5,9.6 L14.4,7.5 L17.2,4.7 C17.6,4.3 17.6,3.7 17.2,3.3 C16.8,2.9 16.2,2.9 15.8,3.3 L13,6.1 L10.2,3.3 C9.8,2.9 9.2,2.9 8.8,3.3 L7.3,4.8 C4.25,7.85 4.05,12.65 6.65,15.95 L3.3,19.3 C2.9,19.7 2.9,20.3 3.3,20.7 C3.5,20.9 3.75,21 4,21 L4,21 Z M8.7,6.2 L9.5,5.4 L18.6,14.5 L17.8,15.3 C15.3,17.8 11.2,17.8 8.7,15.3 C6.2,12.8 6.2,8.7 8.7,6.2 L8.7,6.2 Z" id="path-1"></path>
    </defs>
    <g id="⭕-Application-/-Plugins" stroke="none" stroke-width="1" fill="none" fill-rule="evenodd">
        <mask id="mask-2" fill="white">
            <use xlink:href="#path-1"></use>
        </mask>
        <use id="🎨-Icon-Color" fill="#333333" xlink:href="#path-1"></use>
    </g>
</svg>