<?xml version="1.0" encoding="UTF-8"?>
<svg width="24px" height="24px" viewBox="0 0 24 24" version="1.1" xmlns="http://www.w3.org/2000/svg" xmlns:xlink="http://www.w3.org/1999/xlink">
    <title>⭕ Application / Plugin Shortcuts</title>
    <defs>
        <path d="M13,18.25 C12.9,18.75 12.5,19.1 12,19.1 L11.85,19.1 C10.45,18.85 9.15,18.3 8.05,17.4 L4.7,20.75 C4.5,20.9 4.25,21 4,21 C3.75,21 3.5,20.9 3.3,20.7 C2.9,20.3 2.9,19.7 3.3,19.3 L6.65,15.95 C4.05,12.65 4.25,7.85 7.3,4.8 L8.8,3.3 C9.2,2.9 9.8,2.9 10.2,3.3 L13,6.1 L15.8,3.3 C16.2,2.9 16.8,2.9 17.2,3.3 C17.6,3.7 17.6,4.3 17.2,4.7 L14.4,7.5 L16.5,9.6 L19.3,6.8 C19.7,6.4 20.3,6.4 20.7,6.8 C21.1,7.2 21.1,7.8 20.7,8.2 L17.2,11.7 C17,11.9 16.75,12 16.5,12 C16.25,12 16,11.9 15.8,11.7 L9.5,5.4 L8.7,6.2 C6.2,8.7 6.2,12.8 8.7,15.3 C9.65,16.25 10.85,16.85 12.15,17.1 C12.7,17.2 13.1,17.7 13,18.25 L13,18.25 Z M20,14 L16.5,14 C15.95,14 15.5,14.45 15.5,15 C15.5,15.55 15.95,16 16.5,16 L17.6,16 L14.3,19.3 C13.9,19.7 13.9,20.3 14.3,20.7 C14.5,20.9 14.75,21 15,21 C15.25,21 15.5,20.9 15.7,20.7 L19,17.4 L19,18.5 C19,19.05 19.45,19.5 20,19.5 C20.55,19.5 21,19.05 21,18.5 L21,15 C21,14.45 20.55,14 20,14 Z" id="path-1"></path>
    </defs>
    <g id="⭕-Application-/-Plugin-Shortcuts" stroke="none" stroke-width="1" fill="none" fill-rule="evenodd">
        <mask id="mask-2" fill="white">
            <use xlink:href="#path-1"></use>
        </mask>
        <use id="🎨-Icon-Color" fill="#333333" xlink:href="#path-1"></use>
    </g>
</svg>