<?xml version="1.0" encoding="UTF-8"?>
<svg width="24px" height="24px" viewBox="0 0 24 24" version="1.1" xmlns="http://www.w3.org/2000/svg" xmlns:xlink="http://www.w3.org/1999/xlink">
    <title>⭕ Application / Processes</title>
    <defs>
        <path d="M10,3.05 C9.45,3.05 9,3.5 9,4.05 L9,6 L7,6 C6.45,6 6,6.45 6,7 L6,9 L4,9 C3.45,9 3,9.45 3,10 C3,10.55 3.45,11 4,11 L6,11 L6,13 L4,13 C3.45,13 3,13.45 3,14 C3,14.55 3.45,15 4,15 L6,15 L6,17 C6,17.55 6.45,18 7,18 L9,18 L9,20 C9,20.55 9.45,21 10,21 C10.55,21 11,20.55 11,20 L11,18 L13,18 L13,19.95 C13,20.5 13.45,20.95 14,20.95 C14.55,20.95 15,20.5 15,19.95 L15,18 L17,18 C17.55,18 18,17.55 18,17 L18,15 L20,15 C20.55,15 21,14.55 21,14 C21,13.45 20.55,13 20,13 L18,13 L18,11 L19.95,11 C20.5,11 20.95,10.55 20.95,10 C20.95,9.45 20.5,9 19.95,9 L18,9 L18,7 C18,6.45 17.55,6 17,6 L15,6 L15,4 C15,3.45 14.55,3 14,3 C13.45,3 13,3.45 13,4 L13,6 L11,6 L11,4.05 C11,3.5 10.55,3.05 10,3.05 Z M16,16 L8,16 L8,8 L16,8 L16,16 Z" id="path-1"></path>
    </defs>
    <g id="⭕-Application-/-Processes" stroke="none" stroke-width="1" fill="none" fill-rule="evenodd">
        <mask id="mask-2" fill="white">
            <use xlink:href="#path-1"></use>
        </mask>
        <use id="🎨-Icon-Color" fill="#333333" xlink:href="#path-1"></use>
    </g>
</svg>