<?xml version="1.0" encoding="UTF-8"?>
<svg width="24px" height="24px" viewBox="0 0 24 24" version="1.1" xmlns="http://www.w3.org/2000/svg" xmlns:xlink="http://www.w3.org/1999/xlink">
    <title>⭕ Application / Procurement</title>
    <defs>
        <path d="M18.5,18 C18.5,19.1 17.6,20 16.5,20 C15.4,20 14.5,19.1 14.5,18 C14.5,16.9 15.4,16 16.5,16 C17.6,16 18.5,16.9 18.5,18 Z M9,16 C7.9,16 7,16.9 7,18 C7,19.1 7.9,20 9,20 C10.1,20 11,19.1 11,18 C11,16.9 10.1,16 9,16 Z M20.95,6.25 L18.95,14.25 C18.85,14.7 18.45,15 18,15 L7.5,15 C7.05,15 6.65,14.7 6.55,14.25 L4.6,6.5 L4.1,6 L3,6 C2.45,6 2,5.55 2,5 C2,4.45 2.45,4 3,4 L4.5,4 C4.75,4 5,4.1 5.2,4.3 L5.9,5 L20,5 C20.3,5 20.6,5.15 20.8,5.4 C21,5.65 21.05,5.95 20.95,6.25 Z M18.7,7 L6.8,7 L8.3,13 L17.25,13 L18.7,7 Z" id="path-1"></path>
    </defs>
    <g id="⭕-Application-/-Procurement" stroke="none" stroke-width="1" fill="none" fill-rule="evenodd">
        <mask id="mask-2" fill="white">
            <use xlink:href="#path-1"></use>
        </mask>
        <use id="🎨-Icon-Color" fill="#333333" xlink:href="#path-1"></use>
    </g>
</svg>