<?xml version="1.0" encoding="UTF-8"?>
<svg width="24px" height="24px" viewBox="0 0 24 24" version="1.1" xmlns="http://www.w3.org/2000/svg" xmlns:xlink="http://www.w3.org/1999/xlink">
    <title>⭕ Application / Projects</title>
    <defs>
        <path d="M20,21 L4,21 C3.45,21 3,20.55 3,20 L3,4 C3,3.45 3.45,3 4,3 C4.55,3 5,3.45 5,4 L5,19 L20,19 C20.55,19 21,19.45 21,20 C21,20.55 20.55,21 20,21 Z M18,6 C18,5.45 17.55,5 17,5 L8,5 C7.45,5 7,5.45 7,6 C7,6.55 7.45,7 8,7 L17,7 C17.55,7 18,6.55 18,6 Z M20,9.5 C20,8.95 19.55,8.5 19,8.5 L12,8.5 C11.45,8.5 11,8.95 11,9.5 C11,10.05 11.45,10.5 12,10.5 L19,10.5 C19.55,10.5 20,10.05 20,9.5 Z M14,13 C14,12.45 13.55,12 13,12 L9,12 C8.45,12 8,12.45 8,13 C8,13.55 8.45,14 9,14 L13,14 C13.55,14 14,13.55 14,13 Z M20,16.5 C20,15.95 19.55,15.5 19,15.5 L15,15.5 C14.45,15.5 14,15.95 14,16.5 C14,17.05 14.45,17.5 15,17.5 L19,17.5 C19.55,17.5 20,17.05 20,16.5 Z" id="path-1"></path>
    </defs>
    <g id="⭕-Application-/-Projects" stroke="none" stroke-width="1" fill="none" fill-rule="evenodd">
        <mask id="mask-2" fill="white">
            <use xlink:href="#path-1"></use>
        </mask>
        <use id="🎨-Icon-Color" fill="#333333" xlink:href="#path-1"></use>
    </g>
</svg>