<?xml version="1.0" encoding="UTF-8"?>
<svg width="24px" height="24px" viewBox="0 0 24 24" version="1.1" xmlns="http://www.w3.org/2000/svg" xmlns:xlink="http://www.w3.org/1999/xlink">
    <title>⭕ Application / Quick Ticketing</title>
    <defs>
        <path d="M9.7,17.3 C10.1,17.7 10.1,18.3 9.7,18.7 C9.5,18.9 9.25,19 9,19 C8.75,19 8.5,18.9 8.3,18.7 L2.3,12.7 C1.9,12.3 1.9,11.7 2.3,11.3 L11.3,2.3 C11.5,2.1 11.75,2 12,2 L19,2 C19.55,2 20,2.45 20,3 L20,9 C20,9.55 19.55,10 19,10 C18.45,10 18,9.55 18,9 L18,4 L12.4,4 L4.4,12 L9.7,17.3 Z M14,7 C14,7.55 14.45,8 15,8 C15.55,8 16,7.55 16,7 C16,6.45 15.55,6 15,6 C14.45,6 14,6.45 14,7 Z M22,16.75 C22,19.65 19.65,22 16.75,22 C13.85,22 11.5,19.65 11.5,16.75 C11.5,13.85 13.85,11.5 16.75,11.5 C19.65,11.5 22,13.85 22,16.75 Z M20.5,16.75 C20.5,14.7 18.8,13 16.75,13 C14.7,13 13,14.7 13,16.75 C13,18.8 14.7,20.5 16.75,20.5 C18.8,20.5 20.5,18.8 20.5,16.75 Z M17.5,16.45 L17.5,14.95 C17.5,14.55 17.15,14.2 16.75,14.2 C16.35,14.2 16,14.55 16,14.95 L16,16.75 C16,16.95 16.1,17.15 16.2,17.3 L17.55,18.65 C17.7,18.8 17.9,18.85 18.1,18.85 C18.3,18.85 18.5,18.8 18.65,18.65 C18.95,18.35 18.95,17.9 18.65,17.6 L17.5,16.45 Z" id="path-1"></path>
    </defs>
    <g id="⭕-Application-/-Quick-Ticketing" stroke="none" stroke-width="1" fill="none" fill-rule="evenodd">
        <mask id="mask-2" fill="white">
            <use xlink:href="#path-1"></use>
        </mask>
        <use id="🎨-Icon-Color" fill="#333333" xlink:href="#path-1"></use>
    </g>
</svg>