<?xml version="1.0" encoding="UTF-8"?>
<svg width="24px" height="24px" viewBox="0 0 24 24" version="1.1" xmlns="http://www.w3.org/2000/svg" xmlns:xlink="http://www.w3.org/1999/xlink">
    <title>⭕ Application / Quote Audit Trail</title>
    <defs>
        <path d="M19,2 L5,2 C4.45,2 4,2.45 4,3 L4,21 C4,21.55 4.45,22 5,22 L19,22 C19.55,22 20,21.55 20,21 L20,3 C20,2.45 19.55,2 19,2 Z M18,20 L6,20 L6,4 L8,4 L8,5 C8,5.55 8.45,6 9,6 L15,6 C15.55,6 16,5.55 16,5 L16,4 L18,4 L18,20 Z M10,10 L10,17 C10,17.55 9.55,18 9,18 C8.45,18 8,17.55 8,17 L8,10 C8,9.45 8.45,9 9,9 C9.55,9 10,9.45 10,10 Z M13,12 L13,17 C13,17.55 12.55,18 12,18 C11.45,18 11,17.55 11,17 L11,12 C11,11.45 11.45,11 12,11 C12.55,11 13,11.45 13,12 Z M16,14.5 L16,17 C16,17.55 15.55,18 15,18 C14.45,18 14,17.55 14,17 L14,14.5 C14,13.95 14.45,13.5 15,13.5 C15.55,13.5 16,13.95 16,14.5 Z" id="path-1"></path>
    </defs>
    <g id="⭕-Application-/-Quote-Audit-Trail" stroke="none" stroke-width="1" fill="none" fill-rule="evenodd">
        <mask id="mask-2" fill="white">
            <use xlink:href="#path-1"></use>
        </mask>
        <use id="🎨-Icon-Color" fill="#333333" xlink:href="#path-1"></use>
    </g>
</svg>