<?xml version="1.0" encoding="UTF-8"?>
<svg width="24px" height="24px" viewBox="0 0 24 24" version="1.1" xmlns="http://www.w3.org/2000/svg" xmlns:xlink="http://www.w3.org/1999/xlink">
    <title>⭕ Application / Recent</title>
    <defs>
        <path d="M19.2,18.7 C17.4,20.5 14.95,21.5 12.45,21.5 C11.65,21.5 10.85,21.4 10.05,21.2 C9.5,21.05 9.2,20.5 9.35,20 C9.5,19.45 10.05,19.15 10.55,19.3 C13.15,20 15.9,19.25 17.8,17.35 C20.75,14.4 20.75,9.65 17.85,6.75 C16.4,5.25 14.55,4.5 12.55,4.5 C10.55,4.5 8.65,5.3 7.25,6.7 C5.8,8.15 5,10.1 5.05,12.1 L5.85,11.3 C6.25,10.9 6.85,10.9 7.25,11.3 C7.65,11.7 7.65,12.3 7.25,12.7 L4.75,15.2 C4.5,15.4 4.25,15.5 4,15.5 C3.75,15.5 3.5,15.4 3.3,15.2 L0.8,12.7 C0.4,12.3 0.4,11.7 0.8,11.3 C1.2,10.9 1.8,10.9 2.2,11.3 L3,12.1 C3,9.6 4,7.15 5.8,5.3 C7.6,3.5 10,2.5 12.5,2.5 C15.05,2.5 17.4,3.5 19.2,5.25 C22.95,8.95 22.9,15 19.2,18.7 Z M12,7.05 C11.45,7.05 11,7.5 11,8.05 L11,12 C11,12.25 11.1,12.5 11.3,12.7 L14.1,15.5 C14.3,15.7 14.55,15.8 14.8,15.8 C15.05,15.8 15.3,15.7 15.5,15.5 C15.9,15.1 15.9,14.5 15.5,14.1 L13,11.6 L13,8.1 C13,7.5 12.55,7.05 12,7.05 Z" id="path-1"></path>
    </defs>
    <g id="⭕-Application-/-Recent" stroke="none" stroke-width="1" fill="none" fill-rule="evenodd">
        <mask id="mask-2" fill="white">
            <use xlink:href="#path-1"></use>
        </mask>
        <use id="🎨-Icon-Color" fill="#333333" xlink:href="#path-1"></use>
    </g>
</svg>