<?xml version="1.0" encoding="UTF-8"?>
<svg width="24px" height="24px" viewBox="0 0 24 24" version="1.1" xmlns="http://www.w3.org/2000/svg" xmlns:xlink="http://www.w3.org/1999/xlink">
    <title>⭕ Application / Report Writer</title>
    <defs>
        <path d="M10.5,21 C10.5,21.55 10.05,22 9.5,22 L5,22 C4.45,22 4,21.55 4,21 L4,3 C4,2.45 4.45,2 5,2 L19,2 C19.55,2 20,2.45 20,3 L20,9.5 C20,10.05 19.55,10.5 19,10.5 C18.45,10.5 18,10.05 18,9.5 L18,4 L16,4 L16,5 C16,5.55 15.55,6 15,6 L9,6 C8.45,6 8,5.55 8,5 L8,4 L6,4 L6,20 L9.5,20 C10.05,20 10.5,20.45 10.5,21 Z M8,10 L8,17 C8,17.55 8.45,18 9,18 C9.55,18 10,17.55 10,17 L10,10 C10,9.45 9.55,9 9,9 C8.45,9 8,9.45 8,10 Z M13,17 L13,12 C13,11.45 12.55,11 12,11 C11.45,11 11,11.45 11,12 L11,17 C11,17.55 11.45,18 12,18 C12.55,18 13,17.55 13,17 Z M21.8,16.3 L16.3,21.8 C16.15,21.95 15.95,22 15.75,22 L13.25,22 C12.85,22 12.5,21.65 12.5,21.25 L12.5,18.75 C12.5,18.55 12.6,18.35 12.7,18.2 L14.05,16.85 C14.05,16.75 14,16.65 14,16.5 L14,14.5 C14,13.95 14.45,13.5 15,13.5 C15.55,13.5 16,13.95 16,14.5 L16,14.95 L18.2,12.75 C18.5,12.45 18.95,12.45 19.25,12.75 L21.75,15.25 C22.05,15.5 22.05,16 21.8,16.3 L21.8,16.3 Z M20.2,15.75 L18.75,14.3 L14,19.05 L14,20.5 L15.45,20.5 L20.2,15.75 Z" id="path-1"></path>
    </defs>
    <g id="⭕-Application-/-Report-Writer" stroke="none" stroke-width="1" fill="none" fill-rule="evenodd">
        <mask id="mask-2" fill="white">
            <use xlink:href="#path-1"></use>
        </mask>
        <use id="🎨-Icon-Color" fill="#333333" xlink:href="#path-1"></use>
    </g>
</svg>