<?xml version="1.0" encoding="UTF-8"?>
<svg width="24px" height="24px" viewBox="0 0 24 24" version="1.1" xmlns="http://www.w3.org/2000/svg" xmlns:xlink="http://www.w3.org/1999/xlink">
    <title>⭕ Application / Sales Orders</title>
    <defs>
        <path d="M16.95,10.95 C17,11.05 17,11.15 17,11.25 L17,13.75 C17,14.15 16.65,14.5 16.25,14.5 C15.85,14.5 15.5,14.15 15.5,13.75 L15.5,13.05 L13.3,15.25 C13.15,15.4 12.95,15.45 12.75,15.45 C12.55,15.45 12.35,15.4 12.2,15.25 L10.25,13.3 L8.3,15.25 C8,15.55 7.55,15.55 7.25,15.25 C6.95,14.95 6.95,14.5 7.25,14.2 L9.75,11.7 C10.05,11.4 10.5,11.4 10.8,11.7 L12.75,13.65 L14.45,11.95 L13.75,11.95 C13.35,11.95 13,11.6 13,11.2 C13,10.8 13.35,10.45 13.75,10.45 L16.25,10.45 C16.35,10.45 16.45,10.45 16.5,10.5 C16.7,10.65 16.85,10.8 16.95,10.95 Z M20,3 L20,21 C20,21.55 19.55,22 19,22 L5,22 C4.45,22 4,21.55 4,21 L4,3 C4,2.45 4.45,2 5,2 L19,2 C19.55,2 20,2.45 20,3 Z M18,4 L16,4 L16,5 C16,5.55 15.55,6 15,6 L9,6 C8.45,6 8,5.55 8,5 L8,4 L6,4 L6,20 L18,20 L18,4 Z" id="path-1"></path>
    </defs>
    <g id="⭕-Application-/-Sales-Orders" stroke="none" stroke-width="1" fill="none" fill-rule="evenodd">
        <mask id="mask-2" fill="white">
            <use xlink:href="#path-1"></use>
        </mask>
        <use id="🎨-Icon-Color" fill="#333333" xlink:href="#path-1"></use>
    </g>
</svg>