<?xml version="1.0" encoding="UTF-8"?>
<svg width="24px" height="24px" viewBox="0 0 24 24" version="1.1" xmlns="http://www.w3.org/2000/svg" xmlns:xlink="http://www.w3.org/1999/xlink">
    <title>⭕ Application / Sales</title>
    <defs>
        <path d="M21,4 L21,8 C21,8.55 20.55,9 20,9 C19.45,9 19,8.55 19,8 L19,6.4 L14.2,11.2 C13.8,11.6 13.2,11.6 12.8,11.2 L9.5,7.9 L4.7,12.7 C4.5,12.9 4.25,13 4,13 C3.75,13 3.5,12.9 3.3,12.7 C2.9,12.3 2.9,11.7 3.3,11.3 L8.8,5.8 C9.2,5.4 9.8,5.4 10.2,5.8 L13.5,9.1 L17.6,5 L16,5 C15.45,5 15,4.55 15,4 C15,3.45 15.45,3 16,3 L20,3 L20.2,3 L20.3,3 C20.35,3 20.35,3 20.4,3.05 C20.45,3.05 20.45,3.1 20.5,3.1 C20.55,3.1 20.55,3.15 20.6,3.15 C20.7,3.2 20.8,3.3 20.9,3.45 C20.9,3.45 20.95,3.5 20.95,3.55 C20.95,3.6 21,3.6 21,3.65 C21,3.7 21,3.7 21.05,3.75 C21.05,3.8 21.05,3.8 21.1,3.85 C21,3.85 21,3.95 21,4 L21,4 Z M8,16.25 L8,20.25 C8,20.65 7.65,21 7.25,21 L3.75,21 C3.35,21 3,20.65 3,20.25 L3,16.25 C3,15.85 3.35,15.5 3.75,15.5 L7.25,15.5 C7.65,15.5 8,15.85 8,16.25 Z M6.5,17 L4.5,17 L4.5,19.5 L6.5,19.5 L6.5,17 Z M14.5,14.25 L14.5,20.25 C14.5,20.65 14.15,21 13.75,21 L10.25,21 C9.85,21 9.5,20.65 9.5,20.25 L9.5,14.25 C9.5,13.85 9.85,13.5 10.25,13.5 L13.75,13.5 C14.15,13.5 14.5,13.85 14.5,14.25 Z M13,15 L11,15 L11,19.5 L13,19.5 L13,15 Z M21,12.25 L21,20.25 C21,20.65 20.65,21 20.25,21 L16.75,21 C16.35,21 16,20.65 16,20.25 L16,12.25 C16,11.85 16.35,11.5 16.75,11.5 L20.25,11.5 C20.65,11.5 21,11.85 21,12.25 Z M19.5,13 L17.5,13 L17.5,19.5 L19.5,19.5 L19.5,13 Z" id="path-1"></path>
    </defs>
    <g id="⭕-Application-/-Sales" stroke="none" stroke-width="1" fill="none" fill-rule="evenodd">
        <mask id="mask-2" fill="white">
            <use xlink:href="#path-1"></use>
        </mask>
        <use id="🎨-Icon-Color" fill="#333333" xlink:href="#path-1"></use>
    </g>
</svg>