<?xml version="1.0" encoding="UTF-8"?>
<svg width="24px" height="24px" viewBox="0 0 24 24" version="1.1" xmlns="http://www.w3.org/2000/svg" xmlns:xlink="http://www.w3.org/1999/xlink">
    <title>⭕ Application / Scripts</title>
    <defs>
        <path d="M10,12 C10,11.45 10.45,11 11,11 L15,11 C15.55,11 16,11.45 16,12 C16,12.55 15.55,13 15,13 L11,13 C10.45,13 10,12.55 10,12 Z M11,17 L15,17 C15.55,17 16,16.55 16,16 C16,15.45 15.55,15 15,15 L11,15 C10.45,15 10,15.45 10,16 C10,16.55 10.45,17 11,17 Z M22,6 C22,7.3 21.15,8.4 20,8.85 L20,18.5 L20,18.7 C19.9,19.9 18.95,20.9 17.7,21 L17.5,21 L5,21 C3.35,21 2,19.7 2,18.05 C2,17.1 2.45,16.25 3.2,15.7 C3.65,15.35 4.25,15.45 4.6,15.9 C4.95,16.35 4.85,16.95 4.4,17.3 C4.15,17.5 4,17.75 4,18.05 C4,18.55 4.45,19 5,19 C5.55,19 6,18.6 6,18.05 L6,6.5 C6,4.55 7.55,3 9.5,3 L18.75,3 L18.85,3 L18.95,3 C20.65,3 22,4.35 22,6 L22,6 Z M8,6.5 L8,18.05 C8,18.4 7.95,18.7 7.85,19 L17.5,19 C17.8,19 18,18.8 18,18.5 L18,9 L11.5,9 C11.4,9 11.35,9 11.25,8.95 L11.2,8.95 C11.1,8.9 11.05,8.85 10.95,8.8 L10.9,8.75 C10.85,8.7 10.85,8.7 10.8,8.65 L10.75,8.6 C10.75,8.55 10.7,8.55 10.7,8.5 C10.7,8.5 10.7,8.45 10.65,8.45 C10.65,8.4 10.6,8.35 10.6,8.35 L10.6,8.3 C10.6,8.25 10.6,8.2 10.55,8.15 L10.55,8.1 L10.55,8 L10.55,7.95 L10.55,7.9 L10.55,7.75 C10.55,7.75 10.55,7.75 10.55,7.7 C10.55,7.65 10.6,7.6 10.6,7.55 C10.65,7.5 10.65,7.45 10.7,7.4 C10.9,7.15 11,6.85 11,6.5 C11,5.65 10.35,5 9.5,5 C8.65,5 8,5.65 8,6.5 L8,6.5 Z M20,6 C20,5.45 19.55,5 19,5 L18.9,5 L18.8,5 L12.65,5 C12.85,5.45 13,5.95 13,6.5 C13,6.65 13,6.85 12.95,7 L18.75,7 L18.85,7 L18.95,7 C19.55,7 20,6.55 20,6 L20,6 Z" id="path-1"></path>
    </defs>
    <g id="⭕-Application-/-Scripts" stroke="none" stroke-width="1" fill="none" fill-rule="evenodd">
        <mask id="mask-2" fill="white">
            <use xlink:href="#path-1"></use>
        </mask>
        <use id="🎨-Icon-Color" fill="#333333" xlink:href="#path-1"></use>
    </g>
</svg>