<?xml version="1.0" encoding="UTF-8"?>
<svg width="24px" height="24px" viewBox="0 0 24 24" version="1.1" xmlns="http://www.w3.org/2000/svg" xmlns:xlink="http://www.w3.org/1999/xlink">
    <title>⭕ Application / Security Fingerprint</title>
    <defs>
        <path d="M15.235395,12.8829 C15.299895,12.8829 15.366895,12.8914 15.433895,12.9074 C15.853395,13.0034 16.108895,13.3329 16.081395,13.7459 C15.952395,14.8104 15.679895,15.8019 15.221395,16.8894 C14.611395,18.3349 13.814895,19.7324 12.786895,21.1614 C12.710895,21.2824 12.602395,21.4549 12.382895,21.5429 C12.299395,21.5764 12.133895,21.6324 11.953895,21.6324 C11.800895,21.6324 11.658395,21.5914 11.541895,21.5134 C11.200895,21.2884 11.180395,20.8129 11.275895,20.5489 C11.336895,20.3769 11.432895,20.2529 11.510395,20.1534 C11.537395,20.1199 11.556895,20.0949 11.574895,20.0689 C12.947895,18.0799 13.767395,16.4549 14.231395,14.8039 C14.331395,14.4459 14.399895,14.0659 14.465895,13.6754 C14.578395,13.0184 14.945895,12.8829 15.235395,12.8829 Z M16.994595,16.7188 C17.345095,16.7888 17.605095,17.1053 17.611095,17.4728 L17.611595,17.5258 L17.600095,17.5948 L17.580595,17.6768 C17.565095,17.7478 17.548595,17.8213 17.524095,17.8953 C17.207595,18.8588 16.738595,19.7753 16.090595,20.6953 C16.042595,20.7633 15.983095,20.8228 15.913595,20.8723 C15.804095,20.9498 15.681595,20.9973 15.549595,21.0123 C15.310595,21.0398 15.074595,20.9568 14.900595,20.7848 C14.725595,20.6128 14.639095,20.3738 14.663595,20.1288 C14.673095,20.0298 14.697595,19.9403 14.738595,19.8558 C15.138595,19.0278 15.568095,18.1718 16.052595,17.2408 C16.167595,17.0198 16.424595,16.7488 16.768595,16.7093 C16.844595,16.7003 16.920595,16.7038 16.994595,16.7188 Z M11.078945,9.8653 C11.287945,9.8653 11.506445,9.8938 11.728945,9.9503 C12.410445,10.1238 13.243945,10.6493 13.340445,12.1668 C13.348445,12.2903 13.346945,12.4133 13.344945,12.5328 L13.342945,12.6908 C13.321945,14.4053 12.656945,15.8843 12.078945,16.9823 C11.441945,18.1933 10.591445,19.3353 9.54994504,20.3773 C9.49994504,20.4273 9.44594504,20.4753 9.39844504,20.5173 C9.19794504,20.6963 8.97444504,20.7833 8.74394504,20.7833 C8.54744504,20.7833 8.36144504,20.7208 8.21994504,20.6068 C8.04194504,20.4648 7.93644504,20.2708 7.92594504,20.0603 C7.90944504,19.7173 8.13844504,19.4943 8.24844504,19.3878 C9.98794504,17.6413 11.070945,15.8348 11.587445,13.8378 C11.797945,13.0203 11.810445,12.3978 11.627445,11.8223 C11.564445,11.6243 11.469445,11.5368 11.264445,11.4873 C11.202445,11.4723 11.143945,11.4648 11.095945,11.4648 C11.012945,11.4648 10.926945,11.4648 10.896945,11.7343 C10.868945,11.9778 10.849945,12.2273 10.830945,12.4683 C10.791445,12.9788 10.751945,13.4868 10.649945,13.9928 C10.382945,15.3093 9.56344504,16.2858 8.79644504,17.0673 C8.32694504,17.5463 7.82694504,17.9993 7.34344504,18.4368 C7.16694504,18.5963 6.99044504,18.7558 6.81544504,18.9173 C6.69494504,19.0273 6.47494504,19.2288 6.15294504,19.2288 C5.99294504,19.2288 5.75844504,19.1783 5.54844504,18.9383 C5.35594504,18.7183 5.32744504,18.5018 5.33794504,18.3578 C5.36194504,18.0378 5.58094504,17.8508 5.68644504,17.7608 L6.03594504,18.0493 L5.72244504,17.7293 C5.98044504,17.4758 6.24594504,17.2223 6.50344504,16.9763 C7.06694504,16.4368 7.63644504,15.8923 8.15694504,15.3313 C8.86244504,14.5703 9.22494504,13.5843 9.23194504,12.4013 C9.23344504,12.2148 9.25094504,12.0288 9.26844504,11.8493 C9.27944504,11.7393 9.28994504,11.6373 9.29594504,11.5383 C9.35844504,10.5218 10.058945,9.8653 11.078945,9.8653 Z M11.451795,7.0989 C12.570295,7.0989 13.601295,7.4504 14.434795,8.1149 C15.346295,8.8424 15.959795,9.9139 16.208795,11.2134 C16.231295,11.2979 16.283795,11.5039 16.181295,11.7864 L16.162795,11.8314 C16.022295,12.1039 15.756795,12.2594 15.458795,12.2594 C15.135795,12.2594 14.837295,12.0829 14.696795,11.8104 C14.664795,11.7494 14.639295,11.6794 14.624795,11.6064 C14.348295,10.2669 13.798795,9.4764 12.842295,9.0429 C12.372295,8.8304 11.858795,8.7179 11.356295,8.7179 C10.228795,8.7179 9.21729504,9.2679 8.58029504,10.2259 C8.31329504,10.6279 8.23979504,11.0954 8.17779504,11.6204 C8.07429504,12.4974 7.88779504,13.6409 7.36129504,14.7149 C6.90029504,15.6554 6.28379504,16.3239 5.47729504,16.7599 C5.37079504,16.8174 5.25229504,16.8464 5.12429504,16.8464 L5.04079504,16.8419 C4.76829504,16.8204 4.52179504,16.6539 4.39379504,16.3974 C4.26829504,16.1484 4.28079504,15.8584 4.42829504,15.6229 C4.48929504,15.5224 4.57079504,15.4424 4.66779504,15.3854 C5.77229504,14.7214 6.14529504,13.6414 6.38379504,12.5729 C6.49729504,12.0634 6.56879504,11.5299 6.63829504,11.0134 C6.86629504,9.3104 7.84079504,8.1149 9.53329504,7.4594 C10.152295,7.2204 10.797295,7.0989 11.451795,7.0989 Z M5.21739504,10.80785 C5.57339504,10.80785 5.85489504,11.08185 5.96589504,11.33635 C6.05289504,11.53785 6.03739504,11.72485 6.02739504,11.84835 L6.02339504,11.90935 C5.98589504,13.20385 5.45039504,14.27885 4.43189504,15.11735 C4.31789504,15.21135 4.18039504,15.31535 3.98989504,15.35885 C3.91239504,15.37585 3.83139504,15.38535 3.75489504,15.38535 C3.42889504,15.38535 3.16089504,15.21735 3.05539504,14.94735 C2.95989504,14.70035 2.97689504,14.31835 3.19339504,14.06385 C3.29939504,13.93935 3.41289504,13.84535 3.51389504,13.76235 C3.57389504,13.71235 3.62839504,13.66835 3.67539504,13.61885 C4.17389504,13.09485 4.42689504,12.46635 4.42739504,11.75035 C4.42589504,11.65685 4.42489504,11.55335 4.45239504,11.44235 C4.52989504,11.12435 4.75289504,10.89885 5.06339504,10.82585 C5.11339504,10.81385 5.16489504,10.80785 5.21739504,10.80785 Z M11.370695,4.83975 L11.552695,4.84075 C13.703195,4.90525 15.645195,5.85125 17.029195,7.50525 C17.848195,8.48375 18.311695,9.66075 18.445695,11.10225 C18.533695,12.04475 18.456695,13.00625 18.211695,14.04425 C18.191195,14.12975 18.160195,14.21275 18.132195,14.28575 L18.107195,14.35175 C17.992695,14.70475 17.666695,14.95275 17.315695,14.95275 C17.105695,14.95275 16.908195,14.86125 16.772195,14.70125 C16.600695,14.50025 16.541195,14.21775 16.596695,13.86275 C16.620695,13.71125 16.647195,13.55925 16.673195,13.41025 L16.682195,13.35775 C16.750695,12.97075 16.820195,12.57775 16.841695,12.20575 C16.974695,9.93475 16.092195,8.26875 14.219195,7.25275 C13.219695,6.71075 12.205195,6.43575 11.203195,6.43575 C10.625195,6.43575 10.038195,6.52725 9.45819504,6.70825 C9.33769504,6.74625 9.20969504,6.81325 9.06169504,6.89025 C8.91769504,6.96625 8.77069504,7.04225 8.61769504,7.10225 C8.58069504,7.11675 8.54669504,7.12725 8.51119504,7.13525 C8.45119504,7.14925 8.39119504,7.15575 8.33169504,7.15575 C8.05169504,7.15575 7.79619504,7.01025 7.64919504,6.76575 C7.50069504,6.52025 7.49119504,6.22375 7.62319504,5.97175 C7.68269504,5.85925 7.76269504,5.76975 7.86119504,5.70375 C8.78419504,5.08975 9.80069504,4.83975 11.370695,4.83975 Z M11.536045,2.5 L11.561545,2.501 C14.209545,2.569 16.094045,3.1605 17.674045,4.417 C19.168545,5.6055 20.098045,7.2255 20.514545,9.37 C20.535045,9.4615 20.578045,9.6535 20.479545,9.8615 C20.460545,9.901 20.442045,9.9385 20.421545,9.9745 C20.283045,10.2295 20.012545,10.39 19.717045,10.39 C19.458045,10.39 19.216545,10.264 19.070545,10.052 C19.026545,9.988 18.993545,9.9195 18.971045,9.848 C18.910045,9.6515 18.864545,9.45 18.821045,9.255 C18.783045,9.083 18.747545,8.9215 18.701045,8.768 C18.335045,7.568 17.729545,6.5895 16.900045,5.8595 C16.098045,5.1525 15.052045,4.648 13.792545,4.359 C13.114545,4.2035 12.410045,4.1245 11.699545,4.1245 C11.455045,4.1245 11.205045,4.134 10.956545,4.1525 C10.863045,4.1615 10.802545,4.1665 10.742545,4.1665 C10.286045,4.1665 9.96404504,3.8615 9.94154504,3.408 C9.93254504,3.22 9.96754504,2.6035 10.806045,2.5565 L11.536045,2.5 Z M5.77074504,7.48245 C5.91274504,7.30845 6.30474504,6.93745 6.88074504,7.26795 C6.93824504,7.29945 6.98874504,7.33395 7.03424504,7.37295 C7.20374504,7.51895 7.44424504,7.84445 7.14624504,8.38245 C7.13574504,8.40145 7.12524504,8.41895 7.11624504,8.43895 C7.09874504,8.47945 7.08274504,8.51995 7.06074504,8.57545 C7.01174504,8.69995 6.95624504,8.83995 6.86474504,8.98595 L6.86474504,8.98595 L6.83424504,9.03045 C6.69974504,9.21695 6.49924504,9.33495 6.27074504,9.36145 C6.04424504,9.38845 5.81674504,9.31945 5.64624504,9.17295 C5.52374504,9.06795 5.43774504,8.92945 5.39674504,8.77195 C5.36824504,8.66345 5.36374504,8.55495 5.38324504,8.45195 C5.43024504,8.19195 5.51374504,7.85095 5.74274504,7.51995 L5.74274504,7.51995 Z" id="path-1"></path>
    </defs>
    <g id="⭕-Application-/-Security-Fingerprint" stroke="none" stroke-width="1" fill="none" fill-rule="evenodd">
        <mask id="mask-2" fill="white">
            <use xlink:href="#path-1"></use>
        </mask>
        <use id="🎨-Icon-Color" fill="#333333" xlink:href="#path-1"></use>
    </g>
</svg>