<?xml version="1.0" encoding="UTF-8"?>
<svg width="24px" height="24px" viewBox="0 0 24 24" version="1.1" xmlns="http://www.w3.org/2000/svg" xmlns:xlink="http://www.w3.org/1999/xlink">
    <title>⭕ Application / Self Collection</title>
    <defs>
        <path d="M16.1,9.1 C13.95,9.1 12.2,10.85 12.2,13 C12.2,15.15 13.95,16.9 16.1,16.9 C16.85,16.9 17.6,16.65 18.2,16.3 L20.45,18.55 C20.6,18.7 20.8,18.75 21,18.75 C21.2,18.75 21.4,18.7 21.55,18.55 C21.85,18.25 21.85,17.8 21.55,17.5 L19.3,15.25 C19.75,14.6 20,13.85 20,13 C20,10.85 18.25,9.1 16.1,9.1 L16.1,9.1 Z M13.75,13 C13.75,11.7 14.8,10.6 16.15,10.6 C17.5,10.6 18.5,11.7 18.5,13 C18.5,14.3 17.45,15.4 16.1,15.4 C14.75,15.4 13.75,14.3 13.75,13 L13.75,13 Z M22,5 L22,9 C22,9.55 21.55,10 21,10 C20.45,10 20,9.55 20,9 L20,6 L4,6 L4,17 L12,17 C12.55,17 13,17.45 13,18 L13,20 L15,20 C15.55,20 16,20.45 16,21 C16,21.55 15.55,22 15,22 L9,22 C8.45,22 8,21.55 8,21 C8,20.45 8.45,20 9,20 L11,20 L11,19 L3,19 C2.45,19 2,18.55 2,18 L2,5 C2,4.45 2.45,4 3,4 L21,4 C21.55,4 22,4.45 22,5 Z" id="path-1"></path>
    </defs>
    <g id="⭕-Application-/-Self-Collection" stroke="none" stroke-width="1" fill="none" fill-rule="evenodd">
        <mask id="mask-2" fill="white">
            <use xlink:href="#path-1"></use>
        </mask>
        <use id="🎨-Icon-Color" fill="#333333" xlink:href="#path-1"></use>
    </g>
</svg>