<?xml version="1.0" encoding="UTF-8"?>
<svg width="24px" height="24px" viewBox="0 0 24 24" version="1.1" xmlns="http://www.w3.org/2000/svg" xmlns:xlink="http://www.w3.org/1999/xlink">
    <title>⭕ Application / Service</title>
    <defs>
        <path d="M21,14 C21,12.8 20.4,11.75 19.5,11.15 L19.5,9.5 C19.5,5.35 16.15,2 12,2 C7.85,2 4.5,5.35 4.5,9.5 L4.5,11.15 C3.6,11.8 3,12.85 3,14 C3,15.95 4.55,17.5 6.5,17.5 L8.5,17.5 C9.05,17.5 9.5,17.05 9.5,16.5 L9.5,11.5 C9.5,10.95 9.05,10.5 8.5,10.5 L6.5,10.5 L6.5,9.5 C6.5,6.45 8.95,4 12,4 C15.05,4 17.5,6.45 17.5,9.5 L17.5,10.5 L15.5,10.5 C14.95,10.5 14.5,10.95 14.5,11.5 L14.5,16.5 C14.5,17.05 14.95,17.5 15.5,17.5 L17.3,17.5 C16.9,18.65 15.8,19.5 14.5,19.5 L13.1,19.5 C12.85,19.2 12.45,19 12,19 C11.15,19 10.5,19.65 10.5,20.5 C10.5,21.35 11.15,22 12,22 C12.45,22 12.85,21.8 13.1,21.5 L15,21.5 L15,21.45 C17.4,21.2 19.3,19.25 19.5,16.85 C20.4,16.25 21,15.2 21,14 L21,14 Z M7.5,12.5 L7.5,15.5 L6.5,15.5 C5.65,15.5 5,14.85 5,14 C5,13.15 5.65,12.5 6.5,12.5 L7.5,12.5 Z M16.5,12.5 L17.5,12.5 C18.35,12.5 19,13.15 19,14 C19,14.85 18.35,15.5 17.5,15.5 L16.5,15.5 L16.5,12.5 Z" id="path-1"></path>
    </defs>
    <g id="⭕-Application-/-Service" stroke="none" stroke-width="1" fill="none" fill-rule="evenodd">
        <mask id="mask-2" fill="white">
            <use xlink:href="#path-1"></use>
        </mask>
        <use id="🎨-Icon-Color" fill="#333333" xlink:href="#path-1"></use>
    </g>
</svg>