<?xml version="1.0" encoding="UTF-8"?>
<svg width="24px" height="24px" viewBox="0 0 24 24" version="1.1" xmlns="http://www.w3.org/2000/svg" xmlns:xlink="http://www.w3.org/1999/xlink">
    <title>⭕ Application / Services</title>
    <defs>
        <path d="M5,14 C4.45,14 4,14.45 4,15 L4,21 C4,21.55 4.45,22 5,22 C5.55,22 6,21.55 6,21 L14.4,21 C14.6,21 14.8,20.9 14.95,20.8 L19.45,16.3 L19.5,16.25 C19.85,15.85 20.05,15.3 20.05,14.8 C20.05,13.55 19.05,12.55 17.8,12.55 C17.2,12.55 16.65,12.75 16.25,13.2 L12.8,16.5 L11.6,16.5 C11.85,16.15 12,15.7 12,15.25 C12,14 11,13 9.75,13 C9.15,13 8.6,13.2 8.2,13.6 L6,15.8 L6,15 C6,14.45 5.55,14 5,14 Z M9.25,14.65 C9.35,14.55 9.55,14.5 9.75,14.5 C10.15,14.5 10.5,14.85 10.5,15.25 C10.5,15.45 10.45,15.6 10.35,15.7 L9.35,16.7 C9.15,16.9 9.05,17.25 9.2,17.5 C9.3,17.8 9.6,17.95 9.9,17.95 L13.15,17.95 C13.35,17.95 13.55,17.85 13.7,17.75 L17.3,14.15 C17.45,14 17.6,13.95 17.8,13.95 C18.2,13.95 18.55,14.3 18.55,14.7 C18.55,14.9 18.5,15.05 18.35,15.2 L14.05,19.5 L6,19.5 L6,17.95 L9.25,14.65 L9.25,14.65 Z M16.45,5.05 L15.5,3.5 C15.45,3.4 15.3,3.35 15.2,3.4 L14.05,3.85 C13.8,3.65 13.55,3.5 13.25,3.4 L13.05,2.2 C13.05,2.1 12.95,2 12.8,2 L10.95,2 C10.85,2 10.75,2.1 10.7,2.2 L10.5,3.4 C10.2,3.5 9.95,3.65 9.7,3.85 L8.55,3.4 C8.45,3.35 8.3,3.4 8.25,3.5 L7.3,5.05 C7.25,5.15 7.25,5.25 7.35,5.35 L8.35,6.1 C8.35,6.25 8.3,6.4 8.3,6.55 C8.3,6.7 8.3,6.85 8.35,7 L7.35,7.75 C7.25,7.8 7.25,7.95 7.3,8.05 L8.25,9.6 C8.3,9.7 8.45,9.75 8.55,9.7 L9.7,9.25 C9.95,9.45 10.2,9.6 10.5,9.7 L10.7,10.9 C10.7,11 10.8,11.1 10.95,11.1 L12.8,11.1 C12.9,11.1 13,11 13.05,10.9 L13.25,9.7 C13.55,9.6 13.8,9.45 14.05,9.25 L15.2,9.7 C15.3,9.75 15.45,9.7 15.5,9.6 L16.45,8.05 C16.5,7.95 16.5,7.85 16.4,7.75 L15.4,7 C15.4,6.85 15.45,6.7 15.45,6.55 C15.45,6.4 15.45,6.25 15.4,6.1 L16.4,5.35 C16.5,5.25 16.55,5.15 16.45,5.05 Z M12,8.05 C11.1,8.05 10.4,7.35 10.4,6.5 C10.4,5.65 11.15,4.9 12,4.9 C12.9,4.9 13.6,5.6 13.6,6.5 C13.6,7.4 12.9,8.05 12,8.05 Z" id="path-1"></path>
    </defs>
    <g id="⭕-Application-/-Services" stroke="none" stroke-width="1" fill="none" fill-rule="evenodd">
        <mask id="mask-2" fill="white">
            <use xlink:href="#path-1"></use>
        </mask>
        <use id="🎨-Icon-Color" fill="#333333" xlink:href="#path-1"></use>
    </g>
</svg>