<?xml version="1.0" encoding="UTF-8"?>
<svg width="24px" height="24px" viewBox="0 0 24 24" version="1.1" xmlns="http://www.w3.org/2000/svg" xmlns:xlink="http://www.w3.org/1999/xlink">
    <title>⭕ Application / Social-Twitter</title>
    <defs>
        <path d="M16.05,10.24 C16.42,10.2 16.77,10.1 17.1,9.955 C16.85,10.325 16.55,10.645 16.19,10.905 C16.305,13.455 14.39,16.305 11.02,16.305 C9.995,16.305 9.04,16.005 8.235,15.495 C9.2,15.605 10.16,15.345 10.925,14.745 C10.125,14.725 9.46,14.195 9.225,13.48 C9.51,13.53 9.795,13.515 10.05,13.445 C9.175,13.27 8.57,12.485 8.59,11.645 C8.84,11.78 9.115,11.86 9.415,11.87 C8.605,11.33 8.375,10.26 8.85,9.44 C9.75,10.54 11.085,11.265 12.6,11.34 C12.335,10.205 13.2,9.11 14.37,9.11 C14.89,9.11 15.37,9.335 15.695,9.69 C16.105,9.605 16.495,9.455 16.845,9.24 C16.71,9.67 16.42,10.03 16.045,10.25 L16.05,10.24 Z M22.25,12.25 C22.25,17.765 17.765,22.25 12.25,22.25 C6.735,22.25 2.25,17.765 2.25,12.25 C2.25,6.735 6.735,2.25 12.25,2.25 C17.765,2.25 22.25,6.735 22.25,12.25 Z M20.25,12.25 C20.25,7.84 16.66,4.25 12.25,4.25 C7.84,4.25 4.25,7.84 4.25,12.25 C4.25,16.66 7.84,20.25 12.25,20.25 C16.66,20.25 20.25,16.66 20.25,12.25 Z" id="path-1"></path>
    </defs>
    <g id="⭕-Application-/-Social-Twitter" stroke="none" stroke-width="1" fill="none" fill-rule="evenodd">
        <mask id="mask-2" fill="white">
            <use xlink:href="#path-1"></use>
        </mask>
        <use id="🎨-Icon-Color" fill="#333333" xlink:href="#path-1"></use>
    </g>
</svg>