<?xml version="1.0" encoding="UTF-8"?>
<svg width="24px" height="24px" viewBox="0 0 24 24" version="1.1" xmlns="http://www.w3.org/2000/svg" xmlns:xlink="http://www.w3.org/1999/xlink">
    <title>⭕ Application / Social-LinkedIn</title>
    <defs>
        <path d="M8.43,10.53 L10.15,10.53 L10.15,16.09 L8.43,16.09 L8.43,10.53 Z M9.27,7.75 C8.705,7.75 8.25,8.21 8.25,8.775 C8.25,9.34 8.7,9.8 9.27,9.8 C9.83,9.8 10.285,9.34 10.285,8.775 C10.285,8.21 9.835,7.75 9.27,7.75 Z M14.57,10.36 C13.395,10.36 12.9,11.28 12.9,11.28 L12.9,10.53 L11.25,10.53 L11.25,16.09 L12.9,16.09 L12.9,13.17 C12.9,12.39 13.26,11.92 13.95,11.92 C14.58,11.92 14.885,12.37 14.885,13.17 L14.885,16.09 L16.6,16.09 L16.6,12.57 C16.6,11.08 15.75,10.36 14.575,10.36 L14.57,10.36 Z M22.255,12.225 C22.255,17.74 17.77,22.225 12.255,22.225 C6.74,22.225 2.255,17.74 2.255,12.225 C2.255,6.71 6.745,2.225 12.255,2.225 C17.765,2.225 22.255,6.71 22.255,12.225 L22.255,12.225 Z M20.255,12.225 C20.255,7.815 16.67,4.225 12.255,4.225 C7.84,4.225 4.255,7.815 4.255,12.225 C4.255,16.635 7.845,20.225 12.255,20.225 C16.665,20.225 20.255,16.635 20.255,12.225 L20.255,12.225 Z" id="path-1"></path>
    </defs>
    <g id="⭕-Application-/-Social-LinkedIn" stroke="none" stroke-width="1" fill="none" fill-rule="evenodd">
        <mask id="mask-2" fill="white">
            <use xlink:href="#path-1"></use>
        </mask>
        <use id="🎨-Icon-Color" fill="#212121" xlink:href="#path-1"></use>
    </g>
</svg>