<?xml version="1.0" encoding="UTF-8"?>
<svg width="24px" height="24px" viewBox="0 0 24 24" version="1.1" xmlns="http://www.w3.org/2000/svg" xmlns:xlink="http://www.w3.org/1999/xlink">
    <title>⭕ Application / StartUp</title>
    <defs>
        <path d="M11.95,22 L12,22 C17.5,22 22,17.5 22,12 C22,6.5 17.5,2 12,2 C6.5,2 2,6.5 2,12 C2,17.5 6.45,21.95 11.95,22 Z M12,4 C16.4,4 20,7.6 20,12 C20,16.1 16.9,19.45 12.95,19.95 L12.95,11.6 L14.6,13.3 C14.8,13.5 15.05,13.6 15.3,13.6 C15.55,13.6 15.8,13.5 16,13.3 C16.4,12.9 16.4,12.3 16,11.9 L12.7,8.5 C12.5,8.35 12.3,8.2 12,8.2 C11.7,8.2 11.45,8.3 11.3,8.5 L7.9,11.9 C7.5,12.3 7.5,12.9 7.9,13.3 C8.3,13.7 8.9,13.7 9.3,13.3 L10.95,11.65 L10.95,19.95 C7.05,19.4 4,16.05 4,12 C4,7.6 7.6,4 12,4 Z" id="path-1"></path>
    </defs>
    <g id="⭕-Application-/-StartUp" stroke="none" stroke-width="1" fill="none" fill-rule="evenodd">
        <mask id="mask-2" fill="white">
            <use xlink:href="#path-1"></use>
        </mask>
        <use id="🎨-Icon-Color" fill="#333333" xlink:href="#path-1"></use>
    </g>
</svg>