<?xml version="1.0" encoding="UTF-8"?>
<svg width="24px" height="24px" viewBox="0 0 24 24" version="1.1" xmlns="http://www.w3.org/2000/svg" xmlns:xlink="http://www.w3.org/1999/xlink">
    <title>⭕ Application / Success List</title>
    <defs>
        <path d="M20,3 L20,13 C20,13.55 19.55,14 19,14 C18.45,14 18,13.55 18,13 L18,4 L16,4 L16,5 C16,5.55 15.55,6 15,6 L9,6 C8.45,6 8,5.55 8,5 L8,4 L6,4 L6,20 L9,20 C9.55,20 10,20.45 10,21 C10,21.55 9.55,22 9,22 L5,22 C4.45,22 4,21.55 4,21 L4,3 C4,2.45 4.45,2 5,2 L19,2 C19.55,2 20,2.45 20,3 Z M9,10 L15,10 C15.55,10 16,9.55 16,9 C16,8.45 15.55,8 15,8 L9,8 C8.45,8 8,8.45 8,9 C8,9.55 8.45,10 9,10 Z M9,13.5 L15,13.5 C15.55,13.5 16,13.05 16,12.5 C16,11.95 15.55,11.5 15,11.5 L9,11.5 C8.45,11.5 8,11.95 8,12.5 C8,13.05 8.45,13.5 9,13.5 Z M18.3,16.3 L15,19.6 L13.7,18.3 C13.3,17.9 12.7,17.9 12.3,18.3 C11.9,18.7 11.9,19.3 12.3,19.7 L14.3,21.7 C14.5,21.9 14.75,22 15,22 C15.25,22 15.5,21.9 15.7,21.7 L19.7,17.7 C20.1,17.3 20.1,16.7 19.7,16.3 C19.3,15.9 18.7,15.9 18.3,16.3 L18.3,16.3 Z" id="path-1"></path>
    </defs>
    <g id="⭕-Application-/-Success-List" stroke="none" stroke-width="1" fill="none" fill-rule="evenodd">
        <mask id="mask-2" fill="white">
            <use xlink:href="#path-1"></use>
        </mask>
        <use id="🎨-Icon-Color" fill="#333333" xlink:href="#path-1"></use>
    </g>
</svg>