<?xml version="1.0" encoding="UTF-8"?>
<svg width="24px" height="24px" viewBox="0 0 24 24" version="1.1" xmlns="http://www.w3.org/2000/svg" xmlns:xlink="http://www.w3.org/1999/xlink">
    <title>⭕ Application / System</title>
    <defs>
        <path d="M8,20 L6,20 L6,16 L12,16 C12.55,16 13,15.55 13,15 C13,14.45 12.55,14 12,14 L6,14 L6,10 L19,10 C19.55,10 20,9.55 20,9 L20,3 C20,2.45 19.55,2 19,2 L5,2 C4.45,2 4,2.45 4,3 L4,21 C4,21.55 4.45,22 5,22 L8,22 C8.55,22 9,21.55 9,21 C9,20.45 8.55,20 8,20 Z M18,4 L18,8 L6,8 L6,4 L18,4 Z M20.55,14.05 C20.65,14.35 20.75,14.7 20.75,15.1 C20.75,16.65 19.5,17.9 17.95,17.9 C17.75,17.9 17.5,17.85 17.3,17.85 L13.8,21.35 C13.5,21.65 13.1,21.8 12.75,21.8 C12.35,21.8 12,21.65 11.7,21.35 C11.1,20.75 11.1,19.8 11.7,19.25 L15.2,15.75 C15.15,15.55 15.15,15.35 15.15,15.1 C15.15,13.55 16.4,12.3 17.95,12.3 C18.3,12.3 18.65,12.35 19,12.5 L17.75,13.75 C17.3,14.2 17.3,14.9 17.75,15.35 C17.95,15.55 18.25,15.7 18.55,15.7 C18.85,15.7 19.15,15.6 19.35,15.35 L20.55,14.05 L20.55,14.05 Z" id="path-1"></path>
    </defs>
    <g id="⭕-Application-/-System" stroke="none" stroke-width="1" fill="none" fill-rule="evenodd">
        <mask id="mask-2" fill="white">
            <use xlink:href="#path-1"></use>
        </mask>
        <use id="🎨-Icon-Color" fill="#333333" xlink:href="#path-1"></use>
    </g>
</svg>