<?xml version="1.0" encoding="UTF-8"?>
<svg width="24px" height="24px" viewBox="0 0 24 24" version="1.1" xmlns="http://www.w3.org/2000/svg" xmlns:xlink="http://www.w3.org/1999/xlink">
    <title>⭕ Application / Team Viewer</title>
    <defs>
        <path d="M7,11.45 L8.95,9.5 C9.25,9.2 9.7,9.2 10,9.5 C10.3,9.8 10.3,10.25 10,10.55 L9.3,11.25 L14.65,11.25 L13.95,10.55 C13.65,10.25 13.65,9.8 13.95,9.5 C14.25,9.2 14.7,9.2 15,9.5 L16.95,11.45 C17.1,11.6 17.2,11.8 17.2,12 C17.2,12.2 17.1,12.4 17,12.55 L15,14.55 C14.85,14.7 14.65,14.75 14.45,14.75 C14.25,14.75 14.05,14.7 13.9,14.55 C13.6,14.25 13.6,13.8 13.9,13.5 L14.6,12.8 L9.3,12.8 L10,13.5 C10.3,13.8 10.3,14.25 10,14.55 C9.85,14.7 9.65,14.75 9.45,14.75 C9.25,14.75 9.05,14.7 8.9,14.55 L6.9,12.55 C6.75,12.4 6.7,12.2 6.7,12 C6.75,11.75 6.85,11.55 7,11.45 L7,11.45 Z M3,20 L3,4 C3,3.45 3.45,3 4,3 L20,3 C20.55,3 21,3.45 21,4 L21,20 C21,20.55 20.55,21 20,21 L4,21 C3.45,21 3,20.55 3,20 Z M5,12 C5,15.85 8.15,19 12,19 C15.85,19 19,15.85 19,12 C19,8.15 15.85,5 12,5 C8.15,5 5,8.15 5,12 Z" id="path-1"></path>
    </defs>
    <g id="⭕-Application-/-Team-Viewer" stroke="none" stroke-width="1" fill="none" fill-rule="evenodd">
        <mask id="mask-2" fill="white">
            <use xlink:href="#path-1"></use>
        </mask>
        <use id="🎨-Icon-Color" fill="#333333" xlink:href="#path-1"></use>
    </g>
</svg>