<?xml version="1.0" encoding="UTF-8"?>
<svg width="24px" height="24px" viewBox="0 0 24 24" version="1.1" xmlns="http://www.w3.org/2000/svg" xmlns:xlink="http://www.w3.org/1999/xlink">
    <title>⭕ Application / Tickets</title>
    <defs>
        <path d="M2.3,14.7 L9.3,21.7 C9.5,21.9 9.75,22 10,22 C10.25,22 10.5,21.9 10.7,21.7 L19.7,12.7 C19.9,12.5 20,12.25 20,12 L20,5 C20,4.45 19.55,4 19,4 L12,4 C11.75,4 11.5,4.1 11.3,4.3 L2.3,13.3 C1.9,13.7 1.9,14.3 2.3,14.7 L2.3,14.7 Z M12.4,6 L18,6 L18,11.6 L10,19.6 L4.4,14 L12.4,6 Z M14,9 C14,8.45 14.45,8 15,8 C15.55,8 16,8.45 16,9 C16,9.55 15.55,10 15,10 C14.45,10 14,9.55 14,9 Z" id="path-1"></path>
    </defs>
    <g id="⭕-Application-/-Tickets" stroke="none" stroke-width="1" fill="none" fill-rule="evenodd">
        <mask id="mask-2" fill="white">
            <use xlink:href="#path-1"></use>
        </mask>
        <use id="🎨-Icon-Color" fill="#333333" xlink:href="#path-1"></use>
    </g>
</svg>