<?xml version="1.0" encoding="UTF-8"?>
<svg width="24px" height="24px" viewBox="0 0 24 24" version="1.1" xmlns="http://www.w3.org/2000/svg" xmlns:xlink="http://www.w3.org/1999/xlink">
    <title>⭕ Application / Time &amp; Expense</title>
    <defs>
        <path d="M8.5,9.75 C5.35,9.75 2.75,12.35 2.75,15.5 C2.75,18.65 5.35,21.25 8.5,21.25 C11.65,21.25 14.25,18.65 14.25,15.5 C14.25,12.35 11.65,9.75 8.5,9.75 Z M8.5,19.75 C6.15,19.75 4.25,17.85 4.25,15.5 C4.25,13.15 6.15,11.25 8.5,11.25 C10.85,11.25 12.75,13.15 12.75,15.5 C12.75,17.85 10.85,19.75 8.5,19.75 Z M10.55,16.45 C10.85,16.75 10.85,17.2 10.55,17.5 C10.4,17.65 10.2,17.7 10,17.7 C9.8,17.7 9.6,17.65 9.45,17.5 L7.95,16 C7.8,15.85 7.75,15.65 7.75,15.45 L7.75,13.45 C7.75,13.05 8.1,12.7 8.5,12.7 C8.9,12.7 9.25,13.05 9.25,13.45 L9.25,15.15 L10.55,16.45 Z M10,5 C10,4.45 10.45,4 11,4 L20.5,4 C21.05,4 21.5,4.45 21.5,5 C21.5,5.55 21.05,6 20.5,6 L11,6 C10.45,6 10,5.55 10,5 Z M21.5,8 C21.5,8.55 21.05,9 20.5,9 L11,9 C10.45,9 10,8.55 10,8 C10,7.45 10.45,7 11,7 L20.5,7 C21.05,7 21.5,7.45 21.5,8 Z M21.5,11 C21.5,11.55 21.05,12 20.5,12 L15,12 C14.45,12 14,11.55 14,11 C14,10.45 14.45,10 15,10 L20.5,10 C21.05,10 21.5,10.45 21.5,11 Z M21.5,14 C21.5,14.55 21.05,15 20.5,15 L16,15 C15.45,15 15,14.55 15,14 C15,13.45 15.45,13 16,13 L20.5,13 C21.05,13 21.5,13.45 21.5,14 Z M21.5,17 C21.5,17.55 21.05,18 20.5,18 L16,18 C15.45,18 15,17.55 15,17 C15,16.45 15.45,16 16,16 L20.5,16 C21.05,16 21.5,16.45 21.5,17 Z M21.5,20 C21.5,20.55 21.05,21 20.5,21 L15,21 C14.45,21 14,20.55 14,20 C14,19.45 14.45,19 15,19 L20.5,19 C21.05,19 21.5,19.45 21.5,20 Z" id="path-1"></path>
    </defs>
    <g id="⭕-Application-/-Time-&amp;-Expense" stroke="none" stroke-width="1" fill="none" fill-rule="evenodd">
        <mask id="mask-2" fill="white">
            <use xlink:href="#path-1"></use>
        </mask>
        <use id="🎨-Icon-Color" fill="#333333" xlink:href="#path-1"></use>
    </g>
</svg>