<?xml version="1.0" encoding="UTF-8"?>
<svg width="24px" height="24px" viewBox="0 0 24 24" version="1.1" xmlns="http://www.w3.org/2000/svg" xmlns:xlink="http://www.w3.org/1999/xlink">
    <title>⭕ Application / Time</title>
    <g id="⭕-Application-/-Time" stroke="none" stroke-width="1" fill="none" fill-rule="evenodd">
        <path d="M12,2 C17.5,2 22,6.5 22,12 C22,17.5 17.5,22 12,22 C6.5,22 2,17.5 2,12 C2,6.5 6.5,2 12,2 Z M12,4 C7.6,4 4,7.6 4,12 C4,16.4 7.6,20 12,20 C16.4,20 20,16.4 20,12 C20,7.6 16.4,4 12,4 Z M12.2396694,7 C12.9008264,7 13.4793388,7.63 13.4793388,8.35 L13.4793388,11.41 L15.6280992,13.75 C16.1239669,14.29 16.1239669,15.1 15.6280992,15.64 C15.3801653,15.91 15.0495868,16 14.7190083,16 C14.3884298,16 14.0578512,15.91 13.8099174,15.64 L11.3305785,12.94 C11.0826446,12.67 11,12.31 11,11.95 L11,8.35 C11,7.63 11.5785124,7 12.2396694,7 Z" id="🎨-Icon-Color" fill="#333333"></path>
    </g>
</svg>