<?xml version="1.0" encoding="UTF-8"?>
<svg width="24px" height="24px" viewBox="0 0 24 24" version="1.1" xmlns="http://www.w3.org/2000/svg" xmlns:xlink="http://www.w3.org/1999/xlink">
    <title>⭕ Application / Tools</title>
    <defs>
        <path d="M20.05,5.55 C19.9,5.6 19.8,5.7 19.7,5.8 L17.35,8 C16.9,8.45 16.25,8.45 15.85,8.05 C15.7,7.9 15.6,7.65 15.6,7.4 C15.6,7.1 15.7,6.85 15.95,6.6 L18.25,4.25 C18.5,4 18.6,3.7 18.55,3.4 C18.5,3.1 18.3,2.8 18,2.65 L17.95,2.65 C17.05,2.2 16.05,2 15,2 C11.15,2 8,5.1 8,8.95 C8,9.6 8.1,10.25 8.25,10.85 L3.05,16.05 C2.35,16.7 2,17.6 2,18.5 C2,19.4 2.35,20.3 3.05,20.95 C3.75,21.65 4.65,21.95 5.5,21.95 C6.35,21.95 7.3,21.6 7.95,20.95 L13.3,15.65 C13.85,15.8 14.4,15.85 15,15.85 C18.85,15.85 22,12.75 22,8.9 C22,7.9 21.8,6.9 21.35,5.95 C21.1,5.55 20.55,5.3 20.05,5.55 L20.05,5.55 Z M15,13.9 C14.45,13.9 13.9,13.8 13.35,13.6 C13.05,13.5 12.7,13.55 12.45,13.75 L12.3,13.9 L6.55,19.55 C5.95,20.15 5,20.15 4.4,19.55 C4.15,19.3 4,18.9 4,18.5 C4,18.1 4.15,17.75 4.45,17.45 L10.05,11.9 C10.2,11.8 10.3,11.65 10.35,11.5 C10.45,11.25 10.45,10.95 10.35,10.7 C10.1,10.1 10,9.5 10,8.9 C10,6.2 12.25,4 15,4 C15.25,4 15.45,4 15.7,4.05 L14.55,5.2 C13.95,5.8 13.6,6.6 13.6,7.4 C13.6,8.2 13.9,8.95 14.45,9.5 C15.6,10.65 17.55,10.6 18.75,9.45 L19.95,8.3 C20,8.5 20,8.75 20,8.95 C20,11.7 17.75,13.9 15,13.9 L15,13.9 Z" id="path-1"></path>
    </defs>
    <g id="⭕-Application-/-Tools" stroke="none" stroke-width="1" fill="none" fill-rule="evenodd">
        <mask id="mask-2" fill="white">
            <use xlink:href="#path-1"></use>
        </mask>
        <use id="🎨-Icon-Color" fill="#333333" xlink:href="#path-1"></use>
    </g>
</svg>