<?xml version="1.0" encoding="UTF-8"?>
<svg width="24px" height="24px" viewBox="0 0 24 24" version="1.1" xmlns="http://www.w3.org/2000/svg" xmlns:xlink="http://www.w3.org/1999/xlink">
    <title>⭕ Application / University</title>
    <defs>
        <path d="M21.95,10.25 C21.95,10.2 21.95,10.15 22,10.1 L22,10 L22,9.9 L22,9.8 L22,9.7 C22,9.65 21.95,9.6 21.95,9.6 L21.95,9.55 C21.9,9.5 21.9,9.45 21.85,9.4 C21.75,9.3 21.65,9.2 21.55,9.15 L12.55,4.15 C12.25,4 11.9,4 11.6,4.15 L2.6,9.15 C2.5,9.2 2.4,9.3 2.3,9.4 C2.25,9.45 2.2,9.5 2.2,9.55 L2.2,9.6 C2.2,9.65 2.15,9.7 2.15,9.7 L2.15,9.8 L2.15,9.9 L2.15,10 L2.15,10.1 L2.15,10.2 L2.15,10.3 C2.15,10.35 2.2,10.4 2.2,10.45 C2.2,10.45 2.2,10.45 2.2,10.5 C2.25,10.6 2.35,10.7 2.45,10.8 C2.5,10.85 2.55,10.9 2.6,10.9 L5.05,12.1 L5.05,16 C5.05,16.4 5.25,16.75 5.6,16.9 L11.6,19.9 C11.75,19.95 11.9,20 12.05,20 C12.2,20 12.35,19.95 12.5,19.9 L18.5,16.9 C18.85,16.75 19.05,16.4 19.05,16 L19.05,12.1 L20.05,11.6 L20.05,16 C20.05,16.55 20.5,17 21.05,17 C21.6,17 22.05,16.55 22.05,16 L22.05,10.5 C22,10.4 22,10.35 21.95,10.25 L21.95,10.25 Z M12,6.15 L18.85,9.95 L12,13.4 L5.15,9.95 L12,6.15 Z M17,15.4 L12,17.9 L7,15.4 L7,13.15 L11.55,15.45 C11.7,15.5 11.85,15.55 12,15.55 C12.15,15.55 12.3,15.5 12.45,15.45 L17,13.15 L17,15.4 L17,15.4 Z" id="path-1"></path>
    </defs>
    <g id="⭕-Application-/-University" stroke="none" stroke-width="1" fill="none" fill-rule="evenodd">
        <mask id="mask-2" fill="white">
            <use xlink:href="#path-1"></use>
        </mask>
        <use id="🎨-Icon-Color" fill="#333333" xlink:href="#path-1"></use>
    </g>
</svg>