<?xml version="1.0" encoding="UTF-8"?>
<svg width="24px" height="24px" viewBox="0 0 24 24" version="1.1" xmlns="http://www.w3.org/2000/svg" xmlns:xlink="http://www.w3.org/1999/xlink">
    <title>⭕ Application / vPro Plugin</title>
    <defs>
        <path d="M15.75,12.1 L15.75,12.55 L15.65,12.55 L15.65,12.1 L15.5,12.1 L15.5,12 L15.9,12 L15.9,12.1 L15.75,12.1 Z M16.45,12.55 L16.45,12.2 L16.45,12.2 L16.3,12.55 L16.2,12.55 L16.05,12.2 L16.05,12.2 L16.05,12.55 L15.95,12.55 L15.95,12 L16.1,12 L16.25,12.35 L16.4,12 L16.55,12 L16.55,12.55 L16.45,12.55 Z M8.25,12.85 L7.7,12.85 C7.65,12.85 7.65,12.85 7.65,12.9 C7.65,12.9 7.6,12.95 7.6,13 L7.05,15.65 C7.05,15.75 7,15.8 6.95,15.8 C6.9,15.8 6.85,15.75 6.85,15.65 L6.3,13 C6.3,12.9 6.25,12.85 6.2,12.85 L5.65,12.85 C5.6,12.85 5.6,12.85 5.6,12.9 L5.6,12.95 L5.6,13 L6.3,15.9 C6.4,16.3 6.6,16.5 7,16.5 C7.35,16.5 7.6,16.3 7.7,15.9 L8.4,13 C8.4,13 8.4,13 8.4,12.95 C8.4,12.9 8.4,12.9 8.35,12.9 C8.3,12.85 8.25,12.85 8.25,12.85 Z M11.6,13.15 C11.6,12.65 11.45,12.25 11.15,12 C10.85,11.75 10.45,11.65 10,11.65 C9.6,11.65 9.2,11.7 8.9,11.75 C8.85,11.75 8.8,11.8 8.75,11.8 C8.7,11.85 8.7,11.85 8.7,11.95 L8.7,16.35 C8.7,16.4 8.7,16.4 8.75,16.45 C8.75,16.5 8.8,16.5 8.8,16.5 L9.35,16.5 C9.4,16.5 9.4,16.5 9.4,16.45 C9.4,16.4 9.45,16.4 9.45,16.35 L9.45,14.7 L9.55,14.7 L9.75,14.7 L9.95,14.7 C10.4,14.7 10.8,14.6 11.1,14.35 C11.4,14.1 11.55,13.75 11.55,13.2 L11.55,13.2 L11.55,13.15 L11.6,13.15 Z M10.85,13.2 C10.85,13.4 10.8,13.5 10.75,13.65 C10.7,13.75 10.6,13.85 10.5,13.9 C10.4,13.95 10.2,14 10,14 L9.5,14 L9.5,12.5 C9.65,12.5 9.8,12.45 10,12.45 C10.3,12.45 10.5,12.5 10.6,12.6 C10.75,12.7 10.8,12.9 10.8,13.15 L10.8,13.2 L10.85,13.2 Z M13.55,12.8 L13.3,12.8 C13.1,12.8 12.9,12.8 12.7,12.85 C12.5,12.9 12.3,12.95 12.1,13 C12.05,13 12,13.05 12,13.15 L12,16.35 C12,16.4 12,16.4 12.05,16.45 C12.05,16.5 12.1,16.5 12.15,16.5 L12.65,16.5 C12.7,16.5 12.7,16.5 12.75,16.45 C12.75,16.45 12.8,16.4 12.8,16.35 L12.8,13.65 C13,13.6 13.15,13.6 13.35,13.6 L13.5,13.6 L13.6,13.6 C13.65,13.6 13.7,13.55 13.7,13.45 L13.7,13 C13.65,12.85 13.65,12.85 13.55,12.8 Z M15.85,13 C15.65,12.85 15.4,12.8 15.15,12.8 C14.9,12.8 14.65,12.85 14.45,13 C14.25,13.15 14.1,13.3 14,13.55 C13.9,13.8 13.85,14.05 13.85,14.35 L13.85,14.85 C13.85,15.15 13.9,15.45 14,15.65 C14.1,15.9 14.25,16.1 14.45,16.2 C14.65,16.35 14.9,16.4 15.15,16.4 C15.4,16.4 15.65,16.35 15.85,16.2 C16.05,16.05 16.2,15.9 16.3,15.65 C16.4,15.4 16.45,15.15 16.45,14.85 L16.45,14.35 C16.45,14.05 16.4,13.75 16.3,13.55 C16.2,13.35 16.05,13.15 15.85,13 Z M15.7,14.9 C15.7,15.15 15.65,15.4 15.55,15.55 C15.45,15.7 15.3,15.8 15.1,15.8 C14.9,15.8 14.75,15.75 14.65,15.55 C14.55,15.4 14.5,15.2 14.5,14.9 L14.5,14.4 C14.5,14.15 14.55,13.9 14.65,13.75 C14.75,13.6 14.9,13.5 15.1,13.5 C15.3,13.5 15.45,13.55 15.55,13.75 C15.65,13.9 15.7,14.1 15.7,14.4 L15.7,14.9 Z M19,2 L3,2 C2.45,2 2,2.45 2,3 L2,19 C2,19.55 2.45,20 3,20 L19,20 C19.55,20 20,19.55 20,19 L20,3 C20,2.45 19.55,2 19,2 Z M18,4 L18,6 L13.6,6 L11.6,8 L4,8 L4,4 L18,4 Z M4,18 L4,10 L12.4,10 L14.4,8 L18,8 L18,18 L4,18 Z" id="path-1"></path>
    </defs>
    <g id="⭕-Application-/-vPro-Plugin" stroke="none" stroke-width="1" fill="none" fill-rule="evenodd">
        <mask id="mask-2" fill="white">
            <use xlink:href="#path-1"></use>
        </mask>
        <use id="🎨-Icon-Color" fill="#333333" xlink:href="#path-1"></use>
    </g>
</svg>