<?xml version="1.0" encoding="UTF-8"?>
<svg width="24px" height="24px" viewBox="0 0 24 24" version="1.1" xmlns="http://www.w3.org/2000/svg" xmlns:xlink="http://www.w3.org/1999/xlink">
    <title>⭕ Application / Web Proxy</title>
    <defs>
        <path d="M12,2 C6.5,2 2,6.5 2,12 C2,17.5 6.45,22 12,22 C17.55,22 22,17.5 22,12 C22,6.5 17.5,2 12,2 Z M18.9,8 L15.95,8 C15.65,6.75 15.15,5.55 14.55,4.45 C16.45,5.05 17.95,6.35 18.9,8 Z M12,4.05 C12.85,5.25 13.5,6.6 13.9,8 L10.1,8 C10.5,6.55 11.15,5.25 12,4.05 L12,4.05 Z M4.25,14 C4.1,13.35 4,12.7 4,12 C4,11.3 4.1,10.65 4.25,10 L7.65,10 C7.55,10.65 7.5,11.3 7.5,12 C7.5,12.7 7.55,13.35 7.65,14 L4.25,14 Z M5.1,16 L8.05,16 C8.35,17.25 8.85,18.45 9.45,19.55 C7.55,18.95 6.05,17.65 5.1,16 L5.1,16 Z M8.05,8 L5.1,8 C6.05,6.35 7.6,5.05 9.45,4.45 C8.8,5.55 8.35,6.75 8.05,8 L8.05,8 Z M12,19.95 C11.15,18.75 10.5,17.4 10.1,16 L13.9,16 C13.5,17.45 12.85,18.75 12,19.95 L12,19.95 Z M14.35,14 L9.65,14 C9.55,13.35 9.5,12.7 9.5,12 C9.5,11.3 9.55,10.65 9.65,10 L14.35,10 C14.45,10.65 14.5,11.3 14.5,12 C14.5,12.7 14.45,13.35 14.35,14 L14.35,14 Z M14.6,19.55 C15.2,18.45 15.65,17.25 16,16 L18.95,16 C17.95,17.65 16.45,18.95 14.6,19.55 Z M20,12 C20,12.7 19.9,13.35 19.75,14 L16.35,14 C16.45,13.35 16.5,12.7 16.5,12 C16.5,11.3 16.45,10.65 16.35,10 L19.75,10 C19.9,10.65 20,11.3 20,12 Z" id="path-1"></path>
    </defs>
    <g id="⭕-Application-/-Web-Proxy" stroke="none" stroke-width="1" fill="none" fill-rule="evenodd">
        <mask id="mask-2" fill="white">
            <use xlink:href="#path-1"></use>
        </mask>
        <use id="🎨-Icon-Color" fill="#333333" xlink:href="#path-1"></use>
    </g>
</svg>