<?xml version="1.0" encoding="UTF-8"?>
<svg width="24px" height="24px" viewBox="0 0 24 24" version="1.1" xmlns="http://www.w3.org/2000/svg" xmlns:xlink="http://www.w3.org/1999/xlink">
    <title>⭕ Application / Wizard</title>
    <defs>
        <path d="M12.15,4 C12.35,4.1 12.5,4.3 12.5,4.5 C12.5,4.7 12.35,4.9 12.15,5 C11.4,5.2 10.7,5.9 10.5,6.65 C10.45,6.85 10.25,7 10,7 C9.75,7 9.6,6.85 9.5,6.65 C9.3,5.9 8.6,5.2 7.85,5 C7.65,4.9 7.5,4.7 7.5,4.5 C7.5,4.3 7.65,4.1 7.85,4 C8.6,3.8 9.3,3.1 9.5,2.35 C9.6,2.15 9.8,2 10,2 C10.2,2 10.4,2.15 10.5,2.35 C10.7,3.15 11.35,3.8 12.15,4 Z M19.5,4.85 C19.4,4.65 19.2,4.5 19,4.5 C18.8,4.5 18.6,4.65 18.5,4.85 C18.35,5.4 17.9,5.85 17.35,6 C17.15,6.05 17,6.25 17,6.5 C17,6.75 17.15,6.9 17.35,7 C17.9,7.15 18.35,7.6 18.5,8.15 C18.55,8.35 18.75,8.5 19,8.5 C19.25,8.5 19.4,8.35 19.5,8.15 C19.65,7.6 20.1,7.15 20.65,7 C20.85,6.95 21,6.75 21,6.5 C21,6.25 20.85,6.1 20.65,6 C20.1,5.85 19.65,5.4 19.5,4.85 Z M21.65,15.5 C20.65,15.2 19.8,14.35 19.5,13.35 C19.45,13.15 19.25,13 19,13 C18.75,13 18.6,13.15 18.5,13.35 C18.2,14.35 17.35,15.2 16.35,15.5 C16.15,15.55 16,15.75 16,16 C16,16.25 16.15,16.4 16.35,16.5 C17.35,16.8 18.2,17.65 18.5,18.65 C18.55,18.85 18.75,19 19,19 C19.25,19 19.4,18.85 19.5,18.65 C19.8,17.65 20.65,16.8 21.65,16.5 C21.85,16.45 22,16.25 22,16 C22,15.75 21.85,15.6 21.65,15.5 Z M5.3,21.7 L2.3,18.7 C1.9,18.3 1.9,17.7 2.3,17.3 L12.3,7.3 C12.7,6.9 13.3,6.9 13.7,7.3 L16.7,10.3 C17.1,10.7 17.1,11.3 16.7,11.7 L6.7,21.7 C6.5,21.9 6.25,22 6,22 C5.75,22 5.5,21.9 5.3,21.7 L5.3,21.7 Z M10.4,12 L12,13.6 L14.6,11 L13,9.4 L10.4,12 Z" id="path-1"></path>
    </defs>
    <g id="⭕-Application-/-Wizard" stroke="none" stroke-width="1" fill="none" fill-rule="evenodd">
        <mask id="mask-2" fill="white">
            <use xlink:href="#path-1"></use>
        </mask>
        <use id="🎨-Icon-Color" fill="#333333" xlink:href="#path-1"></use>
    </g>
</svg>