<?xml version="1.0" encoding="UTF-8"?>
<svg width="24px" height="24px" viewBox="0 0 24 24" version="1.1" xmlns="http://www.w3.org/2000/svg" xmlns:xlink="http://www.w3.org/1999/xlink">
    <title>⭕ Flag / Bounced</title>
    <defs>
        <path d="M21,4 L21,8 C21,8.55 20.55,9 20,9 C19.45,9 19,8.55 19,8 L19,6.2 C15.05,9.65 13,14.4 13,20 C13,20.55 12.55,21 12,21 C11.45,21 11,20.55 11,20 C11,16.7 8.3,14 5,14 C4.45,14 4,13.55 4,13 C4,12.45 4.45,12 5,12 C7.65,12 10,13.3 11.45,15.3 C12.3,11.25 14.3,7.75 17.3,5 L15.5,5 C14.95,5 14.5,4.55 14.5,4 C14.5,3.45 14.95,3 15.5,3 L20,3 C20.55,3 21,3.45 21,4 Z" id="path-1"></path>
    </defs>
    <g id="⭕-Flag-/-Bounced" stroke="none" stroke-width="1" fill="none" fill-rule="evenodd">
        <mask id="mask-2" fill="white">
            <use xlink:href="#path-1"></use>
        </mask>
        <use id="Color" fill="#212121" xlink:href="#path-1"></use>
    </g>
</svg>