<?xml version="1.0" encoding="UTF-8"?>
<svg width="24px" height="24px" viewBox="0 0 24 24" version="1.1" xmlns="http://www.w3.org/2000/svg" xmlns:xlink="http://www.w3.org/1999/xlink">
    <title>⭕ Flag / Daytime Patching</title>
    <defs>
        <path d="M18.75,16.25 C18.75,17.35 17.85,18.25 16.75,18.25 C15.65,18.25 14.75,17.35 14.75,16.25 C14.75,15.15 15.65,14.25 16.75,14.25 C17.85,14.25 18.75,15.15 18.75,16.25 Z M18.75,13.15 C18.45,13.45 18.45,13.9 18.75,14.2 C18.9,14.35 19.1,14.4 19.3,14.4 C19.5,14.4 19.7,14.35 19.85,14.2 L20.2,13.85 C20.5,13.55 20.5,13.1 20.2,12.8 C19.9,12.5 19.45,12.5 19.15,12.8 L18.75,13.15 L18.75,13.15 Z M14.35,19.7 L14.7,19.35 C15,19.05 15,18.6 14.7,18.3 C14.4,18 13.95,18 13.65,18.3 L13.3,18.65 C13,18.95 13,19.4 13.3,19.7 C13.45,19.85 13.65,19.9 13.85,19.9 C14.05,19.9 14.2,19.85 14.35,19.7 Z M18.75,19.35 L19.1,19.7 C19.25,19.85 19.45,19.9 19.65,19.9 C19.85,19.9 20.05,19.85 20.2,19.7 C20.5,19.4 20.5,18.95 20.2,18.65 L19.85,18.3 C19.55,18 19.1,18 18.8,18.3 C18.45,18.55 18.45,19.05 18.75,19.35 Z M14.75,13.15 L14.4,12.8 C14.1,12.5 13.65,12.5 13.35,12.8 C13.05,13.1 13.05,13.55 13.35,13.85 L13.7,14.2 C13.85,14.35 14.05,14.4 14.25,14.4 C14.45,14.4 14.65,14.35 14.8,14.2 C15.05,13.95 15.05,13.45 14.75,13.15 Z M13.5,17 C13.9,17 14.25,16.65 14.25,16.25 C14.25,15.85 13.9,15.5 13.5,15.5 L12.75,15.5 C12.35,15.5 12,15.85 12,16.25 C12,16.65 12.35,17 12.75,17 L13.5,17 Z M21.5,16.25 C21.5,15.85 21.15,15.5 20.75,15.5 L20,15.5 C19.6,15.5 19.25,15.85 19.25,16.25 C19.25,16.65 19.6,17 20,17 L20.75,17 C21.15,17 21.5,16.65 21.5,16.25 Z M16.75,18.75 C16.35,18.75 16,19.1 16,19.5 L16,20.25 C16,20.65 16.35,21 16.75,21 C17.15,21 17.5,20.65 17.5,20.25 L17.5,19.5 C17.5,19.1 17.15,18.75 16.75,18.75 Z M17.5,12.25 C17.5,11.85 17.15,11.5 16.75,11.5 C16.35,11.5 16,11.85 16,12.25 L16,13 C16,13.4 16.35,13.75 16.75,13.75 C17.15,13.75 17.5,13.4 17.5,13 L17.5,12.25 Z M4.5,21 L10,21 C10.55,21 11,20.55 11,20 C11,19.45 10.55,19 10,19 L5.5,19 L5.5,16 C7.15,16 8.5,14.65 8.5,13 C8.5,11.35 7.15,10 5.5,10 L5.5,7 L9.5,7 C10.05,7 10.5,6.55 10.5,6 L10.5,5 C10.5,4.5 11,4 11.5,4 C12,4 12.5,4.5 12.5,5 L12.5,6 C12.5,6.55 12.95,7 13.5,7 L17.5,7 L17.5,9 C17.5,9.55 17.95,10 18.5,10 C19.05,10 19.5,9.55 19.5,9 L19.5,6 C19.5,5.45 19.05,5 18.5,5 L14.5,5 C14.5,3.35 13.15,2 11.5,2 C9.85,2 8.5,3.35 8.5,5 L4.5,5 C3.95,5 3.5,5.45 3.5,6 L3.5,11 C3.5,11.55 3.95,12 4.5,12 L5.5,12 C6,12 6.5,12.5 6.5,13 C6.5,13.5 6,14 5.5,14 L4.5,14 C3.95,14 3.5,14.45 3.5,15 L3.5,20 C3.5,20.55 3.95,21 4.5,21 Z" id="path-1"></path>
    </defs>
    <g id="⭕-Flag-/-Daytime-Patching" stroke="none" stroke-width="1" fill="none" fill-rule="evenodd">
        <mask id="mask-2" fill="white">
            <use xlink:href="#path-1"></use>
        </mask>
        <use id="Color" fill="#212121" xlink:href="#path-1"></use>
    </g>
</svg>