<?xml version="1.0" encoding="UTF-8"?>
<svg width="24px" height="24px" viewBox="0 0 24 24" version="1.1" xmlns="http://www.w3.org/2000/svg" xmlns:xlink="http://www.w3.org/1999/xlink">
    <title>⭕ Flag / FasTalk Connected</title>
    <defs>
        <path d="M2.35,6.7 C1.95,6.3 1.95,5.7 2.35,5.3 L5.2,2.45 C5.4,2.2 5.7,2 6.05,2 C6.3,2 6.55,2.1 6.75,2.3 L9.75,5.3 C10.15,5.7 10.15,6.3 9.75,6.7 C9.55,6.9 9.3,7 9.05,7 C8.8,7 8.55,6.9 8.35,6.7 L7.05,5.4 L7.05,16.8 C7.05,16.9 7.1,16.95 7.1,17.05 C7.1,17.6 7.55,18.05 8.1,18.05 L11.1,18.05 C11.65,18.05 12.1,18.5 12.1,19.05 C12.1,19.6 11.65,20.05 11.1,20.05 L8.1,20.05 C6.55,20.05 5.25,18.85 5.1,17.3 C5.05,17.2 5.05,17.1 5.05,17 L5.05,5.5 L3.8,6.75 C3.35,7.1 2.75,7.1 2.35,6.7 L2.35,6.7 Z M20.35,17.3 L19.05,18.6 L19.05,7.05 C19.05,5.4 17.7,4.05 16.05,4.05 C15.5,4.05 15.05,4.5 15.05,5.05 C15.05,5.6 15.5,6.05 16.05,6.05 C16.6,6.05 17.05,6.5 17.05,7.05 L17.05,18.6 L15.75,17.3 C15.35,16.9 14.75,16.9 14.35,17.3 C13.95,17.7 13.95,18.3 14.35,18.7 L17.35,21.7 C17.4,21.75 17.45,21.8 17.5,21.8 L17.55,21.85 C17.6,21.85 17.6,21.9 17.65,21.9 C17.7,21.9 17.7,21.9 17.75,21.95 C17.8,21.95 17.8,21.95 17.85,22 L18.05,22 L18.25,22 C18.3,22 18.3,22 18.35,21.95 C18.4,21.95 18.4,21.95 18.45,21.9 C18.5,21.9 18.5,21.85 18.55,21.85 C18.55,21.85 18.6,21.85 18.6,21.8 C18.65,21.75 18.7,21.7 18.75,21.7 L21.75,18.7 C22.15,18.3 22.15,17.7 21.75,17.3 C21.4,16.9 20.75,16.9 20.35,17.3 L20.35,17.3 Z M13.7,10.2 L11.25,12.65 L10.3,11.7 C10,11.4 9.55,11.4 9.25,11.7 C8.95,12 8.95,12.45 9.25,12.75 L10.75,14.25 C10.9,14.4 11.1,14.45 11.3,14.45 C11.5,14.45 11.7,14.4 11.85,14.25 L14.85,11.25 C15.15,10.95 15.15,10.5 14.85,10.2 C14.5,9.95 14,9.95 13.7,10.2 L13.7,10.2 Z" id="path-1"></path>
    </defs>
    <g id="⭕-Flag-/-FasTalk-Connected" stroke="none" stroke-width="1" fill="none" fill-rule="evenodd">
        <mask id="mask-2" fill="white">
            <use xlink:href="#path-1"></use>
        </mask>
        <use id="Color" fill="#212121" xlink:href="#path-1"></use>
    </g>
</svg>