<?xml version="1.0" encoding="UTF-8"?>
<svg width="24px" height="24px" viewBox="0 0 24 24" version="1.1" xmlns="http://www.w3.org/2000/svg" xmlns:xlink="http://www.w3.org/1999/xlink">
    <title>⭕ Flag / Heart Beat</title>
    <defs>
        <path d="M12,2 C6.5,2 2,6.5 2,12 C2,17.5 6.5,22 12,22 C17.5,22 22,17.5 22,12 C22,6.5 17.5,2 12,2 Z M12,4 C16.05,4 19.45,7.05 19.95,11 L16.5,11 C16.15,11 15.8,11.2 15.65,11.5 L14.25,13.9 L10.6,7.55 C10.4,7.25 10.1,7.05 9.75,7.05 C9.4,7.05 9.05,7.25 8.9,7.55 L6.9,11 L4.05,11 C4.55,7.05 7.95,4 12,4 Z M12,20 C7.95,20 4.55,16.95 4.05,13 L7.5,13 C7.85,13 8.2,12.8 8.35,12.5 L9.75,10.1 L13.4,16.45 C13.6,16.75 13.9,16.95 14.25,16.95 C14.6,16.95 14.95,16.75 15.1,16.45 L17.05,13 L19.9,13 C19.45,16.95 16.05,20 12,20 L12,20 Z" id="path-1"></path>
    </defs>
    <g id="⭕-Flag-/-Heart-Beat" stroke="none" stroke-width="1" fill="none" fill-rule="evenodd">
        <mask id="mask-2" fill="white">
            <use xlink:href="#path-1"></use>
        </mask>
        <use id="Color" fill="#212121" xlink:href="#path-1"></use>
    </g>
</svg>