<?xml version="1.0" encoding="UTF-8"?>
<svg width="24px" height="24px" viewBox="0 0 24 24" version="1.1" xmlns="http://www.w3.org/2000/svg" xmlns:xlink="http://www.w3.org/1999/xlink">
    <title>⭕ Flag / Heart</title>
    <defs>
        <path d="M16.5,3 C14.75,3 13.1,3.8 12,5.05 C10.9,3.8 9.25,3 7.5,3 C4.45,3 2,5.45 2,8.5 C2,14.45 11.05,20.55 11.45,20.85 C11.6,20.95 11.8,21 12,21 C12.2,21 12.4,20.95 12.55,20.85 C12.95,20.55 22,14.45 22,8.5 C22,5.45 19.55,3 16.5,3 Z M12,18.8 C9.35,16.9 4,12.3 4,8.5 C4,6.55 5.55,5 7.5,5 C9.05,5 10.6,6 11.05,7.35 C11.2,7.75 11.55,8 12,8 C12.45,8 12.8,7.75 12.95,7.35 C13.4,6 14.95,5 16.5,5 C18.45,5 20,6.55 20,8.5 C20,12.3 14.65,16.9 12,18.8 Z" id="path-1"></path>
    </defs>
    <g id="⭕-Flag-/-Heart" stroke="none" stroke-width="1" fill="none" fill-rule="evenodd">
        <mask id="mask-2" fill="white">
            <use xlink:href="#path-1"></use>
        </mask>
        <use id="Color" fill="#212121" xlink:href="#path-1"></use>
    </g>
</svg>