<?xml version="1.0" encoding="UTF-8"?>
<svg width="24px" height="24px" viewBox="0 0 24 24" version="1.1" xmlns="http://www.w3.org/2000/svg" xmlns:xlink="http://www.w3.org/1999/xlink">
    <title>⭕ Flag / Idle </title>
    <defs>
        <path d="M12,2 C6.5,2 2,6.5 2,12 C2,17.5 6.5,22 12,22 C17.5,22 22,17.5 22,12 C22,6.5 17.5,2 12,2 Z M12,20 C7.6,20 4,16.4 4,12 C4,7.6 7.6,4 12,4 C16.4,4 20,7.6 20,12 C20,16.4 16.4,20 12,20 Z M15.5,14.1 C15.9,14.5 15.9,15.1 15.5,15.5 C15.3,15.7 15.05,15.8 14.8,15.8 C14.55,15.8 14.3,15.7 14.1,15.5 L11.3,12.7 C11.1,12.5 11,12.25 11,12 L11,8.05 C11,7.5 11.45,7.05 12,7.05 C12.55,7.05 13,7.5 13,8.05 L13,11.55 L15.5,14.1 L15.5,14.1 Z" id="path-1"></path>
    </defs>
    <g id="⭕-Flag-/-Idle-" stroke="none" stroke-width="1" fill="none" fill-rule="evenodd">
        <mask id="mask-2" fill="white">
            <use xlink:href="#path-1"></use>
        </mask>
        <use id="Color" fill="#212121" xlink:href="#path-1"></use>
    </g>
</svg>