<?xml version="1.0" encoding="UTF-8"?>
<svg width="24px" height="24px" viewBox="0 0 24 24" version="1.1" xmlns="http://www.w3.org/2000/svg" xmlns:xlink="http://www.w3.org/1999/xlink">
    <title>⭕ Flag / IIS</title>
    <defs>
        <path d="M16.5086705,6 C17.1445087,6 17.7803468,6.05780347 18.416185,6.23121387 C19.0520231,6.40462428 19.5722543,6.63583815 20.0346821,6.92485549 C20.4971098,7.2716763 20.8439306,7.67630058 21.132948,8.13872832 C21.4219653,8.65895954 21.5375723,9.23699422 21.5375723,9.98843931 L18.8786127,9.98843931 C18.8786127,9.6416185 18.7630058,9.29479769 18.6473988,9.06358382 C18.5317919,8.83236994 18.3583815,8.60115607 18.1271676,8.48554913 C17.8959538,8.3699422 17.6647399,8.25433526 17.3757225,8.19653179 C17.0867052,8.13872832 16.7976879,8.13872832 16.4508671,8.13872832 C16.2196532,8.13872832 15.9884393,8.13872832 15.7572254,8.19653179 C15.5260116,8.25433526 15.3526012,8.31213873 15.1791908,8.42774566 C15.0057803,8.5433526 14.8323699,8.65895954 14.716763,8.89017341 C14.6011561,9.12138728 14.5433526,9.29479769 14.5433526,9.52601156 C14.5433526,9.75722543 14.6011561,9.98843931 14.6589595,10.1040462 C14.716763,10.2196532 14.9479769,10.3930636 15.2369942,10.5086705 C15.5260116,10.6242775 15.8728324,10.7398844 16.3930636,10.9132948 C16.8554913,11.0289017 17.4913295,11.2023121 18.300578,11.3757225 C18.5317919,11.433526 18.8786127,11.4913295 19.283237,11.6069364 C19.6878613,11.7225434 20.0924855,11.8959538 20.4971098,12.1849711 C20.9017341,12.4739884 21.2485549,12.8208092 21.5375723,13.2254335 C21.8265896,13.6878613 22,14.265896 22,14.9595376 C22,15.5375723 21.8843931,16.0578035 21.6531792,16.5202312 C21.4219653,16.982659 21.0751445,17.4450867 20.6705202,17.7919075 C20.2080925,18.1387283 19.6878613,18.4277457 19.0520231,18.6011561 C18.416185,18.7745665 17.6647399,18.8901734 16.7976879,18.8901734 C16.1040462,18.8901734 15.4682081,18.8323699 14.7745665,18.6589595 C14.1387283,18.4855491 13.5606936,18.2543353 13.0404624,17.849711 C12.5202312,17.5028902 12.1734104,17.0404624 11.8843931,16.4624277 C11.5953757,15.8843931 11.4797688,15.2485549 11.4797688,14.4971098 L14.1387283,14.4971098 C14.1965318,14.8439306 14.3121387,15.2485549 14.4277457,15.5375723 C14.6011561,15.8265896 14.7745665,16.0578035 15.0057803,16.2312139 C15.2369942,16.4046243 15.5260116,16.5202312 15.8728324,16.6358382 C16.2196532,16.7514451 16.566474,16.7514451 16.9132948,16.7514451 C17.1445087,16.7514451 17.433526,16.7514451 17.7225434,16.6936416 C18.0115607,16.6358382 18.2427746,16.5780347 18.5317919,16.4624277 C18.8208092,16.3468208 18.9942197,16.1734104 19.1676301,16 C19.3410405,15.8265896 19.3988439,15.5375723 19.3988439,15.2485549 C19.3988439,14.9017341 19.283237,14.6127168 19.0520231,14.4393064 C18.8208092,14.265896 18.5317919,14.0346821 18.1849711,13.9190751 C17.8381503,13.8034682 17.433526,13.6878613 16.9710983,13.5722543 C16.5086705,13.4566474 16.1040462,13.3410405 15.6416185,13.2254335 C15.1791908,13.1098266 14.716763,12.9942197 14.2543353,12.8208092 C13.7919075,12.6473988 13.3872832,12.416185 13.0404624,12.1849711 C12.6936416,11.8959538 12.4046243,11.6069364 12.1734104,11.2023121 C11.9421965,10.7976879 11.8265896,10.3352601 11.8265896,9.75722543 C11.8265896,9.12138728 11.9421965,8.5433526 12.2312139,8.08092486 C12.5202312,7.61849711 12.867052,7.21387283 13.3294798,6.92485549 C13.7919075,6.63583815 14.2543353,6.40462428 14.8323699,6.23121387 C15.4104046,6.05780347 15.9306358,6 16.5086705,6 Z M4.77456647,6.1734104 L4.77456647,18.5433526 L2,18.5433526 L2,6.1734104 L4.77456647,6.1734104 Z M9.91907514,6.1734104 L9.91907514,18.5433526 L7.14450867,18.5433526 L7.14450867,6.1734104 L9.91907514,6.1734104 Z" id="path-1"></path>
    </defs>
    <g id="⭕-Flag-/-IIS" stroke="none" stroke-width="1" fill="none" fill-rule="evenodd">
        <mask id="mask-2" fill="white">
            <use xlink:href="#path-1"></use>
        </mask>
        <use id="Color" fill="#212121" xlink:href="#path-1"></use>
    </g>
</svg>