<?xml version="1.0" encoding="UTF-8"?>
<svg width="24px" height="24px" viewBox="0 0 24 24" version="1.1" xmlns="http://www.w3.org/2000/svg" xmlns:xlink="http://www.w3.org/1999/xlink">
    <title>⭕ Flag / Job Running</title>
    <defs>
        <path d="M17.7,8.7 C17.9,8.5 18,8.25 18,8 L18,3 C18,2.45 17.55,2 17,2 L7,2 C6.45,2 6,2.45 6,3 L6,8 C6,8.25 6.1,8.5 6.3,8.7 L9.6,12 L6.3,15.3 C6.1,15.5 6,15.75 6,16 L6,21 C6,21.55 6.45,22 7,22 L17,22 C17.55,22 18,21.55 18,21 L18,16 C18,15.75 17.9,15.5 17.7,15.3 L14.4,12 L17.7,8.7 Z M16,4 L16,7.5 L8,7.5 L8,4 L16,4 Z M16,16.4 L16,20 L8,20 L8,16.4 L11,13.4 L12,12.4 L13,13.4 L16,16.4 Z" id="path-1"></path>
    </defs>
    <g id="⭕-Flag-/-Job-Running" stroke="none" stroke-width="1" fill="none" fill-rule="evenodd">
        <mask id="mask-2" fill="white">
            <use xlink:href="#path-1"></use>
        </mask>
        <use id="Color" fill="#212121" xlink:href="#path-1"></use>
    </g>
</svg>