<?xml version="1.0" encoding="UTF-8"?>
<svg width="24px" height="24px" viewBox="0 0 24 24" version="1.1" xmlns="http://www.w3.org/2000/svg" xmlns:xlink="http://www.w3.org/1999/xlink">
    <title>⭕ Flag / Licensed</title>
    <defs>
        <path d="M9,11.5 L15,11.5 C15.55,11.5 16,11.05 16,10.5 C16,9.95 15.55,9.5 15,9.5 L9,9.5 C8.45,9.5 8,9.95 8,10.5 C8,11.05 8.45,11.5 9,11.5 Z M9,15.5 L12,15.5 C12.55,15.5 13,15.05 13,14.5 C13,13.95 12.55,13.5 12,13.5 L9,13.5 C8.45,13.5 8,13.95 8,14.5 C8,15.05 8.45,15.5 9,15.5 Z M19.7,5.8 L16.2,2.3 C16.05,2.15 15.9,2.05 15.7,2.05 L15.5,2.05 L5,2.05 C4.45,2 4,2.45 4,3 L4,21 C4,21.25 4.1,21.5 4.3,21.7 C4.5,21.9 4.75,22 5,22 L12,22 C12.55,22 13,21.55 13,21 C13,20.45 12.55,20 12,20 L6,20 L6,4 L14,4 L14,7 C14,7.55 14.45,8 15,8 L18,8 L18,11 C18,11.55 18.45,12 19,12 C19.55,12 20,11.55 20,11 L20,6.5 C20,6.25 19.9,6 19.7,5.8 Z M17,13.5 C15.35,13.5 14,14.85 14,16.5 C14,17.6 14.6,18.6 15.5,19.1 L15.5,22 L17,20.5 L18.5,22 L18.5,19.1 C19.4,18.6 20,17.6 20,16.5 C20,14.85 18.65,13.5 17,13.5 Z" id="path-1"></path>
    </defs>
    <g id="⭕-Flag-/-Licensed" stroke="none" stroke-width="1" fill="none" fill-rule="evenodd">
        <mask id="mask-2" fill="white">
            <use xlink:href="#path-1"></use>
        </mask>
        <use id="Color" fill="#212121" xlink:href="#path-1"></use>
    </g>
</svg>