<?xml version="1.0" encoding="UTF-8"?>
<svg width="24px" height="24px" viewBox="0 0 24 24" version="1.1" xmlns="http://www.w3.org/2000/svg" xmlns:xlink="http://www.w3.org/1999/xlink">
    <title>⭕ Flag / Likes</title>
    <defs>
        <path d="M21.5,13 C21.8,12.6 22,12.05 22,11.5 C22,10.1 20.9,9 19.5,9 L15.4,9 C15.8,7.6 16.15,5.4 15.4,3.5 C15.1,2.6 14.25,2 13.3,2 C12,2 11,3 11,4.25 C11,5.35 9.5,7.2 8.05,8.65 C7.9,8.55 7.7,8.5 7.5,8.5 L3,8.5 C2.45,8.5 2,8.95 2,9.5 L2,21 C2,21.55 2.45,22 3,22 L7.5,22 C7.9,22 8.3,21.75 8.45,21.35 L10.2,21.95 C10.3,22 10.4,22 10.5,22 L18.75,22 C19.85,22 20.75,21.1 20.75,20 C20.75,19.85 20.75,19.7 20.7,19.55 C21.35,19.1 21.75,18.35 21.75,17.5 C21.75,17 21.6,16.55 21.35,16.15 C21.75,15.7 22,15.1 22,14.5 C22,13.95 21.8,13.4 21.5,13 Z M4,20 L4,10.5 L6.5,10.5 L6.5,20 L4,20 Z M19.5,14 C19.8,14 20,14.2 20,14.5 C20,14.8 19.8,15 19.5,15 L19.25,15 C18.7,15 18.25,15.45 18.25,16 C18.25,16.55 18.7,17 19.25,17 C19.55,17 19.75,17.2 19.75,17.5 C19.75,17.8 19.55,18 19.25,18 L18.75,18 C18.2,18 17.75,18.45 17.75,19 C17.75,19.55 18.2,20 18.75,20 L10.65,20 L8.5,19.3 L8.5,10.95 C9.7,9.9 13,6.75 13,4.25 C13,4.1 13.1,4 13.25,4 C13.35,4 13.45,4.1 13.5,4.2 C14.4,6.45 13.1,9.6 13.1,9.6 C12.95,9.9 13,10.25 13.2,10.55 C13.4,10.85 13.7,11 14.05,11 L19.55,11 C19.85,11 20.05,11.2 20.05,11.5 C20.05,11.8 19.85,12 19.55,12 C19,12 18.55,12.45 18.55,13 C18.55,13.55 18.95,14 19.5,14 Z" id="path-1"></path>
    </defs>
    <g id="⭕-Flag-/-Likes" stroke="none" stroke-width="1" fill="none" fill-rule="evenodd">
        <mask id="mask-2" fill="white">
            <use xlink:href="#path-1"></use>
        </mask>
        <use id="Color" fill="#212121" xlink:href="#path-1"></use>
    </g>
</svg>