<?xml version="1.0" encoding="UTF-8"?>
<svg width="24px" height="24px" viewBox="0 0 24 24" version="1.1" xmlns="http://www.w3.org/2000/svg" xmlns:xlink="http://www.w3.org/1999/xlink">
    <title>⭕ Flag / Local User</title>
    <defs>
        <path d="M9.95,8 C9.95,6.9 10.85,6 11.95,6 C13.05,6 13.95,6.9 13.95,8 C13.95,9.1 13.05,10 11.95,10 C10.85,10 9.95,9.1 9.95,8 Z M8.95,16 L14.95,16 C15.5,16 15.95,15.55 15.95,15 L15.95,13.25 C15.95,13 15.85,12.7 15.65,12.55 C14.6,11.55 13.3,11 11.95,11 C10.6,11 9.3,11.55 8.25,12.55 C8.05,12.75 7.95,13 7.95,13.25 L7.95,15 C7.95,15.55 8.4,16 8.95,16 Z M22,4 L22,18 C22,18.55 21.55,19 21,19 L20.95,19 L13,19 L13,20 L14.5,20 C15.05,20 15.5,20.45 15.5,21 C15.5,21.55 15.05,22 14.5,22 L9.5,22 C8.95,22 8.5,21.55 8.5,21 C8.5,20.45 8.95,20 9.5,20 L11,20 L11,19 L3,19 C2.45,19 2,18.55 2,18 L2,4 C2,3.45 2.45,3 3,3 L21,3 C21.55,3 22,3.45 22,4 Z M20,5 L4,5 L4,17 L20,17 L20,5 Z" id="path-1"></path>
    </defs>
    <g id="⭕-Flag-/-Local-User" stroke="none" stroke-width="1" fill="none" fill-rule="evenodd">
        <mask id="mask-2" fill="white">
            <use xlink:href="#path-1"></use>
        </mask>
        <use id="Color" fill="#212121" xlink:href="#path-1"></use>
    </g>
</svg>