<?xml version="1.0" encoding="UTF-8"?>
<svg width="24px" height="24px" viewBox="0 0 24 24" version="1.1" xmlns="http://www.w3.org/2000/svg" xmlns:xlink="http://www.w3.org/1999/xlink">
    <title>⭕ Flag / Manual</title>
    <defs>
        <path d="M22,6.5 L22,9.5 C22,10.05 21.55,10.5 21,10.5 C20.45,10.5 20,10.05 20,9.5 L20,7.5 L11,7.5 C10.75,7.5 10.5,7.4 10.3,7.2 L8.6,5.5 L4,5.5 L4,17.5 L11,17.5 C11.55,17.5 12,17.95 12,18.5 C12,19.05 11.55,19.5 11,19.5 L3,19.5 C2.45,19.5 2,19.05 2,18.5 L2,4.5 C2,3.95 2.45,3.5 3,3.5 L9,3.5 C9.25,3.5 9.5,3.6 9.7,3.8 L11.4,5.5 L21,5.5 C21.55,5.5 22,5.95 22,6.5 Z M18,14.3 C18.45,13.05 18.15,11.55 17.15,10.55 C16,9.4 14.25,9.2 12.9,9.95 L14.6,11.65 C15,12.05 15,12.7 14.6,13.1 C14.2,13.5 13.55,13.5 13.15,13.1 L11.45,11.4 C10.7,12.75 10.9,14.5 12.05,15.65 C13.05,16.65 14.55,16.95 15.8,16.5 L19.35,20.05 C19.95,20.65 20.95,20.65 21.55,20.05 C22.15,19.45 22.15,18.45 21.55,17.85 L18,14.3 Z" id="path-1"></path>
    </defs>
    <g id="⭕-Flag-/-Manual" stroke="none" stroke-width="1" fill="none" fill-rule="evenodd">
        <mask id="mask-2" fill="white">
            <use xlink:href="#path-1"></use>
        </mask>
        <use id="Color" fill="#212121" xlink:href="#path-1"></use>
    </g>
</svg>