<?xml version="1.0" encoding="UTF-8"?>
<svg width="24px" height="24px" viewBox="0 0 24 24" version="1.1" xmlns="http://www.w3.org/2000/svg" xmlns:xlink="http://www.w3.org/1999/xlink">
    <title>⭕ Flag / Master</title>
    <defs>
        <path d="M3,20 C3,19.45 3.45,19 4,19 L20,19 C20.55,19 21,19.45 21,20 C21,20.55 20.55,21 20,21 L4,21 C3.45,21 3,20.55 3,20 Z M4.7,4.3 L7.5,7.1 L11.3,3.3 C11.7,2.9 12.3,2.9 12.7,3.3 L16.5,7.1 L19.3,4.3 C19.6,4 20,3.9 20.4,4.1 C20.75,4.25 21,4.6 21,5 L21,16 C21,16.55 20.55,17 20,17 L4,17 C3.45,17 3,16.55 3,16 L3,5 C3,4.6 3.25,4.25 3.6,4.1 C4,3.9 4.4,4 4.7,4.3 Z M5,15 L19,15 L19,7.4 L17.2,9.2 C16.8,9.6 16.2,9.6 15.8,9.2 L12,5.4 L8.2,9.2 C7.8,9.6 7.2,9.6 6.8,9.2 L5,7.4 L5,15 Z" id="path-1"></path>
    </defs>
    <g id="⭕-Flag-/-Master" stroke="none" stroke-width="1" fill="none" fill-rule="evenodd">
        <mask id="mask-2" fill="white">
            <use xlink:href="#path-1"></use>
        </mask>
        <use id="Color" fill="#212121" xlink:href="#path-1"></use>
    </g>
</svg>