<?xml version="1.0" encoding="UTF-8"?>
<svg width="24px" height="24px" viewBox="0 0 24 24" version="1.1" xmlns="http://www.w3.org/2000/svg" xmlns:xlink="http://www.w3.org/1999/xlink">
    <title>⭕ Flag / Missing Baseline Patches</title>
    <defs>
        <path d="M22,19 C22,19.55 21.55,20 21,20 L3,20 C2.45,20 2,19.55 2,19 C2,18.45 2.45,18 3,18 L21,18 C21.55,18 22,18.45 22,19 Z M21,14 L15.4,14 L12.7,11.3 C12.3,10.9 11.7,10.9 11.3,11.3 L8.6,14 L3,14 C2.45,14 2,14.45 2,15 C2,15.55 2.45,16 3,16 L9,16 C9.25,16 9.5,15.9 9.7,15.7 L12,13.4 L14.3,15.7 C14.5,15.9 14.75,16 15,16 L21,16 C21.55,16 22,15.55 22,15 C22,14.45 21.55,14 21,14 Z M21.7,4.3 C21.3,3.9 20.7,3.9 20.3,4.3 L18.5,6.1 L16.7,4.3 C16.3,3.9 15.7,3.9 15.3,4.3 C14.9,4.7 14.9,5.3 15.3,5.7 L17.1,7.5 L15.3,9.3 C14.9,9.7 14.9,10.3 15.3,10.7 C15.5,10.9 15.75,11 16,11 C16.25,11 16.5,10.9 16.7,10.7 L18.5,8.9 L20.3,10.7 C20.5,10.9 20.75,11 21,11 C21.25,11 21.5,10.9 21.7,10.7 C22.1,10.3 22.1,9.7 21.7,9.3 L19.9,7.5 L21.7,5.7 C22.1,5.3 22.1,4.7 21.7,4.3 Z" id="path-1"></path>
    </defs>
    <g id="⭕-Flag-/-Missing-Baseline-Patches" stroke="none" stroke-width="1" fill="none" fill-rule="evenodd">
        <mask id="mask-2" fill="white">
            <use xlink:href="#path-1"></use>
        </mask>
        <use id="Color" fill="#212121" xlink:href="#path-1"></use>
    </g>
</svg>