<?xml version="1.0" encoding="UTF-8"?>
<svg width="24px" height="24px" viewBox="0 0 24 24" version="1.1" xmlns="http://www.w3.org/2000/svg" xmlns:xlink="http://www.w3.org/1999/xlink">
    <title>⭕ Flag / Network Device Offline</title>
    <defs>
        <path d="M21,4 L21,12 C21,12.55 20.55,13 20,13 C19.45,13 19,12.55 19,12 L19,5 L5,5 L5,19 L12,19 C12.55,19 13,19.45 13,20 C13,20.55 12.55,21 12,21 L4,21 C3.45,21 3,20.55 3,20 L3,4 C3,3.45 3.45,3 4,3 L20,3 C20.55,3 21,3.45 21,4 Z M9.25,16.5 L12.25,16.5 C12.65,16.5 13,16.15 13,15.75 C13,15.35 12.65,15 12.25,15 L10,15 L10,13.75 C10,13.35 9.65,13 9.25,13 L8,13 L8,9 L16,9 L16,12.25 C16,12.65 16.35,13 16.75,13 C17.15,13 17.5,12.65 17.5,12.25 L17.5,8.25 C17.5,7.85 17.15,7.5 16.75,7.5 L7.25,7.5 C6.85,7.5 6.5,7.85 6.5,8.25 L6.5,13.75 C6.5,14.15 6.85,14.5 7.25,14.5 L8.5,14.5 L8.5,15.75 C8.5,16.15 8.85,16.5 9.25,16.5 Z M20.7,15.3 C20.3,14.9 19.7,14.9 19.3,15.3 L18,16.6 L16.7,15.3 C16.3,14.9 15.7,14.9 15.3,15.3 C14.9,15.7 14.9,16.3 15.3,16.7 L16.6,18 L15.3,19.3 C14.9,19.7 14.9,20.3 15.3,20.7 C15.5,20.9 15.75,21 16,21 C16.25,21 16.5,20.9 16.7,20.7 L18,19.4 L19.3,20.7 C19.5,20.9 19.75,21 20,21 C20.25,21 20.5,20.9 20.7,20.7 C21.1,20.3 21.1,19.7 20.7,19.3 L19.4,18 L20.7,16.7 C21.1,16.3 21.1,15.7 20.7,15.3 L20.7,15.3 Z" id="path-1"></path>
    </defs>
    <g id="⭕-Flag-/-Network-Device-Offline" stroke="none" stroke-width="1" fill="none" fill-rule="evenodd">
        <mask id="mask-2" fill="white">
            <use xlink:href="#path-1"></use>
        </mask>
        <use id="Color" fill="#212121" xlink:href="#path-1"></use>
    </g>
</svg>