<?xml version="1.0" encoding="UTF-8"?>
<svg width="24px" height="24px" viewBox="0 0 24 24" version="1.1" xmlns="http://www.w3.org/2000/svg" xmlns:xlink="http://www.w3.org/1999/xlink">
    <title>⭕ Flag / No Patch Inventory</title>
    <defs>
        <path d="M19,2 C19.55,2 20,2.45 20,3 L20,12 C20,12.55 19.55,13 19,13 C18.45,13 18,12.55 18,12 L18,4 L16,4 L16,5 C16,5.55 15.55,6 15,6 L9,6 C8.45,6 8,5.55 8,5 L8,4 L6,4 L6,20 L10,20 C10.55,20 11,20.45 11,21 C11,21.55 10.55,22 10,22 L5,22 C4.45,22 4,21.55 4,21 L4,3 C4,2.45 4.45,2 5,2 L19,2 Z M16,9 C16,8.45 15.55,8 15,8 L9,8 C8.45,8 8,8.45 8,9 C8,9.55 8.45,10 9,10 L15,10 C15.55,10 16,9.55 16,9 Z M13.3,21.7 C13.5,21.9 13.75,22 14,22 C14.25,22 14.5,21.9 14.7,21.7 L16.5,19.9 L18.3,21.7 C18.5,21.9 18.75,22 19,22 C19.25,22 19.5,21.9 19.7,21.7 C20.1,21.3 20.1,20.7 19.7,20.3 L17.9,18.5 L19.7,16.7 C20.1,16.3 20.1,15.7 19.7,15.3 C19.3,14.9 18.7,14.9 18.3,15.3 L16.5,17.1 L14.7,15.3 C14.3,14.9 13.7,14.9 13.3,15.3 C12.9,15.7 12.9,16.3 13.3,16.7 L15.1,18.5 L13.3,20.3 C12.9,20.7 12.9,21.3 13.3,21.7 L13.3,21.7 Z" id="path-1"></path>
    </defs>
    <g id="⭕-Flag-/-No-Patch-Inventory" stroke="none" stroke-width="1" fill="none" fill-rule="evenodd">
        <mask id="mask-2" fill="white">
            <use xlink:href="#path-1"></use>
        </mask>
        <use id="Color" fill="#212121" xlink:href="#path-1"></use>
    </g>
</svg>