<?xml version="1.0" encoding="UTF-8"?>
<svg width="24px" height="24px" viewBox="0 0 24 24" version="1.1" xmlns="http://www.w3.org/2000/svg" xmlns:xlink="http://www.w3.org/1999/xlink">
    <title>⭕ Flag / Overridden</title>
    <defs>
        <path d="M16.45,10.3 C16.6,10.7 16.45,11.15 16.05,11.4 L14.5,12.5 L15.3,14.6 C15.45,15 15.35,15.5 15,15.75 C14.8,15.9 14.6,15.95 14.4,15.95 C14.2,15.95 14,15.9 13.8,15.75 L12,14.5 L10.2,15.8 C9.85,16.05 9.35,16.05 9,15.8 C8.65,15.55 8.5,15.05 8.7,14.65 L9.5,12.55 L7.95,11.45 C7.6,11.2 7.45,10.75 7.55,10.35 C7.7,9.95 8.05,9.65 8.5,9.65 L10.4,9.65 L11.05,7.7 C11.2,7.3 11.55,7 12,7 C12.45,7 12.8,7.3 12.95,7.7 L13.6,9.65 L15.5,9.65 C15.95,9.6 16.3,9.9 16.45,10.3 L16.45,10.3 Z M22,12 C22,17.5 17.5,22 12,22 C6.5,22 2,17.5 2,12 C2,6.5 6.5,2 12,2 C17.5,2 22,6.5 22,12 Z M20,12 C20,7.6 16.4,4 12,4 C7.6,4 4,7.6 4,12 C4,16.4 7.6,20 12,20 C16.4,20 20,16.4 20,12 Z" id="path-1"></path>
    </defs>
    <g id="⭕-Flag-/-Overridden" stroke="none" stroke-width="1" fill="none" fill-rule="evenodd">
        <mask id="mask-2" fill="white">
            <use xlink:href="#path-1"></use>
        </mask>
        <use id="Color" fill="#212121" xlink:href="#path-1"></use>
    </g>
</svg>