<?xml version="1.0" encoding="UTF-8"?>
<svg width="24px" height="24px" viewBox="0 0 24 24" version="1.1" xmlns="http://www.w3.org/2000/svg" xmlns:xlink="http://www.w3.org/1999/xlink">
    <title>⭕ Flag / Password Never Expires</title>
    <defs>
        <path d="M13.7,15.7 C13.5,15.9 13.25,16 13,16 C12.75,16 12.5,15.9 12.3,15.7 L10.8,14.2 C10.6,14 10.5,13.75 10.5,13.5 L10.5,11.5 C10.5,10.95 10.95,10.5 11.5,10.5 C12.05,10.5 12.5,10.95 12.5,11.5 L12.5,13.1 L13.7,14.3 C14.1,14.7 14.1,15.3 13.7,15.7 Z M12.5,19 C12.5,19.55 12.05,20 11.5,20 L5,20 C4.45,20 4,19.55 4,19 L4,7.5 C4,6.95 4.45,6.5 5,6.5 L7.5,6.5 L7.5,5.85 C7.5,3.75 9.3,2 11.5,2 C13.7,2 15.5,3.75 15.5,5.85 L15.5,6.5 L18,6.5 C18.55,6.5 19,6.95 19,7.5 L19,13 C19,13.55 18.55,14 18,14 C17.45,14 17,13.55 17,13 L17,8.5 L6,8.5 L6,18 L11.5,18 C12.05,18 12.5,18.45 12.5,19 Z M9.5,6.5 L13.5,6.5 L13.5,5.85 C13.5,4.85 12.6,4 11.5,4 C10.4,4 9.5,4.85 9.5,5.85 L9.5,6.5 Z M18.4,19 L19.7,17.7 C20.1,17.3 20.1,16.7 19.7,16.3 C19.3,15.9 18.7,15.9 18.3,16.3 L17,17.6 L15.7,16.3 C15.3,15.9 14.7,15.9 14.3,16.3 C13.9,16.7 13.9,17.3 14.3,17.7 L15.6,19 L14.3,20.3 C13.9,20.7 13.9,21.3 14.3,21.7 C14.5,21.9 14.75,22 15,22 C15.25,22 15.5,21.9 15.7,21.7 L17,20.4 L18.3,21.7 C18.5,21.9 18.75,22 19,22 C19.25,22 19.5,21.9 19.7,21.7 C20.1,21.3 20.1,20.7 19.7,20.3 L18.4,19 Z" id="path-1"></path>
    </defs>
    <g id="⭕-Flag-/-Password-Never-Expires" stroke="none" stroke-width="1" fill="none" fill-rule="evenodd">
        <mask id="mask-2" fill="white">
            <use xlink:href="#path-1"></use>
        </mask>
        <use id="Color" fill="#212121" xlink:href="#path-1"></use>
    </g>
</svg>