<?xml version="1.0" encoding="UTF-8"?>
<svg width="24px" height="24px" viewBox="0 0 24 24" version="1.1" xmlns="http://www.w3.org/2000/svg" xmlns:xlink="http://www.w3.org/1999/xlink">
    <title>⭕ Flag / Patch Job Failed</title>
    <defs>
        <path d="M3,20 L3,15 C3,14.45 3.45,14 4,14 L5,14 C5.5,14 6,13.5 6,13 C6,12.5 5.5,12 5,12 L4,12 C3.45,12 3,11.55 3,11 L3,6 C3,5.45 3.45,5 4,5 L8,5 C8,3.35 9.35,2 11,2 C12.65,2 14,3.35 14,5 L18,5 C18.55,5 19,5.45 19,6 L19,10.5 C19,11.05 18.55,11.5 18,11.5 C17.45,11.5 17,11.05 17,10.5 L17,7 L13,7 C12.45,7 12,6.55 12,6 L12,5 C12,4.5 11.5,4 11,4 C10.5,4 10,4.5 10,5 L10,6 C10,6.55 9.55,7 9,7 L5,7 L5,10 C6.65,10 8,11.35 8,13 C8,14.65 6.65,16 5,16 L5,19 L9.5,19 C10.05,19 10.5,19.45 10.5,20 C10.5,20.55 10.05,21 9.5,21 L4,21 C3.45,21 3,20.55 3,20 Z M12.8,20.7 C13,20.9 13.25,21 13.5,21 C13.75,21 14,20.9 14.2,20.7 L16.25,18.65 L18.3,20.7 C18.5,20.9 18.75,21 19,21 C19.25,21 19.5,20.9 19.7,20.7 C20.1,20.3 20.1,19.7 19.7,19.3 L17.65,17.25 L19.7,15.2 C20.1,14.8 20.1,14.2 19.7,13.8 C19.3,13.4 18.7,13.4 18.3,13.8 L16.25,15.85 L14.2,13.8 C13.8,13.4 13.2,13.4 12.8,13.8 C12.4,14.2 12.4,14.8 12.8,15.2 L14.85,17.25 L12.8,19.3 C12.4,19.7 12.4,20.3 12.8,20.7 L12.8,20.7 Z" id="path-1"></path>
    </defs>
    <g id="⭕-Flag-/-Patch-Job-Failed" stroke="none" stroke-width="1" fill="none" fill-rule="evenodd">
        <mask id="mask-2" fill="white">
            <use xlink:href="#path-1"></use>
        </mask>
        <use id="Color" fill="#212121" xlink:href="#path-1"></use>
    </g>
</svg>