<?xml version="1.0" encoding="UTF-8"?>
<svg width="24px" height="24px" viewBox="0 0 24 24" version="1.1" xmlns="http://www.w3.org/2000/svg" xmlns:xlink="http://www.w3.org/1999/xlink">
    <title>⭕ Flag / Pending Reboot</title>
    <defs>
        <path d="M10,12.5 C10,13.05 9.55,13.5 9,13.5 C8.45,13.5 8,13.05 8,12.5 C8,11.95 8.45,11.5 9,11.5 C9.55,11.5 10,11.95 10,12.5 Z M12,11.5 C11.45,11.5 11,11.95 11,12.5 C11,13.05 11.45,13.5 12,13.5 C12.55,13.5 13,13.05 13,12.5 C13,11.95 12.55,11.5 12,11.5 Z M15,11.5 C14.45,11.5 14,11.95 14,12.5 C14,13.05 14.45,13.5 15,13.5 C15.55,13.5 16,13.05 16,12.5 C16,11.95 15.55,11.5 15,11.5 Z M12,21.05 C16.95,21.05 21,17 21,12 C21,8.8 19.3,5.8 16.5,4.15 C16,3.85 15.4,4.05 15.15,4.5 C14.85,5 15.05,5.6 15.5,5.85 C17.65,7.1 19,9.45 19,11.95 C19,15.85 15.85,19 12,19 C8.15,19 5,15.9 5,12 C5,10.15 5.75,8.4 7,7.1 L7,8.5 C7,9.05 7.45,9.5 8,9.5 C8.55,9.5 9,9.05 9,8.5 L9,5 L9,4.9 C8.95,4.4 8.5,4 8,4 L4,4 C3.45,4 3,4.45 3,5 C3,5.55 3.45,6 4,6 L5.25,6 C3.85,7.65 3,9.75 3,12 C3,17 7.05,21.05 12,21.05 Z M11,3 L11,8.5 C11,9.05 11.45,9.5 12,9.5 C12.55,9.5 13,9.05 13,8.5 L13,3 C13,2.45 12.55,2 12,2 C11.45,2 11,2.45 11,3 Z" id="path-1"></path>
    </defs>
    <g id="⭕-Flag-/-Pending-Reboot" stroke="none" stroke-width="1" fill="none" fill-rule="evenodd">
        <mask id="mask-2" fill="white">
            <use xlink:href="#path-1"></use>
        </mask>
        <use id="Color" fill="#212121" xlink:href="#path-1"></use>
    </g>
</svg>