<?xml version="1.0" encoding="UTF-8"?>
<svg width="24px" height="24px" viewBox="0 0 24 24" version="1.1" xmlns="http://www.w3.org/2000/svg" xmlns:xlink="http://www.w3.org/1999/xlink">
    <title>⭕ Flag / Retweet</title>
    <defs>
        <path d="M20,13 L20,16 C20,17.65 18.65,19 17,19 L5.4,19 L6.7,20.3 C7.1,20.7 7.1,21.3 6.7,21.7 C6.5,21.9 6.25,22 6,22 C5.75,22 5.5,21.9 5.3,21.7 L2.3,18.7 C1.9,18.3 1.9,17.7 2.3,17.3 L5.3,14.3 C5.7,13.9 6.3,13.9 6.7,14.3 C7.1,14.7 7.1,15.3 6.7,15.7 L5.4,17 L17,17 C17.55,17 18,16.55 18,16 L18,13 C18,12.45 18.45,12 19,12 C19.55,12 20,12.45 20,13 Z M21.75,5.3 L18.75,2.3 C18.35,1.9 17.75,1.9 17.35,2.3 C16.95,2.7 16.95,3.3 17.35,3.7 L18.65,5 L7.05,5 C5.4,5 4.05,6.35 4.05,8 L4.05,11 C4.05,11.55 4.5,12 5.05,12 C5.6,12 6.05,11.55 6.05,11 L6.05,8 C6.05,7.45 6.5,7 7.05,7 L18.65,7 L17.35,8.3 C16.95,8.7 16.95,9.3 17.35,9.7 C17.55,9.9 17.8,10 18.05,10 C18.3,10 18.55,9.9 18.75,9.7 L21.75,6.7 C22.15,6.3 22.15,5.7 21.75,5.3 Z" id="path-1"></path>
    </defs>
    <g id="⭕-Flag-/-Retweet" stroke="none" stroke-width="1" fill="none" fill-rule="evenodd">
        <mask id="mask-2" fill="white">
            <use xlink:href="#path-1"></use>
        </mask>
        <use id="Color" fill="#212121" transform="translate(12.025000, 12.000000) rotate(90.000000) translate(-12.025000, -12.000000) " xlink:href="#path-1"></use>
    </g>
</svg>