<?xml version="1.0" encoding="UTF-8"?>
<svg width="24px" height="24px" viewBox="0 0 24 24" version="1.1" xmlns="http://www.w3.org/2000/svg" xmlns:xlink="http://www.w3.org/1999/xlink">
    <title>⭕ Flag / Sent fail</title>
    <defs>
        <path d="M21,4 L3,4 C2.45,4 2,4.45 2,5 L2,19 C2,19.55 2.45,20 3,20 L11,20 C11.55,20 12,19.55 12,19 C12,18.45 11.55,18 11,18 L5.4,18 L10,13.4 L11.3,14.7 C11.5,14.9 11.75,15 12,15 C12.25,15 12.5,14.9 12.7,14.7 L20,7.4 L20,10 C20,10.55 20.45,11 21,11 C21.55,11 22,10.55 22,10 L22,5 C22,4.45 21.55,4 21,4 Z M4,16.6 L4,7.4 L8.6,12 L4,16.6 Z M12,12.6 L5.4,6 L18.55,6 L12,12.6 Z M14.8,20.7 C15,20.9 15.25,21 15.5,21 C15.75,21 16,20.9 16.2,20.7 L18.25,18.65 L20.3,20.7 C20.5,20.9 20.75,21 21,21 C21.25,21 21.5,20.9 21.7,20.7 C22.1,20.3 22.1,19.7 21.7,19.3 L19.65,17.25 L21.7,15.2 C22.1,14.8 22.1,14.2 21.7,13.8 C21.3,13.4 20.7,13.4 20.3,13.8 L18.25,15.85 L16.2,13.8 C15.8,13.4 15.2,13.4 14.8,13.8 C14.4,14.2 14.4,14.8 14.8,15.2 L16.85,17.25 L14.8,19.3 C14.4,19.7 14.4,20.3 14.8,20.7 L14.8,20.7 Z" id="path-1"></path>
    </defs>
    <g id="⭕-Flag-/-Sent-fail" stroke="none" stroke-width="1" fill="none" fill-rule="evenodd">
        <mask id="mask-2" fill="white">
            <use xlink:href="#path-1"></use>
        </mask>
        <use id="Color" fill="#212121" xlink:href="#path-1"></use>
    </g>
</svg>