<?xml version="1.0" encoding="UTF-8"?>
<svg width="24px" height="24px" viewBox="0 0 24 24" version="1.1" xmlns="http://www.w3.org/2000/svg" xmlns:xlink="http://www.w3.org/1999/xlink">
    <title>⭕ Flag / Sent</title>
    <defs>
        <path d="M20.0004,16.5999 L15.3994,11.9999 L20.0004,7.3999 L20.0004,16.5999 Z M12.0004,12.5999 L5.4494,5.9999 L18.6004,5.9999 L12.0004,12.5999 Z M21.0004,3.9999 C21.5504,3.9999 22.0004,4.4499 22.0004,4.9999 L22.0004,4.9999 L22.0004,18.9999 C22.0004,19.5499 21.5504,19.9999 21.0004,19.9999 L21.0004,19.9999 L16.0004,19.9999 C15.4494,19.9999 15.0004,19.5499 15.0004,18.9999 C15.0004,18.4499 15.4494,17.9999 16.0004,17.9999 L16.0004,17.9999 L18.6004,17.9999 L14.0004,13.3999 L12.6994,14.6999 C12.5004,14.8999 12.2504,14.9999 12.0004,14.9999 C11.7504,14.9999 11.5004,14.8999 11.3004,14.6999 L11.3004,14.6999 L4.0004,7.3999 L4.0004,7.9999 C4.0004,8.5499 3.5504,8.9999 3.0004,8.9999 C2.4494,8.9999 2.0004,8.5499 2.0004,7.9999 L2.0004,7.9999 L2.0004,4.9999 C2.0004,4.4499 2.4494,3.9999 3.0004,3.9999 L3.0004,3.9999 Z M10.9974,18.0002 C11.5474,18.0002 11.9974,18.4502 11.9974,19.0002 C11.9974,19.5502 11.5474,20.0002 10.9974,20.0002 L10.9974,20.0002 L3.0004,20.0002 C2.4494,20.0002 2.0004,19.5502 2.0004,19.0002 C2.0004,18.4502 2.4494,18.0002 3.0004,18.0002 L3.0004,18.0002 Z M5.9974,14.0002 C6.5474,14.0002 6.9974,14.4502 6.9974,15.0002 C6.9974,15.5502 6.5474,16.0002 5.9974,16.0002 L5.9974,16.0002 L3.0004,16.0002 C2.4494,16.0002 2.0004,15.5502 2.0004,15.0002 C2.0004,14.4502 2.4494,14.0002 3.0004,14.0002 L3.0004,14.0002 Z M2.9974,10.0002 C3.5474,10.0002 3.9974,10.4502 3.9974,11.0002 C3.9974,11.5502 3.5474,12.0002 3.0004,12.0002 C2.4494,12.0002 2.0004,11.5502 2.0004,11.0002 C2.0004,10.4502 2.4494,10.0002 2.9974,10.0002 Z" id="path-1"></path>
    </defs>
    <g id="⭕-Flag-/-Sent" stroke="none" stroke-width="1" fill="none" fill-rule="evenodd">
        <mask id="mask-2" fill="white">
            <use xlink:href="#path-1"></use>
        </mask>
        <use id="Color" fill="#212121" xlink:href="#path-1"></use>
    </g>
</svg>