<?xml version="1.0" encoding="UTF-8"?>
<svg width="24px" height="24px" viewBox="0 0 24 24" version="1.1" xmlns="http://www.w3.org/2000/svg" xmlns:xlink="http://www.w3.org/1999/xlink">
    <title>⭕ Flag / Sent success</title>
    <defs>
        <path d="M21,4 L3,4 C2.45,4 2,4.45 2,5 L2,19 C2,19.55 2.45,20 3,20 L11,20 C11.55,20 12,19.55 12,19 C12,18.45 11.55,18 11,18 L5.4,18 L10,13.4 L11.3,14.7 C11.5,14.9 11.75,15 12,15 C12.25,15 12.5,14.9 12.7,14.7 L20,7.4 L20,10 C20,10.55 20.45,11 21,11 C21.55,11 22,10.55 22,10 L22,5 C22,4.45 21.55,4 21,4 Z M19.8204545,14.244938 L16.7832645,17.2821281 L15.6055785,16.1044421 C15.2336777,15.7325413 14.6758264,15.7325413 14.3039256,16.1044421 C13.9320248,16.476343 13.9320248,17.0341942 14.3039256,17.406095 L16.1634298,19.2655992 C16.3493802,19.4515496 16.597314,19.5135331 16.8452479,19.5135331 C17.0931818,19.5135331 17.3411157,19.4515496 17.5270661,19.2655992 L21.2460744,15.5465909 C21.6179752,15.1746901 21.6179752,14.6168388 21.2460744,14.244938 C20.8121901,13.9350207 20.1923554,13.9350207 19.8204545,14.244938 L19.8204545,14.244938 Z M4,16.6 L4,7.4 L8.6,12 L4,16.6 Z M12,12.6 L5.4,6 L18.55,6 L12,12.6 Z" id="path-1"></path>
    </defs>
    <g id="⭕-Flag-/-Sent-success" stroke="none" stroke-width="1" fill="none" fill-rule="evenodd">
        <mask id="mask-2" fill="white">
            <use xlink:href="#path-1"></use>
        </mask>
        <use id="Color" fill="#212121" xlink:href="#path-1"></use>
    </g>
</svg>