<?xml version="1.0" encoding="UTF-8"?>
<svg width="24px" height="24px" viewBox="0 0 24 24" version="1.1" xmlns="http://www.w3.org/2000/svg" xmlns:xlink="http://www.w3.org/1999/xlink">
    <title>⭕ Flag / SNMP</title>
    <defs>
        <path d="M3.55,10.45 C3.4,10.55 3.35,10.65 3.35,10.8 C3.35,10.95 3.4,11.05 3.55,11.15 C3.7,11.25 3.95,11.35 4.3,11.5 C4.65,11.6 4.95,11.75 5.15,11.85 C5.7,12.15 6,12.6 6,13.15 C6,13.6 5.85,13.95 5.5,14.2 C5.15,14.45 4.7,14.6 4.1,14.6 C3.7,14.6 3.3,14.55 3,14.4 C2.65,14.25 2.4,14.05 2.25,13.8 C2.1,13.55 2,13.25 2,12.9 L3.25,12.9 C3.25,13.15 3.3,13.35 3.45,13.5 C3.6,13.65 3.8,13.7 4.15,13.7 C4.35,13.7 4.5,13.65 4.65,13.55 C4.75,13.45 4.85,13.35 4.85,13.2 C4.85,13 4.8,12.9 4.65,12.8 C4.5,12.7 4.3,12.6 4,12.5 C3.7,12.4 3.4,12.3 3.2,12.2 C2.55,11.9 2.2,11.45 2.2,10.85 C2.2,10.55 2.3,10.3 2.45,10.1 C2.6,9.9 2.85,9.7 3.15,9.6 C3.45,9.5 3.8,9.4 4.15,9.4 C4.5,9.4 4.85,9.45 5.15,9.6 C5.45,9.75 5.65,9.9 5.85,10.15 C6,10.4 6.1,10.65 6.1,11 L4.8,11 C4.8,10.8 4.75,10.65 4.6,10.5 C4.45,10.4 4.3,10.35 4.1,10.35 C3.85,10.3 3.7,10.35 3.55,10.45 L3.55,10.45 Z M9.7,12.6 L7.9,9.4 L6.65,9.4 L6.65,14.5 L7.9,14.5 L7.9,11.35 L9.7,14.5 L10.9,14.5 L10.9,9.45 L9.65,9.45 L9.65,12.6 L9.7,12.6 Z M14.45,13 L13.3,9.45 L11.7,9.45 L11.7,14.55 L12.95,14.55 L12.95,13.35 L12.85,10.9 L14.1,14.55 L14.9,14.55 L16.15,10.9 L16.05,13.35 L16.05,14.55 L17.3,14.55 L17.3,9.45 L15.7,9.45 L14.45,13 Z M22,11.2 C22,11.7 21.8,12.1 21.45,12.4 C21.1,12.7 20.6,12.85 20,12.85 L19.2,12.85 L19.2,14.6 L18,14.6 L18,9.45 L20,9.45 C20.4,9.45 20.75,9.5 21.05,9.65 C21.35,9.8 21.6,10 21.75,10.25 C21.9,10.55 22,10.85 22,11.2 L22,11.2 Z M20.75,11.2 C20.75,10.95 20.7,10.75 20.55,10.65 C20.4,10.5 20.25,10.45 20,10.45 L19.2,10.45 L19.2,11.9 L20,11.9 C20.25,11.9 20.4,11.85 20.55,11.7 C20.7,11.55 20.75,11.4 20.75,11.2 Z" id="path-1"></path>
    </defs>
    <g id="⭕-Flag-/-SNMP" stroke="none" stroke-width="1" fill="none" fill-rule="evenodd">
        <mask id="mask-2" fill="white">
            <use xlink:href="#path-1"></use>
        </mask>
        <use id="Color" fill="#212121" xlink:href="#path-1"></use>
    </g>
</svg>