<?xml version="1.0" encoding="UTF-8"?>
<svg width="24px" height="24px" viewBox="0 0 24 24" version="1.1" xmlns="http://www.w3.org/2000/svg" xmlns:xlink="http://www.w3.org/1999/xlink">
    <title>⭕ Flag / SSO</title>
    <defs>
        <path d="M14.914168,11.1707872 C16.1957692,11.1821006 17.3720212,11.8689523 18.0048668,12.9776413 C18.6377123,14.0863303 18.6310073,15.4484202 17.9872772,16.5508251 C17.3435472,17.6532299 16.1605902,18.3284681 14.8840146,18.322184 C14.5184207,18.3314967 14.1546032,18.2682984 13.8135671,18.1362377 L13.8135671,18.1362377 L12.8084521,19.1413527 L12.8084521,20.3826697 C12.805693,20.7109957 12.5387463,20.9756991 12.2104087,20.9756875 L12.2104087,20.9756875 L10.9590406,20.9756875 L10.2403834,21.6893192 C10.1297619,21.8003427 9.97997824,21.8635045 9.82326065,21.8652143 L9.82326065,21.8652143 L8.31558818,21.8652143 C7.99039821,21.8543686 7.73244068,21.587516 7.73262139,21.2621453 L7.73262139,21.2621453 L7.73262139,19.327299 C7.73340653,19.1693795 7.79877907,19.0186594 7.91354219,18.9101762 L7.91354219,18.9101762 L11.3811889,15.4425296 C11.3477874,15.20605 11.3293237,14.9677003 11.3259075,14.7288979 C11.3397285,12.7577906 12.9430142,11.1679778 14.914168,11.1707872 L14.914168,11.1707872 Z M16.6174826,13.0785752 C15.9394895,12.3933848 14.9153847,12.1843282 14.0230841,12.5489653 C13.1307836,12.9136023 12.5461831,13.7800536 12.5420967,14.7439746 C12.5361599,14.9869533 12.5753525,15.2289248 12.6576849,15.4576063 C12.7286436,15.6677192 12.669611,15.8999143 12.5069176,16.0506241 L12.5069176,16.0506241 L8.91865717,19.5685265 L8.91865717,20.7043065 L9.5719819,20.7043065 L10.2906391,19.9906748 C10.4009504,19.8791921 10.5509319,19.8159469 10.7077618,19.8147797 L10.7077618,19.8147797 L11.592263,19.8147797 L11.592263,18.9202274 C11.5938313,18.7639335 11.6591879,18.6150657 11.7731837,18.5081302 L11.7731837,18.5081302 L13.2808562,17.0004578 C13.4760344,16.8224045 13.7627952,16.7880739 13.9944878,16.915023 C14.2670058,17.0925213 14.589614,17.1771399 14.914168,17.1562506 L14.914168,17.1562506 L14.9091425,17.1361483 C15.8730529,17.1422405 16.7456289,16.5668218 17.1196678,15.6784213 C17.4937066,14.7900209 17.2954756,13.7637656 16.6174826,13.0785752 Z M5.6068033,6.20049731 C6.78996724,3.47200326 9.57292861,1.79371155 12.538255,2.02041846 C15.5035814,2.24712537 17.9990707,4.32896836 18.7537073,7.20561229 C18.8542188,7.23576574 18.9547302,7.25586804 19.0552417,7.29104706 C20.5676311,7.8493373 21.6685353,9.17042235 21.9449473,10.7586937 C22.0761727,11.5882928 21.9716917,12.4380716 21.6434128,13.2111743 C21.5116146,13.5408013 21.2157093,13.7764558 20.8649458,13.8311336 C20.5141822,13.8858115 20.1605905,13.7514021 19.9347174,13.4775298 C19.7069733,13.2041678 19.6471809,12.828054 19.7789245,12.4975427 C20.0770523,11.8077227 20.0507904,11.0206782 19.7073414,10.3522663 C19.3638925,9.68385432 18.739311,9.20424328 18.0048966,9.0449727 C17.6731552,8.97850213 17.331523,8.97850213 16.9997816,9.0449727 L16.9997816,9.0449727 L16.9997816,8.99471695 C17.0008522,8.33906682 16.8709993,7.68980222 16.6178379,7.08499849 L16.6178379,7.08499849 L16.5232841,6.86862321 C15.7948518,5.30351722 14.3035904,4.22069384 12.5776086,4.02069596 C10.7731731,3.81160726 8.99782917,4.60052285 7.94369563,6.07988351 L7.94369563,6.07988351 L7.80118114,6.29244559 C7.66416935,6.5084974 7.54378802,6.73480188 7.44113814,6.96941027 L7.44113814,6.96941027 L7.44113814,6.99956372 C7.38083125,7.14027981 7.32554992,7.28602148 7.27529417,7.43678873 L7.27529417,7.43678873 L7.27529417,7.49709563 C7.22503842,7.6629396 7.17980825,7.82878357 7.14462923,7.99965312 L7.14462923,7.99965312 L7.04411773,7.99965312 C6.86708837,8.00088211 6.69051116,8.01769899 6.51643236,8.04990887 L6.51643236,8.04990887 L6.47622776,8.04990887 C6.30465233,8.07849463 6.1363172,8.12394511 5.97367027,8.18559939 L5.97367027,8.18559939 L5.92341452,8.18559939 C5.77194863,8.24541997 5.62570559,8.31770101 5.48618951,8.40169911 L5.48618951,8.40169911 L5.45101048,8.42682699 C5.30981493,8.51367835 5.17541373,8.61111922 5.04896449,8.71831033 C4.13389377,9.54966612 3.81902051,10.8553739 4.25458139,12.0124364 C4.69014227,13.1694988 5.78787547,13.9434496 7.02401543,13.9650105 L7.02401543,13.9650105 L8.94378504,13.9650105 C9.49889472,13.9650105 9.94890002,14.4150158 9.94890002,14.9701255 C9.94890002,15.5252352 9.49889472,15.9752405 8.94378504,15.9752405 L8.94378504,15.9752405 L7.0089387,15.9752405 C6.96049699,15.9804348 6.91163874,15.9804348 6.86319703,15.9752405 C4.4028571,15.9147578 2.35477753,14.0679421 2.04102409,11.6269404 C1.72727066,9.18593863 3.24173305,6.88121266 5.6068033,6.20049731 Z M15.4971347,13.557939 C15.6552874,13.5579333 15.8068905,13.6211012 15.9182485,13.7334029 C16.0296065,13.8457046 16.0914928,13.9978353 16.0901526,14.1559824 C16.090144,14.3983239 15.9438856,14.6167034 15.7197945,14.7089669 C15.4957034,14.8012305 15.2380848,14.7491366 15.0674481,14.5770538 C14.8968113,14.4049709 14.8468932,14.1469219 14.9410445,13.9236173 C15.0351958,13.7003128 15.2548018,13.5559025 15.4971347,13.557939 Z M9.07947556,7.36140511 C9.29376804,7.35851777 9.50621371,7.40134956 9.70264685,7.48704448 C9.87648537,7.55983016 10.0250517,7.68217892 10.1298207,7.83883472 C10.2275451,7.98828337 10.279909,8.16282995 10.280588,8.34139221 L9.5317773,8.34139221 C9.53786604,8.22656029 9.49386701,8.11472941 9.41116351,8.03483215 C9.31803891,7.96240131 9.20240076,7.92504129 9.08450114,7.92929507 C8.96842362,7.92071049 8.85296527,7.95268357 8.75783877,8.01975542 C8.68141272,8.07401558 8.63636579,8.16223248 8.63722497,8.25595744 C8.64093506,8.34691612 8.69000372,8.42995539 8.76788992,8.47708274 C8.91282734,8.5681406 9.07027989,8.63755516 9.23526839,8.68313131 C9.42417209,8.744295 9.6074474,8.82164055 9.78305605,8.91430775 C10.0945123,9.07278588 10.2892416,9.39408928 10.2856135,9.74352761 C10.3121275,10.003038 10.208662,10.25888 10.0092069,10.4270058 C9.75373281,10.6006662 9.44821244,10.6854348 9.13978246,10.6682334 C8.89622297,10.6726807 8.654556,10.6246901 8.4311764,10.5275173 C8.23732424,10.4484828 8.07120309,10.3138372 7.95374678,10.140548 C7.84643703,9.97446823 7.79049696,9.78042612 7.79292839,9.58270922 L8.5718925,9.58270922 C8.56158106,9.72099493 8.60886667,9.85739572 8.70255745,9.95962733 C8.82725945,10.0551076 8.98341563,10.09998 9.13978246,10.0852667 C9.24683119,10.0896581 9.35248182,10.0597238 9.44131696,9.99983193 C9.49858141,9.93752675 9.52283187,9.8517174 9.50664943,9.76865549 C9.51064238,9.66582861 9.46594932,9.56713143 9.38603563,9.50230002 C9.26787332,9.41918254 9.1395041,9.35161979 9.00409194,9.30127702 C8.83155092,9.24963441 8.66348113,9.18408718 8.50153445,9.1052796 C8.14027503,8.97730831 7.89211309,8.64377865 7.87333759,8.26098302 C7.86487914,8.09583878 7.90885498,7.93224867 7.99897696,7.79360455 C8.1144949,7.64942902 8.26751471,7.53988075 8.44122755,7.47699333 C8.64471256,7.39830502 8.86131833,7.3590772 9.07947556,7.36140511 Z M14.84381,7.36140511 C15.3643792,7.34764889 15.8445072,7.6408418 16.0700503,8.11021577 C16.1922117,8.36762696 16.2540861,8.64949911 16.250971,8.93441005 L16.2559965,9.08015173 C16.2611557,9.36795215 16.2010175,9.65317888 16.0801014,9.91439716 C15.972033,10.1463477 15.7969998,10.3406346 15.5775439,10.472236 C15.3579504,10.6049003 15.1053505,10.6728409 14.8488356,10.6682334 C14.5929978,10.6727575 14.3408626,10.6066807 14.1201272,10.4772615 C13.9050728,10.3492149 13.7307957,10.1627384 13.6175697,9.93952503 C13.4937076,9.68787875 13.4300497,9.41088062 13.4316234,9.13040747 L13.4316234,8.94948678 C13.4247756,8.66368234 13.4832145,8.38008167 13.602493,8.12026692 C13.7105614,7.88831637 13.8855946,7.69402953 14.1050505,7.5624281 C14.3278866,7.42818412 14.5836765,7.35858144 14.84381,7.36140511 Z M11.9289765,7.35637953 C12.1431556,7.35469295 12.3553539,7.39747486 12.5521478,7.48201891 C12.7246508,7.55700214 12.872652,7.67888551 12.9793217,7.83380915 C13.077046,7.98325779 13.12941,8.15780437 13.1300889,8.33636664 L12.361176,8.33636664 C12.3672647,8.22153472 12.3232657,8.10970384 12.2405622,8.02980657 C12.1487615,7.95490914 12.0321689,7.91724078 11.9138998,7.9242695 C11.7981077,7.9184191 11.6835257,7.95014949 11.5872374,8.01472985 C11.5092187,8.0645963 11.4620091,8.15079985 11.4620091,8.2433935 C11.4620091,8.33598716 11.5092187,8.42219071 11.5872374,8.47205716 C11.7321749,8.56311502 11.8896274,8.63252958 12.0546159,8.67810573 C12.2438693,8.73832604 12.4272268,8.81570628 12.6024036,8.90928218 C12.913027,9.06865582 13.1074099,9.38938764 13.1049611,9.73850204 C13.1151616,9.99828499 12.9967338,10.2464194 12.7883498,10.4018779 C12.5307002,10.5749039 12.2238201,10.6595605 11.9138998,10.6431055 C11.6703403,10.6475529 11.4286733,10.5995622 11.2052937,10.5023894 C11.0029852,10.4263089 10.8279945,10.291566 10.7027363,10.1154202 C10.5954265,9.94934035 10.5394864,9.75529824 10.5419179,9.55758134 L11.320882,9.55758134 C11.3119183,9.69659671 11.3610581,9.83309619 11.4565725,9.93449946 C11.5790269,10.0305853 11.7338901,10.0756036 11.8887719,10.0601388 C11.9958207,10.0645302 12.1014713,10.0345959 12.1903064,9.97470406 C12.2795303,9.9408426 12.3444107,9.86260452 12.361176,9.76865549 C12.3651689,9.66582861 12.3204759,9.56713143 12.2405622,9.50230002 C12.1098812,9.41598327 11.9677951,9.34832326 11.8184139,9.30127702 C11.6459989,9.24926864 11.4779579,9.18373266 11.3158564,9.1052796 C10.954856,8.97798892 10.7079444,8.64346359 10.6926851,8.26098302 C10.6896699,8.09042351 10.7445925,7.92388401 10.8484779,7.78857898 C10.962622,7.64514704 11.113817,7.53566098 11.2857029,7.47196776 C11.4909266,7.39324216 11.7091836,7.35402411 11.9289765,7.35637953 Z M14.8488356,7.96949967 C14.4635415,7.96949967 14.2574929,8.26098302 14.2306898,8.8439497 L14.2306898,9.08015173 C14.2163553,9.3310189 14.2701898,9.58108852 14.3864827,9.80383451 C14.4817535,9.96972096 14.6629414,10.0671338 14.8538611,10.0551133 C15.0384259,10.0623846 15.212105,9.96782596 15.3061629,9.80886009 C15.4254909,9.58889927 15.4811789,9.34004354 15.4669813,9.09020288 L15.4669813,8.9444612 C15.4815884,8.69298249 15.4259038,8.44240201 15.3061629,8.22077842 C15.2125566,8.05823896 15.0362251,7.96135356 14.8488356,7.96949967 Z" id="path-1"></path>
    </defs>
    <g id="⭕-Flag-/-SSO" stroke="none" stroke-width="1" fill="none" fill-rule="evenodd">
        <mask id="mask-2" fill="white">
            <use xlink:href="#path-1"></use>
        </mask>
        <use id="Color" fill="#212121" xlink:href="#path-1"></use>
    </g>
</svg>