<?xml version="1.0" encoding="UTF-8"?>
<svg width="24px" height="24px" viewBox="0 0 24 24" version="1.1" xmlns="http://www.w3.org/2000/svg" xmlns:xlink="http://www.w3.org/1999/xlink">
    <title>⭕ Flag / Tiers</title>
    <defs>
        <path d="M21.9,20.55 L12.9,3.55 C12.7,3.2 12.35,3 12,3 C11.65,3 11.3,3.2 11.1,3.55 L2.1,20.55 C1.95,20.85 1.95,21.25 2.15,21.55 C2.35,21.85 2.65,22.05 3,22.05 L21,22.05 C21.35,22.05 21.7,21.85 21.85,21.55 C22.05,21.2 22.05,20.85 21.9,20.55 Z M8.9,12 L15.1,12 L16.7,15 L7.3,15 L8.9,12 Z M12,6.15 L14.05,10 L9.95,10 L12,6.15 Z M4.65,20 L6.25,17 L17.75,17 L19.35,20 L4.65,20 Z" id="path-1"></path>
    </defs>
    <g id="⭕-Flag-/-Tiers" stroke="none" stroke-width="1" fill="none" fill-rule="evenodd">
        <mask id="mask-2" fill="white">
            <use xlink:href="#path-1"></use>
        </mask>
        <use id="Color" fill="#212121" xlink:href="#path-1"></use>
    </g>
</svg>