<?xml version="1.0" encoding="UTF-8"?>
<svg width="24px" height="24px" viewBox="0 0 24 24" version="1.1" xmlns="http://www.w3.org/2000/svg" xmlns:xlink="http://www.w3.org/1999/xlink">
    <title>⭕ Flag / Tunnels</title>
    <defs>
        <path d="M12,3 C7.05,3 3,7.05 3,12 L3,20 C3,20.4 3.25,20.75 3.6,20.9 C3.75,21 3.85,21 4,21 C4.25,21 4.5,20.9 4.7,20.7 L9.7,15.7 C9.9,15.5 10,15.25 10,15 L10,12.5 C10.05,11.4 11,10.5 12,10.5 C12.55,10.5 13.05,10.7 13.4,11.1 C13.8,11.5 14,12 14,12.5 L14,15 C14,15.25 14.1,15.5 14.3,15.7 L19.3,20.7 C19.6,21 20,21.05 20.4,20.9 C20.75,20.75 21,20.4 21,20 L21,12 C21,7.05 16.95,3 12,3 L12,3 Z M19,17.6 L16,14.6 L16,12.5 C16,10.3 14.2,8.5 12,8.5 C9.9,8.5 8.1,10.25 8,12.45 L8,12.55 L8,14.6 L5,17.6 L5,12 C5,8.15 8.15,5 12,5 C15.85,5 19,8.15 19,12 L19,17.6 Z M11.65,18 C11.45,18 11.3,17.8 11.3,17.6 L11.45,16 C11.45,15.8 11.65,15.7 11.8,15.7 L12.15,15.7 C12.35,15.7 12.5,15.85 12.5,16 L12.65,17.6 C12.65,17.8 12.5,18 12.3,18 L11.65,18 Z M11.45,19 L12.55,19 C12.7,19 12.85,19.1 12.85,19.25 L12.95,20.6 C12.95,20.8 12.8,21 12.6,21 L11.4,21 C11.2,21 11,20.8 11.05,20.6 L11.15,19.25 C11.2,19.1 11.3,19 11.45,19 L11.45,19 Z" id="path-1"></path>
    </defs>
    <g id="⭕-Flag-/-Tunnels" stroke="none" stroke-width="1" fill="none" fill-rule="evenodd">
        <mask id="mask-2" fill="white">
            <use xlink:href="#path-1"></use>
        </mask>
        <use id="Color" fill="#212121" xlink:href="#path-1"></use>
    </g>
</svg>