<?xml version="1.0" encoding="UTF-8"?>
<svg width="24px" height="24px" viewBox="0 0 24 24" version="1.1" xmlns="http://www.w3.org/2000/svg" xmlns:xlink="http://www.w3.org/1999/xlink">
    <title>⭕ Flag / Unsubscribed</title>
    <defs>
        <path d="M21,4 L3,4 C2.45,4 2,4.45 2,5 L2,19 C2,19.55 2.45,20 3,20 L12,20 C12.55,20 13,19.55 13,19 C13,18.45 12.55,18 12,18 L5.4,18 L10,13.4 L11.3,14.7 C11.5,14.9 11.75,15 12,15 C12.25,15 12.5,14.9 12.7,14.7 L20,7.4 L20,12 C20,12.55 20.45,13 21,13 C21.55,13 22,12.55 22,12 L22,5 C22,4.45 21.55,4 21,4 Z M4,16.6 L4,7.4 L8.6,12 L4,16.6 Z M12,12.6 L5.4,6 L18.55,6 L12,12.6 Z M20.7,16.7 L19.4,18 L20.7,19.3 C21.1,19.7 21.1,20.3 20.7,20.7 C20.5,20.9 20.25,21 20,21 C19.75,21 19.5,20.9 19.3,20.7 L18,19.4 L16.7,20.7 C16.5,20.9 16.25,21 16,21 C15.75,21 15.5,20.9 15.3,20.7 C14.9,20.3 14.9,19.7 15.3,19.3 L16.6,18 L15.3,16.7 C14.9,16.3 14.9,15.7 15.3,15.3 C15.7,14.9 16.3,14.9 16.7,15.3 L18,16.6 L19.3,15.3 C19.7,14.9 20.3,14.9 20.7,15.3 C21.1,15.7 21.1,16.3 20.7,16.7 Z" id="path-1"></path>
    </defs>
    <g id="⭕-Flag-/-Unsubscribed" stroke="none" stroke-width="1" fill="none" fill-rule="evenodd">
        <mask id="mask-2" fill="white">
            <use xlink:href="#path-1"></use>
        </mask>
        <use id="Color" fill="#212121" xlink:href="#path-1"></use>
    </g>
</svg>