<?xml version="1.0" encoding="UTF-8"?>
<svg width="24px" height="24px" viewBox="0 0 24 24" version="1.1" xmlns="http://www.w3.org/2000/svg" xmlns:xlink="http://www.w3.org/1999/xlink">
    <title>⭕ Flag / Virtual Machine Host</title>
    <defs>
        <path d="M21,6 L18,6 L18,3 C18,2.45 17.55,2 17,2 L3,2 C2.45,2 2,2.45 2,3 L2,13.5 C2,14.05 2.45,14.5 3,14.5 L6,14.5 L6,17.5 C6,18.05 6.45,18.5 7,18.5 L13,18.5 L13,20 L11.5,20 C10.95,20 10.5,20.45 10.5,21 C10.5,21.55 10.95,22 11.5,22 L16.5,22 C17.05,22 17.5,21.55 17.5,21 C17.5,20.45 17.05,20 16.5,20 L15,20 L15,18.5 L21,18.5 C21.55,18.5 22,18.05 22,17.5 L22,7 C22,6.45 21.55,6 21,6 Z M4,12.5 L4,4 L16,4 L16,6 L7,6 C6.45,6 6,6.45 6,7 L6,12.5 L4,12.5 Z M20,16.5 L8,16.5 L8,8 L20,8 L20,16.5 Z M11.6,14.75 L11.6,9.75 L13.1,9.75 L13.1,11.5 L15.1,11.5 L15.1,9.75 L16.6,9.75 L16.6,14.75 L15.1,14.75 L15.1,13 L13.1,13 L13.1,14.75 L11.6,14.75 L11.6,14.75 Z" id="path-1"></path>
    </defs>
    <g id="⭕-Flag-/-Virtual-Machine-Host" stroke="none" stroke-width="1" fill="none" fill-rule="evenodd">
        <mask id="mask-2" fill="white">
            <use xlink:href="#path-1"></use>
        </mask>
        <use id="Color" fill="#212121" xlink:href="#path-1"></use>
    </g>
</svg>