<?xml version="1.0" encoding="UTF-8"?>
<svg width="24px" height="24px" viewBox="0 0 24 24" version="1.1" xmlns="http://www.w3.org/2000/svg" xmlns:xlink="http://www.w3.org/1999/xlink">
    <title>⭕ Flag / vPRO</title>
    <defs>
        <path d="M2,10.2 L2,10.15 C2,10.1 2,10.05 2.05,10.05 C2.1,10 2.1,10 2.15,10 L3.05,10 C3.15,10 3.2,10.05 3.25,10.2 L4.1,14.6 C4.15,14.8 4.2,14.85 4.3,14.85 C4.4,14.85 4.45,14.75 4.45,14.6 L5.35,10.2 C5.35,10.15 5.4,10.05 5.4,10.05 C5.45,10 5.45,10 5.5,10 L6.4,10 C6.45,10 6.5,10 6.5,10.05 C6.55,10.1 6.55,10.1 6.55,10.15 L6.55,10.2 L5.4,15 C5.25,15.65 4.85,16 4.25,16 C3.65,16 3.25,15.65 3.1,15 L2,10.2 Z M12,10.45 L12,10.55 C12,11.4 11.75,12.05 11.3,12.45 C10.8,12.85 10.2,13.05 9.4,13.05 L9.1,13.05 L8.8,13.05 L8.6,13.05 L8.6,15.8 C8.6,15.85 8.6,15.9 8.55,15.95 C8.5,16 8.5,16 8.45,16 L7.5,16 C7.45,16 7.4,16 7.4,15.95 C7.35,15.9 7.35,15.85 7.35,15.8 L7.35,8.45 C7.35,8.35 7.4,8.3 7.4,8.25 C7.45,8.2 7.5,8.2 7.6,8.15 C8.1,8.05 8.7,8 9.4,8 C10.2,8 10.8,8.2 11.3,8.55 C11.75,8.95 12,9.55 12,10.45 L12,10.45 Z M10.75,10.45 C10.75,10 10.65,9.7 10.4,9.5 C10.2,9.3 9.85,9.2 9.35,9.2 C9.05,9.2 8.8,9.2 8.55,9.25 L8.55,11.75 C8.85,11.75 9.1,11.8 9.35,11.8 C9.65,11.8 9.95,11.75 10.15,11.65 C10.35,11.55 10.5,11.4 10.6,11.25 C10.7,11.05 10.75,10.85 10.75,10.55 L10.75,10.45 L10.75,10.45 Z M14.85,9.9 C14.55,9.9 14.25,9.95 13.9,10 C13.55,10.05 13.2,10.15 12.95,10.25 C12.85,10.3 12.75,10.35 12.75,10.45 L12.75,15.7 C12.75,15.75 12.75,15.8 12.8,15.85 C12.85,15.9 12.9,15.9 12.95,15.9 L13.8,15.9 C13.85,15.9 13.9,15.9 13.95,15.85 C14,15.8 14,15.75 14,15.7 L14,11.2 C14.3,11.15 14.6,11.1 14.9,11.1 L15.15,11.1 L15.35,11.1 C15.45,11.1 15.55,11.05 15.55,10.9 L15.55,10.15 C15.55,10.05 15.5,9.95 15.35,9.95 C15.15,9.9 15,9.9 14.85,9.9 L14.85,9.9 Z M17.85,9.9 C18.3,9.9 18.7,10 19.05,10.25 C19.35,10.45 19.6,10.8 19.8,11.2 C19.9,11.55 20,12 20,12.5 L20,13.35 C20,13.85 19.9,14.3 19.75,14.7 C19.6,15.1 19.35,15.4 19,15.65 C18.7,15.85 18.3,16 17.8,16 C17.3,16 16.95,15.9 16.6,15.65 C16.25,15.4 16.05,15.1 15.85,14.7 C15.7,14.3 15.6,13.85 15.6,13.35 L15.6,12.5 C15.6,12 15.7,11.55 15.85,11.15 C16,10.75 16.25,10.45 16.6,10.2 C16.95,10 17.35,9.9 17.85,9.9 L17.85,9.9 Z M17.85,11.1 C17.55,11.1 17.3,11.2 17.15,11.5 C17,11.75 16.9,12.1 16.9,12.55 L16.9,13.4 C16.9,13.85 17,14.2 17.15,14.45 C17.3,14.7 17.55,14.85 17.85,14.85 C18.15,14.85 18.4,14.75 18.55,14.45 C18.7,14.2 18.8,13.85 18.8,13.4 L18.8,12.5 C18.8,12.05 18.7,11.7 18.55,11.45 C18.4,11.2 18.15,11.1 17.85,11.1 L17.85,11.1 Z M19,9 L19,7.4 L19.55,7.4 L19.55,7 L18,7 L18,7.4 L18.55,7.4 L18.55,9 L19,9 Z M20.9,8.3 L20.4,7 L19.75,7 L19.75,9 L20.2,9 L20.2,7.6 L20.7,9 L21,9 L21.5,7.6 L21.5,9 L22,9 L22,7 L21.4,7 L20.9,8.3 Z" id="path-1"></path>
    </defs>
    <g id="⭕-Flag-/-vPRO" stroke="none" stroke-width="1" fill="none" fill-rule="evenodd">
        <mask id="mask-2" fill="white">
            <use xlink:href="#path-1"></use>
        </mask>
        <use id="Color" fill="#212121" xlink:href="#path-1"></use>
    </g>
</svg>