<?xml version="1.0" encoding="UTF-8"?>
<svg width="24px" height="24px" viewBox="0 0 24 24" version="1.1" xmlns="http://www.w3.org/2000/svg" xmlns:xlink="http://www.w3.org/1999/xlink">
    <title>⭕ Flag / WSUS</title>
    <defs>
        <path d="M18,14 C15.8,14 14,15.8 14,18 C14,20.2 15.8,22 18,22 C20.2,22 22,20.2 22,18 C22,15.8 20.2,14 18,14 Z M20.05,17.55 L18.05,19.55 C17.9,19.7 17.7,19.75 17.5,19.75 C17.3,19.75 17.1,19.7 16.95,19.55 L15.95,18.55 C15.65,18.25 15.65,17.8 15.95,17.5 C16.25,17.2 16.7,17.2 17,17.5 L17.45,17.95 L18.9,16.5 C19.2,16.2 19.65,16.2 19.95,16.5 C20.25,16.8 20.3,17.25 20.05,17.55 Z M11.5,21.85 C11.6,21.9 11.65,21.95 11.7,21.95 L11.75,21.95 C11.85,21.95 11.9,22 12,22 C12.1,22 12.15,22 12.25,21.95 L12.3,21.95 C12.35,21.95 12.4,21.9 12.45,21.9 C12.45,21.9 12.5,21.9 12.5,21.85 C12.55,21.8 12.6,21.8 12.65,21.75 C12.65,21.75 12.7,21.75 12.7,21.7 C12.75,21.65 12.8,21.6 12.85,21.5 C12.85,21.5 12.85,21.45 12.9,21.45 C12.9,21.4 12.95,21.4 12.95,21.35 C12.95,21.3 12.95,21.3 13,21.25 L13,21.15 L13,21.05 L13,21 L13,13 L19,13 C19.55,13 20,12.55 20,12 L20,5.5 C20,4.95 19.55,4.5 19,4.5 C16.45,4.5 15,4.2 12.65,2.25 C12.65,2.25 12.6,2.25 12.6,2.2 L12.55,2.15 C12.5,2.15 12.5,2.1 12.45,2.1 C12.45,2.1 12.4,2.1 12.4,2.05 C12.35,2.05 12.35,2.05 12.3,2 L12.25,2 L11.9,2 L11.85,2 C11.8,2 11.8,2 11.75,2.05 C11.75,2.05 11.7,2.05 11.7,2.1 C11.65,2.1 11.65,2.15 11.6,2.15 L11.55,2.2 C11.55,2.2 11.5,2.2 11.5,2.25 C9,4.2 7.55,4.5 5,4.5 C4.45,4.5 4,4.95 4,5.5 L4,14 C4,17.45 6.15,18.7 9.45,20.65 C10.05,21 10.75,21.4 11.5,21.85 L11.5,21.85 Z M18,11 L13,11 L13,4.95 C14.7,6 16.2,6.4 18,6.45 L18,11 Z M11,4.95 L11,11 L6,11 L6,6.5 C7.8,6.4 9.3,6.05 11,4.95 Z M6,14 L6,13 L11,13 L11,19.25 C10.8,19.15 10.6,19.05 10.45,18.9 C7.15,16.95 6,16.2 6,14 L6,14 Z" id="path-1"></path>
    </defs>
    <g id="⭕-Flag-/-WSUS" stroke="none" stroke-width="1" fill="none" fill-rule="evenodd">
        <mask id="mask-2" fill="white">
            <use xlink:href="#path-1"></use>
        </mask>
        <use id="Color" fill="#212121" xlink:href="#path-1"></use>
    </g>
</svg>