<svg id="Layer_1" data-name="Layer 1" xmlns="http://www.w3.org/2000/svg" viewBox="0 0 48 48"><defs><style>.cls-1{fill:#fff;}</style></defs><path class="cls-1" d="M40.74,21.08H12.92L24.07,9.93A2.76,2.76,0,0,0,20.17,6L4.31,21.89a2.86,2.86,0,0,0-.35.43l-.08.16a1.74,1.74,0,0,0-.18.33l-.06.2c0,.11-.07.22-.09.33a2.11,2.11,0,0,0,0,.25,2.42,2.42,0,0,0,0,.25s0,0,0,.06,0,0,0,.06l0,.2a1.67,1.67,0,0,0,.05.31,1.87,1.87,0,0,0,.07.22,1.82,1.82,0,0,0,.11.3,2.12,2.12,0,0,0,.11.21,1.45,1.45,0,0,0,.17.26,1.39,1.39,0,0,0,.15.19l.21.22a.6.6,0,0,0,.08.08L20.34,39.33a2.76,2.76,0,0,0,3.56-4.22L13.81,26.6H40.74a2.76,2.76,0,0,0,0-5.52Z"/></svg>