<svg id="Layer_1" data-name="Layer 1" xmlns="http://www.w3.org/2000/svg" viewBox="0 0 200 200"><defs><style>.cls-1{fill:#06c;}</style></defs><path class="cls-1" d="M21.24,63.88C42,64.74,60.15,72.7,78.18,81a191,191,0,0,1,19.6,10.94c3.41,2.08,6.07,2.17,9.55,0a191.15,191.15,0,0,1,62.83-26.07,66,66,0,0,1,14.4-1.13c1.73,0,3.45,1.79,5.17,2.77-1.33,1.27-2.44,3.12-4,3.72a127.82,127.82,0,0,0-44.9,29.19c-16.62,16.47-25.3,37.22-32.07,59.05-.7,2.28-2.31,5.08-4.27,6-3.9,1.86-6.19-.51-8.14-5.49-5.07-13-9.4-26.45-16.1-38.58-13-23.64-33.81-39-58.51-49.19-.62-.25-1.42-.27-1.86-.69-1.55-1.45-3-3-4.44-4.57Z"/><path class="cls-1" d="M103,33.85c21.89.15,41.75,6,59,19.8a28.8,28.8,0,0,1,3,2.64c2,2.15,1.8,3.88-1.24,4.68-4.17,1.1-8.4,2-12.55,3.17a180.36,180.36,0,0,0-44.71,19.44,8.29,8.29,0,0,1-7.13.12C81.65,73.29,63,65.54,42.94,61.38c-1.31-.27-2.46-1.38-3.68-2.11.9-1.49,1.48-3.37,2.74-4.43A84.89,84.89,0,0,1,86.07,35.28C91.66,34.52,97.32,34.31,103,33.85Z"/><path class="cls-1" d="M54.2,101.43c-6.8,3.83-10.91,8.93-9.13,16.77a12.68,12.68,0,0,0,10.14,9.93c6.57,1.46,11.71-1.17,15.77-7.69,3.06,4.85,6,9.16,8.47,13.69.43.77-.35,2.83-1.2,3.62C67,148.23,47.8,146.83,37.45,134.9S28.08,103.79,39.71,94c2.18-1.85,3.92-2,6,0C48.38,96.41,51.16,98.75,54.2,101.43Z"/><path class="cls-1" d="M10.28,125c-.5-14.08,2.64-27.41,8.44-40.17,2.36-5.18,3.81-5.62,8.8-2.9,1.16.63,2.33,1.28,3.47,2,4.66,2.8,4.85,4.19,1.24,8.45-10.44,12.31-12.26,27.61-5,41.9,2.45,4.82,1.73,6.42-3.56,7.63a22.21,22.21,0,0,1-4.92.65c-5.9,0-7.68-1.68-8.37-7.53a12.59,12.59,0,0,1-.1-1.5C10.27,130.63,10.28,127.8,10.28,125Z"/></svg>