<?xml version="1.0" encoding="UTF-8"?>
<svg width="24px" height="24px" viewBox="0 0 24 24" version="1.1" xmlns="http://www.w3.org/2000/svg" xmlns:xlink="http://www.w3.org/1999/xlink">
    <title>⭕ Application / ConnectWise Apps</title>
    <defs>
        <path d="M8,12 C8,13.1 7.1,14 6,14 C4.9,14 4,13.1 4,12 C4,10.9 4.9,10 6,10 C7.1,10 8,10.9 8,12 Z M12,10 C10.9,10 10,10.9 10,12 C10,13.1 10.9,14 12,14 C13.1,14 14,13.1 14,12 C14,10.9 13.1,10 12,10 Z M18,10 C16.9,10 16,10.9 16,12 C16,13.1 16.9,14 18,14 C19.1,14 20,13.1 20,12 C20,10.9 19.1,10 18,10 Z M8,6 C8,7.1 7.1,8 6,8 C4.9,8 4,7.1 4,6 C4,4.9 4.9,4 6,4 C7.1,4 8,4.9 8,6 Z M12,4 C10.9,4 10,4.9 10,6 C10,7.1 10.9,8 12,8 C13.1,8 14,7.1 14,6 C14,4.9 13.1,4 12,4 Z M18,4 C16.9,4 16,4.9 16,6 C16,7.1 16.9,8 18,8 C19.1,8 20,7.1 20,6 C20,4.9 19.1,4 18,4 Z M8,18 C8,19.1 7.1,20 6,20 C4.9,20 4,19.1 4,18 C4,16.9 4.9,16 6,16 C7.1,16 8,16.9 8,18 Z M12,16 C10.9,16 10,16.9 10,18 C10,19.1 10.9,20 12,20 C13.1,20 14,19.1 14,18 C14,16.9 13.1,16 12,16 Z M18,16 C16.9,16 16,16.9 16,18 C16,19.1 16.9,20 18,20 C19.1,20 20,19.1 20,18 C20,16.9 19.1,16 18,16 Z" id="path-1"></path>
    </defs>
    <g id="⭕-Application-/-ConnectWise-Apps" stroke="none" stroke-width="1" fill="none" fill-rule="evenodd">
        <mask id="mask-2" fill="white">
            <use xlink:href="#path-1"></use>
        </mask>
        <use id="🎨-Icon-Color" fill="#212121" xlink:href="#path-1"></use>
    </g>
</svg>