<?xml version="1.0" encoding="UTF-8"?>
<svg width="24px" height="24px" viewBox="0 0 24 24" version="1.1" xmlns="http://www.w3.org/2000/svg" xmlns:xlink="http://www.w3.org/1999/xlink">
    <title>⭕ Application / Finance</title>
    <defs>
        <path d="M11,7 C11,7.55 10.55,8 10,8 L8,8 L8,10 C8,10.55 7.55,11 7,11 C6.45,11 6,10.55 6,10 L6,8 L4,8 C3.45,8 3,7.55 3,7 C3,6.45 3.45,6 4,6 L6,6 L6,4 C6,3.45 6.45,3 7,3 C7.55,3 8,3.45 8,4 L8,6 L10,6 C10.55,6 11,6.45 11,7 Z M14,8 L20,8 C20.55,8 21,7.55 21,7 C21,6.45 20.55,6 20,6 L14,6 C13.45,6 13,6.45 13,7 C13,7.55 13.45,8 14,8 Z M10,14 L4,14 C3.45,14 3,14.45 3,15 C3,15.55 3.45,16 4,16 L10,16 C10.55,16 11,15.55 11,15 C11,14.45 10.55,14 10,14 Z M10,18 L4,18 C3.45,18 3,18.45 3,19 C3,19.55 3.45,20 4,20 L10,20 C10.55,20 11,19.55 11,19 C11,18.45 10.55,18 10,18 Z M20.7,13.3 C20.3,12.9 19.7,12.9 19.3,13.3 L17,15.6 L14.7,13.3 C14.3,12.9 13.7,12.9 13.3,13.3 C12.9,13.7 12.9,14.3 13.3,14.7 L15.6,17 L13.3,19.3 C12.9,19.7 12.9,20.3 13.3,20.7 C13.5,20.9 13.75,21 14,21 C14.25,21 14.5,20.9 14.7,20.7 L17,18.4 L19.3,20.7 C19.5,20.9 19.75,21 20,21 C20.25,21 20.5,20.9 20.7,20.7 C21.1,20.3 21.1,19.7 20.7,19.3 L18.4,17 L20.7,14.7 C21.1,14.3 21.1,13.7 20.7,13.3 L20.7,13.3 Z" id="path-1"></path>
    </defs>
    <g id="⭕-Application-/-Finance" stroke="none" stroke-width="1" fill="none" fill-rule="evenodd">
        <mask id="mask-2" fill="white">
            <use xlink:href="#path-1"></use>
        </mask>
        <use id="🎨-Icon-Color" fill="#212121" xlink:href="#path-1"></use>
    </g>
</svg>