<?xml version="1.0" encoding="UTF-8"?>
<svg width="24px" height="24px" viewBox="0 0 24 24" version="1.1" xmlns="http://www.w3.org/2000/svg" xmlns:xlink="http://www.w3.org/1999/xlink">
    <title>⭕ Application / Help</title>
    <defs>
        <path d="M12,2 C6.5,2 2,6.5 2,12 C2,17.5 6.5,22 12,22 C17.5,22 22,17.5 22,12 C22,6.5 17.5,2 12,2 Z M12,20 C7.6,20 4,16.4 4,12 C4,7.6 7.6,4 12,4 C16.4,4 20,7.6 20,12 C20,16.4 16.4,20 12,20 Z M13,17 C13,17.55 12.55,18 12,18 C11.45,18 11,17.55 11,17 C11,16.45 11.45,16 12,16 C12.55,16 13,16.45 13,17 Z M16,10 C16,12.2 13.65,12.65 13.1,14.3 C12.95,14.85 12.4,15.15 11.85,15 C11.3,14.85 11,14.3 11.15,13.75 C11.9,11.75 13.95,11.7 13.95,10 C13.95,8.9 13.05,8 11.95,8 C11.1,8 10.35,8.55 10.05,9.35 C9.9,9.85 9.35,10.1 8.85,10 C8.3,9.85 8,9.3 8.15,8.8 C8.8,7.05 10.25,6.05 11.95,6.05 C14.2,6 16,7.8 16,10 Z" id="path-1"></path>
    </defs>
    <g id="⭕-Application-/-Help" stroke="none" stroke-width="1" fill="none" fill-rule="evenodd">
        <mask id="mask-2" fill="white">
            <use xlink:href="#path-1"></use>
        </mask>
        <use id="🎨-Icon-Color" fill="#212121" xlink:href="#path-1"></use>
    </g>
</svg>