<?xml version="1.0" encoding="UTF-8"?>
<svg width="24px" height="24px" viewBox="0 0 24 24" version="1.1" xmlns="http://www.w3.org/2000/svg" xmlns:xlink="http://www.w3.org/1999/xlink">
    <title>⭕ Action / Search</title>
    <defs>
        <path d="M10,17 C11.55,17 13,16.45 14.2,15.6 L19.3,20.7 C19.5,20.9 19.75,21 20,21 C20.25,21 20.5,20.9 20.7,20.7 C21.1,20.3 21.1,19.7 20.7,19.3 L15.6,14.2 C16.45,13 17,11.55 17,10 C17,6.15 13.85,3 10,3 C6.15,3 3,6.15 3,10 C3,13.85 6.15,17 10,17 Z M10,5 C12.75,5 15,7.25 15,10 C15,12.75 12.75,15 10,15 C7.25,15 5,12.75 5,10 C5,7.25 7.25,5 10,5 Z" id="path-1"></path>
    </defs>
    <g id="⭕-Action-/-Search" stroke="none" stroke-width="1" fill="none" fill-rule="evenodd">
        <mask id="mask-2" fill="white">
            <use xlink:href="#path-1"></use>
        </mask>
        <use id="Color" fill="#333333" xlink:href="#path-1"></use>
    </g>
</svg>