<?xml version="1.0" encoding="UTF-8"?>
<svg width="24px" height="24px" viewBox="0 0 24 24" version="1.1" xmlns="http://www.w3.org/2000/svg" xmlns:xlink="http://www.w3.org/1999/xlink">
    <title>⭕ Application / Settings</title>
    <defs>
        <path d="M12,8.5 C10.05,8.5 8.5,10.05 8.5,12 C8.5,13.95 10.05,15.5 12,15.5 C13.95,15.5 15.5,13.95 15.5,12 C15.5,10.05 13.95,8.5 12,8.5 Z M12,13.5 C11.15,13.5 10.5,12.85 10.5,12 C10.5,11.15 11.15,10.5 12,10.5 C12.85,10.5 13.5,11.15 13.5,12 C13.5,12.85 12.85,13.5 12,13.5 Z M20.5,13.4 L19.15,12.35 L19.15,11.95 L19.15,11.55 L20.5,10.5 C21,10.1 21.15,9.4 20.85,8.8 L19.2,6 C18.9,5.45 18.2,5.2 17.6,5.4 L15.95,6.05 C15.7,5.9 15.5,5.75 15.25,5.65 L15,4 C14.9,3.5 14.35,3 13.65,3 L10.3,3 C9.65,3 9.1,3.5 9,4.1 L8.75,5.75 C8.5,5.85 8.3,6 8.05,6.15 L6.4,5.5 C5.8,5.25 5.1,5.5 4.8,6.05 L3.15,8.85 C2.85,9.45 3,10.2 3.5,10.6 L4.85,11.65 L4.85,12.05 L4.85,12.45 L3.5,13.4 C3,13.8 2.85,14.5 3.15,15.1 L4.8,17.9 C5.1,18.45 5.8,18.7 6.4,18.5 L8.05,17.85 C8.3,18 8.5,18.15 8.75,18.25 L9,19.9 C9.1,20.55 9.65,21.05 10.3,21.05 L13.65,21.05 C14.3,21.05 14.85,20.55 14.95,19.95 L15.2,18.3 C15.45,18.2 15.65,18.05 15.9,17.9 L17.55,18.55 C18.15,18.8 18.85,18.55 19.15,18 L20.85,15.2 C21.15,14.5 21,13.8 20.5,13.4 L20.5,13.4 Z M17.3,11.3 C17.35,11.6 17.35,11.8 17.35,12 C17.35,12.2 17.35,12.4 17.3,12.7 L17.25,13.2 L19.05,14.6 L17.8,16.65 L15.65,15.8 L15.25,16.1 C14.85,16.4 14.45,16.6 14.05,16.8 L13.55,17 L13.2,19.25 L10.7,19.25 L10.35,17 L9.85,16.8 C9.45,16.65 9.05,16.4 8.65,16.1 L8.25,15.8 L6.1,16.65 L4.85,14.6 L6.65,13.2 L6.6,12.7 C6.55,12.45 6.55,12.2 6.55,12 C6.55,11.8 6.55,11.6 6.6,11.3 L6.65,10.8 L4.85,9.4 L6.1,7.35 L8.25,8.2 L8.65,7.9 C9.05,7.6 9.45,7.4 9.85,7.2 L10.35,7 L10.7,4.75 L13.2,4.75 L13.55,7 L14.05,7.2 C14.45,7.35 14.85,7.6 15.25,7.9 L15.65,8.2 L17.8,7.35 L19.05,9.4 L17.25,10.8 L17.3,11.3 L17.3,11.3 Z" id="path-1"></path>
    </defs>
    <g id="⭕-Application-/-Settings" stroke="none" stroke-width="1" fill="none" fill-rule="evenodd">
        <mask id="mask-2" fill="white">
            <use xlink:href="#path-1"></use>
        </mask>
        <use id="🎨-Icon-Color" fill="#333333" xlink:href="#path-1"></use>
    </g>
</svg>