<?xml version="1.0" encoding="UTF-8"?>
<svg width="24px" height="24px" viewBox="0 0 24 24" version="1.1" xmlns="http://www.w3.org/2000/svg" xmlns:xlink="http://www.w3.org/1999/xlink">
    <title>⭕ Object / ConnectWise Marketplace</title>
    <defs>
        <path d="M19,6.5 L16,6.5 L16,6 C16,3.8 14.2,2 12,2 C9.8,2 8,3.8 8,6 L8,6.5 L5,6.5 C4.45,6.5 4,6.95 4,7.5 L4,21 C4,21.55 4.45,22 5,22 L19,22 C19.25,22 19.5,21.9 19.7,21.7 C19.9,21.5 20,21.25 20,21 L20,7.5 C20,6.95 19.55,6.5 19,6.5 Z M10,6 C10,4.9 10.9,4 12,4 C13.1,4 14,4.9 14,6 L14,6.5 L10,6.5 L10,6 Z M18,20 L6,20 L6,8.5 L18,8.5 L18,20 Z M12.25,11 C13.35,11 14.4,11.35 15.25,12.05 C15.3,12.1 15.4,12.2 15.35,12.25 C15.35,12.3 15.2,12.35 15.15,12.35 C14.2,12.55 13.3,12.9 12.55,13.35 C12.45,13.4 12.35,13.45 12.3,13.5 C12.25,13.5 12.25,13.55 12.2,13.55 C12.15,13.55 12.15,13.55 12.1,13.5 C12.05,13.45 11.95,13.4 11.85,13.35 C11.1,12.9 10.2,12.55 9.25,12.35 C9.2,12.35 9.05,12.3 9.05,12.25 C9.05,12.2 9.1,12.1 9.15,12.05 C9.95,11.35 11.05,11 12.15,11 L12.25,11 C12.2,11 12.2,11 12.25,11 L12.25,11 Z M8.5,16.05 C8.55,16.1 8.55,16.15 8.5,16.2 C8.5,16.25 8.45,16.3 8.4,16.3 C8.3,16.35 8.15,16.4 8.05,16.4 C7.95,16.4 7.85,16.4 7.75,16.35 C7.7,16.35 7.65,16.25 7.6,16.2 C7.55,16 7.55,15.75 7.55,15.5 C7.55,14.75 7.7,14 8.05,13.35 C8.1,13.3 8.15,13.25 8.2,13.25 L8.3,13.25 C8.45,13.3 8.6,13.4 8.75,13.5 C8.8,13.55 8.85,13.6 8.85,13.65 C8.85,13.7 8.85,13.75 8.8,13.8 C8.45,14.15 8.25,14.6 8.25,15.1 C8.25,15.45 8.35,15.75 8.5,16.05 L8.5,16.05 Z M14.2,12.95 C15,12.65 15.4,12.5 16.25,12.5 C16.45,12.5 16.45,12.6 16.5,12.65 C16.5,12.65 16.5,12.65 16.5,12.7 L16.5,12.75 C16.45,12.8 16.4,12.85 16.3,12.9 L16.25,12.9 C15.25,13.25 14.6,13.8 14,14.35 C13.25,15.1 12.75,16.25 12.4,17.4 C12.35,17.5 12.25,17.55 12.15,17.55 C12.05,17.55 11.95,17.5 11.9,17.4 C11.6,16.25 11.1,15.15 10.3,14.35 C9.7,13.8 9.05,13.25 8.05,12.9 L8,12.9 C7.9,12.85 7.85,12.8 7.8,12.75 L7.8,12.7 C7.8,12.7 7.8,12.7 7.8,12.65 C7.8,12.6 7.85,12.5 8.05,12.5 C8.9,12.5 9.3,12.65 10.1,12.95 C11.05,13.3 11.7,13.7 12,13.9 C12.05,13.9 12.1,13.95 12.15,13.95 C12.2,13.95 12.25,13.95 12.25,13.9 C12.55,13.75 13.25,13.3 14.2,12.95 L14.2,12.95 Z M10.55,15.25 C10.75,15.5 10.9,15.8 11.05,16.1 C10.8,16.35 10.35,16.55 10,16.55 C9.2,16.55 8.55,15.9 8.55,15.1 C8.55,14.6 8.8,14.15 9.2,13.9 C9.4,14.05 9.65,14.25 9.85,14.45 C9.55,14.5 9.35,14.75 9.35,15.1 C9.35,15.45 9.65,15.75 10,15.75 C10.25,15.65 10.5,15.5 10.55,15.25 L10.55,15.25 Z" id="path-1"></path>
    </defs>
    <g id="⭕-Object-/-ConnectWise-Marketplace" stroke="none" stroke-width="1" fill="none" fill-rule="evenodd">
        <mask id="mask-2" fill="white">
            <use xlink:href="#path-1"></use>
        </mask>
        <use id="Color" fill="#212121" xlink:href="#path-1"></use>
    </g>
</svg>