<?xml version="1.0" encoding="UTF-8"?>
<svg width="24px" height="24px" viewBox="0 0 24 24" version="1.1" xmlns="http://www.w3.org/2000/svg" xmlns:xlink="http://www.w3.org/1999/xlink">
    <title>⭕ Object / Workspace</title>
    <defs>
        <path d="M4,11 L10,11 C10.55,11 11,10.55 11,10 L11,4 C11,3.45 10.55,3 10,3 L4,3 C3.45,3 3,3.45 3,4 L3,10 C3,10.55 3.45,11 4,11 Z M5,5 L9,5 L9,9 L5,9 L5,5 Z M21,4 C21,3.45 20.55,3 20,3 L14,3 C13.45,3 13,3.45 13,4 L13,10 C13,10.55 13.45,11 14,11 L20,11 C20.55,11 21,10.55 21,10 L21,4 Z M19,9 L15,9 L15,5 L19,5 L19,9 Z M3,20 C3,20.55 3.45,21 4,21 L10,21 C10.55,21 11,20.55 11,20 L11,14 C11,13.45 10.55,13 10,13 L4,13 C3.45,13 3,13.45 3,14 L3,20 Z M5,15 L9,15 L9,19 L5,19 L5,15 Z M21,14 C21,13.45 20.55,13 20,13 L14,13 C13.45,13 13,13.45 13,14 L13,20 C13,20.55 13.45,21 14,21 L20,21 C20.55,21 21,20.55 21,20 L21,14 Z M19,19 L15,19 L15,15 L19,15 L19,19 Z" id="path-1"></path>
    </defs>
    <g id="⭕-Object-/-Workspace" stroke="none" stroke-width="1" fill="none" fill-rule="evenodd">
        <mask id="mask-2" fill="white">
            <use xlink:href="#path-1"></use>
        </mask>
        <use id="🎨-Icon-Color" fill="#333333" xlink:href="#path-1"></use>
    </g>
</svg>